<?xml version="1.0" encoding="UTF-8"?>
<svg width="140px" height="155px" viewBox="0 0 140 155" version="1.1" xmlns="http://www.w3.org/2000/svg" xmlns:xlink="http://www.w3.org/1999/xlink">
    <!-- Generator: Sketch 52.5 (67469) - http://www.bohemiancoding.com/sketch -->
    <title>Illus/New_Facture</title>
    <desc>Created with Sketch.</desc>
    <defs>
        <rect id="path-1" x="0" y="0" width="61.2000024" height="76.8000031"></rect>
        <filter x="-9.0%" y="-7.2%" width="121.2%" height="116.9%" filterUnits="objectBoundingBox" id="filter-2">
            <feOffset dx="1" dy="1" in="SourceAlpha" result="shadowOffsetOuter1"></feOffset>
            <feGaussianBlur stdDeviation="2" in="shadowOffsetOuter1" result="shadowBlurOuter1"></feGaussianBlur>
            <feColorMatrix values="0 0 0 0 0   0 0 0 0 0   0 0 0 0 0  0 0 0 0.1 0" type="matrix" in="shadowBlurOuter1"></feColorMatrix>
        </filter>
        <rect id="path-3" x="0" y="0" width="51.7846174" height="12.538776"></rect>
        <linearGradient x1="0%" y1="66.1351562%" x2="100%" y2="66.1351536%" id="linearGradient-5">
            <stop stop-color="#FF7960" offset="0%"></stop>
            <stop stop-color="#FF905E" offset="100%"></stop>
        </linearGradient>
        <filter x="-16.9%" y="-22.9%" width="133.8%" height="145.7%" filterUnits="objectBoundingBox" id="filter-6">
            <feGaussianBlur stdDeviation="2.4000001" in="SourceGraphic"></feGaussianBlur>
        </filter>
        <path d="M15.6000006,26.400001 C21.5646762,26.400001 26.400001,21.5646762 26.400001,15.6000006 C26.400001,9.63532509 21.5646762,4.80000019 15.6000006,4.80000019 C9.63532509,4.80000019 4.80000019,9.63532509 4.80000019,15.6000006 C4.80000019,21.5646762 9.63532509,26.400001 15.6000006,26.400001 Z" id="path-7"></path>
        <filter x="-4.6%" y="-4.6%" width="109.3%" height="109.3%" filterUnits="objectBoundingBox" id="filter-8">
            <feOffset dx="2" dy="2" in="SourceAlpha" result="shadowOffsetInner1"></feOffset>
            <feComposite in="shadowOffsetInner1" in2="SourceAlpha" operator="arithmetic" k2="-1" k3="1" result="shadowInnerInner1"></feComposite>
            <feColorMatrix values="0 0 0 0 0   0 0 0 0 0   0 0 0 0 0  0 0 0 0.3 0" type="matrix" in="shadowInnerInner1"></feColorMatrix>
        </filter>
        <linearGradient x1="0%" y1="100%" x2="67.8131103%" y2="38.4752499%" id="linearGradient-9">
            <stop stop-color="#000000" offset="0%"></stop>
            <stop stop-color="#000000" stop-opacity="0" offset="100%"></stop>
        </linearGradient>
        <filter x="-14.0%" y="-18.7%" width="128.0%" height="137.3%" filterUnits="objectBoundingBox" id="filter-10">
            <feGaussianBlur stdDeviation="2.88000023" in="SourceGraphic"></feGaussianBlur>
        </filter>
        <polygon id="path-11" points="0 7.14893645 4.304348 0.565694035 8.60869599 7.14893645 8.60869599 67.2000027 5.7206001 68.62979 2.8352572 68.62979 0 67.2000027"></polygon>
        <polygon id="path-13" points="0 0 2.84210753 1.45650531 5.72540176 1.45650531 8.60869599 0 8.60869599 61.4808535 0 61.4808535"></polygon>
    </defs>
    <g id="Symbols" stroke="none" stroke-width="1" fill="none" fill-rule="evenodd">
        <g id="Widget/Facture_EmptyState" transform="translate(-98.000000, -30.000000)">
            <g id="Illus/New_Facture">
                <g transform="translate(98.000000, 30.000000)">
                    <g>
                        <circle id="Base_Illus" fill="#F5F6FA" cx="69.6000028" cy="69.6000028" r="69.6000028"></circle>
                        <g id="Illus/Facture" transform="translate(10.800000, 57.600002)">
                            <g transform="translate(41.434687, 46.270301) rotate(-19.000000) translate(-41.434687, -46.270301) translate(10.834686, 7.870299)">
                                <g id="Rectangle-2" fill-rule="nonzero">
                                    <use fill="black" fill-opacity="1" filter="url(#filter-2)" xlink:href="#path-1"></use>
                                    <use fill="#FFFFFF" xlink:href="#path-1"></use>
                                </g>
                                <path d="M53.3538483,32.524664 C53.1573703,32.6427322 52.9182395,32.7371853 52.6364487,32.8080262 C52.3546579,32.8788671 52.1000159,32.914287 51.8725151,32.914287 C51.2727401,32.914287 50.7712117,32.7430908 50.3679148,32.4006931 C49.9646179,32.0582954 49.6828313,31.5919332 49.5225466,31.0015924 L48.7392238,31.0015924 L48.6461558,30.1515059 L49.3829446,30.1515059 C49.3726036,29.9980173 49.3674332,29.8829025 49.3674332,29.8061582 C49.3674332,29.7235105 49.3726036,29.5995408 49.3829446,29.4342454 L48.7392238,29.4342454 L48.6461558,28.5841589 L49.5303023,28.5841589 C49.7060984,27.9820112 50.0021036,27.5082699 50.4183267,27.1629205 C50.8345498,26.8175711 51.3322004,26.644899 51.9112934,26.644899 C52.0974304,26.644899 52.3249279,26.6773673 52.5937925,26.7423048 C52.8626571,26.8072423 53.1004953,26.904647 53.3073142,27.034522 L52.9970874,27.8580433 L52.8031956,27.7960578 C52.6015471,27.7252169 52.4412649,27.6765145 52.322344,27.6499492 C52.2034231,27.6233839 52.0560668,27.6101014 51.8802707,27.6101014 C51.6062356,27.6101014 51.3606418,27.6956995 51.1434819,27.8668984 C50.9263221,28.0380972 50.7531138,28.2771816 50.623852,28.5841589 L52.1051852,28.5841589 L52.1827419,29.4342454 L50.4299602,29.4342454 C50.4196192,29.587734 50.4144488,29.708752 50.4144488,29.7973032 C50.4144488,29.8799509 50.4196192,29.9980173 50.4299602,30.1515059 L52.1051852,30.1515059 L52.1827419,31.0015924 L50.623852,31.0015924 C50.7427729,31.2967628 50.9043477,31.5284681 51.1085814,31.6967152 C51.3128151,31.8649623 51.5493607,31.9490846 51.8182254,31.9490846 C52.2008404,31.9490846 52.5860349,31.8575832 52.9738204,31.6745775 L53.3538483,32.524664 Z" id="€" fill="#C0C0C0"></path>
                                <path d="M53.3538483,43.496093 C53.1573703,43.6141612 52.9182395,43.7086143 52.6364487,43.7794552 C52.3546579,43.8502961 52.1000159,43.885716 51.8725151,43.885716 C51.2727401,43.885716 50.7712117,43.7145198 50.3679148,43.3721221 C49.9646179,43.0297244 49.6828313,42.5633622 49.5225466,41.9730214 L48.7392238,41.9730214 L48.6461558,41.1229349 L49.3829446,41.1229349 C49.3726036,40.9694463 49.3674332,40.8543315 49.3674332,40.7775872 C49.3674332,40.6949395 49.3726036,40.5709698 49.3829446,40.4056744 L48.7392238,40.4056744 L48.6461558,39.5555879 L49.5303023,39.5555879 C49.7060984,38.9534403 50.0021036,38.4796989 50.4183267,38.1343495 C50.8345498,37.7890001 51.3322004,37.616328 51.9112934,37.616328 C52.0974304,37.616328 52.3249279,37.6487963 52.5937925,37.7137338 C52.8626571,37.7786713 53.1004953,37.876076 53.3073142,38.005951 L52.9970874,38.8294723 L52.8031956,38.7674868 C52.6015471,38.6966459 52.4412649,38.6479436 52.322344,38.6213782 C52.2034231,38.5948129 52.0560668,38.5815304 51.8802707,38.5815304 C51.6062356,38.5815304 51.3606418,38.6671285 51.1434819,38.8383274 C50.9263221,39.0095262 50.7531138,39.2486107 50.623852,39.5555879 L52.1051852,39.5555879 L52.1827419,40.4056744 L50.4299602,40.4056744 C50.4196192,40.559163 50.4144488,40.680181 50.4144488,40.7687322 C50.4144488,40.8513799 50.4196192,40.9694463 50.4299602,41.1229349 L52.1051852,41.1229349 L52.1827419,41.9730214 L50.623852,41.9730214 C50.7427729,42.2681918 50.9043477,42.4998971 51.1085814,42.6681442 C51.3128151,42.8363913 51.5493607,42.9205136 51.8182254,42.9205136 C52.2008404,42.9205136 52.5860349,42.8290122 52.9738204,42.6460065 L53.3538483,43.496093 Z" id="€-copy" fill="#C0C0C0"></path>
                                <path d="M53.3538483,56.0348691 C53.1573703,56.1529372 52.9182395,56.2473903 52.6364487,56.3182312 C52.3546579,56.3890721 52.1000159,56.424492 51.8725151,56.424492 C51.2727401,56.424492 50.7712117,56.2532958 50.3679148,55.9108981 C49.9646179,55.5685004 49.6828313,55.1021382 49.5225466,54.5117974 L48.7392238,54.5117974 L48.6461558,53.6617109 L49.3829446,53.6617109 C49.3726036,53.5082223 49.3674332,53.3931075 49.3674332,53.3163632 C49.3674332,53.2337155 49.3726036,53.1097458 49.3829446,52.9444504 L48.7392238,52.9444504 L48.6461558,52.0943639 L49.5303023,52.0943639 C49.7060984,51.4922163 50.0021036,51.0184749 50.4183267,50.6731255 C50.8345498,50.3277761 51.3322004,50.155104 51.9112934,50.155104 C52.0974304,50.155104 52.3249279,50.1875723 52.5937925,50.2525098 C52.8626571,50.3174473 53.1004953,50.414852 53.3073142,50.544727 L52.9970874,51.3682483 L52.8031956,51.3062628 C52.6015471,51.235422 52.4412649,51.1867196 52.322344,51.1601542 C52.2034231,51.1335889 52.0560668,51.1203064 51.8802707,51.1203064 C51.6062356,51.1203064 51.3606418,51.2059046 51.1434819,51.3771034 C50.9263221,51.5483022 50.7531138,51.7873867 50.623852,52.0943639 L52.1051852,52.0943639 L52.1827419,52.9444504 L50.4299602,52.9444504 C50.4196192,53.097939 50.4144488,53.2189571 50.4144488,53.3075082 C50.4144488,53.3901559 50.4196192,53.5082223 50.4299602,53.6617109 L52.1051852,53.6617109 L52.1827419,54.5117974 L50.623852,54.5117974 C50.7427729,54.8069678 50.9043477,55.0386731 51.1085814,55.2069202 C51.3128151,55.3751673 51.5493607,55.4592896 51.8182254,55.4592896 C52.2008404,55.4592896 52.5860349,55.3677882 52.9738204,55.1847825 L53.3538483,56.0348691 Z" id="€-copy-2" fill="#C0C0C0"></path>
                                <g id="Colors/Orange_Gradient" transform="translate(4.707692, 6.269388)">
                                    <mask id="mask-4" fill="white">
                                        <use xlink:href="#path-3"></use>
                                    </mask>
                                    <use id="Mask" fill="#FFFFFF" fill-rule="nonzero" xlink:href="#path-3"></use>
                                    <g id="Colors/Gradient/Orange_Gradient" mask="url(#mask-4)" fill="url(#linearGradient-5)">
                                        <rect id="Rectangle" x="0" y="0" width="52.3354888" height="13.0838722"></rect>
                                    </g>
                                </g>
                                <polygon id="Path-2" fill="#C0C0C0" fill-rule="nonzero" points="9.66546597 31.7461649 7.5042665 30.7011511 8.18804181 29.2904244 9.52763306 29.9381626 11.8741836 28.3248932 13.8138098 29.8033993 15.6613722 27.9586195 18.5483846 29.8996782 21.8675447 27.7013311 27.1088997 29.9324765 30.3618289 27.2019071 33.6085333 29.7577814 32.6371606 30.9887467 30.393621 29.2225849 27.3805046 31.751851 22.0301163 29.4742923 18.5418389 31.7846493 15.8569942 29.9795164 13.9527142 31.8809283 11.82667 30.2603225"></polygon>
                                <polygon id="Path-2-Copy" fill="#C0C0C0" fill-rule="nonzero" points="9.66546597 42.7175939 7.5042665 41.6725801 8.18804181 40.2618534 9.52763306 40.9095916 11.8741836 39.2963222 13.8138098 40.7748283 15.6613722 38.9300485 18.5483846 40.8711072 21.8675447 38.6727601 27.1088997 40.9039055 30.3618289 38.1733361 33.6085333 40.7292104 32.6371606 41.9601757 30.393621 40.194014 27.3805046 42.72328 22.0301163 40.4457213 18.5418389 42.7560783 15.8569942 40.9509454 13.9527142 42.8523573 11.82667 41.2317515"></polygon>
                                <polygon id="Path-2-Copy-2" fill="#C0C0C0" fill-rule="nonzero" points="9.66546597 55.25637 7.5042665 54.2113561 8.18804181 52.8006294 9.52763306 53.4483676 11.8741836 51.8350982 13.8138098 53.3136043 15.6613722 51.4688245 18.5483846 53.4098832 21.8675447 51.2115361 27.1088997 53.4426815 30.3618289 50.7121121 33.6085333 53.2679864 32.6371606 54.4989517 30.393621 52.73279 27.3805046 55.262056 22.0301163 52.9844973 18.5418389 55.2948543 15.8569942 53.4897214 13.9527142 55.3911333 11.82667 53.7705276"></polygon>
                                <polygon id="Path-2-Copy-3" fill="#9B9B9B" fill-rule="nonzero" points="42.869332 71.8539224 41.3895019 71.3324492 43.9973606 63.9496595 46.259529 70.4221866 49.5146056 68.4544669 51.6594308 70.3185045 52.4491464 68.6239848 53.8718024 69.2854099 52.2022305 72.8678671 49.3479631 70.3872633 45.4159689 72.7641849 43.9894977 68.6827584"></polygon>
                            </g>
                        </g>
                        <g id="Illus/Coffee" transform="translate(10.800000, 21.600001)">
                            <g>
                                <path d="M41.7073694,23.1988658 C42.3249198,23.4763637 42.6850195,24.1052077 42.5521163,24.6740521 L41.7040127,28.3040577 C41.5565798,28.9350918 40.8591039,29.2673783 40.1461568,29.0462404 C40.0853058,29.027366 40.0254208,29.0047069 39.9669496,28.9784328 L32.8748134,25.7915626 C30.2447277,31.0107926 24.1881228,34.1491617 17.1368332,33.2894263 C7.67242157,32.1354687 0,24.2156431 0,15.6000006 C0,6.98435818 7.67242157,0.93546747 17.1368332,2.08942507 C26.6012448,3.24338268 34.2736664,11.1632083 34.2736664,19.7788508 C34.2736664,19.7965477 36.7515674,20.9365527 41.7073694,23.1988658 Z" id="Combined-Shape" fill-opacity="0.15" fill="#000000" fill-rule="nonzero" filter="url(#filter-6)"></path>
                                <path d="M31.199802,15.6795899 L37.9670491,18.1136542 C38.5292176,18.3158566 38.8570235,18.9007951 38.7360391,19.4858438 L37.9639935,23.2192553 C37.8297823,23.8682653 37.1948562,24.2855922 36.5458462,24.1513811 C36.4904524,24.139926 36.4359378,24.1245685 36.3827104,24.1054235 L29.9265975,21.783269 C27.5323781,27.3231747 22.01893,31.2000012 15.6000006,31.2000012 C6.98435818,31.2000012 0,24.2156431 0,15.6000006 C0,6.98435818 6.98435818,0 15.6000006,0 C24.2156431,0 31.2000012,6.98435818 31.2000012,15.6000006 C31.2000012,15.626546 31.1999349,15.6530758 31.1998025,15.67959 Z" id="Combined-Shape-Copy" fill="#FFFFFF" fill-rule="nonzero"></path>
                                <g id="Path" fill-rule="nonzero">
                                    <use fill="#DF8E46" xlink:href="#path-7"></use>
                                    <use fill="black" fill-opacity="1" filter="url(#filter-8)" xlink:href="#path-7"></use>
                                </g>
                            </g>
                        </g>
                        <circle id="Spot2" fill-opacity="0.6" fill="#DB863A" fill-rule="nonzero" cx="26.400001" cy="57.6000023" r="2.4000001"></circle>
                        <circle id="Spot" fill-opacity="0.6" fill="#DB863A" fill-rule="nonzero" cx="31.2000012" cy="60.0000024" r="1.20000005"></circle>
                        <g id="Illus/Crayon" transform="translate(81.600003, 58.800002)">
                            <g id="Ilus/Crayon">
                                <polygon id="Shadow" fill-opacity="0.3" fill="url(#linearGradient-9)" fill-rule="nonzero" filter="url(#filter-10)" points="3.56009981 60.2042859 50.0424501 18.4423431 65.2078794 34.726332 4.85616579 64.7120911"></polygon>
                                <g id="IllusCrayon" transform="translate(18.453833, 34.112619) rotate(-155.000000) translate(-18.453833, -34.112619) translate(14.149485, -0.202276)">
                                    <mask id="mask-12" fill="white">
                                        <use xlink:href="#path-11"></use>
                                    </mask>
                                    <use id="Base" fill="#FFE8C1" fill-rule="nonzero" xlink:href="#path-11"></use>
                                    <g id="Color" mask="url(#mask-12)">
                                        <g transform="translate(0.000000, 7.148936)">
                                            <mask id="mask-14" fill="white">
                                                <use xlink:href="#path-13"></use>
                                            </mask>
                                            <use id="Mask" stroke="none" fill="#FFFFFF" fill-rule="nonzero" xlink:href="#path-13"></use>
                                            <g id="Colors/Gradient/Orange_Gradient" stroke="none" fill="none" mask="url(#mask-14)" fill-rule="evenodd">
                                                <rect id="Rectangle" fill="url(#linearGradient-5)" x="0" y="0" width="8.93793174" height="60.5793152"></rect>
                                            </g>
                                            <rect id="Row" stroke="none" fill-opacity="0" fill="#000000" fill-rule="nonzero" mask="url(#mask-14)" x="0" y="0" width="2.86956533" height="62.9106408"></rect>
                                            <rect id="Row" stroke="none" fill-opacity="0.1" fill="#000000" fill-rule="nonzero" mask="url(#mask-14)" x="2.86956533" y="0" width="2.86956533" height="62.9106408"></rect>
                                            <rect id="Row" stroke="none" fill-opacity="0.2" fill="#000000" fill-rule="nonzero" mask="url(#mask-14)" x="5.73913066" y="0" width="2.86956533" height="62.9106408"></rect>
                                        </g>
                                    </g>
                                    <ellipse id="Mine" fill="#0D1B2A" fill-rule="nonzero" mask="url(#mask-12)" cx="4.304348" cy="0" rx="2.86956533" ry="2.85957458"></ellipse>
                                </g>
                            </g>
                        </g>
                    </g>
                </g>
            </g>
        </g>
    </g>
</svg>