<?xml version="1.0" encoding="UTF-8"?>
<svg width="479px" height="334px" viewBox="0 0 479 334" version="1.1" xmlns="http://www.w3.org/2000/svg" xmlns:xlink="http://www.w3.org/1999/xlink">
    <!-- Generator: Sketch 52.5 (67469) - http://www.bohemiancoding.com/sketch -->
    <title>undraw_interview_rmcf (1)</title>
    <desc>Created with Sketch.</desc>
    <g id="Settings" stroke="none" stroke-width="1" fill="none" fill-rule="evenodd">
        <g id="06_14_KYC_AddBeneficiaryDONE" transform="translate(-445.000000, -369.000000)">
            <g id="CONTENT" transform="translate(419.000000, 237.000000)">
                <g id="undraw_interview_rmcf-(1)" transform="translate(26.000000, 132.000000)">
                    <path d="M203.7797,12.8347883 C184.308772,5.45527374 163.733299,-0.708998598 142.729262,0.0659384962 C111.84617,1.20192583 82.2001689,18.519128 67.682023,43.9467514 C55.3641316,65.4908833 53.844277,90.7423846 48.5380405,114.650955 C42.0079676,144.102968 29.4780035,172.101973 16.0997485,199.475746 C8.91578462,214.181938 1.33418437,229.205151 0.154529784,245.324723 C-1.48019754,267.705434 9.99382102,290.006891 27.9890762,304.893609 C45.9843313,319.780326 69.8822776,327.635371 93.8685875,329.348158 C106.632715,330.259589 119.971207,329.414203 131.308261,323.875164 C143.303626,318.014703 152.047208,307.425363 164.091172,301.64856 C175.251499,296.294449 188.307227,295.54593 200.837191,296.241612 C217.197039,297.149694 233.346781,300.351387 248.809811,305.752204 C266.323484,311.881252 282.608903,320.762207 300.060722,326.979316 C317.51254,333.196425 337.058577,336.66603 354.916869,331.479235 C371.70596,326.605057 384.960506,314.769654 396.911689,302.784547 C416.453572,283.222585 434.365124,262.107736 450.46889,239.649189 C461.253673,224.586349 471.291782,208.695736 476.059,191.140769 C485.178128,157.576306 472.630491,119.710062 444.800363,96.7877746 C421.741871,77.7974127 390.796925,69.5549 360.505869,64.5530333 C332.883396,59.9914717 300.944358,59.7096764 275.517721,47.8214369 C251.270738,36.4703697 229.206337,22.4774715 203.7797,12.8347883 Z" id="Path" fill="#FFFFFF" opacity="0.1"></path>
                    <polygon id="Path" fill="#AAABB0" points="280 272.163846 280 288 284 288 283.225557 271"></polygon>
                    <polygon id="Path" fill="#AAABB0" points="211 270.163846 211 286 215 286 214.226306 269"></polygon>
                    <rect id="Rectangle" fill="#AAABB0" x="284" y="243" width="6" height="28" rx="3"></rect>
                    <rect id="Rectangle" fill="#AAABB0" x="209" y="237" width="6" height="34" rx="3"></rect>
                    <path d="M298,72.1015912 C298,72.1015912 303.817785,69.623011 304.690671,72.1015912 C305.563557,74.5801714 306,96 306,96 L300.470267,96 L298,72.1015912 Z" id="Path" fill="#AAABB0"></path>
                    <path d="M234,72.1015912 C234,72.1015912 228.181025,69.623011 227.308615,72.1015912 C226.436205,74.5801714 226,96 226,96 L231.526718,96 L234,72.1015912 Z" id="Path" fill="#AAABB0"></path>
                    <polygon id="Path" fill="#AAABB0" points="234.888889 50.4559635 234 69 238 69 238 50"></polygon>
                    <path d="M231,96 L232.185387,70.2804955 C232.185387,70.2804955 231.741422,64.5816109 245.797362,66.3351139 C259.853301,68.0886168 301,71.5956227 301,71.5956227 L301,96 L231,96 Z" id="Path" fill="#33323D"></path>
                    <path d="M287,232.17851 L284.818812,271.753499 C284.818812,271.753499 252.825146,289.704813 214,272.636278 L217.489901,231 L287,232.17851 Z" id="Path" fill="#33323D"></path>
                    <polygon id="Path" fill="#444053" points="257 77.276024 257.727238 103 303 103 300.371429 69"></polygon>
                    <rect id="Rectangle" fill="#4C4981" x="218" y="216" width="43" height="54"></rect>
                    <path d="M245.015634,237.465158 C245.015634,237.465158 250.885113,232.871612 251.861962,234.262204 C252.838811,235.652795 248.373814,241.641109 246.554276,240.943725 C244.734737,240.246341 245.015634,237.465158 245.015634,237.465158 Z" id="Path" fill="#FFB9B9"></path>
                    <rect id="Rectangle" fill="#504F60" x="135" y="96" width="282" height="140"></rect>
                    <path d="M230.977479,49.660926 C230.977479,49.660926 228.778152,29.1925662 230.977479,26.7102239 C233.176806,24.2278815 270.125497,0.685101317 304.289841,28.3154134 C304.289841,28.3154134 307.514054,28.4645294 306.929033,35.7712119 C306.584223,40.3956926 306.607756,45.040155 306.999412,49.660926 C306.999412,49.660926 233.471515,54.9238426 230.977479,49.660926 Z" id="Path" fill="#33323D"></path>
                    <path d="M230.977479,49.660926 C230.977479,49.660926 228.778152,29.1925662 230.977479,26.7102239 C233.176806,24.2278815 270.125497,0.685101317 304.289841,28.3154134 C304.289841,28.3154134 307.514054,28.4645294 306.929033,35.7712119 C306.584223,40.3956926 306.607756,45.040155 306.999412,49.660926 C306.999412,49.660926 233.471515,54.9238426 230.977479,49.660926 Z" id="Path" fill="#000000" opacity="0.1"></path>
                    <path d="M230.977479,52.660926 C230.977479,52.660926 228.778152,32.1925662 230.977479,29.7102239 C233.176806,27.2278815 270.125497,3.68510132 304.289841,31.3154134 C304.289841,31.3154134 307.514054,31.4645294 306.929033,38.7712119 C306.584223,43.3956926 306.607756,48.040155 306.999412,52.660926 C306.999412,52.660926 233.471515,57.9238426 230.977479,52.660926 Z" id="Path" fill="#33323D"></path>
                    <path d="M309.242466,43 C309.242466,43 311.589994,51.8390277 310.858869,53.3107258 C310.127744,54.7824239 310.259875,58.9102499 310.259875,58.9102499 C310.259875,58.9102499 310.418432,61.5619582 309.242466,61.8536461 C308.066501,62.145334 307.040283,62.2955975 307.991627,63.1795003 C308.94297,64.063403 307.991627,65.3892572 307.991627,65.3892572 C307.991627,65.3892572 307.476316,67.4531702 307.991627,68.7790243 C308.506937,70.1048785 304.97904,70.6573177 305.278537,72.3146354 C305.578034,73.9719531 306.564612,78.6477987 305.278537,78.7980622 C303.992462,78.9483257 305.718974,84.6892742 304.560625,84.6892742 C303.402277,84.6892742 302.578661,95 302.578661,95 C302.578661,95 294.430583,88.0790413 289,89.9926908 C289,89.9926908 289.440437,84.2473228 291.202183,82.1834098 C292.963929,80.1194969 292.431001,74.8204997 292.431001,74.8204997 L301.169263,48.4492606 L309.242466,43 Z" id="Path" fill="#4C4981"></path>
                    <path d="M264.945152,164.732023 C263.057112,166.880078 261.020819,155.408835 261.020819,155.408835 C261.020819,155.408835 255.644482,163.032413 252.156186,157.951523 C249.740541,154.431223 251.646023,144.457789 253.02826,138.668355 C253.647433,136.094276 254.170677,134.345337 254.170677,134.345337 L262.019343,133 C262.019343,133 262.045506,134.757907 262.21992,136.892509 C262.45538,139.776016 262.965544,143.354613 264.051276,144.211144 C265.965478,145.6955 266.837553,162.56603 264.945152,164.732023 Z" id="Path" fill="#AE6E79"></path>
                    <path d="M261.080638,33.1166582 C261.080638,33.1166582 247.289921,32.9710629 243.919248,40.3214182 C240.548575,47.6717735 240.398963,50.1777769 239.078856,51.3513631 C237.758749,52.5249492 253.45042,58.7061303 253.45042,58.7061303 L254.185279,84 C254.185279,84 257.265529,80.8719076 262.251133,82.2881526 C267.236737,83.7043975 273.546848,82.2881526 273.546848,82.2881526 C273.546848,82.2881526 273.252024,81.7543032 277.361957,82.2881526 C281.47189,82.8220019 294.523347,75.9128444 294.523347,75.9128444 C294.523347,75.9128444 294.738965,64.8476037 294.448541,62.4916074 C294.158118,60.1356112 303.759696,42.8230097 303.759696,42.8230097 C303.759696,42.8230097 311.240302,35.6182497 303.469272,33.1166582 C303.469272,33.1166582 300.719049,28.9605749 293.643276,29.0002827 C286.567503,29.0399905 261.080638,33.1166582 261.080638,33.1166582 Z" id="Path" fill="#000000" opacity="0.1"></path>
                    <path d="M261.152754,32.1166582 C261.152754,32.1166582 247.316996,31.9710629 243.935314,39.3214182 C240.553632,46.6717735 240.403532,49.1777769 239.079113,50.3513631 C237.754695,51.5249492 253.497615,57.7061303 253.497615,57.7061303 L254.234875,83 C254.234875,83 257.325184,79.8719076 262.327071,81.2881526 C267.328958,82.7043975 273.659678,81.2881526 273.659678,81.2881526 C273.659678,81.2881526 273.363891,80.7543032 277.487247,81.2881526 C281.610603,81.8220019 294.704687,74.9128444 294.704687,74.9128444 C294.704687,74.9128444 299.85226,66.5300863 299.560888,64.178502 C299.269516,61.8269178 309.860448,44.0289987 309.860448,44.0289987 C309.860448,44.0289987 311.480654,34.6182497 303.679829,32.1166582 C303.679829,32.1166582 300.920624,27.9605749 293.821741,28.0002827 C286.722859,28.0399905 261.152754,32.1166582 261.152754,32.1166582 Z" id="Path" fill="#4C4981"></path>
                    <path d="M263,137.417722 C259.740987,136.571203 254.627135,138.438291 253,139 C253.673624,136.72943 254.242884,135.186709 254.242884,135.186709 L262.781784,134 C262.781784,134 262.796015,135.550633 263,137.417722 Z" id="Path" fill="#000000" opacity="0.1"></path>
                    <path d="M242.711033,51 L238.396969,51 C238.396969,51 237.503788,59.9330738 238.396969,62.5681988 C239.29015,65.2033239 239.736741,64.8212307 239.437525,66.7712232 C239.138309,68.7212158 241.523102,71.7076908 241.523102,71.7076908 C241.523102,71.7076908 241.817852,79.0684733 243.309464,81.8090033 C244.801076,84.5495334 241.670477,96.8379997 241.670477,96.8379997 C242.524339,98.9593491 243.787598,100.898141 245.390576,102.547437 C247.922744,105.033239 249.262515,114.256176 248.516709,117.769676 C247.770903,121.283176 250.602286,122.600739 250.602286,122.600739 C250.602286,122.600739 251.794683,139 252.241273,139 C252.687864,139 261.320457,134.608125 264,138.411489 L261.914423,123.334182 L262.066263,94.2028747 C262.066263,94.2028747 259.23488,90.5400509 260.726492,87.3208065 C262.218104,84.1015621 259.534095,76.4860508 259.534095,76.4860508 L255.662156,59.5070619 L242.711033,51 Z" id="Path" fill="#4C4981"></path>
                    <path d="M216.267816,282.603532 C216.267816,282.603532 210.044602,281.245585 209.897911,282.603532 C209.751221,283.961478 202.487841,297.844218 211.529283,301.918057 C220.570724,305.991897 244.716796,314.741598 283.985279,303.425378 C283.985279,303.425378 286.501235,304.330675 285.91003,298.749515 C285.318825,293.168355 285.318825,286.980646 285.318825,286.980646 C285.318825,286.980646 279.38899,285.319425 274.943837,285.925974 C270.498684,286.532524 231.825852,294.526302 216.267816,282.603532 Z" id="Path" fill="#33323D"></path>
                    <path d="M216.267816,282.603532 C216.267816,282.603532 210.044602,281.245585 209.897911,282.603532 C209.751221,283.961478 202.487841,297.844218 211.529283,301.918057 C220.570724,305.991897 244.716796,314.741598 283.985279,303.425378 C283.985279,303.425378 286.501235,304.330675 285.91003,298.749515 C285.318825,293.168355 285.318825,286.980646 285.318825,286.980646 C285.318825,286.980646 279.38899,285.319425 274.943837,285.925974 C270.498684,286.532524 231.825852,294.526302 216.267816,282.603532 Z" id="Path" fill="#000000" opacity="0.1"></path>
                    <path d="M216.267816,280.603532 C216.267816,280.603532 210.044602,279.245585 209.897911,280.603532 C209.751221,281.961478 202.487841,295.844218 211.529283,299.918057 C220.570724,303.991897 244.716796,312.741598 283.985279,301.425378 C283.985279,301.425378 286.501235,302.330675 285.91003,296.749515 C285.318825,291.168355 285.318825,284.980646 285.318825,284.980646 C285.318825,284.980646 279.38899,283.319425 274.943837,283.925974 C270.498684,284.532524 231.825852,292.526302 216.267816,280.603532 Z" id="Path" fill="#33323D"></path>
                    <path d="M253.366301,55.87441 C252.992139,58.0123425 252.143749,60.067206 252.013228,62.2313708 C251.882706,64.3955356 252.713693,66.8569998 254.701971,67.7051775 C255.256727,67.8717431 255.794323,68.0913494 256.307386,68.360985 C257.073112,68.8812589 257.386363,69.8605981 257.54734,70.7787287 C257.761004,71.9640808 257.812237,73.1732406 257.699615,74.3725538 C257.590847,75.5792396 257.334155,76.8777385 257.925852,77.9314025 C258.965674,79.7982679 261.67617,79.5228288 263.73841,78.9981828 L263.029244,84.520082 C262.972684,84.957287 262.937878,85.4513286 263.255481,85.748628 C263.558601,85.9632387 263.935322,86.0452619 264.299653,85.9759746 C266.092148,85.8623013 267.936852,85.6130945 269.472656,84.6643596 C271.008459,83.7156248 272.152697,81.9493165 271.861199,80.1698922 C271.521843,78.1062845 269.398693,76.4667658 269.685841,74.394414 C269.907727,72.7898717 271.469635,71.771184 272.496404,70.5382659 C274.35416,68.2822881 274.454227,64.8546008 272.996736,62.3013236 C271.539246,59.7480464 268.724332,58.1653642 265.826755,57.8768089 C264.22134,57.7150431 262.550665,57.9117853 261.040966,57.3521629 C259.976176,56.9596743 259.15526,56.0894421 258.8221,55" id="Path" fill="#444053"></path>
                    <path d="M201,252.219401 L202.546386,248.760719 C202.546386,248.760719 210.894212,240.773892 212.812794,240.214132 C214.731376,239.654371 222.560786,237.21509 223.743838,237.21509 C224.92689,237.21509 246.492107,236 246.492107,236 L249,242.070898 L221.936029,248.173653 L212.812794,255 L201,252.219401 Z" id="Path" fill="#767D9F"></path>
                    <path d="M266,161.499975 L264.605267,172.070131 L264.067486,176.138888 L257.802117,177 C257.802117,177 257.124426,175.570553 256.166913,173.374716 C253.259397,166.709706 247.785398,152.96635 250.959618,150.593985 C255.178795,147.433702 256.206263,157.913442 256.206263,157.913442 L261.015687,155.614271 L266,161.499975 Z" id="Path" fill="#FFB9B9"></path>
                    <rect id="Rectangle" fill="#FFFFFF" x="233" y="182" width="32" height="48"></rect>
                    <rect id="Rectangle" fill="#000000" opacity="0.1" x="233" y="182" width="32" height="48"></rect>
                    <polygon id="Rectangle" fill="#FFFFFF" transform="translate(260.100103, 205.669429) rotate(8.410000) translate(-260.100103, -205.669429) " points="244.134674 181.620176 276.08976 181.604139 276.065532 229.718683 244.110446 229.73472"></polygon>
                    <polygon id="Rectangle" fill="#FFFFFF" transform="translate(257.118664, 197.529206) rotate(8.410000) translate(-257.118664, -197.529206) " points="248.901001 185.151529 265.348797 185.143274 265.336327 209.906883 248.888532 209.915138"></polygon>
                    <polygon id="Rectangle" fill="#FFFFFF" transform="translate(254.883577, 219.661267) rotate(8.410000) translate(-254.883577, -219.661267) " points="244.92132 216.977345 264.848542 216.967345 264.845834 222.345189 244.918612 222.35519"></polygon>
                    <circle id="Oval" fill="#000000" opacity="0.1" cx="273.5" cy="41.5" r="18.5"></circle>
                    <circle id="Oval" fill="#AE6E79" cx="273.5" cy="41.5" r="18.5"></circle>
                    <path d="M258.51237,55.1683969 C258.38668,54.696825 258.432038,54.1965294 258.64054,53.7546717 C259.343269,52.3059316 261.34538,52.1790027 262.967401,52.2534093 C266.781578,52.4284837 270.967009,52.450368 273.950288,50.0649802 C275.187797,49.084564 276.571155,46.6203928 278.369962,47.0887166 C279.969883,47.5045181 280.637254,49.6535555 282.303471,50.1306331 C283.510041,50.4764049 284.760809,49.9249207 285.989478,49.6929473 C287.757347,49.3471755 289.569413,49.6360481 291.363801,49.6491787 C293.158188,49.6623092 295.107264,49.3252912 296.331513,48.0253643 C297.984471,46.274621 297.714871,43.5390846 297.569022,41.1405662 C297.387736,38.0423 297.600068,34.9337517 298.201035,31.8878879 C298.802111,28.859102 299.725822,25.4714137 298.037507,22.8759367 C296.428746,20.4030118 293.096313,19.7245988 290.820181,17.8294192 C288.689898,16.0786759 287.562882,13.2731097 285.313268,11.6492953 C282.480258,9.60530251 278.630722,9.89855201 275.14802,10.2530775 L267.590379,11.0496657 C265.641303,11.2553781 263.612673,11.4873516 262.008331,12.6384653 C259.113446,14.7130961 258.715675,19.0243015 255.975478,21.2958909 C254.755648,22.3025683 253.195503,22.8015301 251.803306,23.5543498 C250.411109,24.3071694 249.067528,25.4976748 248.90842,27.0558364 C248.77583,28.3688938 249.491817,29.5812836 249.840971,30.8461956 C250.66745,33.8662278 249.376906,36.9737972 248.550427,40.0157137 C247.723948,43.0576301 247.56484,46.7516985 249.964722,48.7694302 C250.450886,49.1808548 251.016604,49.4959886 251.489509,49.9249207 C253.111529,51.3911683 253.332513,53.8640932 252.956841,56" id="Path" fill="#444053"></path>
                    <ellipse id="Oval" fill="#444053" cx="274.5" cy="64" rx="1" ry="1"></ellipse>
                    <ellipse id="Oval" fill="#444053" cx="274.5" cy="68" rx="1" ry="1"></ellipse>
                    <path d="M265.081376,164.693227 C265.530201,164.131627 265.82802,162.688817 266,160.784857 L261,154 C261,154 263.118289,167.154221 265.081376,164.693227 Z" id="Path" fill="#AE6E79"></path>
                    <path d="M270.998633,272.838194 C270.998633,272.838194 262.347376,286.337954 235.31883,284.891551 C209.856002,283.552289 197.427559,270.905192 198.020232,266.440986 C198.612905,261.976779 196.397015,251.110901 201.850492,247.985956 C205.01289,246.177953 209.17487,247.249362 212.111698,248.472555 C214.182601,249.321485 216.552618,248.892395 218.202077,247.369896 C220.886798,244.927975 225.893558,242.178024 233.79734,244.343164 C234.814361,244.61699 235.887147,244.596881 236.893394,244.285129 C240.184056,243.271754 248.017071,241.512857 253.700541,245.419038 C255.534205,246.694696 257.932805,246.786874 259.857264,245.655641 L259.936877,245.606534 C262.590637,243.968171 274.97485,259.445574 274.97485,259.445574 C274.97485,259.445574 275.567524,271.351613 270.998633,272.838194 Z" id="Path" fill="#000000" opacity="0.1"></path>
                    <path d="M270.998633,273.838194 C270.998633,273.838194 262.347376,287.337954 235.31883,285.891551 C209.856002,284.552289 197.427559,271.905192 198.020232,267.440986 C198.612905,262.976779 196.397015,252.110901 201.850492,248.985956 C205.01289,247.177953 209.17487,248.249362 212.111698,249.472555 C214.182601,250.321485 216.552618,249.892395 218.202077,248.369896 C220.886798,245.927975 225.893558,243.178024 233.79734,245.343164 C234.814361,245.61699 235.887147,245.596881 236.893394,245.285129 C240.184056,244.271754 248.017071,242.512857 253.700541,246.419038 C255.534205,247.694696 257.932805,247.786874 259.857264,246.655641 L259.936877,246.606534 C262.590637,244.968171 274.97485,260.445574 274.97485,260.445574 C274.97485,260.445574 275.567524,272.351613 270.998633,273.838194 Z" id="Path" fill="#767D9F"></path>
                    <circle id="Oval" fill="#000000" opacity="0.1" cx="235.5" cy="260.5" r="17.5"></circle>
                    <circle id="Oval" fill="#FFB9B9" cx="235.5" cy="261.5" r="17.5"></circle>
                    <path d="M230.452399,246.414694 C228.613895,246.911157 226.80178,247.860148 225.904519,249.419833 C225.363524,250.360037 225.174396,251.489161 224.391492,252.2712 C223.283111,253.382751 221.413818,253.404718 219.913985,254.028592 C218.414152,254.652466 217.424527,256.849205 218.893571,257.543374 C217.36295,257.622457 216.228179,259.032764 216.039051,260.434283 C215.849922,261.835803 216.382121,263.232929 216.896726,264.568546 C218.576891,268.891729 220.384607,273.403831 224.088007,276.479266 C230.122524,281.496618 239.218284,281.263764 247.324418,280.732153 C247.986735,280.754079 248.64328,280.60262 249.228898,280.292805 C250.108565,279.712866 250.218524,278.601316 250.363669,277.625964 C250.975037,273.460946 253.235782,269.678162 254.713623,265.702064 C256.191464,261.725966 256.798435,257.055698 254.308976,253.536522 C250.645162,248.31707 236.618867,244.745172 230.452399,246.414694 Z" id="Path" fill="#B96B6B"></path>
                    <path d="M265,172.229167 L264.426425,176.166667 L257.744041,177 C257.744041,177 257.021244,175.616667 256,173.491667 L264.892746,172 L265,172.229167 Z" id="Path" fill="#000000" opacity="0.1"></path>
                    <path d="M271.309324,264 L274.992359,259.729865 L274.254869,236.18009 C274.617598,234.481088 274.864,232.759322 274.992359,231.026783 C275.138091,228.522991 273.150842,222.932514 273.150842,222.932514 C273.459115,221.813401 273.877755,220.727661 274.400601,219.691274 C275.283823,217.92493 273.155258,213.950658 273.155258,213.950658 C273.155258,213.950658 269.984491,203.648459 271.309324,198.495152 C272.634157,193.341845 270.986948,190.400883 270.986948,190.400883 C270.986948,190.400883 269.693028,184.660267 269.838759,182.306614 C269.984491,179.952962 266.893214,177.740616 266.893214,177.740616 L264.539428,172 L255.119866,173.766343 L255.119866,193.637708 C255.119866,193.637708 255.707208,212.6259 255.119866,216.308726 C254.532523,219.991552 256.294551,223.519823 256.294551,223.519823 C256.294551,223.519823 255.265597,228.964577 256.148819,231.026783 C257.032041,233.088989 258.798485,238.092157 258.798485,238.092157 C258.47059,239.880234 258.571998,241.72061 259.094365,243.461841 C259.977586,246.040703 259.094365,247.511184 259.094365,247.511184 L271.309324,264 Z" id="Path" fill="#767D9F"></path>
                    <g id="Group" opacity="0.1" transform="translate(248.000000, 25.000000)" fill="#000000">
                        <path d="M49.940431,5.10171429 C49.4446939,7.69404533 49.2221664,10.3318677 49.2765517,12.9712857 C49.3142272,10.7765921 49.5422499,8.58941393 49.9580172,6.43471429 C50.3449138,4.46842857 50.8373276,2.35157143 50.7318103,0.389714286 C50.5697701,1.97600966 50.3054184,3.55000212 49.940431,5.10171429 Z" id="Path"></path>
                        <path d="M3.47327586,23.3828571 C3.00284483,22.94 2.44008621,22.63 1.95646552,22.2092857 C0.672672414,21.1065714 0.131896552,19.5078571 0.0263793103,17.7807143 C-0.10112069,19.995 0.347327586,22.1384286 1.95646552,23.5378571 C2.44008621,23.9585714 3.00284483,24.2774286 3.47327586,24.7114286 C4.45668373,25.6916554 5.02677843,27.0162299 5.06482759,28.4092857 C5.19232759,26.5492857 4.81862069,24.614 3.47327586,23.3828571 Z" id="Path"></path>
                        <path d="M2.07077586,6.84657143 C2.14766205,5.91120627 2.06739869,4.96947786 1.83336207,4.061 C1.57836207,3.11328571 1.12112069,2.18771429 0.954051724,1.23557143 C0.954051724,1.33742857 0.91887931,1.44371429 0.905689655,1.55442857 C0.778189655,2.883 1.49043103,4.10971429 1.83336207,5.38957143 C1.95970292,5.86622933 2.03922317,6.35424229 2.07077586,6.84657143 Z" id="Path"></path>
                        <path d="M48.0806897,21.4298571 C46.8628448,22.7584286 44.9239655,23.0861429 43.1389655,23.0728571 C41.3539655,23.0595714 39.5469828,22.7672857 37.7927586,23.1215714 C36.5705172,23.3695714 35.3262931,23.9231429 34.1260345,23.5644286 C32.4685345,23.0817143 31.8046552,20.9072857 30.2175,20.4865714 C28.4105172,20.0082857 27.0343966,22.5015714 25.8209483,23.4935714 C22.8532759,25.885 18.6897414,25.8628571 14.8955172,25.7078571 C13.2819828,25.6325714 11.2903448,25.761 10.5956897,27.2312857 C10.3837672,27.6771276 10.3385004,28.184978 10.4681897,28.6617143 L5.09560345,29.512 C5.07530116,29.9575114 5.02684094,30.4012673 4.95051724,30.8405714 L10.4681897,29.9548571 C10.3385004,29.4781208 10.3837672,28.9702705 10.5956897,28.5244286 C11.2903448,27.0541429 13.2819828,26.9257143 14.8955172,27.001 C18.6897414,27.1781429 22.8532759,27.2002857 25.8209483,24.7867143 C27.0519828,23.7947143 28.4281034,21.3014286 30.2175,21.7797143 C31.8046552,22.196 32.4685345,24.3748571 34.1260345,24.8575714 C35.3262931,25.203 36.5705172,24.6494286 37.7927586,24.4147143 C39.5513793,24.0604286 41.3539655,24.3527143 43.1389655,24.366 C44.9239655,24.3792857 46.8628448,24.0382857 48.0806897,22.723 C49.2985345,21.4077143 49.4743966,19.4458571 49.3996552,17.5327143 C49.3468966,19.0162857 49.0435345,20.3891429 48.0806897,21.4298571 Z" id="Path"></path>
                    </g>
                    <g id="Group" opacity="0.1" transform="translate(252.000000, 64.000000)" fill="#000000">
                        <path d="M3.79176471,4.08792453 C3.28375407,3.81879454 2.75058203,3.60075678 2.2,3.43698113 C1.26388394,3.00901487 0.520698369,2.24434047 0.116470588,1.29320755 C0.44,2.79037736 1.25960784,4.15301887 2.63137255,4.73886792 C3.18195458,4.90264357 3.71512662,5.12068133 4.22313725,5.38981132 C4.54798605,5.62066322 4.81042631,5.92942746 4.98666667,6.28811321 C4.81411765,5.43754717 4.49921569,4.56962264 3.79176471,4.08792453 Z" id="Path"></path>
                        <path d="M11.1596078,14.6462264 C9.17098039,15.1539623 6.57411765,15.4186792 5.4827451,13.7218868 C5.51670604,14.1307496 5.63418967,14.5281598 5.82784314,14.8892453 C6.75960784,16.56 9.0372549,16.5035849 10.9741176,16.0913208 L11.1596078,14.6462264 Z" id="Path"></path>
                        <path d="M19.2176471,15.835283 C19.4937255,17.5971698 18.354902,19.354717 16.845098,20.2790566 C15.3352941,21.2033962 13.4933333,21.459434 11.7160784,21.5809434 C11.4335547,21.6177238 11.1463783,21.5849619 10.8792157,21.4854717 C10.7136593,21.8603567 10.7843317,22.2982732 11.0592777,22.6012123 C11.3342237,22.9041515 11.7613203,23.0146835 12.147451,22.8828302 C13.9247059,22.77 15.7537255,22.5226415 17.2764706,21.5809434 C18.7992157,20.6392453 19.9380392,18.8860377 19.6447059,17.1198113 C19.5618863,16.6738798 19.4181725,16.2416103 19.2176471,15.835283 Z" id="Path"></path>
                        <path d="M21.1329412,0.125849057 C21.6665632,2.26393638 21.1889693,4.53011085 19.8388235,6.26641509 C18.8207843,7.50754717 17.2721569,8.50132075 17.0521569,10.0939623 C16.9787546,10.8261778 17.1292499,11.5634898 17.4835294,12.2073585 C17.4446486,11.9382693 17.4446486,11.6649382 17.4835294,11.3958491 C17.7035294,9.80320755 19.2521569,8.79207547 20.2701961,7.56830189 C21.9439216,5.53301887 22.1768627,2.53433962 21.1329412,0.125849057 Z" id="Path"></path>
                    </g>
                    <g id="Group" opacity="0.1" transform="translate(215.000000, 246.000000)" fill="#000000">
                        <path d="M4.40304348,9.12432432 C5.91826087,8.51459459 7.81228261,8.49297297 8.93978261,7.39459459 C9.73304348,6.62486486 9.92467391,5.51351351 10.4728261,4.59243243 C11.3641304,3.05297297 13.213587,2.12324324 15.076413,1.63459459 C21.3155435,-0.00864864865 35.5407609,3.5027027 39.248587,8.59243243 C40.3352782,10.1323361 40.9276493,11.9500255 40.9509783,13.8162162 C41.0937602,11.6617371 40.4966544,9.52208758 39.2530435,7.73189189 C35.5452174,2.64216216 21.3333696,-0.869189189 15.0808696,0.774054054 C13.2180435,1.2627027 11.3819565,2.19243243 10.4772826,3.73189189 C9.92913043,4.65297297 9.7375,5.76432432 8.94423913,6.53405405 C7.81673913,7.62810811 5.92271739,7.64972973 4.4075,8.26378378 C3.25326087,8.72648649 2.3976087,10.092973 2.70956522,11.0097297 C2.96119499,10.1703722 3.58051156,9.48086657 4.40304348,9.12432432 Z" id="Path"></path>
                        <path d="M0.481304348,15.4075676 C0.668478261,14.0237838 1.81826087,12.64 3.37358696,12.5621622 C3.04279495,12.4283591 2.79214244,12.1565282 2.69173913,11.8227027 C1.48599964,12.2574127 0.627945061,13.3048253 0.463478261,14.5427027 C0.421156117,14.894662 0.421156117,15.2502029 0.463478261,15.6021622 C0.481304348,15.5372973 0.481304348,15.4724324 0.481304348,15.4075676 Z" id="Path"></path>
                    </g>
                    <rect id="Rectangle" fill="#FFFFFF" x="269" y="102" width="40" height="52"></rect>
                    <rect id="Rectangle" fill="#000000" opacity="0.1" x="269" y="102" width="40" height="52"></rect>
                    <polygon id="Rectangle" fill="#FFFFFF" transform="translate(309.504504, 133.508271) rotate(-9.760000) translate(-309.504504, -133.508271) " points="289.399237 107.38349 329.579404 107.406775 329.60977 159.633052 289.429603 159.609767"></polygon>
                    <polygon id="Rectangle" fill="#FFFFFF" transform="translate(300.555473, 151.501784) rotate(-9.760000) translate(-300.555473, -151.501784) " points="295.83184 145.364101 305.271972 145.369572 305.279106 157.639468 295.838974 157.633997"></polygon>
                    <polygon id="Rectangle" fill="#FFFFFF" transform="translate(313.430727, 149.292460) rotate(-9.760000) translate(-313.430727, -149.292460) " points="308.707094 143.154777 318.147225 143.160247 318.15436 155.430144 308.714228 155.424673"></polygon>
                    <polygon id="Rectangle" fill="#FFFFFF" transform="translate(310.869267, 133.599736) rotate(-9.743641) translate(-310.869267, -133.599736) " points="294.313414 127.427667 327.417965 127.446821 327.42512 139.771805 294.320568 139.752651"></polygon>
                    <polygon id="Rectangle" fill="#FFFFFF" transform="translate(307.336416, 114.385363) rotate(-9.743641) translate(-307.336416, -114.385363) " points="290.783342 113.00094 323.887893 113.020094 323.889489 115.769786 290.784938 115.750632"></polygon>
                    <polygon id="Rectangle" fill="#FFFFFF" transform="translate(308.406595, 119.370060) rotate(-9.743641) translate(-308.406595, -119.370060) " points="291.853521 117.985637 324.958073 118.004791 324.959669 120.754483 291.855117 120.735328"></polygon>
                    <path d="M291.571045,87 C291.571045,87 273.461884,105.573595 282.553263,110.292173 C291.644642,115.01075 297.562696,94.5930625 297.562696,94.5930625 L299,89.9496638 L291.571045,87 Z" id="Path" fill="#AE6E79"></path>
                    <path d="M290.180019,85.5210435 L288,90.2876522 C288,90.2876522 298.752514,91.781913 301,95 L299.667532,86.5895652 L298.08628,83 L290.180019,85.5210435 Z" id="Path" fill="#000000" opacity="0.1"></path>
                    <path d="M291.180019,84.5210435 L289,89.2876522 C289,89.2876522 299.752514,90.781913 302,94 L300.667532,85.5895652 L299.08628,82 L291.180019,84.5210435 Z" id="Path" fill="#4C4981"></path>
                    <polygon id="Path" fill="#464A5F" points="359.327381 177.841581 359 178.008801 359.452381 178.158419 359.940476 178.127615 360 177.876785"></polygon>
                    <polygon id="Path" fill="#000000" opacity="0.1" points="359.327381 177.841581 359 178.008801 359.452381 178.158419 359.940476 178.127615 360 177.876785"></polygon>
                    <polygon id="Path" fill="#9C9CA1" points="359.220792 177.660377 358.973505 178 358.779208 177.490566 358.898436 177.075472 359.008832 177"></polygon>
                    <polygon id="Path" fill="#000000" opacity="0.1" points="359.220792 177.660377 358.973505 178 358.779208 177.490566 358.898436 177.075472 359.008832 177"></polygon>
                    <path d="M402,146.81677 L384.011135,120.924787 C383.689294,120.458036 383.194366,120.138034 382.6355,120.035353 C382.076634,119.932672 381.499736,120.055746 381.032031,120.377434 L340.932768,147.806384 C339.956006,148.474633 339.706368,149.804712 340.374736,150.779605 L358.315267,177 L402,146.81677 Z" id="Path" fill="#9C9CA1"></path>
                    <path d="M402,146.81677 L384.011135,120.924787 C383.689294,120.458036 383.194366,120.138034 382.6355,120.035353 C382.076634,119.932672 381.499736,120.055746 381.032031,120.377434 L340.932768,147.806384 C339.956006,148.474633 339.706368,149.804712 340.374736,150.779605 L358.315267,177 L402,146.81677 Z" id="Path" fill="#000000" opacity="0.1"></path>
                    <path d="M403,146.802533 L385.01151,120.924617 C384.688862,120.45783 384.193177,120.13791 383.633606,120.035305 C383.074036,119.932699 382.496465,120.055822 382.028075,120.377562 L341.934043,147.809116 C340.957986,148.477028 340.706708,149.804691 341.371628,150.780721 L359.311785,177 L403,146.802533 Z" id="Path" fill="#9C9CA1"></path>
                    <path d="M417.652418,152.748657 L402.708007,148 L359,177.974807 L374.181764,182.88871 C374.87071,183.110137 375.624849,182.997335 376.216841,182.584309 L417.77549,153.553145 C417.934967,153.464634 418.022397,153.287685 417.995033,153.108812 C417.967669,152.92994 417.831228,152.786513 417.652418,152.748657 Z" id="Path" fill="#464A5F"></path>
                    <path d="M417.652418,152.748657 L402.708007,148 L359,177.974807 L374.181764,182.88871 C374.87071,183.110137 375.624849,182.997335 376.216841,182.584309 L417.77549,153.553145 C417.934967,153.464634 418.022397,153.287685 417.995033,153.108812 C417.967669,152.92994 417.831228,152.786513 417.652418,152.748657 Z" id="Path" fill="#000000" opacity="0.1"></path>
                    <path d="M417.663247,152.753746 L402.716077,148 L359,177.979482 L374.184567,182.885453 C374.872713,183.111 375.62825,182.999607 376.220019,182.585353 L417.786341,153.549662 C417.939501,153.458859 418.021932,153.285429 417.994927,153.110814 C417.967921,152.936198 417.836843,152.795088 417.663247,152.753746 Z" id="Path" fill="#464A5F"></path>
                    <g id="Group" opacity="0.1" transform="translate(352.000000, 135.000000)" fill="#000000">
                        <path d="M43.626,11.1253012 L42.5216,9.56385542 C42.3837065,9.37568474 42.1199647,9.3278931 41.9232,9.45542169 L40.282,10.5354217 C40.0907113,10.6683856 40.0385045,10.9257029 40.1632,11.1209639 L41.1796,12.6607229 C41.3117482,12.8522993 41.5732971,12.9076839 41.7736,12.786506 L43.5028,11.7151807 C43.6982255,11.5832857 43.7526781,11.3225674 43.626,11.1253012 Z" id="Path"></path>
                        <path d="M40.678,13.1378313 L39.5692,11.5807229 C39.4313065,11.3925522 39.1675647,11.3447606 38.9708,11.4722892 L37.334,12.5609639 C37.1411882,12.6925851 37.0869954,12.9501513 37.2108,13.146506 L38.2272,14.6862651 C38.3579616,14.87936 38.6197827,14.936714 38.8212,14.8163855 L40.5548,13.7450602 C40.6537396,13.6813837 40.7225404,13.5811556 40.7457134,13.4669402 C40.7688864,13.3527248 40.7444841,13.2341216 40.678,13.1378313 Z" id="Path"></path>
                        <path d="M37.5804,15.2501205 L36.4716,13.693012 C36.3337065,13.5048414 36.0699647,13.4570497 35.8732,13.5845783 L34.232,14.673253 C34.0380957,14.8065047 33.9856389,15.0669693 34.1132,15.2631325 L35.1296,16.8028916 C35.2617482,16.994468 35.5232971,17.0498525 35.7236,16.9286747 L37.4528,15.8573494 C37.5524544,15.7943672 37.6221604,15.6944586 37.6461717,15.5801926 C37.6701829,15.4659266 37.6464738,15.3469433 37.5804,15.2501205 Z" id="Path"></path>
                        <path d="M34.4432,17.3927711 L33.3344,15.8313253 C33.1968264,15.645737 32.936268,15.5981725 32.7404,15.7228916 L31.0992,16.8159036 C30.9079113,16.9488675 30.8557045,17.2061849 30.9804,17.4014458 L31.9968,18.9412048 C32.127288,19.1317614 32.3859435,19.1888449 32.5864,19.0713253 L34.32,17.9956627 C34.4176889,17.93202 34.4856139,17.8326178 34.508737,17.7194625 C34.5318601,17.6063072 34.5082739,17.4887336 34.4432,17.3927711 Z" id="Path"></path>
                        <path d="M31.3104,19.5310843 L30.2016,17.9739759 C30.0637065,17.7858052 29.7999647,17.7380136 29.6032,17.8655422 L27.9664,18.9542169 C27.7735882,19.0858381 27.7193954,19.3434043 27.8432,19.539759 L28.8596,21.0795181 C28.9903616,21.272613 29.2521827,21.329967 29.4536,21.2096386 L31.1872,20.1339759 C31.2848889,20.0703333 31.3528139,19.9709311 31.375937,19.8577758 C31.3990601,19.7446205 31.3754739,19.6270469 31.3104,19.5310843 Z" id="Path"></path>
                        <path d="M28.314,21.8645783 L26.9368,19.9301205 C26.9073134,19.8866519 26.8613656,19.8566647 26.8092557,19.8468803 C26.7571459,19.837096 26.7032324,19.8483329 26.6596,19.8780723 L24.6444,21.2183133 C24.5995913,21.2466901 24.568269,21.291665 24.5575059,21.3430821 C24.5467427,21.3944992 24.5574464,21.4480226 24.5872,21.4915663 L25.85,23.4043373 C25.9100788,23.4957961 26.0334807,23.5228282 26.1272,23.4650602 L28.2568,22.1638554 C28.3085566,22.1348916 28.3447583,22.084941 28.3557774,22.0272876 C28.3667965,21.9696342 28.3515161,21.9101221 28.314,21.8645783 Z" id="Path"></path>
                        <path d="M25.1812,24.0028916 L23.7952,22.0684337 C23.7648924,22.02468 23.7181754,21.9946057 23.6653499,21.9848419 C23.6125243,21.9750782 23.5579284,21.9864268 23.5136,22.0163855 L21.4984,23.3566265 C21.4086723,23.4186091 21.38527,23.5397215 21.4456,23.6298795 L22.7084,25.5426506 C22.7355908,25.5885171 22.7809453,25.6211357 22.8335534,25.63266 C22.8861616,25.6441842 22.9412619,25.6335711 22.9856,25.6033735 L25.1108,24.3021687 C25.1659193,24.2767883 25.2061428,24.2278388 25.2198851,24.1694189 C25.2336274,24.1109991 25.2193629,24.0495946 25.1812,24.0028916 Z" id="Path"></path>
                        <path d="M22.4048,25.8983133 L21.0276,23.9812048 C20.9633616,23.89423 20.8407368,23.8731242 20.7504,23.933494 L18.7352,25.2693976 C18.6433831,25.3316271 18.6180892,25.4543776 18.678,25.546988 L19.9408,27.459759 C20.0022728,27.5492187 20.1238767,27.5758571 20.218,27.5204819 L22.3476,26.2192771 C22.4070305,26.1916047 22.4491292,26.1372079 22.4605017,26.0733941 C22.4718741,26.0095802 22.4511042,25.9442962 22.4048,25.8983133 Z" id="Path"></path>
                        <path d="M19.2984,28.0149398 L17.9212,26.0804819 C17.8569616,25.9935071 17.7343368,25.9724013 17.644,26.0327711 L15.6288,27.3686747 C15.5837026,27.3978704 15.5522968,27.4436069 15.5415569,27.4957276 C15.5308169,27.5478483 15.5416319,27.6020388 15.5716,27.6462651 L16.8344,29.5590361 C16.8958728,29.6484959 17.0174767,29.6751342 17.1116,29.619759 L19.2412,28.3185542 C19.2931774,28.2886825 19.3293806,28.2379777 19.3403664,28.1796656 C19.3513523,28.1213534 19.3360314,28.0612161 19.2984,28.0149398 Z" id="Path"></path>
                        <path d="M16.2888,30.053494 L14.9116,28.1190361 C14.8821134,28.0755676 14.8361656,28.0455803 14.7840557,28.035796 C14.7319459,28.0260116 14.6780324,28.0372485 14.6344,28.066988 L12.6192,29.4072289 C12.5743913,29.4356058 12.543069,29.4805806 12.5323059,29.5319978 C12.5215427,29.5834149 12.5322464,29.6369383 12.562,29.6804819 L13.8248,31.593253 C13.8848788,31.6847117 14.0082807,31.7117439 14.102,31.6539759 L16.2316,30.3527711 C16.2833566,30.3238073 16.3195583,30.2738566 16.3305774,30.2162032 C16.3415965,30.1585498 16.3263161,30.0990378 16.2888,30.053494 Z" id="Path"></path>
                        <path d="M13.2792,32.126747 L11.9152,30.1879518 C11.8509616,30.100977 11.7283368,30.0798712 11.638,30.140241 L9.6228,31.4761446 C9.57770263,31.5053402 9.54629684,31.5510768 9.53555689,31.6031975 C9.52481695,31.6553182 9.53563187,31.7095087 9.5656,31.7537349 L10.8284,33.666506 C10.8898728,33.7559657 11.0114767,33.782604 11.1056,33.7272289 L13.2352,32.4260241 C13.2849134,32.3948283 13.3183652,32.3438231 13.3268177,32.2863314 C13.3352702,32.2288397 13.3178838,32.1705716 13.2792,32.126747 Z" id="Path"></path>
                        <path d="M10.2696,34.1783133 L8.8924,32.2438554 C8.86291338,32.2003869 8.81696558,32.1703996 8.76485572,32.1606153 C8.71274586,32.1508309 8.65883242,32.1620678 8.6152,32.1918072 L6.6,33.5233735 C6.55519133,33.5517503 6.52386901,33.5967252 6.51310587,33.6481423 C6.50234273,33.6995595 6.51304644,33.7530829 6.5428,33.7966265 L7.8056,35.7093976 C7.86567882,35.8008563 7.98908068,35.8278885 8.0828,35.7701205 L10.2124,34.4689157 C10.2613839,34.4397521 10.2955551,34.3915112 10.3064551,34.3361339 C10.3173552,34.2807566 10.3039654,34.2234188 10.2696,34.1783133 Z" id="Path"></path>
                        <path d="M41.646,8.30168675 L40.5372,6.74024096 C40.3993065,6.55207028 40.1355647,6.50427864 39.9388,6.63180723 L38.3152,7.72481928 C38.1223882,7.8564405 38.0681954,8.11400668 38.192,8.31036145 L39.2084,9.85012048 C39.3405482,10.0416969 39.6020971,10.0970815 39.8024,9.97590361 L41.536,8.90457831 C41.734966,8.76784891 41.7841667,8.49818815 41.646,8.30168675 Z" id="Path"></path>
                        <path d="M37.312,2.12963855 L36.2032,0.559518072 C36.0656264,0.373929791 35.805068,0.326365284 35.6092,0.451084337 L33.968,1.53975904 C33.7751882,1.67138026 33.7209954,1.92894644 33.8448,2.1253012 L34.8612,3.66506024 C34.9919616,3.85815514 35.2537827,3.91550915 35.4552,3.79518072 L37.1888,2.72385542 C37.386875,2.59171114 37.4415926,2.32779783 37.312,2.12963855 Z" id="Path"></path>
                        <path d="M38.6936,10.3142169 L37.5848,8.75710843 C37.4472264,8.57152015 37.186668,8.52395565 36.9908,8.6486747 L35.3496,9.7373494 C35.1583113,9.87031333 35.1061045,10.1276306 35.2308,10.3228916 L36.2428,11.8626506 C36.3735616,12.0557455 36.6353827,12.1130995 36.8368,11.9927711 L38.5704,10.9214458 C38.6693396,10.8577692 38.7381404,10.7575411 38.7613134,10.6433258 C38.7844864,10.5291104 38.7600841,10.4105071 38.6936,10.3142169 Z" id="Path"></path>
                        <path d="M35.596,12.426506 L34.4872,10.8693976 C34.3493065,10.6812269 34.0855647,10.6334353 33.8888,10.7609639 L32.252,11.8366265 C32.0565745,11.9685215 32.0021219,12.2292398 32.1288,12.426506 L33.1452,13.9662651 C33.2773482,14.1578415 33.5388971,14.213226 33.7392,14.0920482 L35.4728,13.0207229 C35.670875,12.8885786 35.7255926,12.6246653 35.596,12.426506 Z" id="Path"></path>
                        <path d="M32.4588,14.5691566 L31.3544,13.0077108 C31.2165065,12.8195402 30.9527647,12.7717485 30.756,12.8992771 L29.1148,14.0053012 C28.9235113,14.1382651 28.8713045,14.3955824 28.996,14.5908434 L30.0124,16.1306024 C30.1445482,16.3221788 30.4060971,16.3775634 30.6064,16.2563855 L32.3356,15.1850602 C32.4370869,15.1213586 32.5076849,15.019469 32.5309606,14.9031082 C32.5542364,14.7867475 32.5281596,14.6660666 32.4588,14.5691566 Z" id="Path"></path>
                        <path d="M34.43,4.24192771 L33.3212,2.68481928 C33.1836264,2.499231 32.923068,2.45166649 32.7272,2.57638554 L31.086,3.66506024 C30.8931882,3.79668146 30.8389954,4.05424764 30.9628,4.25060241 L31.9792,5.79036145 C32.1099616,5.98345634 32.3717827,6.04081035 32.5732,5.92048193 L34.3068,4.84915663 C34.4057396,4.78548005 34.4745404,4.68525199 34.4977134,4.5710366 C34.5208864,4.4568212 34.4964841,4.33821794 34.43,4.24192771 Z" id="Path"></path>
                        <path d="M31.3324,6.35855422 L30.2236,4.79710843 C30.0857065,4.60893775 29.8219647,4.56114611 29.6252,4.6886747 L27.9884,5.76433735 C27.7955882,5.89595857 27.7413954,6.15352475 27.8652,6.34987952 L28.8816,7.88963855 C29.0137482,8.08121496 29.2752971,8.13659954 29.4756,8.01542169 L31.2092,6.94409639 C31.4020118,6.81247516 31.4562046,6.55490898 31.3324,6.35855422 Z" id="Path"></path>
                        <path d="M28.1952,8.49686747 L27.0864,6.93975904 C26.9501652,6.75268679 26.6893738,6.70317546 26.4924,6.82698795 L24.8512,7.93301205 C24.6599113,8.06597598 24.6077045,8.32329329 24.7324,8.51855422 L25.7488,10.0583133 C25.8795616,10.2514082 26.1413827,10.3087622 26.3428,10.1884337 L28.072,9.11277108 C28.1734869,9.04906948 28.2440849,8.94717983 28.2673606,8.83081906 C28.2906364,8.71445829 28.2645596,8.59377745 28.1952,8.49686747 Z" id="Path"></path>
                        <path d="M29.326,16.7074699 L28.2172,15.1503614 C28.0809652,14.9632892 27.8201738,14.9137779 27.6232,15.0375904 L25.9952,16.1306024 C25.8039113,16.2635663 25.7517045,16.5208836 25.8764,16.7161446 L26.8752,18.2559036 C27.005688,18.4464602 27.2643435,18.5035436 27.4648,18.3860241 L29.1984,17.3103614 C29.2968056,17.2474065 29.3656332,17.1483205 29.3895926,17.0351155 C29.4135521,16.9219106 29.3906593,16.8039612 29.326,16.7074699 Z" id="Path"></path>
                        <path d="M26.1932,18.8457831 L25.0844,17.2886747 C24.9465065,17.100504 24.6827647,17.0527124 24.486,17.180241 L22.8492,18.2689157 C22.6563882,18.4005369 22.6021954,18.6581031 22.726,18.8544578 L23.7424,20.3942169 C23.8731616,20.5873118 24.1349827,20.6446658 24.3364,20.5243373 L26.07,19.453012 C26.1689396,19.3893355 26.2377404,19.2891074 26.2609134,19.174892 C26.2840864,19.0606766 26.2596841,18.9420734 26.1932,18.8457831 Z" id="Path"></path>
                        <path d="M23.1968,21.1792771 L21.8196,19.2448193 C21.7901134,19.2013507 21.7441656,19.1713635 21.6920557,19.1615791 C21.6399459,19.1517948 21.5860324,19.1630317 21.5424,19.1927711 L19.5272,20.533012 C19.4823913,20.5613889 19.451069,20.6063637 19.4403059,20.6577809 C19.4295427,20.709198 19.4402464,20.7627214 19.47,20.8062651 L20.7328,22.7190361 C20.7608727,22.7639167 20.8061712,22.795692 20.8583853,22.80713 C20.9105994,22.8185679 20.9652867,22.8086952 21.01,22.779759 L23.1396,21.4785542 C23.1913566,21.4495904 23.2275583,21.3996398 23.2385774,21.3419864 C23.2495965,21.284333 23.2343161,21.2248209 23.1968,21.1792771 Z" id="Path"></path>
                        <path d="M20.4204,23.0746988 L19.0432,21.1359036 C18.9789616,21.0489288 18.8563368,21.027823 18.766,21.0881928 L16.7552,22.4240964 C16.6633831,22.4863259 16.6380892,22.6090764 16.698,22.7016867 L17.9608,24.6144578 C18.0222728,24.7039175 18.1438767,24.7305559 18.238,24.6751807 L20.3676,23.3739759 C20.4212867,23.3465464 20.4588886,23.2959646 20.4692495,23.2372379 C20.4796104,23.1785111 20.4615401,23.1183851 20.4204,23.0746988 Z" id="Path"></path>
                        <path d="M17.314,25.1913253 L15.9368,23.2568675 C15.8725616,23.1698927 15.7499368,23.1487869 15.6596,23.2091566 L13.6444,24.5450602 C13.5995913,24.5734371 13.568269,24.6184119 13.5575059,24.6698291 C13.5467427,24.7212462 13.5574464,24.7747696 13.5872,24.8183133 L14.85,26.7354217 C14.9114728,26.8248814 15.0330767,26.8515197 15.1272,26.7961446 L17.2568,25.4949398 C17.3087774,25.4650681 17.3449806,25.4143633 17.3559664,25.3560511 C17.3669523,25.297739 17.3516314,25.2376017 17.314,25.1913253 Z" id="Path"></path>
                        <path d="M14.3044,27.2472289 L12.9272,25.3127711 C12.8977134,25.2693025 12.8517656,25.2393153 12.7996557,25.2295309 C12.7475459,25.2197466 12.6936324,25.2309835 12.65,25.2607229 L10.6348,26.5836145 C10.5899913,26.6119913 10.558669,26.6569662 10.5479059,26.7083833 C10.5371427,26.7598004 10.5478464,26.8133238 10.5776,26.8568675 L11.8404,28.7696386 C11.9004788,28.8610973 12.0238807,28.8881294 12.1176,28.8303614 L14.2472,27.5291566 C14.2935585,27.499939 14.3258516,27.4533751 14.3366427,27.400188 C14.3474337,27.347001 14.3357926,27.2917754 14.3044,27.2472289 Z" id="Path"></path>
                        <path d="M33.5324,9.49012048 L32.4236,7.93301205 C32.2860264,7.74742377 32.025468,7.69985926 31.8296,7.82457831 L30.1884,8.91759036 C29.9971113,9.05055429 29.9449045,9.3078716 30.0696,9.50313253 L31.086,11.0428916 C31.2178604,11.231928 31.4762489,11.2870517 31.6756,11.1686747 L33.4092,10.0973494 C33.5081396,10.0336728 33.5769404,9.93344476 33.6001134,9.81922937 C33.6232864,9.70501397 33.5988841,9.58641071 33.5324,9.49012048 Z" id="Path"></path>
                        <path d="M30.3952,11.6327711 L29.2864,10.0713253 C29.1485065,9.88315462 28.8847647,9.83536298 28.688,9.96289157 L27.0512,11.0559036 C26.8583882,11.1875248 26.8041954,11.445091 26.928,11.6414458 L27.9444,13.1812048 C28.0751616,13.3742997 28.3369827,13.4316537 28.5384,13.3113253 L30.272,12.2356627 C30.3696889,12.17202 30.4376139,12.0726178 30.460737,11.9594625 C30.4838601,11.8463072 30.4602739,11.7287336 30.3952,11.6327711 Z" id="Path"></path>
                        <path d="M27.2668,13.7710843 L26.158,12.2139759 C26.0201065,12.0258052 25.7563647,11.9780136 25.5596,12.1055422 L23.9184,13.1942169 C23.7271113,13.3271808 23.6749045,13.5844981 23.7996,13.779759 L24.816,15.3195181 C24.9467616,15.512613 25.2085827,15.569967 25.41,15.4496386 L27.1392,14.3739759 C27.2376056,14.3110209 27.3064332,14.211935 27.3303926,14.09873 C27.3543521,13.985525 27.3314593,13.8675756 27.2668,13.7710843 Z" id="Path"></path>
                        <path d="M24.1296,15.9093976 L23.0208,14.3522892 C22.8832264,14.1667009 22.622668,14.1191364 22.4268,14.2438554 L20.7856,15.3325301 C20.5943113,15.4654941 20.5421045,15.7228114 20.6668,15.9180723 L21.6832,17.4751807 C21.813688,17.6657373 22.0723435,17.7228208 22.2728,17.6053012 L24.0064,16.5339759 C24.1104975,16.4703093 24.1829559,16.3667443 24.2063385,16.2482029 C24.2297212,16.1296615 24.2019109,16.0068775 24.1296,15.9093976 Z" id="Path"></path>
                        <path d="M21.1552,18.2428916 L19.778,16.3084337 C19.7485134,16.2649652 19.7025656,16.2349779 19.6504557,16.2251936 C19.5983459,16.2154092 19.5444324,16.2266461 19.5008,16.2563855 L17.4856,17.5966265 C17.3943559,17.6572428 17.36895,17.7786104 17.4284,17.8698795 L18.6912,19.786988 C18.7199867,19.8311586 18.7656112,19.8620349 18.8177711,19.8726448 C18.8699309,19.8832547 18.9242274,19.8727034 18.9684,19.8433735 L21.098,18.5421687 C21.1497566,18.5132049 21.1859583,18.4632542 21.1969774,18.4056008 C21.2079965,18.3479474 21.1927161,18.2884353 21.1552,18.2428916 Z" id="Path"></path>
                        <path d="M18.3612,20.1383133 L16.984,18.1995181 C16.9181603,18.111972 16.7941141,18.0909551 16.7024,18.1518072 L14.6916,19.4877108 C14.5997831,19.5499403 14.5744892,19.6726909 14.6344,19.7653012 L15.8972,21.6780723 C15.9572788,21.769531 16.0806807,21.7965632 16.1744,21.7387952 L18.304,20.4375904 C18.3557566,20.4086266 18.3919583,20.3586759 18.4029774,20.3010225 C18.4139965,20.2433691 18.3987161,20.183857 18.3612,20.1383133 Z" id="Path"></path>
                        <path d="M15.2548,22.2462651 L13.8776,20.3074699 C13.8117603,20.2199238 13.6877141,20.198907 13.596,20.259759 L11.5808,21.5956627 C11.4909756,21.6591775 11.4660326,21.7802255 11.5236,21.873253 L12.7908,23.7860241 C12.8508788,23.8774828 12.9742807,23.904515 13.068,23.846747 L15.1932,22.5455422 C15.2469055,22.5184978 15.2851797,22.4688 15.2971716,22.4105386 C15.3091635,22.3522773 15.2935656,22.2918045 15.2548,22.2462651 Z" id="Path"></path>
                        <path d="M12.2452,24.3108434 L10.868,22.3763855 C10.8376924,22.3326318 10.7909754,22.3025575 10.7381499,22.2927937 C10.6853243,22.28303 10.6307284,22.2943786 10.5864,22.3243373 L8.5712,23.6645783 C8.48147225,23.7265609 8.45807001,23.8476733 8.5184,23.9378313 L9.7812,25.8506024 C9.80839079,25.8964689 9.85374527,25.9290875 9.90635344,25.9406118 C9.95896161,25.952136 10.0140619,25.9415229 10.0584,25.9113253 L12.1836,24.6101205 C12.2373055,24.5830761 12.2755797,24.5333783 12.2875716,24.4751169 C12.2995635,24.4168556 12.2839656,24.3563829 12.2452,24.3108434 Z" id="Path"></path>
                        <path d="M11.2948,29.2987952 L9.9176,27.3643373 C9.85336158,27.2773626 9.73073685,27.2562568 9.6404,27.3166265 L7.6252,28.6525301 C7.58039133,28.680907 7.54906901,28.7258818 7.53830587,28.777299 C7.52754273,28.8287161 7.53824644,28.8822395 7.568,28.9257831 L8.8308,30.8428916 C8.89227285,30.9323513 9.01387673,30.9589896 9.108,30.9036145 L11.2376,29.6024096 C11.2895774,29.5725379 11.3257806,29.5218332 11.3367664,29.463521 C11.3477523,29.4052089 11.3324314,29.3450716 11.2948,29.2987952 Z" id="Path"></path>
                        <path d="M8.2852,31.3546988 L6.908,29.420241 C6.87851338,29.3767724 6.83256558,29.3467852 6.78045572,29.3370008 C6.72834586,29.3272164 6.67443242,29.3384533 6.6308,29.3681928 L4.6156,30.7084337 C4.57079133,30.7368106 4.53946901,30.7817854 4.52870587,30.8332026 C4.51794273,30.8846197 4.52864644,30.9381431 4.5584,30.9816867 L5.8212,32.8944578 C5.88127882,32.9859166 6.00468068,33.0129487 6.0984,32.9551807 L8.228,31.6539759 C8.27975657,31.6250121 8.31595827,31.5750615 8.32697741,31.5174081 C8.33799654,31.4597547 8.32271615,31.4002426 8.2852,31.3546988 Z" id="Path"></path>
                        <path d="M13.0108,19.0626506 L11.6908,17.2409639 C11.604427,17.1232525 11.4388283,17.0944453 11.3168,17.1759036 L9.416,18.4380723 C9.35620528,18.4769573 9.31466023,18.5377912 9.30061162,18.6070341 C9.28656301,18.6762769 9.30117667,18.7481826 9.3412,18.806747 L10.5292,20.606747 C10.5663891,20.6668259 10.6266779,20.7094948 10.6963157,20.7250219 C10.7659535,20.7405491 10.8390018,20.7276103 10.8988,20.6891566 L12.9096,19.4443373 C12.9765605,19.4089882 13.0255381,19.3477195 13.0447456,19.2752765 C13.063953,19.2028334 13.0516509,19.1257765 13.0108,19.0626506 Z" id="Path"></path>
                        <path d="M10.0012,21.1185542 L8.7032,19.2968675 C8.6630624,19.2386248 8.60102945,19.1985556 8.53083438,19.1855305 C8.46063931,19.1725055 8.38807277,19.1875991 8.3292,19.2274699 L6.4284,20.5113253 C6.36889353,20.5493928 6.32743232,20.6094658 6.31336092,20.678005 C6.29928953,20.7465443 6.31379208,20.817782 6.3536,20.8756627 L7.5416,22.68 C7.62218727,22.8010978 7.78558863,22.8375314 7.9112,22.7624096 L9.922,21.5175904 C9.99068269,21.4787892 10.0388802,21.4124916 10.0540803,21.3359086 C10.0692803,21.2593257 10.0499837,21.1800107 10.0012,21.1185542 Z" id="Path"></path>
                        <path d="M6.9916,23.1744578 L5.6936,21.3484337 C5.60722697,21.2307223 5.44162831,21.2019152 5.3196,21.2833735 L3.4188,22.5455422 C3.35900528,22.5844272 3.31746023,22.6452611 3.30341162,22.7145039 C3.28936301,22.7837468 3.30397667,22.8556525 3.344,22.9142169 L4.532,24.7142169 C4.56918912,24.7742957 4.62947787,24.8169647 4.69911567,24.8324918 C4.76875346,24.8480189 4.84180184,24.8350802 4.9016,24.7966265 L6.9124,23.5518072 C6.97545286,23.5136089 7.01970713,23.4514411 7.03470164,23.3799996 C7.04969614,23.3085581 7.03410001,23.2341838 6.9916,23.1744578 Z" id="Path"></path>
                        <path d="M4.0216,25.2824096 L2.6444,23.3436145 C2.58016158,23.2566397 2.45753685,23.2355339 2.3672,23.2959036 L0.352,24.6318072 C0.260183071,24.6940367 0.234889219,24.8167872 0.2948,24.9093976 L1.5576,26.8221687 C1.61907285,26.9116284 1.74067673,26.9382667 1.8348,26.8828916 L3.9644,25.5816867 C4.01876681,25.5550813 4.05732872,25.5048815 4.06856678,25.4460827 C4.07980484,25.3872839 4.06241802,25.3266931 4.0216,25.2824096 Z" id="Path"></path>
                        <path d="M39.6352,5.26554217 L38.4428,3.59566265 C38.3035651,3.40896489 38.040051,3.36312454 37.8444,3.49156627 L33.1892,6.70554217 C33.002008,6.83951217 32.9520171,7.09348899 33.0748,7.28674699 L34.1968,8.99566265 C34.2620532,9.09125769 34.363211,9.15733007 34.4779522,9.17930059 C34.5926935,9.2012711 34.7115876,9.17733399 34.8084,9.11277108 L39.534,5.85542169 C39.7219095,5.71685793 39.7664375,5.4573108 39.6352,5.26554217 Z" id="Path"></path>
                        <path d="M9.2268,26.3016867 L7.766,24.2674699 C7.73579166,24.2234313 7.68866756,24.1934447 7.63551759,24.1844396 C7.58236761,24.1754345 7.52779106,24.1881902 7.4844,24.219759 L2.4596,27.6896386 C2.37043732,27.7500108 2.3469278,27.8697472 2.4068,27.9585542 L3.7796,30.053494 C3.8092397,30.0991924 3.85647616,30.1310257 3.91043147,30.1416631 C3.96438677,30.1523005 4.02041008,30.1408251 4.0656,30.1098795 L9.174,26.5836145 C9.26698548,26.5197708 9.2905306,26.3940507 9.2268,26.3016867 Z" id="Path"></path>
                        <path d="M25.212,10.7436145 L23.8656,8.80048193 C23.8027221,8.71203179 23.6798603,8.68896277 23.5884,8.74843373 L12.43,16.1739759 C12.3387559,16.2345922 12.31335,16.3559598 12.3728,16.4472289 L13.75,18.5291566 C13.7796397,18.574855 13.8268762,18.6066883 13.8808315,18.6173257 C13.9347868,18.6279631 13.9908101,18.6164877 14.036,18.5855422 L25.1592,11.0212048 C25.2035857,10.9913287 25.2340944,10.945277 25.2439992,10.8932036 C25.253904,10.8411302 25.2423915,10.7873116 25.212,10.7436145 Z" id="Path"></path>
                    </g>
                    <path d="M395.917729,145.999901 L394.688374,144.206495 C394.535489,143.990371 394.243071,143.93548 394.024913,144.081953 L392.210152,145.337337 C391.996376,145.488512 391.936291,145.784341 392.073557,146.009865 L393.200465,147.778363 C393.345444,148.000143 393.635731,148.066017 393.859048,147.927813 L395.781134,146.692355 C395.889444,146.619258 395.964755,146.50509 395.990392,146.375124 C396.016029,146.245159 395.989878,146.11012 395.917729,145.999901 Z" id="Path" fill="#464A5F"></path>
                    <path d="M392.915497,147.996302 L391.686843,146.204658 C391.534398,145.991117 391.245675,145.936388 391.028635,146.079892 L389.210032,147.332545 C388.996378,147.483992 388.936328,147.780353 389.073515,148.006283 L390.199781,149.777964 C390.344677,150.000143 390.634799,150.066136 390.857989,149.927683 L392.77898,148.694993 C392.888614,148.621725 392.964852,148.5064 392.99053,148.374982 C393.016208,148.243563 392.989168,148.107095 392.915497,147.996302 Z" id="Path" fill="#464A5F"></path>
                    <path d="M389.915497,149.996684 L388.686843,148.206678 C388.534044,147.990362 388.241793,147.935422 388.02376,148.082026 L386.210032,149.33852 C385.996378,149.489828 385.936328,149.785918 386.073515,150.011642 L387.199781,151.781704 C387.346214,152.001934 387.636034,152.065603 387.857989,151.9263 L389.77898,150.694736 C389.888614,150.621536 389.964852,150.506316 389.99053,150.375018 C390.016208,150.243719 389.989168,150.107376 389.915497,149.996684 Z" id="Path" fill="#464A5F"></path>
                    <path d="M386.904828,151.986422 L385.680866,150.203138 C385.529003,149.991183 385.241383,149.93686 385.025171,150.079299 L383.213513,151.327598 C383.105863,151.401886 383.0319,151.51708 383.008167,151.647413 C382.984435,151.777746 383.012912,151.912343 383.087231,152.021097 L384.209197,153.779613 C384.353539,154.000142 384.642554,154.065644 384.864891,153.92822 L386.773689,152.699736 C386.887822,152.626206 386.9668,152.507548 386.991678,152.372226 C387.016557,152.236903 386.985091,152.097125 386.904828,151.986422 Z" id="Path" fill="#464A5F"></path>
                    <path d="M383.917659,154.996302 L382.687259,153.204658 C382.534598,152.991117 382.245465,152.936388 382.028117,153.079892 L380.20693,154.332545 C379.994663,154.485537 379.93673,154.781611 380.075101,155.006283 L381.198085,156.777964 C381.343187,157.000143 381.633721,157.066136 381.857228,156.927683 L383.780948,155.690002 C383.88935,155.616773 383.964725,155.502399 383.990384,155.3722 C384.016043,155.242001 383.98987,155.106718 383.917659,154.996302 Z" id="Path" fill="#464A5F"></path>
                    <path d="M380.952412,156.213741 L379.504959,154.094949 C379.473969,154.047338 379.425677,154.014493 379.370909,154.003777 C379.316141,153.99306 379.259477,154.005368 379.213619,154.037941 L377.095621,155.505893 C377.048527,155.536974 377.015607,155.586234 377.004295,155.642551 C376.992983,155.698868 377.004232,155.757491 377.035504,155.805184 L378.36272,157.900223 C378.425864,158.000397 378.555561,158.030005 378.654061,157.966732 L380.892294,156.541536 C380.946691,156.509812 380.984739,156.455101 380.99632,156.391954 C381.007902,156.328807 380.991842,156.263624 380.952412,156.213741 Z" id="Path" fill="#464A5F"></path>
                    <path d="M376.954693,159.212126 L375.506405,157.095216 C375.474533,157.047336 375.425405,157.014425 375.369852,157.003741 C375.3143,156.993056 375.256886,157.005475 375.21027,157.038259 L373.095677,158.504907 C373.048555,158.535961 373.015616,158.585177 373.004297,158.641444 C372.992978,158.69771 373.004235,158.756282 373.035524,158.803933 L374.363507,160.901856 C374.39378,160.950193 374.441759,160.983981 374.496611,160.995592 C374.551464,161.007203 374.608563,160.995656 374.655015,160.96356 L376.894541,159.53963 C376.947741,159.506836 376.984747,159.452287 376.996239,159.38972 C377.00773,159.327153 376.992613,159.26253 376.954693,159.212126 Z" id="Path" fill="#464A5F"></path>
                    <path d="M374.961876,161.225131 L373.510447,159.090395 C373.442746,158.994631 373.313512,158.971392 373.218306,159.037863 L371.094489,160.489674 C370.997724,160.558192 370.971066,160.693348 371.034206,160.795318 L372.36507,162.901399 C372.429856,162.9999 372.558014,163.02923 372.65721,162.968259 L374.901593,161.535551 C374.95045,161.50338 374.984484,161.45211 374.995857,161.393548 C375.007229,161.334986 374.994961,161.274179 374.961876,161.225131 Z" id="Path" fill="#464A5F"></path>
                    <path d="M371.941475,163.195543 L370.498148,161.089966 C370.430825,160.994656 370.302313,160.971528 370.207638,161.037683 L368.095678,162.501605 C368.048415,162.533599 368.015502,162.583718 368.004246,162.640834 C367.99299,162.697949 368.004325,162.757333 368.035732,162.805797 L369.359165,164.901868 C369.42359,164.9999 369.551032,165.029091 369.649675,164.96841 L371.881528,163.542511 C371.942105,163.511789 371.984875,163.453178 371.996712,163.384668 C372.008549,163.316158 371.988038,163.245931 371.941475,163.195543 Z" id="Path" fill="#464A5F"></path>
                    <path d="M368.952412,165.212743 L367.504959,163.094906 C367.473969,163.047317 367.425677,163.014487 367.370909,163.003775 C367.316141,162.993063 367.259477,163.005365 367.213619,163.037924 L365.095621,164.505215 C365.048527,164.536282 365.015607,164.58552 365.004295,164.641811 C364.992983,164.698102 365.004232,164.7567 365.035504,164.804371 L366.36272,166.898466 C366.392225,166.947601 366.439834,166.982388 366.494712,166.994911 C366.54959,167.007433 366.607067,166.996624 366.654061,166.964945 L368.892294,165.540391 C368.946691,165.508681 368.984739,165.453996 368.99632,165.390877 C369.007902,165.327758 368.991842,165.262604 368.952412,165.212743 Z" id="Path" fill="#464A5F"></path>
                    <path d="M365.952395,167.214555 L364.504439,165.089966 C364.436901,164.994656 364.307976,164.971528 364.212998,165.037683 L362.094263,166.501605 C361.997729,166.569798 361.971136,166.704312 362.034124,166.805797 L363.361803,168.901868 C363.426434,168.9999 363.554286,169.029091 363.653245,168.96841 L365.892257,167.542511 C365.946672,167.510772 365.984734,167.456034 365.996319,167.392856 C366.007904,167.329678 365.991839,167.264463 365.952395,167.214555 Z" id="Path" fill="#464A5F"></path>
                    <path d="M361.952412,169.212743 L360.504959,167.094906 C360.473969,167.047317 360.425677,167.014487 360.370909,167.003775 C360.316141,166.993063 360.259477,167.005365 360.213619,167.037924 L358.095621,168.505215 C358.048527,168.536282 358.015607,168.58552 358.004295,168.641811 C357.992983,168.698102 358.004232,168.7567 358.035504,168.804371 L359.36272,170.898466 C359.392225,170.947601 359.439834,170.982388 359.494712,170.994911 C359.54959,171.007433 359.607067,170.996624 359.654061,170.964945 L361.892294,169.540391 C361.946691,169.508681 361.984739,169.453996 361.99632,169.390877 C362.007902,169.327758 361.991842,169.262604 361.952412,169.212743 Z" id="Path" fill="#464A5F"></path>
                    <path d="M393.917659,142.998799 L392.687259,141.204403 C392.534598,140.991128 392.245465,140.936467 392.028117,141.079793 L390.20693,142.335869 C389.994663,142.48867 389.93673,142.784376 390.075101,143.008767 L391.198085,144.77824 C391.343187,145.000143 391.633721,145.066053 391.857228,144.927773 L393.780948,143.691634 C393.88935,143.618497 393.964725,143.504265 393.990384,143.374228 C394.016043,143.244192 393.98987,143.109078 393.917659,142.998799 Z" id="Path" fill="#464A5F"></path>
                    <path d="M389.915425,136.997369 L388.685727,135.204768 C388.533153,134.991112 388.244185,134.936354 388.02696,135.079935 L386.206812,136.333258 C385.994666,136.486331 385.936767,136.782564 386.075058,137.007355 L387.202282,138.779983 C387.346997,138.999359 387.633855,139.065076 387.856169,138.929783 L389.778792,137.696433 C389.88852,137.623126 389.964822,137.50774 389.990522,137.376251 C390.016221,137.244762 389.989158,137.108222 389.915425,136.997369 Z" id="Path" fill="#464A5F"></path>
                    <path d="M391.919811,145.007355 L390.688735,143.204768 C390.53599,142.991112 390.246698,142.936354 390.029231,143.079935 L388.207043,144.333258 C387.99466,144.486331 387.936696,144.782564 388.075142,145.007355 L389.203628,146.779983 C389.348506,146.999359 389.635685,147.065076 389.858248,146.929783 L391.783025,145.696433 C392.005925,145.544046 392.066977,145.23649 391.919811,145.007355 Z" id="Path" fill="#464A5F"></path>
                    <path d="M387.908916,147.995578 L386.695364,146.204584 C386.542365,145.99112 386.252591,145.936411 386.034761,146.079863 L384.20954,147.332062 C383.993894,147.485329 383.935555,147.784917 384.077419,148.010545 L385.202891,149.781583 C385.349856,150.001936 385.640732,150.065639 385.863494,149.92626 L387.791476,148.694016 C387.89837,148.61765 387.970908,148.500909 387.992962,148.369749 C388.015016,148.238589 387.984759,148.103882 387.908916,147.995578 Z" id="Path" fill="#464A5F"></path>
                    <path d="M384.917729,148.999901 L383.688374,147.206495 C383.535489,146.990371 383.243071,146.93548 383.024913,147.081953 L381.210152,148.337337 C380.996376,148.488512 380.936291,148.784341 381.073557,149.009865 L382.200465,150.778363 C382.345444,151.000143 382.635731,151.066017 382.859048,150.927813 L384.781134,149.692355 C384.889444,149.619258 384.964755,149.50509 384.990392,149.375124 C385.016029,149.245159 384.989878,149.11012 384.917729,148.999901 Z" id="Path" fill="#464A5F"></path>
                    <path d="M386.919811,139.007355 L385.688735,137.204768 C385.53599,136.991112 385.246698,136.936354 385.029231,137.079935 L383.207043,138.333258 C382.99466,138.486331 382.936696,138.782564 383.075142,139.007355 L384.203628,140.779983 C384.348506,140.999359 384.635685,141.065076 384.858248,140.929783 L386.783025,139.696433 C387.005925,139.544046 387.066977,139.23649 386.919811,139.007355 Z" id="Path" fill="#464A5F"></path>
                    <path d="M383.917729,140.998799 L382.688374,139.204403 C382.535843,138.991128 382.246955,138.936467 382.029792,139.079793 L380.210152,140.335869 C379.996376,140.487127 379.936291,140.783119 380.073557,141.008767 L381.200465,142.77824 C381.345444,143.000143 381.635731,143.066053 381.859048,142.927773 L383.781134,141.691634 C383.889444,141.618497 383.964755,141.504265 383.990392,141.374228 C384.016029,141.244192 383.989878,141.109078 383.917729,140.998799 Z" id="Path" fill="#464A5F"></path>
                    <path d="M380.916951,142.99492 L379.68784,141.206495 C379.534985,140.990371 379.242626,140.93548 379.024511,141.081953 L377.21011,142.332356 C376.996377,142.48353 376.936304,142.779359 377.073542,143.004883 L378.200227,144.778363 C378.345176,145.000143 378.635406,145.066017 378.858679,144.927813 L380.775506,143.692355 C380.885973,143.620017 380.963242,143.505266 380.989859,143.374026 C381.016476,143.242785 380.990194,143.106126 380.916951,142.99492 Z" id="Path" fill="#464A5F"></path>
                    <path d="M381.92198,152.002368 L380.690223,150.20528 C380.537394,149.99109 380.247941,149.936194 380.030353,150.080135 L378.207158,151.326583 C377.994657,151.480039 377.936661,151.777014 378.075184,152.002368 L379.204294,153.779432 C379.349252,153.999357 379.63659,154.065238 379.859276,153.929607 L381.785118,152.688165 C382.005158,152.535655 382.065943,152.231067 381.92198,152.002368 Z" id="Path" fill="#464A5F"></path>
                    <path d="M378.903815,153.983925 L377.678827,152.20339 C377.526837,151.991172 377.238975,151.936782 377.022583,152.079397 L375.209405,153.349083 C374.996389,153.49959 374.936518,153.794114 375.073295,154.018643 L376.196202,155.77934 C376.340665,156.000142 376.629922,156.065726 376.852445,155.928131 L378.767705,154.703083 C378.88418,154.630328 378.965286,154.510939 378.99118,154.374125 C379.017073,154.237312 378.985366,154.095696 378.903815,153.983925 Z" id="Path" fill="#464A5F"></path>
                    <path d="M375.948173,156.212743 L374.495474,154.094906 C374.464371,154.047317 374.415904,154.014487 374.360938,154.003775 C374.305971,153.993063 374.249102,154.005365 374.203078,154.037924 L372.095968,155.505215 C372.048703,155.536282 372.015663,155.58552 372.00431,155.641811 C371.992957,155.698102 372.004248,155.7567 372.035632,155.804371 L373.36766,157.898466 C373.397272,157.947601 373.445053,157.982388 373.50013,157.994911 C373.555206,158.007433 373.612892,157.996624 373.660056,157.964945 L375.906402,156.540391 C375.95689,156.50447 375.990213,156.448414 375.998167,156.386026 C376.00612,156.323637 375.987966,156.260712 375.948173,156.212743 Z" id="Path" fill="#464A5F"></path>
                    <path d="M372.951342,158.213797 L371.504873,156.090321 C371.435721,155.994435 371.305436,155.971417 371.209109,156.038065 L369.092549,157.501221 C368.998207,157.570786 368.972009,157.703364 369.032472,157.805253 L370.363409,159.900226 C370.42651,160.000397 370.556119,160.030004 370.654552,159.966733 L372.886644,158.541581 C372.943051,158.511961 372.98325,158.457529 372.995845,158.393718 C373.00844,158.329907 372.992058,158.263674 372.951342,158.213797 Z" id="Path" fill="#464A5F"></path>
                    <path d="M368.947169,160.214555 L367.501127,158.089966 C367.433678,157.994656 367.304924,157.971528 367.210071,158.037683 L365.094139,159.501605 C364.997732,159.569798 364.971174,159.704312 365.034079,159.805797 L366.360002,161.901868 C366.424548,161.9999 366.55223,162.029091 366.651058,161.96841 L368.887109,160.542511 C368.944194,160.513356 368.984683,160.458346 368.996483,160.393912 C369.008283,160.329479 368.990027,160.263082 368.947169,160.214555 Z" id="Path" fill="#464A5F"></path>
                    <path d="M366.945137,163.213741 L365.508515,161.094949 C365.477459,161.047338 365.429064,161.014493 365.37418,161.003777 C365.319296,160.99306 365.262512,161.005368 365.216556,161.037941 L363.094063,162.505893 C362.997961,162.572285 362.971202,162.705218 363.033817,162.805184 L364.363851,164.900223 C364.427129,165.000397 364.557101,165.030005 364.65581,164.966732 L366.898795,163.541536 C366.952493,163.508489 366.988859,163.452452 366.997842,163.388911 C367.006825,163.32537 366.987474,163.261055 366.945137,163.213741 Z" id="Path" fill="#464A5F"></path>
                    <path d="M385.917659,144.00167 L384.692142,142.206678 C384.539126,141.990362 384.24646,141.935422 384.028117,142.082026 L382.20693,143.33852 C381.994663,143.491372 381.93673,143.787176 382.075101,144.011642 L383.202968,145.781704 C383.349608,146.001934 383.639841,146.065603 383.86211,145.9263 L385.780948,144.694736 C385.88935,144.621575 385.964725,144.507305 385.990384,144.377225 C386.016043,144.247145 385.98987,144.111986 385.917659,144.00167 Z" id="Path" fill="#464A5F"></path>
                    <path d="M382.917659,146.999076 L381.687259,145.208002 C381.536084,144.992821 381.246692,144.935871 381.028117,145.078287 L379.20693,146.33553 C378.994663,146.488473 378.93673,146.784454 379.075101,147.009054 L380.202968,148.780171 C380.347766,148.99936 380.634788,149.06502 380.857228,148.929843 L382.780948,147.692555 C382.88935,147.61935 382.964725,147.505012 382.990384,147.374854 C383.016043,147.244697 382.98987,147.109457 382.917659,146.999076 Z" id="Path" fill="#464A5F"></path>
                    <path d="M379.907222,147.994907 L378.658796,146.207011 C378.505365,145.990347 378.211905,145.935318 377.992969,146.082158 L376.210901,147.330689 C375.996363,147.48224 375.936064,147.778808 376.073819,148.004895 L377.204746,149.777809 C377.350242,150.000143 377.641565,150.066182 377.865678,149.927633 L379.794619,148.694084 C379.900792,148.616872 379.972384,148.499645 379.993522,148.368394 C380.01466,148.237142 379.983598,148.102712 379.907222,147.994907 Z" id="Path" fill="#464A5F"></path>
                    <path d="M376.915425,150.997369 L375.685727,149.204768 C375.533153,148.991112 375.244185,148.936354 375.02696,149.079935 L373.206812,150.333258 C372.994666,150.486331 372.936767,150.782564 373.075058,151.007355 L374.202282,152.779983 C374.346997,152.999359 374.633855,153.065076 374.856169,152.929783 L376.778792,151.696433 C376.88852,151.623126 376.964822,151.50774 376.990522,151.376251 C377.016221,151.244762 376.989158,151.108222 376.915425,150.997369 Z" id="Path" fill="#464A5F"></path>
                    <path d="M373.953857,153.211938 L372.506924,151.095208 C372.475082,151.047332 372.426,151.014424 372.3705,151.00374 C372.314999,150.993056 372.257639,151.005474 372.211066,151.038256 L370.09383,152.50478 C369.997966,152.571108 369.971273,152.703911 370.033733,152.80378 L371.360473,154.901526 C371.39159,154.95017 371.440337,154.984045 371.495887,154.99563 C371.551438,155.007215 371.609195,154.995549 371.656332,154.963224 L373.889138,153.539415 C373.944249,153.508568 373.98327,153.4543 373.995752,153.391144 C374.008233,153.327989 373.992899,153.262398 373.953857,153.211938 Z" id="Path" fill="#464A5F"></path>
                    <path d="M370.947614,155.214678 L369.496313,153.094989 C369.46524,153.047358 369.41682,153.014499 369.361906,153.003778 C369.306993,152.993057 369.250179,153.00537 369.204199,153.037957 L367.094481,154.501778 C366.997724,154.569966 366.971069,154.704471 367.034203,154.805949 L368.364948,156.901875 C368.429729,156.9999 368.557875,157.029089 368.657063,156.968412 L370.901246,155.542612 C370.953634,155.508429 370.988886,155.45254 370.997793,155.389543 C371.006701,155.326546 370.988379,155.262699 370.947614,155.214678 Z" id="Path" fill="#464A5F"></path>
                    <path d="M367.952395,157.213797 L366.504439,155.090321 C366.435217,154.994435 366.304798,154.971417 366.208372,155.038065 L364.094263,156.501221 C363.997729,156.569378 363.971136,156.703821 364.034124,156.805253 L365.361803,158.900226 C365.424969,159.000397 365.55471,159.030004 365.653245,158.966733 L367.892257,157.541581 C367.946672,157.509859 367.984734,157.45515 367.996319,157.392005 C368.007904,157.32886 367.991839,157.263679 367.952395,157.213797 Z" id="Path" fill="#464A5F"></path>
                    <path d="M364.954693,159.212126 L363.506405,157.095216 C363.474533,157.047336 363.425405,157.014425 363.369852,157.003741 C363.3143,156.993056 363.256886,157.005475 363.21027,157.038259 L361.095677,158.504907 C361.048555,158.535961 361.015616,158.585177 361.004297,158.641444 C360.992978,158.69771 361.004235,158.756282 361.035524,158.803933 L362.363507,160.901856 C362.39378,160.950193 362.441759,160.983981 362.496611,160.995592 C362.551464,161.007203 362.608563,160.995656 362.655015,160.96356 L364.894541,159.53963 C364.947741,159.506836 364.984747,159.452287 364.996239,159.38972 C365.00773,159.327153 364.992613,159.26253 364.954693,159.212126 Z" id="Path" fill="#464A5F"></path>
                    <path d="M363.951362,164.214734 L362.505477,162.090359 C362.436354,161.994433 362.306121,161.971404 362.209833,162.038081 L360.094128,163.501856 C359.997732,163.570043 359.971177,163.704543 360.034076,163.806018 L361.359855,165.901878 C361.424394,165.9999 361.552063,166.029088 361.65088,165.968413 L363.88669,164.542658 C363.943074,164.513025 363.983257,164.45857 363.995847,164.394732 C364.008437,164.330894 363.992061,164.264633 363.951362,164.214734 Z" id="Path" fill="#464A5F"></path>
                    <path d="M360.951358,166.212721 L359.50534,164.095242 C359.473518,164.047349 359.424466,164.014429 359.369001,164.003742 C359.313536,163.993054 359.256212,164.005476 359.209669,164.03827 L357.09377,165.505312 C356.997967,165.571663 356.971292,165.704514 357.033712,165.804418 L358.359613,167.898158 C358.389972,167.947596 358.438349,167.982462 358.493919,167.994954 C358.54949,168.007447 358.607614,167.996522 358.655285,167.964626 L360.88668,166.540313 C360.943069,166.51071 360.983255,166.45631 360.995847,166.392537 C361.008438,166.328763 360.99206,166.262569 360.951358,166.212721 Z" id="Path" fill="#464A5F"></path>
                    <path d="M364.952113,154.151582 L363.56752,152.123643 C363.475384,151.992915 363.298738,151.960922 363.168569,152.051388 L361.126881,153.453123 C360.996295,153.544677 360.960861,153.726507 361.047091,153.862564 L362.314346,155.866419 C362.40206,156.002109 362.579519,156.040677 362.713296,155.953124 L364.853548,154.570657 C364.923119,154.530686 364.973298,154.462753 364.992006,154.383211 C365.010714,154.303668 364.996256,154.219723 364.952113,154.151582 Z" id="Path" fill="#464A5F"></path>
                    <path d="M361.948122,156.150803 L360.559853,154.128658 C360.516924,154.064007 360.450577,154.019528 360.3755,154.00507 C360.300423,153.990612 360.22281,154.007366 360.159843,154.051624 L358.126852,155.457496 C357.996521,155.547206 357.96087,155.727428 358.04685,155.861925 L359.317469,157.864811 C359.405415,157.999875 359.581693,158.040188 359.717479,157.956289 L361.86812,156.57449 C361.934031,156.529479 361.979586,156.459345 361.994617,156.379742 C362.009648,156.300138 361.992904,156.217692 361.948122,156.150803 Z" id="Path" fill="#464A5F"></path>
                    <path d="M359.953458,158.1514 L358.548255,156.123261 C358.458029,155.993142 358.283236,155.96104 358.154799,156.050999 L356.126624,157.452872 C355.996303,157.544435 355.96094,157.726283 356.046995,157.862354 L357.311677,159.866406 C357.399213,160.002109 357.576312,160.040681 357.709818,159.95312 L359.85041,158.570516 C359.920619,158.531385 359.971702,158.46382 359.991279,158.384195 C360.010857,158.30457 359.997142,158.220153 359.953458,158.1514 Z" id="Path" fill="#464A5F"></path>
                    <path d="M355.952413,160.213797 L354.504977,158.090321 C354.43578,157.994435 354.305407,157.971417 354.209016,158.038065 L352.091044,159.501221 C351.996134,159.570855 351.971644,159.705029 352.035551,159.805253 L353.362752,161.900226 C353.425895,162.000397 353.55559,162.030004 353.654089,161.966733 L355.892295,160.541581 C355.946691,160.509859 355.984739,160.45515 355.996321,160.392005 C356.007902,160.32886 355.991842,160.263679 355.952413,160.213797 Z" id="Path" fill="#464A5F"></path>
                    <path d="M391.926483,139.925377 L390.700319,138.183957 C390.554997,137.989765 390.279962,137.942085 390.075756,138.075682 L385.18947,141.418666 C384.994093,141.558014 384.941917,141.822185 385.070068,142.0232 L386.245716,143.800711 C386.313822,143.900144 386.419403,143.968868 386.539161,143.991721 C386.658918,144.014573 386.783011,143.989675 386.884056,143.922521 L391.811674,140.534422 C392.008175,140.393364 392.058536,140.126206 391.926483,139.925377 Z" id="Path" fill="#464A5F"></path>
                    <path d="M360.962143,161.132894 L359.478179,159.086371 C359.447491,159.042066 359.39962,159.011898 359.345627,159.002839 C359.291634,158.993779 359.236192,159.006612 359.192113,159.038372 L354.087633,162.529243 C353.996482,162.5916 353.972709,162.713445 354.033995,162.804149 L355.433034,164.907399 C355.463144,164.953373 355.511129,164.985399 355.56594,164.996101 C355.620751,165.006803 355.677663,164.995258 355.723569,164.964125 L360.912976,161.416528 C361.005923,161.350936 361.027808,161.224691 360.962143,161.132894 Z" id="Path" fill="#464A5F"></path>
                    <path d="M377.956348,146.039696 L376.625069,144.089308 C376.561402,143.997848 376.435814,143.972653 376.341063,144.032331 L365.091758,151.527078 C365.046566,151.555753 365.014976,151.6012 365.004121,151.653157 C364.993266,151.705114 365.004061,151.759199 365.034069,151.8032 L366.418599,153.906989 C366.448492,153.953167 366.496132,153.985335 366.550548,153.996084 C366.604965,154.006833 366.661467,153.995237 366.707043,153.963967 L377.925285,146.320201 C378.011203,146.250629 378.025008,146.125966 377.956348,146.039696 Z" id="Path" fill="#464A5F"></path>
                    <path d="M377.801301,139.080157 L371.741897,130.477493 C371.392975,129.979914 370.698502,129.850499 370.18659,130.187664 L353.496257,141.135311 C353.248006,141.299308 353.076739,141.553053 353.020238,141.840569 C352.963738,142.128084 353.026646,142.425747 353.195085,142.667894 L359.371362,151.516473 C359.539147,151.759245 359.799287,151.926444 360.093912,151.980875 C360.388537,152.035306 360.69321,151.972455 360.940155,151.806302 L377.513614,140.603957 C377.759101,140.439541 377.927445,140.186377 377.98143,139.900431 C378.035415,139.614485 377.970596,139.319309 377.801301,139.080157 Z" id="Path" fill="#000000" opacity="0.1"></path>
                    <path d="M377.798267,139.079172 L371.735296,130.475853 C371.38473,129.980389 370.691814,129.851331 370.179074,130.186002 L353.501406,141.143266 C353.251301,141.305811 353.078218,141.559326 353.02076,141.847268 C352.963301,142.135209 353.026247,142.433628 353.195559,142.675966 L359.35748,151.516436 C359.525364,151.759227 359.785657,151.926439 360.080455,151.980874 C360.375253,152.035309 360.680106,151.972453 360.927196,151.806288 L377.519407,140.603089 C377.763598,140.437302 377.930223,140.183482 377.982535,139.897603 C378.034848,139.611725 377.968552,139.317269 377.798267,139.079172 Z" id="Path" fill="#939498"></path>
                    <path d="M414.67088,152.168981 L402.152081,148 L362,175.845646 L374.426879,179.887897 C375.106185,180.109181 375.850149,179.999145 376.436015,179.590737 L414.784688,152.968691 C414.93728,152.878812 415.020555,152.705964 414.995633,152.530844 C414.970712,152.355723 414.84251,152.212871 414.67088,152.168981 Z" id="Path" fill="#FFFFFF"></path>
                </g>
            </g>
        </g>
    </g>
</svg>