<?xml version="1.0" encoding="UTF-8"?>
<svg width="568px" height="393px" viewBox="0 0 568 393" version="1.1" xmlns="http://www.w3.org/2000/svg" xmlns:xlink="http://www.w3.org/1999/xlink">
    <!-- Generator: Sketch 52.5 (67469) - http://www.bohemiancoding.com/sketch -->
    <title>ILLU</title>
    <desc>Created with Sketch.</desc>
    <defs>
        <linearGradient x1="49.9996956%" y1="99.9906158%" x2="49.9996956%" y2="-0.00256609128%" id="linearGradient-1">
            <stop stop-color="#808080" stop-opacity="0.25" offset="0%"></stop>
            <stop stop-color="#808080" stop-opacity="0.12" offset="54%"></stop>
            <stop stop-color="#808080" stop-opacity="0.1" offset="100%"></stop>
        </linearGradient>
    </defs>
    <g id="Settings" stroke="none" stroke-width="1" fill="none" fill-rule="evenodd">
        <g id="06_09_KYC_FirstPage" transform="translate(-502.000000, -298.000000)">
            <g id="CONTENT" transform="translate(202.000000, 59.000000)">
                <g id="ILLU" transform="translate(300.000000, 239.000000)">
                    <path d="M4.36439392,206.294739 C14.4074512,189.868342 37.1189086,192.731613 53.2246646,201.306461 C69.3304206,209.88131 85.4013049,222.68123 103.126105,220.222009 C118.071131,218.146886 130.326052,205.097552 136.946699,190.042931 C143.567345,174.98831 145.510198,158.013203 147.373345,141.387275 C149.714732,120.499695 152.054459,99.5988129 154.392525,78.684629 C155.249373,71.0375999 156.260653,62.9665672 160.554858,56.9157869 C166.228986,48.9345432 176.630723,46.4803108 185.527995,48.8796721 C194.425267,51.2790335 202.012359,57.7139112 208.503482,64.8920423 C229.296994,87.878024 241.078656,118.950003 259.256789,144.529889 C262.958174,149.737651 267.137799,154.885553 272.667459,157.399645 C280.638139,161.016146 289.789476,158.457159 297.575835,154.43162 C322.982378,141.317439 340.049598,114.555331 356.822898,89.5840149 C364.982882,77.4475362 374.931288,64.4680387 388.506353,63.1461452 C402.788816,61.7244862 415.188205,73.9108476 423.582328,86.815521 C450.523228,128.337941 456.296989,185.024724 488.842274,221.239617 C492.882412,225.729067 497.341012,229.879314 502.477119,232.667761 C504.170987,233.584269 505.937105,234.360055 507.757695,234.98731 C536.153243,244.829181 545.618426,284.336337 524.615684,307.761287 C524.162351,308.260115 523.699055,308.758943 523.230778,309.25777 C520.112249,312.555022 516.580241,315.672695 512.365744,316.655386 C508.445166,317.563252 504.395064,316.515714 500.509357,315.383375 C475.670724,308.125431 451.130992,297.031503 425.450456,297.570237 C400.462373,298.069064 376.759563,309.626903 352.050453,313.787126 C335.436567,316.58555 318.533742,316.026863 301.735534,315.423281 C245.788,313.408017 189.85209,311.063527 133.927803,308.38981 C106.169909,307.112811 78.4020512,305.895671 50.6491385,304.474012 C29.2677884,303.361627 15.6478883,300.912382 13.1670141,276.065773 C10.9950037,254.306908 -8.51323656,227.365222 4.36439392,206.294739 Z" id="Path" fill="#0053FA" opacity="0.1"></path>
                    <ellipse id="Oval" fill="#30374E" cx="393.5" cy="374" rx="134.5" ry="19"></ellipse>
                    <path d="M74,292.231788 C74,292.231788 80.6453089,290.808114 85,295.017444 C85,295.017444 82.2009153,297.390234 75.6160183,294.761183 L74,292.231788 Z" id="Path" fill="#0053FA"></path>
                    <path d="M73.1930717,293 C73.1930717,293 69.3884299,298.428953 71.8016043,304 C71.8016043,304 75.0905274,302.407572 74.9980873,295.449889 L73.1930717,293 Z" id="Path" fill="#0053FA"></path>
                    <path d="M69,284.827596 C69,284.827596 71.2581481,280.122986 82,285.810234 C82,285.810234 80.8444444,288.952821 76.28,288.999172 C71.7155556,289.045523 70.3481481,287.140503 69,284.827596 Z" id="Path" fill="#0053FA"></path>
                    <path d="M68.2589457,284.000386 C68.2589457,284.000386 62.6992075,283.750365 63.0127827,295.98215 C63.0127827,295.98215 66.5616577,296.462959 68.7765937,292.433778 C70.9915297,288.404598 69.816867,286.322694 68.2589457,284.000386 Z" id="Path" fill="#0053FA"></path>
                    <path d="M64,273.986786 C64,273.986786 66.4587285,265.488569 78,270.679788 C78,270.679788 75.9838426,278.461809 65.312961,276.755436 L64,273.986786 Z" id="Path" fill="#0053FA"></path>
                    <path d="M60,261.835141 C60,261.835141 65.2102185,252.280915 76,260.033247 C76,260.033247 72.9516774,268.869859 61.0834103,265.035597 L60,261.835141 Z" id="Path" fill="#0053FA"></path>
                    <path d="M58,248.859709 C58,248.859709 64.2488359,240.946462 75,247.781267 C75,247.781267 69.0331781,254.756129 58.1335856,250.769159 L58,248.859709 Z" id="Path" fill="#0053FA"></path>
                    <path d="M56,237.598798 C56,237.598798 62.4578744,228.44535 73,235.966105 C73,235.966105 65.5704079,244.171036 56.1315868,239.630594 L56,237.598798 Z" id="Path" fill="#0053FA"></path>
                    <path d="M56,226.434805 C56,226.434805 62.4441041,215.61857 72,222.032458 C72,222.032458 64.9335375,231.427651 56.1372129,228.398338 L56,226.434805 Z" id="Path" fill="#0053FA"></path>
                    <path d="M57,214.032541 C57,214.032541 63.7694167,203.204841 73,210.561876 C73,210.561876 64.731641,220.10862 57.1063765,215.951557 L57,214.032541 Z" id="Path" fill="#0053FA"></path>
                    <path d="M58.225,203.102075 C58.225,203.102075 66.725,192.146581 75,195.714443 C75,195.714443 66.16,207.333127 58,205.87308 L58.225,203.102075 Z" id="Path" fill="#0053FA"></path>
                    <path d="M60.612567,192.699121 C60.612567,192.699121 70.5047647,180.051581 77,183.641536 C77,183.641536 69.7555092,193.414193 60,195 L60.612567,192.699121 Z" id="Path" fill="#0053FA"></path>
                    <path d="M65.0151057,179.806466 C65.0151057,179.806466 73.3148036,169.234082 80,171.257315 C80,171.257315 73.0151057,182.112356 64,183 L65.0151057,179.806466 Z" id="Path" fill="#0053FA"></path>
                    <path d="M68.2952974,167.873841 C68.2952974,167.873841 77.5802213,157.76206 82,159.126659 C82,159.126659 75.5373444,170.10236 68,169.999278 L68.2952974,167.873841 Z" id="Path" fill="#0053FA"></path>
                    <path d="M71,157.806061 C71,157.806061 79.1010844,145.431114 84,146.020397 C84,146.020397 79.3125484,156.87858 71.0805577,159 L71,157.806061 Z" id="Path" fill="#0053FA"></path>
                    <path d="M75.1239705,143.2064 C75.1239705,143.2064 81.9852622,134.2496 86,134 C86,134 80.893368,145.6832 75,146 L75.1239705,143.2064 Z" id="Path" fill="#0053FA"></path>
                    <path d="M76.699795,133.583147 L82.8993878,115 C82.8993878,115 84.3778281,131.320036 76,137 L76.699795,133.583147 Z" id="Path" fill="#0053FA"></path>
                    <path d="M78.6399182,113.332905 C78.6399182,113.332905 78.8516205,98.1719118 78,97 C78,97 83.9998346,109.181974 79.0296428,120 L78.6399182,113.332905 Z" id="Path" fill="#0053FA"></path>
                    <path d="M62.9262963,273.775383 C62.9262963,273.775383 55.0974074,269.26286 51,282.009951 C51,282.009951 57.9814815,286.344486 64,276.87447 L62.9262963,273.775383 Z" id="Path" fill="#0053FA"></path>
                    <path d="M59.9020671,261.489086 C59.9020671,261.489086 49.8783463,257.923648 46,270.046137 C46,270.046137 53.8634361,274.425164 61,264.418009 L59.9020671,261.489086 Z" id="Path" fill="#0053FA"></path>
                    <path d="M56.867456,249.866358 C56.867456,249.866358 49.6069882,242.737014 40,250.965721 C40,250.965721 46.8431995,257.189152 57,251.810295 L56.867456,249.866358 Z" id="Path" fill="#0053FA"></path>
                    <path d="M55.855,237.112419 C55.855,237.112419 48.355,229.702116 39,237.749864 C39,237.749864 47.33,244.185251 56,238.945075 L55.855,237.112419 Z" id="Path" fill="#0053FA"></path>
                    <path d="M56,227.56668 C56,227.56668 50.2896638,215.717533 40,221.674923 C40,221.674923 46.4643418,232.090258 55.7034244,229.621475 L56,227.56668 Z" id="Path" fill="#0053FA"></path>
                    <path d="M57,214.428826 C57,214.428826 51.345602,202.476855 41,208.892913 C41,208.892913 48.316282,219.699695 56.6406737,216.359144 L57,214.428826 Z" id="Path" fill="#0053FA"></path>
                    <path d="M59,202.562044 C59,202.562044 56.1261146,189.593674 47,189 C47,189 49.8942675,202.688564 57.9605096,205 L59,202.562044 Z" id="Path" fill="#0053FA"></path>
                    <path d="M61,192.601346 C61,192.601346 59.2107259,176.076716 52,176 C52,176 53.0482124,188.566083 60.3418202,195 L61,192.601346 Z" id="Path" fill="#0053FA"></path>
                    <path d="M65,179.613662 C65,179.613662 61.9662921,166.179171 55,165 C55,165 56.7098192,178.101904 64.5407914,183 L65,179.613662 Z" id="Path" fill="#0053FA"></path>
                    <path d="M69,169.087055 C69,169.087055 67.9469907,154.806105 63.2610994,153 C63.2610994,153 61.3604177,166.115885 67.8153646,171 L69,169.087055 Z" id="Path" fill="#0053FA"></path>
                    <path d="M72,157.018659 C72,157.018659 70.4715506,142.719825 66.0269169,141 C66.0269169,141 65.2990839,152.444023 71.4128814,158 L72,157.018659 Z" id="Path" fill="#0053FA"></path>
                    <path d="M76,144.492551 C76,144.492551 75.1280765,132.583433 71.5606336,130 C71.5606336,130 69.1256278,143.266687 74.405018,147 L76,144.492551 Z" id="Path" fill="#0053FA"></path>
                    <path d="M76.6428936,133.463084 L72.5616772,114 C72.5616772,114 69.6723615,130.398427 77,137 L76.6428936,133.463084 Z" id="Path" fill="#0053FA"></path>
                    <path d="M75.5982311,114.14891 C75.5982311,114.14891 66.9315858,101.474054 67.0004077,100 C67.0004077,100 68.740619,113.777889 79,120 L75.5982311,114.14891 Z" id="Path" fill="#0053FA"></path>
                    <path d="M76.4010152,110 C76.4010152,110 67.5380711,92.2715385 64,91 C64,91 75.213198,95.5941026 77,109.415385 L76.4010152,110 Z" id="Path" fill="#0053FA"></path>
                    <path d="M74.5207763,146 L74,145.874388 C79.1296463,124.771651 79.8535253,111.466878 76.0310275,108.412006 L76.3851553,108 C80.4159637,111.235753 79.7806166,124.379743 74.5207763,146 Z" id="Path" fill="#444053"></path>
                    <path d="M60.7610475,196 L60,195.784535 C60.5351882,193.850364 61.1145663,191.881116 61.7332242,189.941934 C67.1342062,173.04549 71.6219313,157.371684 74.3764321,145.375811 L75,145 C72.2405892,157.025938 67.8756137,173.275987 62.4844517,190.187463 C61.8707038,192.121635 61.2913257,194.07585 60.7610475,196 Z" id="Path" fill="#444053"></path>
                    <path d="M84.2622574,308 C84.1525929,307.894959 73.1861482,297.060682 64.7619247,277.868106 C59.825981,266.634139 56.6949617,254.686369 55.4853094,242.469133 C53.9898851,227.198105 56.0336316,209.891273 60.470057,194 L61.1081047,194.660261 C51.1386095,230.329341 58.0225459,259.855996 65.7090267,277.392918 C74.0485095,296.400421 84.8903356,307.129656 85,307.234698 L84.2622574,308 Z" id="Path" fill="#444053"></path>
                    <path d="M96,250.176776 C96,250.176776 100.236006,249.098329 103,252.268847 C103,252.268847 101.215582,254.036794 97.0325265,252.074373 L96,250.176776 Z" id="Path" fill="#0053FA"></path>
                    <path d="M96.0873776,250 C96.0873776,250 94.1990508,253.456153 95.3992585,257 C95.3992585,257 97.0315409,255.968312 96.9995354,251.557848 L96.0873776,250 Z" id="Path" fill="#0053FA"></path>
                    <path d="M93,245.216863 C93,245.216863 94.3889571,242.081333 101,245.876706 C101,245.876706 100.288344,247.968764 97.4760736,247.999455 C94.6638037,248.030145 93.8392638,246.761611 93,245.216863 Z" id="Path" fill="#0053FA"></path>
                    <path d="M92.0083205,245.000247 C92.0083205,245.000247 88.8285167,244.835818 89.0072631,252.988306 C89.0072631,252.988306 91.0346232,253.306555 92.2999593,250.622652 C93.5652954,247.938749 92.8973485,246.549061 92.0083205,245.000247 Z" id="Path" fill="#0053FA"></path>
                    <path d="M90,239.125193 C90,239.125193 91.6035984,233.807069 99,237.045702 C99,237.045702 97.7098085,241.916089 90.8566454,240.846494 L90,239.125193 Z" id="Path" fill="#0053FA"></path>
                    <path d="M87,231.684049 C87,231.684049 90.2535642,226.38224 97,230.681525 C97,230.681525 95.0906314,235.597749 87.6771894,233.462565 L87,231.684049 Z" id="Path" fill="#0053FA"></path>
                    <path d="M86,223.762408 C86,223.762408 89.6783823,218.100063 96,222.989014 C96,222.989014 92.4949446,227.960829 86.0818488,225.126895 L86,223.762408 Z" id="Path" fill="#0053FA"></path>
                    <path d="M85,216.873548 C85,216.873548 88.8010832,211.152146 95,215.855696 C95,215.855696 90.6326933,220.982457 85.0787789,218.143185 L85,216.873548 Z" id="Path" fill="#0053FA"></path>
                    <path d="M85,210.291624 C85,210.291624 89.054739,203.078079 95,207.355324 C95,207.355324 90.5803345,213.625438 85.0810948,211.595469 L85,210.291624 Z" id="Path" fill="#0053FA"></path>
                    <path d="M86,203.039385 C86,203.039385 90.245,195.803831 96,200.700512 C96,200.700512 90.83,207.076344 86.06,204.2996 L86,203.039385 Z" id="Path" fill="#0053FA"></path>
                    <path d="M87.121773,196.417938 C87.121773,196.417938 92.1242085,190.441925 97,192.390625 C97,192.390625 91.7929859,198.728539 87,197.9305 L87.121773,196.417938 Z" id="Path" fill="#0053FA"></path>
                    <path d="M88.3596059,189.657624 C88.3596059,189.657624 94.1773399,182.283941 98,184.372603 C98,184.372603 93.7389163,190.075356 88,191 L88.3596059,189.657624 Z" id="Path" fill="#0053FA"></path>
                    <path d="M90.62,182.138056 C90.62,182.138056 95.81,175.968273 100,177.150535 C100,177.150535 95.635,183.483059 90,184 L90.62,182.138056 Z" id="Path" fill="#0053FA"></path>
                    <path d="M92.1905034,175.645756 C92.1905034,175.645756 98.1578947,169.212463 101,170.08057 C101,170.08057 96.8501144,177.061597 92,176.999589 L92.1905034,175.645756 Z" id="Path" fill="#0053FA"></path>
                    <path d="M95,169.270027 C95,169.270027 99.9865471,161.657453 103,162.012012 C103,162.012012 100.119795,168.691263 95.0512492,170 L95,169.270027 Z" id="Path" fill="#0053FA"></path>
                    <path d="M97.0802867,160.149768 C97.0802867,160.149768 101.445878,154.169649 104,154 C104,154 100.748387,161.803844 97,162 L97.0802867,160.149768 Z" id="Path" fill="#0053FA"></path>
                    <path d="M98.4180741,153.958519 L101.943833,143 C101.943833,143 102.779981,152.62963 98,156 L98.4180741,153.958519 Z" id="Path" fill="#0053FA"></path>
                    <path d="M99.4298557,141.939802 C99.4298557,141.939802 99.5678341,132.713881 99,132 C99,132 103.001373,139.411473 99.684585,146 L99.4298557,141.939802 Z" id="Path" fill="#0053FA"></path>
                    <path d="M90.3484385,239.467249 C90.3484385,239.467249 85.5376607,236.753505 83,244.406057 C83,244.406057 87.296387,247.005429 91,241.3284 L90.3484385,239.467249 Z" id="Path" fill="#0053FA"></path>
                    <path d="M87.3441704,231.292957 C87.3441704,231.292957 81.3256726,229.155545 79,236.427493 C79,236.427493 83.7169283,239.054134 88,233.055133 L87.3441704,231.292957 Z" id="Path" fill="#0053FA"></path>
                    <path d="M85.9188157,224.637554 C85.9188157,224.637554 81.6542502,220.566776 76,225.26177 C76,225.26177 80.025788,228.828716 86,225.743307 L85.9188157,224.637554 Z" id="Path" fill="#0053FA"></path>
                    <path d="M84.9221032,217.220768 C84.9221032,217.220768 80.5063291,211.930332 75,217.680565 C75,217.680565 79.902629,222.272996 85,218.533683 L84.9221032,217.220768 Z" id="Path" fill="#0053FA"></path>
                    <path d="M85,210.54122 C85,210.54122 81.4311688,203.431556 75,207.003924 C75,207.003924 79.0415584,213.251811 84.812987,211.773762 L85,210.54122 Z" id="Path" fill="#0053FA"></path>
                    <path d="M86,203.461914 C86,203.461914 82.4708913,196.282146 76,200.137855 C76,200.137855 80.5646574,206.631943 85.7630088,204.609683 L86,203.461914 Z" id="Path" fill="#0053FA"></path>
                    <path d="M87,196.480121 C87,196.480121 85.323736,188.367388 80,188 C80,188 81.6860955,196.555611 86.3904494,198 L87,196.480121 Z" id="Path" fill="#0053FA"></path>
                    <path d="M89,189.609702 C89,189.609702 87.8214286,180.048954 83,180 C83,180 83.6964286,187.274588 88.5392857,191 L89,189.609702 Z" id="Path" fill="#0053FA"></path>
                    <path d="M91,181.936545 C91,181.936545 89.1810833,173.723483 85,173 C85,173 86.0282943,181.004169 90.7283751,184 L91,181.936545 Z" id="Path" fill="#0053FA"></path>
                    <path d="M93,175.832632 C93,175.832632 92.463838,167.090229 90.1317515,166 C90.1317515,166 89.1771217,174.017298 92.4071705,177 L93,175.832632 Z" id="Path" fill="#0053FA"></path>
                    <path d="M95,168.421408 C95,168.421408 93.9831178,160.012536 91.0181033,159 C91.0181033,159 90.5310702,165.750241 94.6093031,169 L95,168.421408 Z" id="Path" fill="#0053FA"></path>
                    <path d="M97,160.526368 C97,160.526368 96.4679334,153.522918 94.3396672,152 C94.3396672,152 92.8658429,159.806801 96.0582422,162 L97,160.526368 Z" id="Path" fill="#0053FA"></path>
                    <path d="M97.7881433,153.845376 L95.3379747,142 C95.3379747,142 93.6016711,151.984104 98,156 L97.7881433,153.845376 Z" id="Path" fill="#0053FA"></path>
                    <path d="M97.0163315,142.491083 C97.0163315,142.491083 91.9622479,134.890917 92.0002128,134 C92.0002128,134 93.0110295,142.267109 99,146 L97.0163315,142.491083 Z" id="Path" fill="#0053FA"></path>
                    <path d="M97.6330749,140 C97.6330749,140 92.1757106,128.789809 90,128 C90,128 96.9043928,130.904459 98,139.648408 L97.6330749,140 Z" id="Path" fill="#0053FA"></path>
                    <path d="M96.3242218,162 L96,161.924541 C99.0878263,149.151794 99.4995365,141.097769 97.214545,139.251531 L97.4255465,139 C99.8494902,140.961942 99.4686583,148.920385 96.3242218,162 Z" id="Path" fill="#444053"></path>
                    <path d="M88.4580401,192 L88,191.863902 C88.3216026,190.689431 88.6724418,189.494797 89.0427721,188.335447 C92.2734164,178.057561 94.9729291,168.525691 96.624797,161.23187 L97,161 C95.3432593,168.308943 92.7265836,178.198699 89.4910666,188.486667 C89.1207363,189.651057 88.7747699,190.825528 88.4580401,192 Z" id="Path" fill="#444053"></path>
                    <path d="M102.550055,259 C102.485777,258.934901 95.9096527,252.379926 90.8564206,240.762247 C87.8987278,233.963026 86.0213683,226.732853 85.2939096,219.339647 C84.3890745,210.09558 85.625188,199.619639 88.2902488,190 L88.6709718,190.40061 C82.6931267,211.988461 86.821746,229.860658 91.4299772,240.476813 C96.4337649,251.994339 102.930778,258.469192 103,258.534291 L102.550055,259 Z" id="Path" fill="#444053"></path>
                    <path d="M116.991127,284.077591 C115.711438,284.304363 114.458343,284.661076 113.251389,285.142165 C86.3551882,295.857544 86.8039569,366 86.8039569,366 L78.8856835,366 C78.8856835,366 76.3925244,335.89844 65.5273371,292.952353 C55.7391944,254.314307 95.8840423,219.685822 104.036673,213.119295 C104.954155,212.388022 105.46276,212 105.46276,212 C145.896814,226.824434 116.991127,284.077591 116.991127,284.077591 Z" id="Path" fill="#AFC0E0"></path>
                    <path d="M109,213.208916 C108.075537,212.781069 107.121413,212.373122 106.107964,212 C106.107964,212 105.613599,212.388047 104.69408,213.119367 C96.6112119,219.686319 56.8098818,254.317041 66.5142677,292.957584 C77.2864821,335.906445 79.7335891,366 79.7335891,366 L84.148269,366 C84.148269,366 81.701162,335.896495 70.9042293,292.947634 C61.2393926,254.48619 100.655118,219.984817 109,213.208916 Z" id="Path" fill="#FFFFFF" opacity="0.2"></path>
                    <path d="M250.473763,292.962303 C239.584582,335.908389 237.131525,366 237.131525,366 L229.198976,366 C229.198976,366 229.697565,292.693672 200.914029,284.510385 C200.290618,284.32371 199.656189,284.175844 199.014406,284.067642 C199.014406,284.067642 170.096251,226.814485 210.54178,212 C210.54178,212 210.950623,212.303453 211.688535,212.895436 C219.182326,218.87993 260.370753,253.876538 250.473763,292.962303 Z" id="Path" fill="#AFC0E0"></path>
                    <path d="M116.975143,283.937351 C115.69341,284.163713 114.438313,284.519781 113.229432,285 C108.358956,261.300697 105.273914,237.273078 104,213.117271 C104.918948,212.387321 105.428364,212 105.428364,212 C145.926992,226.787702 116.975143,283.937351 116.975143,283.937351 Z" id="Path" fill="#000000" opacity="0.1"></path>
                    <path d="M212,212.882363 C210.328787,237.174195 206.676056,261.292147 201.077583,285 C200.445614,284.812066 199.802476,284.663204 199.151882,284.554273 C199.151882,284.554273 169.836743,226.915254 210.837503,212.000926 C210.82234,211.980893 211.236796,212.286391 212,212.882363 Z" id="Path" fill="#000000" opacity="0.1"></path>
                    <path d="M196.80901,294.875969 C194.019003,305.884778 190.749048,317.179271 186.999145,328.759449 C186.999145,328.759449 169.202885,347.300689 126.216846,328.759449 C126.216846,328.759449 121.922228,316.651088 117.199144,296.066874 C106.801386,250.807513 94.3310498,164.559108 120.900886,75.9687556 C128.813066,49.3367201 140.058877,23.8115586 154.371008,0 C154.371008,0 177.069709,26.0653654 193.730038,75.9538071 C210.390366,125.842249 220.992394,199.563732 196.80901,294.875969 Z" id="Path" fill="#E3E8F4"></path>
                    <circle id="Oval" fill="#AFC0E0" cx="158.5" cy="146.5" r="35.5"></circle>
                    <path d="M184,146.497658 C183.999763,156.35521 178.318574,165.329925 169.408919,169.547547 C160.499264,173.765169 149.956786,172.47036 142.33252,166.222069 C140.509321,164.720635 138.901195,162.975671 137.55331,161.03619 C136.948019,160.169791 136.398051,159.266028 135.906692,158.330296 C133.994097,154.679588 132.996623,150.619033 133.000009,146.497658 C133.000009,146.291829 133.000009,146.091021 133.000009,145.890213 C133.268438,134.69554 140.799754,124.982114 151.574668,121.933764 C153.578934,121.381385 155.641488,121.067955 157.719367,121.000004 L158.482434,121.000004 C165.247858,120.996009 171.737629,123.680437 176.52339,128.462463 C181.309151,133.24449 183.998669,139.732188 184,146.497658 Z" id="Path" fill="#0053FA"></path>
                    <path d="M194,76.3392384 C153.426139,95.825952 121,76.3392384 121,76.3392384 C128.937635,49.576044 140.215123,23.9264199 154.564423,0 C154.564423,0 177.310149,26.1976354 194,76.3392384 Z" id="Path" fill="#AFC0E0"></path>
                    <path d="M197,295 C195.097979,302.435055 192.979061,309.997673 190.643246,317.687853 C189.535402,321.355681 188.367495,325.053328 187.139523,328.780796 C187.139523,328.780796 169.260527,347.274005 126.074642,328.780796 C126.074642,328.780796 124.673153,324.8595 122.570919,317.687853 C120.999249,312.2706 119.04217,305.009493 117,296.17291 C117,296.17291 133.077082,302.98672 155.896327,302.98672 C169.993224,303.034679 183.96115,300.320616 197,295 Z" id="Path" fill="#AFC0E0"></path>
                    <path d="M191,318 C189.893333,321.608544 188.726667,325.246426 187.5,328.913645 C187.5,328.913645 169.64,347.107943 126.5,328.913645 C126.5,328.913645 125.1,325.05573 123,318 C122.995,318 166.965,330.370754 191,318 Z" id="Path" fill="#E3E8F4"></path>
                    <path d="M151.779178,121.925498 L151.723363,121.965304 L133.000009,145.669984 C133.000009,145.869016 133.000009,146.068047 133.000009,146.272055 C132.996587,150.356964 134.004771,154.381592 135.937901,158 L158,121 L151.779178,121.925498 Z" id="Path" fill="#FFFFFF" opacity="0.2"></path>
                    <path d="M157,143.823157 L141.791142,166 C139.963391,164.534231 138.35125,162.830719 137,160.937309 L155.117765,142 L157,143.823157 Z" id="Path" fill="#FFFFFF" opacity="0.2"></path>
                    <path d="M135.946105,328.764437 C135.946105,328.764437 131.63913,316.650358 126.902456,296.069879 C116.474779,250.802791 103.968562,164.549155 130.614849,75.9534301 C137.777545,51.9814309 147.641977,28.8965216 160.0192,7.14087819 C156.636575,2.41185279 154.52306,0 154.52306,0 C140.167478,23.8060716 128.885962,49.326057 120.946639,75.9534301 C94.3003513,164.549155 106.806569,250.802791 117.234246,296.069879 C121.97092,316.650358 126.277895,328.764437 126.277895,328.764437 C143.310933,336.084709 156.396744,337.619525 166,336.802285 C157.795761,336.17939 147.832758,333.872183 135.946105,328.764437 Z" id="Path" fill="#FFFFFF" opacity="0.2"></path>
                    <path d="M466,364 C466,364 489.320029,334.984327 487.773343,305.923754 C487.047535,293.740955 490.293354,281.651436 497.023521,271.470137 C500.262636,266.653854 503.936864,262.144908 508,258" id="Path" stroke="#535461" stroke-width="2"></path>
                    <path d="M507.57993,238.969577 C505.895156,243.065562 508.417273,258 508.417273,258 C508.417273,258 520.710069,249.171661 522.394843,245.075676 C524.078891,240.979538 522.127651,236.292066 518.036626,234.605913 C513.9456,232.91976 509.263978,234.873439 507.57993,238.969577 Z" id="Path" fill="#0053FA"></path>
                    <path d="M486.13725,256.490072 C486.950629,260.842142 497.191129,272 497.191129,272 C497.191129,272 502.748381,257.908786 501.914793,253.551668 C501.102854,249.197616 496.912724,246.325744 492.555876,247.137162 C488.199028,247.94858 485.325311,252.13602 486.13725,256.490072 Z" id="Path" fill="#0053FA"></path>
                    <path d="M470.815846,295.165825 C473.683202,298.52116 488,303 488,303 C488,303 485.682137,288.004742 482.814781,284.644347 C479.920119,281.403594 474.99972,281.100583 471.73891,283.962265 C468.4781,286.823947 468.072472,291.801071 470.825837,295.165825 L470.815846,295.165825 Z" id="Path" fill="#0053FA"></path>
                    <path d="M466.158925,327.271251 C468.452192,331.095309 481.994106,338 481.994106,338 C481.994106,338 482.216852,322.724135 479.923586,318.905168 C478.437804,316.431992 475.75312,314.943967 472.880829,315.001616 C470.008537,315.059266 467.385008,316.653832 465.998498,319.184658 C464.611989,321.715483 464.673143,324.798075 466.158925,327.271251 Z" id="Path" fill="#0053FA"></path>
                    <path d="M511.966875,279.467657 C507.86729,281.108394 493,278.432731 493,278.432731 C493,278.432731 501.924403,266.220602 506.029024,264.574816 C510.131732,262.931193 514.786866,264.932649 516.426558,269.045193 C518.066251,273.157737 516.069582,277.824033 511.966875,279.467657 Z" id="Path" fill="#0053FA"></path>
                    <path d="M505.779255,315.988159 C501.379745,316.326025 488,309.321597 488,309.321597 C488,309.321597 500.151507,300.350483 504.556051,300.012617 C508.901701,299.770077 512.643337,303.052945 512.976207,307.400363 C513.309078,311.747781 510.110993,315.56391 505.779255,315.988159 Z" id="Path" fill="#0053FA"></path>
                    <path d="M494.12645,351.836561 C489.962993,352.919994 476,348.262243 476,348.262243 C476,348.262243 486.17136,337.321592 490.334818,336.243221 C493.026578,335.542329 495.875209,336.380714 497.807657,338.442566 C499.740105,340.504418 500.462786,343.476492 499.703473,346.239236 C498.94416,349.001981 496.818211,351.135669 494.12645,351.836561 Z" id="Path" fill="#0053FA"></path>
                    <path d="M507.57993,238.969577 C505.895156,243.065562 508.417273,258 508.417273,258 C508.417273,258 520.710069,249.171661 522.394843,245.075676 C524.078891,240.979538 522.127651,236.292066 518.036626,234.605913 C513.9456,232.91976 509.263978,234.873439 507.57993,238.969577 Z" id="Path" fill="#000000" opacity="0.25"></path>
                    <path d="M486.13725,256.490072 C486.950629,260.842142 497.191129,272 497.191129,272 C497.191129,272 502.748381,257.908786 501.914793,253.551668 C501.102854,249.197616 496.912724,246.325744 492.555876,247.137162 C488.199028,247.94858 485.325311,252.13602 486.13725,256.490072 Z" id="Path" fill="#000000" opacity="0.25"></path>
                    <path d="M470.815846,295.165825 C473.683202,298.52116 488,303 488,303 C488,303 485.682137,288.004742 482.814781,284.644347 C479.920119,281.403594 474.99972,281.100583 471.73891,283.962265 C468.4781,286.823947 468.072472,291.801071 470.825837,295.165825 L470.815846,295.165825 Z" id="Path" fill="#000000" opacity="0.25"></path>
                    <path d="M466.158925,327.271251 C468.452192,331.095309 481.994106,338 481.994106,338 C481.994106,338 482.216852,322.724135 479.923586,318.905168 C478.437804,316.431992 475.75312,314.943967 472.880829,315.001616 C470.008537,315.059266 467.385008,316.653832 465.998498,319.184658 C464.611989,321.715483 464.673143,324.798075 466.158925,327.271251 Z" id="Path" fill="#000000" opacity="0.25"></path>
                    <path d="M511.966875,279.467657 C507.86729,281.108394 493,278.432731 493,278.432731 C493,278.432731 501.924403,266.220602 506.029024,264.574816 C510.131732,262.931193 514.786866,264.932649 516.426558,269.045193 C518.066251,273.157737 516.069582,277.824033 511.966875,279.467657 Z" id="Path" fill="#000000" opacity="0.25"></path>
                    <path d="M505.779255,315.988159 C501.379745,316.326025 488,309.321597 488,309.321597 C488,309.321597 500.151507,300.350483 504.556051,300.012617 C508.901701,299.770077 512.643337,303.052945 512.976207,307.400363 C513.309078,311.747781 510.110993,315.56391 505.779255,315.988159 Z" id="Path" fill="#000000" opacity="0.25"></path>
                    <path d="M494.12645,351.836561 C489.962993,352.919994 476,348.262243 476,348.262243 C476,348.262243 486.17136,337.321592 490.334818,336.243221 C493.026578,335.542329 495.875209,336.380714 497.807657,338.442566 C499.740105,340.504418 500.462786,343.476492 499.703473,346.239236 C498.94416,349.001981 496.818211,351.135669 494.12645,351.836561 Z" id="Path" fill="#000000" opacity="0.25"></path>
                    <path d="M467,362 C467,362 499.944605,344.893899 510.26526,317.666021 C514.51997,306.215557 522.356144,296.462818 532.596037,289.873603 C537.480376,286.780924 542.636643,284.145343 548,282" id="Path" stroke="#535461" stroke-width="2"></path>
                    <path d="M554.7698,265.242592 C551.648307,268.310838 548,283 548,283 C548,283 562.455368,279.911535 565.576862,276.848345 C568.703905,273.784484 568.819632,268.698172 565.835344,265.487749 C562.851057,262.277326 557.896844,262.158513 554.7698,265.222373 L554.7698,265.242592 Z" id="Path" fill="#0053FA"></path>
                    <path d="M528.139447,272.183996 C527.126669,276.526933 531.962687,291 531.962687,291 C531.962687,291 542.743717,280.285048 543.78688,275.916684 C544.795903,271.584441 542.125624,267.248686 537.815214,266.22044 C533.504803,265.192193 529.178205,267.858846 528.139447,272.183996 Z" id="Path" fill="#0053FA"></path>
                    <path d="M498.349424,302.129856 C499.645727,306.272629 511.099772,316 511.099772,316 C511.099772,316 515.034251,301.68052 513.737949,297.557498 C512.900346,294.876965 510.65985,292.835793 507.860435,292.202873 C505.06102,291.569953 502.127984,292.44144 500.166173,294.489052 C498.204362,296.536665 497.511821,299.449323 498.349424,302.129856 Z" id="Path" fill="#0053FA"></path>
                    <path d="M481.064664,328.973313 C481.619736,333.343771 491.187155,345 491.187155,345 C491.187155,345 497.525065,331.336672 496.964947,326.966213 C496.407569,322.600147 492.396326,319.510056 488.005584,320.064301 C483.614842,320.618546 480.507287,324.607246 481.064664,328.973313 Z" id="Path" fill="#0053FA"></path>
                    <path d="M542.777923,303.994549 C538.398685,303.83332 526,295.363709 526,295.363709 C526,295.363709 538.982917,287.841325 543.362154,288.002555 C546.193332,288.107859 548.75377,289.729192 550.078978,292.255813 C551.404186,294.782435 551.292832,297.830492 549.786862,300.251811 C548.280893,302.673129 545.6091,304.099853 542.777923,303.994549 Z" id="Path" fill="#0053FA"></path>
                    <path d="M521.434302,335.538212 C517.310261,334.055321 508,322.177011 508,322.177011 C508,322.177011 522.606188,318.902504 526.725243,320.385395 C529.392289,321.344615 531.352517,323.675026 531.867529,326.498785 C532.38254,329.322544 531.374093,332.210654 529.222058,334.075193 C527.070024,335.939732 524.101348,336.497432 521.434302,335.538212 Z" id="Path" fill="#0053FA"></path>
                    <path d="M497.626958,362.881885 C493.271573,362.129097 482,352.034669 482,352.034669 C482,352.034669 495.99873,346.315503 500.354114,347.068291 C504.71114,347.821669 507.633841,351.972396 506.88215,356.3392 C506.130458,360.706003 501.989025,363.635263 497.631999,362.881885 L497.626958,362.881885 Z" id="Path" fill="#0053FA"></path>
                    <path d="M512.998,346.532269 L487.426279,309.385893 C487.426279,309.385893 486.928678,300.190258 485.276642,298.042118 C483.624606,295.893978 484.918369,291.114241 484.918369,291.114241 C484.918369,291.114241 486.709733,288.487629 485.157218,288.248393 C483.604702,288.009157 484.918369,282.152858 484.918369,282.152858 L484.798945,272.837606 C484.798945,272.837606 486.232036,263.866255 485.037793,261.733067 C484.323651,260.546141 484.370386,259.050157 485.157218,257.910275 C485.157218,257.910275 486.590309,252.771684 485.157218,251.46087 C483.724126,250.150056 484.082399,242.140633 484.440672,235.810847 C484.798945,229.48106 481.927786,225.897504 481.927786,224.94056 C481.927786,223.983616 472.473365,214.668363 472.473365,213.836021 C472.473365,213.003679 466.502152,209.534757 462.914448,208.577813 C459.326744,207.620869 457.53538,206.908145 457.654804,206.429673 C457.774228,205.951201 452.036887,204.042297 452.036887,204.042297 C452.036887,204.042297 447.016092,203.683443 445.100328,201.171464 C443.184563,198.659486 437.342726,197.941778 437.173542,197.916858 C437.13871,197.752383 437.098902,197.582924 437.06407,197.418449 C437.029238,197.253974 436.98943,197.059595 436.954597,196.880168 C437.407414,196.117603 437.825399,195.340086 438.203576,194.537649 C438.318025,194.293429 438.427497,194.03924 438.531993,193.809972 C440.626894,193.715275 442.776531,193.266707 444.418614,191.980814 C446.123952,190.551931 447.160223,188.477831 447.279821,186.254101 C447.381175,184.046251 446.898839,181.850726 445.881562,179.889426 C444.836599,177.736302 443.299012,175.508417 443.826469,173.175865 C444.060341,172.179049 444.662439,171.281914 444.970951,170.295065 C445.553145,168.426034 445.015736,166.372591 444.110102,164.63813 C443.204467,162.903669 441.945537,161.378539 440.940382,159.698903 C439.656434,157.55849 438.799632,155.188731 438.417545,152.721185 C438.213528,151.425324 438.133912,150.059685 437.482055,148.918329 C436.94173,148.071357 436.227607,147.34928 435.387154,146.800094 C431.648376,144.121667 427.133392,142.750262 422.539093,142.897556 C419.284782,143.01219 416.040423,143.894373 412.810991,143.490662 C410.865371,143.251426 409.009319,142.558638 407.128387,141.995437 C403.117722,140.809225 398.495007,140.320785 395.001847,142.618447 C391.508688,144.91611 390.12038,149.436674 387.756775,152.97039 C385.66685,156.100394 382.601628,158.722022 381.009304,162.031454 C381.009304,161.971645 381.03916,161.906852 381.059064,161.842059 C380.667641,162.607905 380.368635,163.417702 380.168358,164.254355 C379.561285,166.856047 380.068838,169.577357 380.700791,172.174065 C381.024232,173.514783 381.472073,174.970136 382.631484,175.712764 C383.790894,176.455393 385.432978,176.290918 386.806357,176.535138 C386.756597,176.759422 386.696885,176.98869 386.647125,177.217957 C383.697851,191.173716 391.947475,205.057477 405.600751,209.116094 C405.600751,209.360314 405.600751,209.614502 405.600751,209.84377 C405.598169,210.530059 405.556636,211.215646 405.476351,211.897213 C405.476351,211.897213 393.459284,209.405171 390.229853,211.099759 C387.000421,212.794348 380.665959,214.09021 379.710565,215.037186 C378.755171,215.984161 376.366686,215.276422 374.236953,220.893484 C372.10722,226.510547 371.848467,232.237259 369.096733,234.848919 C366.344999,237.460579 364.916884,239.269801 364.79746,241.183689 C364.678035,243.097578 365.155732,243.571065 364.075938,244.17414 C362.996144,244.777214 361.448604,247.279224 361.926301,248.236168 C361.926301,248.236168 362.523422,250.623544 360.612634,251.81474 C358.701846,253.005936 358.935718,255.398296 358.935718,255.398296 C358.935718,255.398296 358.219173,258.029893 356.547233,258.622999 C354.875293,259.216105 353.795499,263.163499 353.795499,263.163499 L348.356719,269.418524 L337.613511,257.506564 C335.938281,255.647617 333.075898,255.500362 331.219336,257.177614 L325.944764,261.942398 C323.908784,262.436894 322.068901,263.534624 320.665217,265.092339 C319.515739,266.274508 318.590116,267.655907 317.933386,269.16932 L315.042324,271.771012 C313.184482,274.0786 312.892131,277.278056 314.300898,279.8851 L321.182722,287.505764 L321.227506,287.570558 C318.625052,287.899507 316.326135,288.736833 314.569603,290.286883 C304.29414,299.3629 304.16974,307.731177 305.727231,311.544001 C307.284723,315.356825 320.306944,330.059872 320.306944,330.059872 C320.306944,330.059872 327.875457,339.913406 338.802777,345.156662 L338.718185,345.241392 C338.504217,345.470659 338.290248,345.7398 338.081256,345.989004 L337.902119,346.218272 L337.737911,346.44754 L337.543846,346.736617 C337.48911,346.811378 337.43935,346.891123 337.38959,346.970869 C337.33983,347.050614 337.250262,347.195152 337.185574,347.31477 L337.051221,347.544038 C336.971605,347.693561 336.887013,347.848067 336.807397,348.007558 L336.727781,348.162065 C336.62826,348.371396 336.52874,348.585712 336.434196,348.809996 C336.399364,348.889741 336.369508,348.97447 336.334676,349.054216 C336.274964,349.208722 336.210275,349.368213 336.150563,349.552624 C336.090851,349.737035 336.075923,349.756972 336.041091,349.861637 C336.006259,349.966303 335.936595,350.170651 335.886835,350.330141 C335.837075,350.489632 335.817171,350.554425 335.787315,350.664075 C335.757458,350.773725 335.687794,351.012961 335.64301,351.192388 C335.598226,351.371815 335.588274,351.401719 335.558418,351.516353 C335.49373,351.790478 335.429042,352.074571 335.374306,352.373616 C335.374306,352.483265 335.334497,352.597899 335.314593,352.712533 C335.274785,352.911897 335.239953,353.116244 335.210097,353.325576 C335.185217,353.470114 335.170289,353.614652 335.150385,353.759191 C335.130481,353.903729 335.100625,354.152933 335.075745,354.352297 L335.030961,354.810833 C335.030961,355.030132 334.991153,355.2594 334.976225,355.488668 C334.976225,355.628222 334.976225,355.767777 334.951345,355.907331 C334.951345,356.286121 334.911537,356.664912 334.906561,357.063638 C334.667712,371.019073 335.483778,373.067532 335.483778,373.067532 C335.483778,373.067532 337.170646,377.518319 341.828192,377.8373 C342.511793,377.887452 343.198983,377.850608 343.873333,377.72765 C350.088371,376.651088 364.668083,374.144094 369.808303,375.101038 C372.898406,375.674207 378.620819,374.826913 382.696172,374.05438 L383.766014,373.850033 L384.512416,376.222457 L386.876021,375.574526 L388.866426,376.735817 L390.135308,377.463494 C392.493938,385.4779 402.077735,382.746622 402.077735,382.746622 L404.326892,384.052452 L427.39568,384.650542 C427.39568,384.650542 432.371691,387.640993 435.561314,388.578001 C435.940561,388.692938 436.328218,388.777928 436.720725,388.832189 C438.859256,389.003967 441.006307,389.043915 443.149731,388.951807 C444.916215,388.90695 446.284618,388.832189 446.284618,388.832189 C446.284618,388.832189 446.050746,382.557227 445.712377,375.534653 C454.529869,375.165831 462.347182,374.612598 467.079369,373.780256 C479.399973,371.612179 484.540192,360.393006 486.431076,354.397154 C486.999338,356.847785 487.403296,359.333748 487.640247,361.838391 C488.142325,364.026529 488.782193,366.180638 489.556011,368.287795 C490.228816,369.98325 491.111498,371.587381 492.183345,373.062548 C501.269542,369.957463 495.771049,365.302329 493.855285,363.268823 C491.939521,361.235317 495.173928,359.565649 495.173928,359.565649 C495.173928,359.565649 497.661934,357.89598 497.442989,356.340946 C497.224045,354.785912 497.084716,353.116244 505.210543,353.235862 C513.336369,353.35548 512.998,346.532269 512.998,346.532269 Z M386.776501,270.275787 C386.880997,270.958606 388.015528,278.320098 389.040586,280.243954 C389.254554,280.652649 389.339147,282.103018 389.309291,284.176396 C384.492512,283.792622 379.476693,283.588275 379.476693,283.588275 C379.621065,283.762805 379.711044,283.975985 379.735445,284.201317 L378.979091,284.031858 L377.879393,283.762718 L386.751621,270.245882 L386.776501,270.275787 Z M369.201229,298.286338 L377.536048,299.612104 L378.237666,299.721754 C377.998701,301.023725 377.85402,302.341295 377.804753,303.664164 C377.804753,303.788766 377.993841,303.938289 378.262546,304.112732 C378.146068,304.77072 378.091094,305.438153 378.098337,306.106365 C378.23269,306.769248 382.128906,308.194696 386.597364,309.380908 C386.537652,309.620144 386.47794,309.849412 386.418228,310.063728 C382.472251,307.985365 376.252237,307.013469 375.535692,305.468403 C374.819146,303.923337 353.641243,296.497052 353.641243,296.497052 C353.641243,296.497052 352.869961,296.088357 351.53639,295.440426 L357.109522,296.497052 L358.642134,296.342545 C362.116811,297.21318 365.643786,297.859121 369.201229,298.27637 L369.201229,298.286338 Z" id="Shape" fill="url(#linearGradient-1)" fill-rule="nonzero"></path>
                    <path d="M485.918827,351.672282 C485.918827,351.672282 482.597601,371.636842 465.737142,374.589592 C448.876683,377.542342 392.600351,376.951792 392.600351,376.951792 C392.600351,376.951792 360.42535,372.346494 348.791084,345.290371 C337.156819,318.234249 329.67658,307.480283 339.650232,307.008836 C349.623884,306.537388 403.406803,325.087606 406.473701,325.320849 C409.540599,325.554091 488.885989,284.205666 485.918827,351.672282 Z" id="Path" fill="#434175"></path>
                    <path d="M485.918827,351.672282 C485.918827,351.672282 482.597601,371.636842 465.737142,374.589592 C448.876683,377.542342 392.600351,376.951792 392.600351,376.951792 C392.600351,376.951792 360.42535,372.346494 348.791084,345.290371 C337.156819,318.234249 329.67658,307.480283 339.650232,307.008836 C349.623884,306.537388 403.406803,325.087606 406.473701,325.320849 C409.540599,325.554091 488.885989,284.205666 485.918827,351.672282 Z" id="Path" fill="#000000" opacity="0.05"></path>
                    <path d="M335.617479,373.259259 C335.617479,373.259259 337.292618,377.667103 341.900492,377.979822 C342.576781,378.027417 343.256373,377.990733 343.923583,377.870619 C350.077357,376.808368 364.517351,374.326473 369.602416,375.269593 C372.664391,375.840429 378.326062,374.996585 382.357331,374.237125 C385.041529,373.740746 387,373.244367 387,373.244367 C387,373.244367 382.267857,357.529011 381.671369,357.057451 C381.07488,356.585891 360.371756,344.176418 360.371756,344.176418 L343.96832,343 L343.918612,343 C343.918612,343 340.881491,343.203515 338.361327,346.261209 C336.626539,348.350965 335.140289,351.785907 335.040874,357.414844 C334.81222,371.248924 335.617479,373.259259 335.617479,373.259259 Z" id="Path" fill="#565387"></path>
                    <path d="M335.617564,373.274702 C335.617564,373.274702 337.298041,377.686968 341.920597,378 C340.29846,375.92286 338.799916,373.752755 337.432678,371.500852 L337.51745,360.027967 C336.784423,351.436968 340.818564,345.936542 344,343 L343.950134,343 C343.950134,343 335.283464,343.586315 335.044108,357.409426 C334.804752,371.232538 335.617564,373.274702 335.617564,373.274702 Z" id="Path" fill="#000000" opacity="0.05"></path>
                    <path d="M406.584572,349 L421.898942,337.034898 L446,313.294142 C446,313.294142 443.396906,313.169506 439.472318,313 C438.474964,313.623182 435.757175,315.582468 435.657439,317.985459 C435.537757,320.886996 429.139731,318.184877 425.818543,319.845035 C422.497354,321.505193 406.230511,342.319485 403.378079,342.184877 C400.525646,342.05027 398.276613,340.739094 397.084775,342.758205 C397.084775,342.803074 397.029921,342.842958 397,342.887827 L406.584572,349 Z" id="Path" fill="#000000" opacity="0.1"></path>
                    <path d="M338,347.246305 C338.545891,347.507389 339.096791,347.738916 339.662715,347.995074 C351.351799,352.921182 365.775348,363.26601 366.852105,365.118227 C367.503168,366.261084 375.866823,371.256158 382.322363,375 C385.026778,374.507389 387,374.014778 387,374.014778 C387,374.014778 382.232216,358.418719 381.631235,357.950739 C381.030253,357.482759 360.171198,345.167488 360.171198,345.167488 L343.644215,344 L343.594133,344 C343.594133,344 340.539146,344.211823 338,347.246305 Z" id="Path" fill="#000000" opacity="0.1"></path>
                    <path d="M305.72881,313.022667 C307.266042,316.833668 320.155903,331.482517 320.155903,331.482517 C320.155903,331.482517 328.324622,342.195331 339.935944,347.196645 C351.547266,352.197959 365.874861,362.700718 366.939481,364.581212 C367.626011,365.806534 376.8892,371.408006 383.396316,375.259017 L384.853949,376.114242 L388.087608,377.999737 L389.79896,379 C389.79896,379 393.778847,375.799159 397.713961,372.578313 C401.649075,369.357467 405.489666,366.201638 405.55434,366.02159 C405.668761,365.666497 407.205993,361.615433 406.852778,361.380371 C406.668708,361.255338 405.857806,359.604905 404.365348,357.694403 C402.772532,355.573926 400.705184,353.860537 398.330844,352.693089 C392.858498,350.192432 390.515339,344.500937 390.515339,344.500937 C390.515339,344.500937 390.017854,344.120837 389.206951,343.620706 C387.804041,342.730472 385.55043,341.450135 383.883852,341.235079 C381.272051,340.904992 376.421563,335.548585 376.421563,335.548585 C376.421563,335.548585 373.103331,333.403021 371.799918,330.667303 C370.556203,328.056617 352.189022,315.373285 350.487621,314.202977 L395.017587,342.950529 L405.673736,349.837339 L420.95153,337.834185 L445,314.017929 C445,314.017929 441.766341,313.857887 437.040225,313.657834 C425.35428,313.157703 404.599167,312.352491 401.977416,312.947647 C399.842945,313.447657 397.641196,313.591278 395.46035,313.372759 C395.46035,313.372759 389.550217,313.64283 385.639977,311.567285 C381.729738,309.49174 375.565887,308.521485 374.854482,306.986081 C374.143077,305.450678 353.179019,298.058736 353.179019,298.058736 C353.179019,298.058736 324.638251,282.819733 314.449739,291.872111 C304.261227,300.924489 304.186604,309.216667 305.72881,313.022667 Z" id="Path" fill="#434175"></path>
                    <path d="M398,225.140205 L401.70995,237.338941 L406.495684,264.815947 L424.090295,266 L429.182679,257.641975 L434.285116,249.298876 C434.285116,249.298876 437.452146,238.194643 439.729391,227.453586 C441.740204,217.951308 443.057287,208.727631 440.865501,207.727653 C438.925066,206.837126 437.6482,203.638191 436.843875,200.195481 C436.738307,199.772605 436.642794,199.339779 436.552307,198.906952 C435.966007,195.99227 435.576389,193.0422 435.386036,190.076301 C435.386036,190.076301 398.522811,188.185796 403.670492,203.225265 C404.589149,205.794424 405.058362,208.499812 405.057953,211.225089 C405.052847,211.905085 405.010894,212.58432 404.932277,213.25987 C404.402615,218.005348 401.888359,222.314206 398,225.140205 Z" id="Path" fill="#EE8E9E"></path>
                    <path d="M391,223.937656 L392.300133,244.741815 L395.252725,262.454814 L398.562605,270.659623 L401.515197,315.543872 C401.515197,315.543872 430.003988,318.859753 436.931413,315.483946 C437.430862,315.269553 437.864305,314.924738 438.186885,314.485187 C446.553389,301.78596 443.809216,264.951712 443.809216,264.951712 L447,241.166257 L444.871156,228.82159 L439.735135,228.272272 L435.765264,227.8478 C435.765264,227.8478 434.872043,228.956423 433.581834,230.669295 C430.078423,235.323514 423.657156,244.477144 424.06903,248.297399 C424.654586,253.530898 423.359415,258.879255 421.349668,259.713219 C419.33992,260.547183 417.687461,261.970416 417.335135,260.547183 C416.982809,259.123951 416.625521,258.764398 416.977847,256.74191 C417.330173,254.719422 415.439521,248.537101 415.439521,248.537101 C415.439521,248.537101 412.2537,241.286108 412.462118,238.194947 C412.670536,235.103787 412.109792,231.533222 411.161985,230.704252 C410.214178,229.875281 408.919008,229.036323 409.980948,225.211075 C411.042889,221.385826 405.321311,214 405.321311,214 L391,223.937656 Z" id="Path" fill="#E3E8F4"></path>
                    <path d="M428.050055,274.842312 L429.222739,310.213912 L435.997697,314 C436.493491,313.786479 436.923818,313.443442 437.24429,313.006276 C445.556548,300.351203 442.831783,263.707636 442.831783,263.707636 L446,240.047071 L443.886213,227.769613 L438.781589,227.223065 C440.752487,217.733002 442.043424,208.521182 439.900074,207.52249 C437.993231,206.633107 436.741711,203.438285 435.928716,200 L432.282556,225.041841 C432.282556,225.041841 432.588045,227.297594 432.696445,229.622908 C432.780208,231.351987 432.750644,233.100941 432.40081,234.030073 C431.577961,236.161611 432.164303,239.947699 432.164303,239.947699 C430.050515,243.703975 428.996085,250.66501 428.478725,257.387552 C427.783984,266.326098 428.050055,274.842312 428.050055,274.842312 Z" id="Path" fill="#000000" opacity="0.1"></path>
                    <path d="M436.500589,200 C436.500589,200 442.495191,200.742801 444.393481,203.235424 C446.291772,205.728046 451.292269,206.072028 451.292269,206.072028 C451.292269,206.072028 457.002127,207.971406 456.882235,208.445005 C456.762343,208.918603 458.545737,209.636478 462.11752,210.583675 C465.689303,211.530871 471.608973,214.975675 471.608973,215.808211 C471.608973,216.640747 481.00551,225.893362 481.00551,226.845543 C481.00551,227.797725 483.862937,231.332264 483.503261,237.643584 C483.143585,243.954904 482.788904,251.886428 484.217618,253.192562 C485.646331,254.498696 484.217618,259.603587 484.217618,259.603587 C483.443532,260.744097 483.414176,262.232316 484.142685,263.402344 C485.331615,265.541014 483.907897,274.444661 483.907897,274.444661 L484.022793,283.702261 C484.022793,283.702261 482.713972,289.515056 484.262577,289.754348 C485.811183,289.99364 484.022793,292.600923 484.022793,292.600923 C484.022793,292.600923 482.713972,297.351861 484.382469,299.485546 C486.050967,301.61923 486.520544,310.762169 486.520544,310.762169 L511.9976,347.652981 C511.9976,347.652981 512.357277,354.417958 504.26956,354.298312 C496.181843,354.178667 496.276758,355.843738 496.536524,357.384179 C496.79629,358.92462 494.278557,360.589691 494.278557,360.589691 C494.278557,360.589691 491.06645,362.249778 492.969736,364.268802 C494.873022,366.287826 500.343096,370.914133 491.306234,374 C490.236808,372.534391 489.357291,370.939771 488.688591,369.254047 C487.921531,367.160197 487.285873,365.02071 486.785305,362.848007 C486.785305,362.848007 485.951057,353.824714 484.287555,352.638226 C482.624053,351.451738 482.858841,345.753603 482.858841,345.753603 C482.858841,345.753603 485.2367,341.127296 481.909696,339.227917 C478.582692,337.328539 430.241226,310.647509 430.241226,310.647509 L429.052297,275.157551 C429.052297,275.157551 428.218048,248.930178 433.21355,240.146177 C433.21355,240.146177 432.619085,236.34742 433.453334,234.213735 C434.287582,232.08005 433.333442,225.190442 433.333442,225.190442 L436.500589,200 Z" id="Path" fill="#565387"></path>
                    <path d="M405.600814,213.377177 C405.600814,213.377177 393.610323,210.912696 390.388474,212.577345 C387.166625,214.241995 380.868235,215.576714 379.866104,216.506518 C378.863974,217.436322 376.523999,216.746468 374.37944,222.34029 C372.234881,227.934113 371.989359,233.642911 369.248533,236.262359 C366.507706,238.881808 365.074659,240.666432 364.954404,242.571031 C364.834148,244.47563 365.31016,244.95053 364.237881,245.5704 C363.165601,246.190269 361.612299,248.664749 362.088311,249.619548 C362.564323,250.574347 386.946156,271.489944 386.946156,271.489944 C386.946156,271.489944 388.143702,279.48826 389.215981,281.487839 C390.288261,283.487418 388.023446,311.36155 385.638376,313.266149 C383.253305,315.170748 401.742612,314.995785 401.742612,314.995785 C401.742612,314.995785 402.57438,296.724631 403.290903,295.769832 C404.007426,294.815033 402.789838,275.274147 402.789838,275.274147 C402.789838,275.274147 402.669582,258.612654 404.222884,254.208581 C405.776186,249.804509 405.600814,235.182587 405.600814,235.182587 C405.600814,235.182587 406.973732,226.399436 408.642279,224.349867 C410.310827,222.300299 405.600814,213.377177 405.600814,213.377177 Z" id="Path" fill="#000000" opacity="0.1"></path>
                    <path d="M404.646,213.377244 C404.646,213.377244 392.638067,210.912643 389.412879,212.577373 C386.187691,214.242104 379.882774,215.551892 378.904684,216.506737 C377.926594,217.461582 375.564131,216.741699 373.387254,222.335793 C371.210378,227.929887 370.999712,233.643961 368.251029,236.263537 C365.502346,238.883113 364.07283,240.667824 363.95245,242.572515 C363.832069,244.477207 364.313591,244.95213 363.2402,245.547033 C362.166809,246.141937 360.611897,248.641532 361.088402,249.591378 C361.564908,250.541224 385.926867,271.492831 385.926867,271.492831 C385.926867,271.492831 387.120638,279.491535 388.194029,281.491212 C389.26742,283.490888 387.000258,311.361374 384.612715,313.266065 C382.225173,315.170757 400.733641,314.995785 400.733641,314.995785 C400.733641,314.995785 401.571287,296.723744 402.288553,295.773898 C403.005819,294.824052 401.786969,275.277218 401.786969,275.277218 C401.786969,275.277218 401.671604,258.614917 403.2215,254.21063 C404.771396,249.806343 404.600858,235.163715 404.600858,235.163715 C404.600858,235.163715 405.975199,226.380138 407.64046,224.335469 C409.30572,222.2908 404.646,213.377244 404.646,213.377244 Z" id="Path" fill="#565387"></path>
                    <path d="M403.486604,203.019833 C404.394969,205.549084 404.858925,208.212449 404.85852,210.895393 C416.834157,214.390844 429.685229,209.386512 436,198.768598 C435.420269,195.899191 435.035016,192.994944 434.846796,190.075116 C434.846796,190.075116 398.401571,188.213976 403.486604,203.019833 Z" id="Path" fill="#000000" opacity="0.1"></path>
                    <path d="M386.00001,185.025302 C386.01273,199.387112 397.267375,211.225211 411.610736,211.963718 C425.954097,212.702225 438.365126,202.082618 439.852894,187.798064 C441.340663,173.513511 431.384361,160.564473 417.196638,158.33163 C403.008915,156.098787 389.556338,165.363769 386.584363,179.41474 C386.194229,181.259398 385.998377,183.139843 386.00001,185.025302 Z" id="Path" fill="#EE8E9E"></path>
                    <path d="M368.579725,248 L362.12918,250.020353 C362.12918,250.020353 362.715593,252.394892 360.838085,253.582161 C358.960577,254.76943 359.197114,257.148957 359.197114,257.148957 C359.197114,257.148957 358.492432,259.757957 356.851461,260.351591 C355.210489,260.945226 354.151003,264.841265 354.151003,264.841265 L348.755016,271.136785 C348.755016,271.136785 346.75924,272.797965 347.114044,273.631049 C347.468849,274.464132 345,274.698593 345,274.698593 L346.291095,295.859922 L357.437874,298 L364.336853,297.286641 L369.969377,295.146563 L374.897219,292.153447 L377.144315,286.381722 L387,271.181682 L368.579725,248 Z" id="Path" fill="#565387"></path>
                    <path d="M345.825333,275.830898 C345.825333,275.830898 331.507241,255.140375 320.788421,266.307629 C310.0696,277.474883 325.138158,295.573536 328.663372,294.986046 C332.188585,294.398555 349,293.460546 349,293.460546 L345.825333,275.830898 Z" id="Path" fill="#EE8E9E"></path>
                    <path d="M331.754785,263.125752 L337.128389,263.122833 C344.098222,263.119046 349.751457,268.766142 349.755244,275.735974 C349.755246,275.740545 349.755246,275.745116 349.755244,275.749687 L349.750053,285.304047 C349.74627,292.268525 344.10139,297.913405 337.136912,297.917189 L331.763308,297.920109 C324.793476,297.923896 319.14024,292.2768 319.136453,285.306968 C319.136451,285.302397 319.136451,285.297826 319.136453,285.293255 L319.141644,275.738895 C319.145427,268.774417 324.790307,263.129536 331.754785,263.125752 Z" id="Rectangle" fill="#30374E" transform="translate(334.445849, 280.521471) rotate(-42.050000) translate(-334.445849, -280.521471) "></path>
                    <path d="M331.754785,263.125752 L337.128389,263.122833 C344.098222,263.119046 349.751457,268.766142 349.755244,275.735974 C349.755246,275.740545 349.755246,275.745116 349.755244,275.749687 L349.750053,285.304047 C349.74627,292.268525 344.10139,297.913405 337.136912,297.917189 L331.763308,297.920109 C324.793476,297.923896 319.14024,292.2768 319.136453,285.306968 C319.136451,285.302397 319.136451,285.297826 319.136453,285.293255 L319.141644,275.738895 C319.145427,268.774417 324.790307,263.129536 331.754785,263.125752 Z" id="Rectangle" fill="#000000" opacity="0.1" transform="translate(334.445849, 280.521471) rotate(-42.050000) translate(-334.445849, -280.521471) "></path>
                    <path d="M332.162383,261.404606 L337.535987,261.401686 C344.505819,261.397899 350.159055,267.044995 350.162842,274.014827 C350.162844,274.019398 350.162844,274.023969 350.162842,274.02854 L350.157651,283.5829 C350.153867,290.547378 344.508988,296.192258 337.54451,296.196042 L332.170906,296.198962 C325.201073,296.202749 319.547838,290.555653 319.544051,283.585821 C319.544048,283.58125 319.544048,283.576679 319.544051,283.572108 L319.549241,274.017748 C319.553025,267.05327 325.197905,261.40839 332.162383,261.404606 Z" id="Rectangle" fill="#30374E" transform="translate(334.853446, 278.800324) rotate(-42.050000) translate(-334.853446, -278.800324) "></path>
                    <circle id="Oval" fill="#0053FA" cx="334" cy="280" r="7"></circle>
                    <circle id="Oval" fill="#000000" opacity="0.1" cx="334" cy="280" r="7"></circle>
                    <circle id="Oval" fill="#0053FA" cx="335" cy="279" r="7"></circle>
                    <path d="M337.000332,280.287564 C336.880202,295.820655 369.415332,299.112109 369.415332,299.112109 L377.724304,300.41683 L381.448325,301 L383,285.837568 C383,285.837568 381.293157,285.58552 379.160855,285.096249 C376.012455,284.369757 371.93305,283.1194 371.077126,281.364947 C369.650586,278.424384 337.115456,264.759415 337.000332,280.287564 Z" id="Path" fill="#EE8E9E"></path>
                    <path d="M386,179.288354 C386.751006,179.343021 387.45929,179.654472 388.003123,180.16918 C388.924559,181.13413 388.974637,182.846298 390.171503,183.440113 C390.618765,183.632461 391.113742,183.689295 391.593721,183.603413 C394.763663,183.158051 396.601528,179.644643 399.641267,178.654951 C401.373968,178.100723 403.281943,178.461961 404.974581,179.105261 C405.655231,179.316023 406.265869,179.704046 406.742337,180.228562 C407.743899,181.530007 407.047814,183.445062 407.518547,185.023621 C408.17457,187.210842 410.818692,188.081771 413.10726,188.368782 C415.395828,188.655793 417.974849,188.814143 419.50223,190.521363 C420.583916,191.733736 420.859346,193.49044 420.639002,195.078896 C420.504,195.633462 420.504,196.211757 420.639002,196.766322 C421.269986,198.532923 424.364811,198.250861 425.171068,196.875188 C425.761989,195.860753 425.581708,195.019515 426.973878,194.737452 C427.915346,194.544462 429.022071,194.935391 429.89343,195.232299 C432.32055,196.059775 434.878616,196.448659 437.445203,196.380342 C441.873416,186.988014 440.467909,175.919627 433.828603,167.899584 C427.189298,159.879542 416.488954,156.324494 406.29488,158.751869 C396.100806,161.179244 388.213671,169.160273 386,179.288354 Z" id="Path" fill="#000000" opacity="0.1"></path>
                    <path d="M420.239136,195.752163 C420.104435,195.195017 420.104435,194.614031 420.239136,194.056885 C420.45399,192.451093 420.184173,190.691185 419.104905,189.478142 C417.605921,187.762977 415.007684,187.598918 412.724232,187.315543 C410.440781,187.032168 407.80257,186.157186 407.148014,183.959787 C406.678333,182.373881 407.387851,180.444943 406.373539,179.13744 C405.901021,178.610575 405.292881,178.222085 404.614732,178.013883 C402.920881,177.362618 401.017172,177.019585 399.288344,177.556506 C396.255401,178.550804 394.421645,182.090506 391.25879,182.527997 C390.779884,182.614279 390.286014,182.557181 389.839752,182.363938 C388.645562,181.767359 388.595596,180.047223 387.67622,179.082754 C386.232199,177.561478 383.489059,178.540862 381.720259,177.412333 C380.566042,176.671581 380.121343,175.23482 379.80156,173.907432 C379.171987,171.3322 378.667329,168.63268 379.271919,166.057448 C380.306218,161.652707 384.268531,158.635012 386.766836,154.876565 C389.12024,151.371663 390.439346,146.922179 393.976947,144.615407 C397.514547,142.308635 402.056467,142.820699 406.043763,143.998942 C407.912496,144.550778 409.761242,145.236844 411.69493,145.49039 C414.912748,145.883137 418.140559,144.993241 421.378363,144.903754 C425.951516,144.756748 430.445742,146.114488 434.164691,148.766602 C435.002647,149.312582 435.714539,150.029368 436.253275,150.869543 C436.897838,152.003043 436.98278,153.355288 437.177648,154.637933 C437.555499,157.084626 438.403737,159.435934 439.675954,161.56322 C440.675276,163.228669 441.929425,164.740003 442.833812,166.460138 C443.738199,168.180274 444.267839,170.213614 443.688233,172.063009 C443.383439,173.057307 442.778849,173.917375 442.554002,174.916645 C442.024361,177.228388 443.553324,179.43573 444.597616,181.5685 C445.609046,183.513716 446.088111,185.689534 445.986674,187.877322 C445.868543,190.079181 444.837118,192.133462 443.138605,193.549793 C441.454747,194.862266 439.241248,195.299758 437.107695,195.369358 C434.497093,195.456949 431.892464,195.067713 429.422907,194.220944 C428.5485,193.922655 427.424263,193.529907 426.509883,193.723795 C425.120825,194.00717 425.300703,194.852323 424.711103,195.871479 C423.951618,197.263496 420.868709,197.526985 420.239136,195.752163 Z" id="Path" fill="#434175"></path>
                    <path d="M405.679467,349 L420.955034,337.0564 L445,313.358308 C445,313.358308 441.766813,313.19906 437.041385,313 C436.18086,313.875864 435.414843,314.9906 435.365101,316.234725 C435.245722,319.131048 428.863908,316.438761 425.551134,318.095936 C422.238361,319.75311 406.012734,340.525021 403.167529,340.390655 C400.322324,340.25629 398.078989,338.94747 396.890171,340.962953 C396.86492,341.009525 396.836674,341.054408 396.805611,341.097318 C396.333016,341.637279 395.700417,342.012136 395,342.167266 L405.679467,349 Z" id="Path" fill="#000000" opacity="0.1"></path>
                    <path d="M375,348.544786 L382.668534,373.136082 L383.871246,377 L387.524112,376.001571 L395.575328,373.780068 L431.438024,363.885641 C431.438024,363.885641 438.177189,363.795782 444.359728,360.426086 C451.193321,356.691963 458.901614,354.814918 466.644696,355.543771 C471.385967,355.988071 476.659016,353.936301 481.057365,345.819077 C481.057365,345.819077 490.997137,316.365434 465.909153,307.878792 C440.821169,299.392149 439.628396,312.37172 439.628396,312.37172 C439.628396,312.37172 439.499179,312.44161 439.290444,312.58139 C438.296467,313.205408 435.587879,315.16732 435.488481,317.573533 C435.369204,320.47896 428.99284,317.773219 425.682896,319.435602 C422.372952,321.097986 406.161185,341.940182 403.31841,341.805394 C400.475635,341.670606 398.234217,340.357672 397.046414,342.37949 C397.046414,342.424419 396.991745,342.464357 396.961926,342.509286 C396.087226,343.722377 393.453186,344.006929 391.708756,344.051858 C390.759508,344.081811 390.068694,344.051858 390.068694,344.051858 L389.845049,344.121748 L387.986312,344.640931 L375,348.544786 Z" id="Path" fill="#434175"></path>
                    <path d="M377,300.4133 L380.529412,301 L382,285.745805 C382,285.745805 380.382353,285.492231 378.36148,285 C378.897533,287.113114 377.683112,295.351771 377,300.4133 Z" id="Path" fill="#000000" opacity="0.1"></path>
                    <path d="M474.280362,229.368291 C474.280362,229.368291 485.291798,226.143815 482.566294,257.666454 C479.840789,289.189093 459.479081,309.102615 459.479081,309.102615 C459.479081,309.102615 436.033772,319.488136 425.494823,317.818228 C414.955873,316.148321 407.261793,315.812333 407.261793,315.812333 C403.94486,314.121736 400.314947,313.146539 396.603479,312.948918 C390.679982,312.708211 378.251084,309.007335 378.012354,307.813827 C377.773623,306.62032 381.09098,289.068739 379.668545,287.754878 C379.668545,287.754878 396.245383,288.441897 397.906548,289.650448 C399.567714,290.859 401.930149,289.991451 403.705706,289.650448 C405.481263,289.309446 410.932272,284.530402 421.704979,288.712693 C421.704979,288.712693 425.375458,289.068739 426.797893,288.115939 C428.220328,287.163139 430.498213,287.875231 430.498213,287.875231 C430.498213,287.875231 432.731336,287.03777 433.074511,286.536297 C433.417686,286.034823 436.267529,286.536297 436.267529,286.536297 C436.610292,286.705125 437.010363,286.708743 437.356074,286.54614 C437.701785,286.383537 437.956109,286.072129 438.04806,285.698835 C438.420038,284.721428 438.983282,283.829488 439.704251,283.076128 C439.704251,283.076128 442.902243,264.927793 448.940131,258.122795 C448.940131,258.122795 450.715688,256.568226 450.243201,254.657611 C449.770714,252.746996 460.085854,225.542046 474.280362,229.368291 Z" id="Path" fill="#000000" opacity="0.1"></path>
                    <path d="M474.279213,226.366984 C474.279213,226.366984 485.287675,223.14319 482.567878,254.659161 C479.848082,286.175132 459.457069,306.104497 459.457069,306.104497 C459.457069,306.104497 436.018095,316.487821 425.481992,314.818267 C414.945889,313.148712 407.253888,312.787728 407.253888,312.787728 C403.938216,311.096521 400.309078,310.121476 396.598453,309.924918 C390.681529,309.684262 378.251016,305.984168 378.01235,304.790913 C377.773684,303.597658 381.090145,286.04979 379.673067,284.736207 C379.673067,284.736207 396.245426,285.423081 397.90117,286.631377 C399.556915,287.839673 401.928657,286.972307 403.703734,286.631377 C405.478811,286.290447 410.923376,281.517427 421.698144,285.693819 C421.698144,285.693819 425.367631,286.04979 426.78471,285.097192 C428.201788,284.144593 430.489002,284.856535 430.489002,284.856535 C430.489002,284.856535 432.706606,284.019251 433.059633,283.542952 C433.412659,283.066653 436.25676,283.542952 436.25676,283.542952 C436.598039,283.711888 436.99678,283.716131 437.341518,283.554495 C437.686257,283.39286 437.940008,283.082686 438.031838,282.710682 C438.402879,281.731572 438.966031,280.83802 439.687582,280.083515 C439.687582,280.083515 442.88471,261.939019 448.920967,255.13546 C448.920967,255.13546 450.696044,253.581221 450.223684,251.676023 C449.751325,249.770826 460.048762,222.546562 474.279213,226.366984 Z" id="Path" fill="#565387"></path>
                    <path d="M388,344.582524 L403.55271,364 C403.612071,363.943792 403.651646,363.902913 403.651646,363.887583 C403.770369,363.519673 405.298927,359.385795 404.947705,359.140521 C404.596483,358.895248 401.885641,352.814512 396.468906,350.259581 C393.159503,348.726622 390.992808,345.921308 389.810525,344 L388,344.582524 Z" id="Path" fill="#000000" opacity="0.1"></path>
                    <path d="M388.329919,377.000594 L390.027839,378 C390.027839,378 393.976492,374.801901 397.880722,371.583813 C401.784952,368.365726 405.595402,365.2126 405.659568,365.032707 C405.773091,364.677918 407.298258,360.630324 406.947816,360.395463 C406.76519,360.270537 405.960652,358.621518 404.479908,356.712652 C393.956749,353.714434 400.654651,361.12503 401.548033,361.464828 C401.548033,361.464828 388.714912,358.46661 388.03377,372.613202 C387.940679,374.082489 388.040261,375.557787 388.329919,377.000594 Z" id="Path" fill="#000000" opacity="0.1"></path>
                    <path d="M401.278916,383.804186 L403.525728,385.105255 L426.341042,385.696198 C426.341042,385.696198 431.231454,388.675746 434.405759,389.579542 C434.779804,389.696336 435.163094,389.781062 435.551484,389.832803 C437.663189,390.00395 439.783465,390.043754 441.900093,389.951985 C443.645961,389.907292 445,389.832803 445,389.832803 C445,389.832803 443.918753,361.030513 443.105337,358.050966 C442.718469,356.60092 440.808926,356.918738 438.924183,357.643761 C437.508189,358.218744 436.142767,358.911426 434.842226,359.714547 C434.842226,359.714547 425.160597,360.653104 423.623043,361.487377 C422.08549,362.321651 417.720821,360.990786 415.002823,361.487377 C412.284825,361.983968 407.44897,358.284364 407.44897,358.284364 C394.221048,353.914361 401.660824,362.068389 402.603196,362.425935 C402.603196,362.425935 389.737343,359.446387 389.028084,373.504884 C388.318826,387.563381 401.278916,383.804186 401.278916,383.804186 Z" id="Path" fill="#565387"></path>
                    <path d="M435.010917,372.696867 C435.264472,378.670331 440.005955,386.082403 442.83056,390 C444.615589,389.955199 446,389.880531 446,389.880531 C446,389.880531 444.894499,361.00879 444.062838,358.022058 C443.667292,356.568515 441.714917,356.8871 439.787897,357.613871 C437.470403,361.894853 434.808073,367.883251 435.010917,372.696867 Z" id="Path" fill="#565387"></path>
                    <path d="M435.010917,372.696867 C435.264472,378.670331 440.005955,386.082403 442.83056,390 C444.615589,389.955199 446,389.880531 446,389.880531 C446,389.880531 444.894499,361.00879 444.062838,358.022058 C443.667292,356.568515 441.714917,356.8871 439.787897,357.613871 C437.470403,361.894853 434.808073,367.883251 435.010917,372.696867 Z" id="Path" fill="#000000" opacity="0.1"></path>
                    <path d="M430.383136,373.464338 C431.947284,379.220335 431.932434,385.677192 434.427151,389.579142 C434.800441,389.696047 435.182958,389.780854 435.570563,389.832644 C437.678004,390.003954 439.793999,390.043796 441.906353,389.951939 C443.648695,389.907204 445,389.832644 445,389.832644 C445,389.832644 443.920936,361.002951 443.109163,358.020569 C442.723076,356.569143 440.817389,356.887264 438.936452,357.612977 C437.523317,358.188507 436.160652,358.881848 434.862737,359.685733 C434.862737,359.685733 428.383402,366.097854 430.383136,373.464338 Z" id="Path" fill="#000000" opacity="0.05"></path>
                    <path d="M352,314 C352,314 363.366698,317.734658 373,331 L352,314 Z" id="Path" fill="#000000" opacity="0.1"></path>
                    <g id="Group" opacity="0.1" transform="translate(379.000000, 164.000000)" fill="#000000">
                        <path d="M64.7716296,8.45 C64.753089,8.534567 64.7298926,8.6180293 64.7021481,8.7 C64.5936537,9.0417386 64.462672,9.37581228 64.3100741,9.7 C64.4265989,9.27029409 64.581067,8.85195831 64.7716296,8.45 Z" id="Path"></path>
                        <path d="M0.689851852,2.675 C0.886251464,1.84085769 1.18116909,1.03343396 1.5682963,0.27 C1.50874074,0.475 1.44422222,0.68 1.39459259,0.89 C0.794074074,3.48 1.29533333,6.195 1.92066667,8.785 C2.24325926,10.12 2.68,11.565 3.82644444,12.31 C5.5882963,13.445 8.29311111,12.455 9.7422963,13.985 C10.6554815,14.96 10.7051111,16.69 11.8962222,17.29 C12.3394002,17.4846453 12.8300324,17.5420808 13.3057037,17.455 C16.4422963,17.005 18.2686667,13.455 21.2811852,12.455 C22.9983704,11.895 24.8842963,12.26 26.5667407,12.915 C27.2403232,13.1243951 27.8443674,13.5151131 28.3137037,14.045 C29.3062963,15.36 28.6164444,17.3 29.082963,18.89 C29.7331111,21.1 32.3535556,21.98 34.6216296,22.265 C36.8897037,22.55 39.4456296,22.715 40.9593333,24.445 C42.0313333,25.665 42.3042963,27.445 42.0859259,29.05 C41.9545414,29.6106264 41.9545414,30.1943736 42.0859259,30.755 C42.7112593,32.54 45.7783704,32.255 46.5525926,30.865 C47.1382222,29.84 46.9645185,28.99 48.3442222,28.705 C49.2722963,28.51 50.3691111,28.905 51.2326667,29.205 C53.6855928,30.056625 56.2726821,30.4480928 58.8657037,30.36 C60.9848889,30.285 63.1884444,29.86 64.856,28.53 C65.6179329,27.9180236 66.2435756,27.1514283 66.6922963,26.28 C66.303564,27.8666138 65.415624,29.2838877 64.1611852,30.32 C62.4936296,31.64 60.295037,32.08 58.1708889,32.15 C55.5794668,32.2384994 52.9939318,31.8470123 50.5428148,30.995 C49.6742963,30.695 48.5576296,30.3 47.6494074,30.495 C46.2697037,30.78 46.4434074,31.63 45.8627407,32.655 C45.0587407,34.065 41.9965926,34.33 41.3662963,32.545 C41.2349117,31.9843736 41.2349117,31.4006264 41.3662963,30.84 C41.5846667,29.225 41.3166667,27.455 40.2446667,26.235 C38.726,24.51 36.1700741,24.345 33.902,24.06 C31.6339259,23.775 29.0134815,22.895 28.3682963,20.685 C27.8968148,19.09 28.6065185,17.15 27.599037,15.835 C27.1270289,15.3059 26.5216361,14.9154189 25.8471111,14.705 C24.1646667,14.05 22.2787407,13.705 20.5615556,14.245 C17.5440741,15.245 15.7226667,18.805 12.5860741,19.245 C12.1104028,19.3320808 11.6197706,19.2746453 11.1765926,19.08 C9.98548148,18.48 9.93585185,16.75 9.02266667,15.78 C7.58837037,14.25 4.86866667,15.235 3.11177778,14.1 C1.96037037,13.355 1.52362963,11.91 1.20103704,10.575 C0.58562963,7.98 0.0843703704,5.265 0.689851852,2.675 Z" id="Path"></path>
                    </g>
                    <path d="M445.660439,261.732207 C443.457863,264.691458 440.942076,267.429645 438.992089,270.55972 C437.042102,273.689794 435.662966,277.342385 436.072161,281 C438.092873,278.940079 439.012297,276.096384 440.285345,273.513947 C442.437403,269.142896 445.660439,265.435039 448.368193,261.415682 C448.873371,260.64698 452.212597,256.215639 450.530355,256.004623 C449.146167,255.828776 446.413154,260.722343 445.660439,261.732207 Z" id="Path" fill="#000000" opacity="0.1"></path>
                </g>
            </g>
        </g>
    </g>
</svg>