<?xml version="1.0" encoding="UTF-8"?>
<svg width="1101px" height="732px" viewBox="0 0 1101 732" version="1.1" xmlns="http://www.w3.org/2000/svg" xmlns:xlink="http://www.w3.org/1999/xlink">
    <!-- Generator: Sketch 52.5 (67469) - http://www.bohemiancoding.com/sketch -->
    <title>kyc-4</title>
    <desc>Created with Sketch.</desc>
    <g id="Page-1" stroke="none" stroke-width="1" fill="none" fill-rule="evenodd">
        <g id="kyc-4" transform="translate(0.000000, -1.000000)">
            <path d="M641.24,146.99 C576.52,144.69 514.88,123.8 456.06,100.99 C397.24,78.18 338.9,52.8 275.73,40.69 C235.1,32.9 188.63,31.8 155.9,53.58 C124.39,74.58 114.21,110.73 108.74,144.31 C104.62,169.57 102.2,196.15 113.48,219.8 C121.32,236.22 135.22,250.02 144.84,265.75 C178.31,320.47 154.65,387.95 118.39,441.38 C101.39,466.45 81.64,490.38 68.51,517.04 C55.38,543.7 49.31,574.29 60.8,601.51 C72.18,628.51 99.31,648.75 128.7,663 C188.39,691.94 258.7,700.23 327.31,704.92 C479.14,715.31 631.77,710.81 784,706.31 C840.34,704.64 896.92,702.95 952.34,694.24 C983.12,689.4 1014.89,681.72 1037.24,663.19 C1065.6,639.66 1072.63,599.81 1053.62,570.31 C1021.74,520.82 933.62,508.53 911.31,455.41 C899.05,426.18 911.64,393.61 929.47,366.5 C967.71,308.34 1031.8,257.31 1035.17,190.82 C1037.49,145.16 1006.68,99.43 959.04,77.82 C909.11,55.17 839.86,58.02 803.04,95.51 C765.06,134.07 698.39,148.92 641.24,146.99 Z" id="Path" fill="#4285F4" opacity="0.1"></path>
            <ellipse id="Oval" fill="#4285F4" cx="171.26" cy="718.9" rx="73.21" ry="14.08"></ellipse>
            <ellipse id="Oval" fill="#3F3D56" cx="170.03" cy="712.92" rx="8.52" ry="11.16"></ellipse>
            <ellipse id="Oval" fill="#3F3D56" cx="170.03" cy="699.28" rx="8.52" ry="11.16"></ellipse>
            <ellipse id="Oval" fill="#3F3D56" cx="170.03" cy="685.64" rx="8.52" ry="11.16"></ellipse>
            <ellipse id="Oval" fill="#3F3D56" cx="170.03" cy="672.01" rx="8.52" ry="11.16"></ellipse>
            <ellipse id="Oval" fill="#3F3D56" cx="170.03" cy="658.37" rx="8.52" ry="11.16"></ellipse>
            <ellipse id="Oval" fill="#3F3D56" cx="170.03" cy="644.73" rx="8.52" ry="11.16"></ellipse>
            <ellipse id="Oval" fill="#3F3D56" cx="170.03" cy="631.09" rx="8.52" ry="11.16"></ellipse>
            <path d="M201.94,537.76 C203.107657,536.279432 204.170254,534.718952 205.12,533.09 L182.72,529.41 L206.94,529.59 C211.639665,519.373232 211.921811,507.671394 207.72,497.24 L175.23,514.1 L205.23,492.1 C197.570424,478.889897 183.179736,471.057946 167.927612,471.798643 C152.675488,472.53934 139.111424,481.728873 132.767931,495.619014 C126.424439,509.509155 128.361876,525.778073 137.79,537.79 C135.975521,540.100107 134.413304,542.597642 133.13,545.24 L162.21,560.34 L131.21,549.94 C126.779387,563.010471 129.254912,577.434733 137.79,588.28 C124.622151,605.018075 126.531045,629.065883 142.174659,643.516929 C157.818274,657.967975 181.941726,657.967975 197.585341,643.516929 C213.228955,629.065883 215.137849,605.018075 201.97,588.28 C213.623109,573.467156 213.623109,552.602844 201.97,537.79 L201.94,537.76 Z" id="Path" fill="#4285F4"></path>
            <path d="M129.06,562.99 C129.047913,572.147496 132.127497,581.040939 137.8,588.23 C124.632151,604.968075 126.541045,629.015883 142.184659,643.466929 C157.828274,657.917975 181.951726,657.917975 197.595341,643.466929 C213.238955,629.015883 215.147849,604.968075 201.98,588.23 C207.42,581.3 129.06,558.42 129.06,562.99 Z" id="Path" fill="#000000" opacity="0.1"></path>
            <path d="M525.95,548.99 C526.57,556.99 529.65,565.27 536.13,569.99 C542.61,574.71 552.92,574.62 557.87,568.28 C559.532232,565.899778 560.754856,563.241163 561.48,560.43 C565.65,547.25 568.61,532.83 564.04,519.78 C553.73,519.11 541.78,514.26 534.04,522.78 C527.79,529.72 525.23,539.74 525.95,548.99 Z" id="Path" fill="#3F3D56"></path>
            <path d="M573.81,468.36 C572.44,479.99 570.11,491.57 570.35,503.28 C570.44,507.8 570.92,512.28 570.93,516.82 C570.947432,528.608469 567.842135,540.191228 561.93,550.39 C561.307412,551.588995 560.474132,552.666162 559.47,553.57 C557.1,555.49 553.53,555.33 550.87,553.86 C548.271169,552.243296 546.159529,549.951943 544.76,547.23 C537.31,534.47 537.1,518.96 534.15,504.49 C531.89,493.42 527.93,482.69 526.5,471.49 C525.57,464.28 525.71,456.93 524.23,449.81 C523.78,447.66 522.52,444.43 521.69,441.26 C520.93,438.43 520.51,435.65 521.29,433.74 C522.88,429.83 528.09,431.35 531.48,431.59 C543.41812,432.475032 555.406473,432.444944 567.34,431.5 C568.52,431.41 569.86,431.36 570.69,432.2 C571.052058,432.624205 571.324222,433.117502 571.49,433.65 C572.440164,436.2499 573.166145,438.926327 573.66,441.65 C575.31,450.36 574.85,459.49 573.81,468.36 Z" id="Path" fill="#FABDBD"></path>
            <g id="Group" opacity="0.1" transform="translate(520.000000, 431.000000)" fill="#000000">
                <path d="M49.21,0.5 C48.5950462,0.434999881 47.9749538,0.434999881 47.36,0.5 C41.64,0.96 35.91,1.19 30.19,1.22 C36.53,1.23333333 42.87,0.993333333 49.21,0.5 Z" id="Path"></path>
                <path d="M32.89,122.86 C30.2911685,121.243296 28.1795293,118.951943 26.78,116.23 C19.33,103.47 19.12,87.96 16.17,73.49 C13.91,62.42 9.95,51.69 8.52,40.49 C7.59,33.28 7.73,25.93 6.25,18.81 C5.8,16.66 4.54,13.43 3.71,10.26 C2.95,7.43 2.53,4.65 3.31,2.74 C3.98750431,1.13799775 5.57090569,0.108786853 7.31,0.14 C4.78,-0.03 2.31,0.27 1.31,2.74 C0.53,4.65 0.95,7.43 1.71,10.26 C2.54,13.43 3.8,16.66 4.25,18.81 C5.73,25.93 5.59,33.28 6.52,40.49 C7.95,51.7 11.91,62.43 14.17,73.49 C17.12,87.96 17.33,103.49 24.78,116.23 C26.1795293,118.951943 28.2911685,121.243296 30.89,122.86 C32.4863114,123.743212 34.3159164,124.113323 36.13,123.92 C34.9935005,123.771133 33.8947229,123.411656 32.89,122.86 Z" id="Path"></path>
            </g>
            <path d="M611.62,529.69 C605.62,541.69 606.62,558.69 606.62,558.69 C607.62,598.69 591.62,682.69 591.62,682.69 L577.62,682.69 C577.62,682.69 575.62,589.69 577.62,581.69 C579.62,573.69 576.62,545.69 573.62,506.69 C571.39,477.69 577.46,451.41 580.72,439.88 C581.84,435.88 582.62,433.69 582.62,433.69 C582.62,433.69 605.62,399.69 618.62,415.69 C621.62,419.41 623.21,426.92 623.76,436.4 C625.54,467.68 616.22,520.48 611.62,529.69 Z" id="Path" fill="#FABDBD"></path>
            <path d="M623.76,436.4 C623.21,426.92 621.64,419.4 618.62,415.69 C615.72,412.13 612.32,411.05 608.8,411.52 C611.528175,411.972734 613.973633,413.467978 615.62,415.69 C618.62,419.41 620.21,426.92 620.76,436.4 C622.54,467.68 613.22,520.48 608.62,529.69 C602.62,541.69 603.62,558.69 603.62,558.69 C604.62,598.69 588.62,682.69 588.62,682.69 L591.62,682.69 C591.62,682.69 607.62,598.69 606.62,558.69 C606.62,558.69 605.62,541.69 611.62,529.69 C616.22,520.48 625.54,467.68 623.76,436.4 Z" id="Path" fill="#000000" opacity="0.1"></path>
            <path d="M570.34,679.04 C569.222631,679.916784 568.256496,680.970749 567.48,682.16 C565.69,685.54 568.23,689.58 570.95,692.27 C573.67,694.96 576.95,697.84 576.95,701.67 C576.95,704.75 574.62,707.39 572.01,709.03 C570.61,709.91 568.85,711.03 569.14,712.69 C569.241644,713.109816 569.421444,713.506734 569.67,713.86 C571.91,717.29 575.88,719.3 579.9,720.06 C583.92,720.82 588.07,720.49 592.16,720.16 C592.772568,720.181819 593.371365,719.975091 593.84,719.58 C594.136329,719.181305 594.29434,718.696739 594.29,718.2 C594.49,716.08 594.36,713.84 595.29,711.93 C596.59,709.32 599.58,707.99 601.29,705.65 C603.69,702.45 603.36,698 602.45,694.11 C600.45,685.64 596,675.98 589.32,670.11 C581.58,663.37 575.51,674.17 570.34,679.04 Z" id="Path" fill="#3F3D56"></path>
            <path d="M600.64,174.99 C606.22,166.65 604.77,154.99 599.07,146.69 C593.37,138.39 584.21,133.17 574.76,129.8 C562.02,125.26 547.97,123.71 534.88,127.12 C524.46,129.83 515.1,135.5 505.28,139.88 C487.906848,147.631504 469.017146,151.390309 450,150.88 C428.89,150.29 405.76,144.88 388.05,156.42 C355.63,177.51 370.05,234.91 339.38,258.42 C331.11,264.76 320.7,267.53 311.5,272.42 C302.3,277.31 293.58,285.82 293.8,296.24 C293.9,301.24 296.1,306.01 298.8,310.24 C310.3,328.47 331.8,339.75 353.33,339.54 C374.86,339.33 395.87,327.88 408.28,310.26 C411.39,305.85 414.13,300.94 418.64,298 C427.64,292.1 439.5,296.23 450.24,297.11 C474.15,299.06 498.07,281.11 502.83,257.56 C504.83,247.51 504.48,235.5 512.57,229.19 C519.1,224.1 528.29,225.19 536.57,224.32 C551.71,222.75 563.66,213.32 571.88,201 C575.65,195.35 576.09,188.6 581.23,184.15 C586.77,179.26 595.34,182.87 600.64,174.99 Z" id="Path" fill="#3F3D56"></path>
            <g id="Group" opacity="0.1" transform="translate(348.000000, 125.000000)" fill="#000000">
                <path d="M82,27.81 C90.7690357,28.0505957 99.539362,27.3803377 108.17,25.81 C105.79,25.88 103.39,25.88 101,25.81 C84.43,25.35 66.62,21.93 51.16,26.05 C61.36,26.15 71.91,27.53 82,27.81 Z" id="Path"></path>
                <path d="M50.62,174.99 C46.11,177.93 43.37,182.84 40.26,187.25 C30.7008608,200.6675 16.7301913,210.298661 0.79,214.46 C1.96,214.51 3.13,214.54 4.31,214.53 C25.86,214.32 46.85,202.87 59.26,185.25 C62.37,180.84 65.11,175.93 69.62,172.99 L70.4,172.51 C63.34,171.54 56.41,171.2 50.62,174.99 Z" id="Path"></path>
                <path d="M250.06,21.66 C244.37,13.4 235.2,8.14 225.75,4.77 C213.01,0.23 198.96,-1.32 185.87,2.09 C185.57,2.16 185.28,2.25 184.99,2.33 C192.420598,2.7443847 199.751056,4.24012163 206.75,6.77 C216.2,10.14 225.37,15.4 231.06,23.66 C236.75,31.92 238.21,43.66 232.63,51.96 C227.33,59.87 218.76,56.26 213.15,61.13 C208.01,65.58 207.57,72.33 203.8,77.98 C196.73,88.55 186.89,96.98 174.64,100.18 C178.85,99.68 183.29,99.74 187.49,99.3 C202.63,97.73 214.58,88.3 222.8,75.98 C226.57,70.33 227.01,63.58 232.15,59.13 C237.76,54.26 246.33,57.87 251.63,49.96 C257.22,41.62 255.77,29.92 250.06,21.66 Z" id="Path"></path>
                <path d="M168.5,101.3 C160.27,102.16 151.08,101.08 144.5,106.17 C136.41,112.48 136.8,124.49 134.76,134.54 C131.25,152.11 116.99,166.6 100.06,171.99 L101.25,172.1 C125.16,174.05 149.08,156.1 153.84,132.55 C155.84,122.5 155.49,110.49 163.58,104.18 C165.438071,102.790374 167.546508,101.771805 169.79,101.18 C169.34,101.19 168.93,101.26 168.5,101.3 Z" id="Path"></path>
            </g>
            <path d="M758.12,139.19 C758.12,139.19 734.12,187.19 726.12,205.19 C718.12,223.19 645.12,250.19 635.12,251.19 C632.437597,251.55772 629.939284,252.761389 627.98,254.63 C622.33,259.63 619.12,268.19 619.12,268.19 C619.12,268.19 623.12,295.19 618.12,340.19 C618.02,341.06 617.93,341.93 617.85,342.77 C613.49,385.59 622.62,395.69 622.62,395.69 C622.62,395.69 525.62,432.69 528.62,384.69 C529.56,369.58 529.42,358.54 528.49,349.31 C527.472128,339.861123 525.549987,330.531708 522.75,321.45 C520.38,313.16 517.55,304.07 514.62,291.69 C513.209621,285.513078 511.351375,279.447041 509.06,273.54 C508.99,273.36 508.92,273.18 508.86,273.01 C503.86,260.6 498.86,256.59 496,255.29 C493.299541,254.115344 490.726176,252.667826 488.32,250.97 C479.08,244.3 459.25,229.35 441.59,211.69 C417.59,187.69 393.59,130.69 393.59,130.69 C393.59,130.69 386.59,97.69 402.59,70.69 C418.59,43.69 411.59,123.69 411.59,123.69 C411.59,123.69 440.59,162.69 447.59,180.69 C451.19,189.95 456.91,194.69 461.59,197.15 C469.321928,201.174884 476.724821,205.802528 483.73,210.99 C488.464383,214.567878 493.43948,217.815557 498.62,220.71 C509.8,226.71 523.19,233.48 534.35,235.26 C536.092159,235.547876 537.854255,235.698339 539.62,235.71 C541.317938,235.764134 542.944333,235.024863 544.02,233.71 C547.02,230.18 546.95,222.58 546.26,216.33 C545.891409,213.092203 545.343905,209.877287 544.62,206.7 C544.62,206.7 577.12,186.2 576.12,211.2 C575.964927,213.962516 576.221056,216.732746 576.88,219.42 C577.963208,224.441671 581.665459,228.491605 586.57,230.02 C590.472354,231.164588 594.601561,231.298787 598.57,230.41 C599.807134,230.198646 601.002331,229.790118 602.11,229.2 C605.11,227.2 635.11,218.2 644.11,217.2 C653.11,216.2 698.11,194.2 698.11,194.2 L747.11,126.2 C747.11,126.2 746.11,86.2 766.11,70.2 C786.11,54.2 758.12,139.19 758.12,139.19 Z" id="Path" fill="#FABDBD"></path>
            <g id="Group" opacity="0.1" transform="translate(392.000000, 72.000000)" fill="#000000">
                <path d="M225.85,264.77 C224.976489,272.805899 224.592447,280.88748 224.7,288.97 C224.8,283.69 225.15,277.66 225.85,270.77 C225.93,269.93 226.02,269.06 226.12,268.19 C227.869363,252.78966 228.704161,237.299151 228.62,221.8 C228.465775,235.296785 227.631384,248.777219 226.12,262.19 C226.06,263.06 225.93,263.93 225.85,264.77 Z" id="Path"></path>
                <path d="M153.66,134.06 C152.99,134.45 152.66,134.69 152.66,134.69 C153.631932,138.967777 154.273821,143.313896 154.58,147.69 C154.78179,143.126584 154.47321,138.554906 153.66,134.06 Z" id="Path"></path>
                <path d="M20.06,46.26 C20.55,39.26 21.28,26.71 21.14,15.55 C20.97,30.47 19.64,45.69 19.64,45.69 L20.06,46.26 Z" id="Path"></path>
                <path d="M136.69,311.52 C136.69,311.91 136.69,312.3 136.62,312.69 C133.62,360.69 230.62,323.69 230.62,323.69 C229.48575,322.157852 228.629408,320.438399 228.09,318.61 C213.48,323.81 140.06,347.99 136.69,311.52 Z" id="Path"></path>
                <path d="M366.12,61.19 C366.12,61.19 342.12,109.19 334.12,127.19 C326.12,145.19 253.12,172.19 243.12,173.19 C240.437597,173.55772 237.939284,174.761389 235.98,176.63 C230.33,181.63 227.12,190.19 227.12,190.19 C227.12,190.19 227.36,191.82 227.65,194.92 C228.77,192.35 231.65,186.45 235.98,182.63 C237.939284,180.761389 240.437597,179.55772 243.12,179.19 C253.12,178.19 326.12,151.19 334.12,133.19 C342.12,115.19 366.12,67.19 366.12,67.19 C366.12,67.19 383.03,15.84 381.17,0.48 C379.63,20.16 366.12,61.19 366.12,61.19 Z" id="Path"></path>
                <path d="M136.49,271.31 C135.472128,261.861123 133.549987,252.531708 130.75,243.45 C128.38,235.16 125.55,226.07 122.62,213.69 C121.209621,207.513078 119.351375,201.447041 117.06,195.54 C116.99,195.36 116.92,195.18 116.86,195.01 C111.86,182.6 106.86,178.59 104,177.29 C101.299541,176.115344 98.7261761,174.667826 96.32,172.97 C87.08,166.3 67.25,151.35 49.59,133.69 C25.59,109.69 1.59,52.69 1.59,52.69 C0.702985537,47.8780501 0.208026962,43.0020392 0.11,38.11 C-0.134347744,45.0031927 0.361826942,51.9027029 1.59,58.69 C1.59,58.69 25.59,115.69 49.59,139.69 C67.25,157.35 87.08,172.3 96.32,178.97 C98.7451645,180.671399 101.338795,182.119007 104.06,183.29 C106.91,184.59 111.9,188.6 116.92,201.01 C116.98,201.18 117.05,201.36 117.12,201.54 C119.401187,207.447839 121.249402,213.51386 122.65,219.69 C125.58,232.07 128.41,241.16 130.78,249.45 C133.579987,258.531708 135.502128,267.861123 136.52,277.31 C136.94,281.49 137.19,286.04 137.26,291.16 C137.381181,284.534073 137.124096,277.906629 136.49,271.31 Z" id="Path"></path>
            </g>
            <path d="M627.53,299.87 C626.003374,302.393991 624.666361,305.027905 623.53,307.75 C622.02,311.95 622.01,316.52 621.73,320.97 C621.331127,327.214982 620.380759,333.412456 618.89,339.49 C618.648944,340.609366 618.314439,341.706544 617.89,342.77 C617.591242,343.486013 617.197729,344.158685 616.72,344.77 C616.18684,345.422077 615.560039,345.991589 614.86,346.46 C613.786901,347.175651 612.652458,347.794742 611.47,348.31 C597.55,354.81 582.37,360.55 567.18,358.31 C560.758464,357.187299 554.544423,355.096845 548.75,352.11 C543.25,349.44 537.03,346.27 531.33,348.49 C530.455205,348.934005 529.512114,349.228088 528.54,349.36 C528.352088,349.363238 528.164366,349.346477 527.98,349.31 C526.1,348.95 526.1,342.61 525.67,340.74 C524.03,333.56 523.78,327.74 522.8,321.5 C522.27915,318.049214 521.473055,314.647559 520.39,311.33 C516.39,299.23 515.18,286.33 515.18,273.65 C515.18,273.02 510.68,273.65 509.18,273.59 C508.8,273.59 508.59,273.53 508.68,273.4 C508.766788,273.275661 508.867435,273.161594 508.98,273.06 C509.503675,272.63487 510.114964,272.330933 510.77,272.17 L511.95,271.82 C518.13,270.07 524.95,269.34 529.57,264.99 C534.37,260.5 535.57,253.33 535.36,246.77 C535.3,244.66 534.27,239.54 534.44,235.29 C536.182159,235.577876 537.944255,235.728339 539.71,235.74 C541.407938,235.794134 543.034333,235.054863 544.11,233.74 C545.778373,236.969964 547.221804,240.311239 548.43,243.74 C550.13,247.92 551.43,252.32 553.92,256.1 C557.92,262.26 565.3,266.31 572.64,265.69 C579.98,265.07 586.81,259.43 588.12,252.19 C589.27,245.84 586.6,236.7 586.66,230.1 C590.562354,231.244588 594.691561,231.378787 598.66,230.49 C598.828629,230.897531 598.972229,231.314974 599.09,231.74 C601.34,239.46 604.34,248.32 611.89,251.06 C616.77,252.82 622.54,251.5 627.05,254.06 C627.396575,254.259248 627.730542,254.479666 628.05,254.72 C629.091178,255.494136 629.988162,256.445277 630.7,257.53 C632.552742,260.588571 633.652906,264.043291 633.91,267.61 C635.064717,278.759732 632.841916,289.999162 627.53,299.87 Z" id="Path" fill="#4285F4"></path>
            <path d="M576.88,219.41 C566.76292,223.309537 555.393994,222.162248 546.26,216.32 C545.891409,213.082203 545.343905,209.867287 544.62,206.69 C544.62,206.69 577.12,186.19 576.12,211.19 C575.964927,213.952516 576.221056,216.722746 576.88,219.41 Z" id="Path" fill="#000000" opacity="0.1"></path>
            <circle id="Oval" fill="#FABDBD" cx="564.61" cy="185.69" r="34"></circle>
            <path d="M505.12,270.19 C505.12,270.19 571.12,228.19 776.12,273.19 C981.12,318.19 1100.12,282.19 1100.12,282.19 L1100.12,329.19 C1100.12,329.19 870.12,354.19 782.12,329.19 C694.12,304.19 568.85,289.77 524.98,328.48 L505.12,270.19 Z" id="Path" fill="#F86D70"></path>
            <path d="M505.12,270.19 C505.12,270.19 571.12,228.19 776.12,273.19 C981.12,318.19 1100.12,282.19 1100.12,282.19 L1100.12,329.19 C1100.12,329.19 870.12,354.19 782.12,329.19 C694.12,304.19 568.85,289.77 524.98,328.48 L505.12,270.19 Z" id="Path" fill="#000000" opacity="0.1"></path>
            <path d="M507.12,272.19 C507.12,272.19 571.12,230.19 776.12,275.19 C981.12,320.19 1098.12,284.19 1098.12,284.19 L1099.12,327.19 C1099.12,327.19 871.12,352.19 783.12,327.19 C695.12,302.19 570.85,284.77 526.98,323.48 L507.12,272.19 Z" id="Path" fill="#F86D70"></path>
            <path d="M483.06,336.79 C483.06,336.79 417.06,378.79 212.06,333.79 C7.06,288.79 17.06,324.79 17.06,324.79 L17.06,277.79 C17.06,277.79 118.06,252.79 206.06,277.79 C294.06,302.79 419.33,317.21 463.2,278.5 L483.06,336.79 Z" id="Path" fill="#F86D70"></path>
            <path d="M483.06,336.79 C483.06,336.79 417.06,378.79 212.06,333.79 C7.06,288.79 17.06,324.79 17.06,324.79 L17.06,277.79 C17.06,277.79 118.06,252.79 206.06,277.79 C294.06,302.79 419.33,317.21 463.2,278.5 L483.06,336.79 Z" id="Path" fill="#000000" opacity="0.1"></path>
            <path d="M481.06,334.79 C481.06,334.79 417.06,376.79 212.06,331.79 C7.06,286.79 19.06,322.79 19.06,322.79 L18.06,279.79 C18.06,279.79 117.06,254.79 205.06,279.79 C293.06,304.79 417.33,322.21 461.2,283.5 L481.06,334.79 Z" id="Path" fill="#F86D70"></path>
            <path d="M535.37,191.32 C534.37,185.08 532.83,177.22 538.05,173.65 C539.911758,172.521124 542.064401,171.964705 544.24,172.05 C555.05,171.94 565.38,179.47 575.98,177.27 C582.870734,175.826004 588.273852,170.474734 589.784221,163.598243 C591.294589,156.721752 588.631345,149.598767 582.98,145.4 C578.81,142.3 573.54,141.18 568.44,140.13 C555.03,137.37 541.03,134.62 527.79,138.13 C514.55,141.64 502.45,153.51 503.51,167.13 C504.01,173.65 507.33,179.57 510.8,185.13 C513.44,189.35 523.72,209.13 528.71,209.43 C535.75,209.84 536.06,195.4 535.37,191.32 Z" id="Path" fill="#3F3D56"></path>
            <path d="M619.62,378.69 C619.62,378.69 550.62,395.69 527.62,378.69 C527.62,378.69 517.62,417.69 520.62,437.69 C520.62,437.69 569.62,440.69 574.62,443.69 C574.62,443.69 575.62,435.69 580.62,439.69 C580.62,439.69 597.62,419.69 628.62,437.69 C628.62,437.69 634.62,390.69 619.62,378.69 Z" id="Path" fill="#4285F4"></path>
            <path d="M583,145.4 C582.288487,144.884468 581.543514,144.416772 580.77,144 C584.969419,148.774074 586.312332,155.421556 584.295509,161.451426 C582.278686,167.481295 577.206629,171.983149 570.98,173.27 C560.38,175.47 550.05,167.94 539.24,168.05 C537.064401,167.964705 534.911758,168.521124 533.05,169.65 C527.83,173.22 529.36,181.08 530.36,187.32 C531.02,191.4 530.75,205.84 523.73,205.45 L523.61,205.45 C525.54,207.8 527.34,209.39 528.73,209.45 C535.73,209.84 536.02,195.45 535.36,191.32 C534.36,185.08 532.83,177.22 538.05,173.65 C539.911758,172.521124 542.064401,171.964705 544.24,172.05 C555.05,171.94 565.38,179.47 575.98,177.27 C582.870734,175.826004 588.273852,170.474734 589.784221,163.598243 C591.294589,156.721752 588.631345,149.598767 582.98,145.4 L583,145.4 Z" id="Path" fill="#000000" opacity="0.1"></path>
            <g id="Group" opacity="0.1" transform="translate(0.000000, 89.000000)" fill="#4285F4">
                <path d="M86.36,8.9 C86.36,8.9 11.59,-22.54 1.79,34.16 C1.79,34.16 -3.32,42.99 3.79,50.29 C3.79,50.29 5.32,46.38 12.55,50.43 C15.1309672,51.8491312 17.8697444,52.9600812 20.71,53.74 C24.5481007,54.7987239 28.626349,54.5811238 32.33,53.12 C32.33,53.12 56.92,51.79 77.6,19.62 C77.6,19.62 86.46,14.14 86.91,12.09 L72.09,13.09 C72.09,13.09 73.22,23.94 67.09,30.45 C67.09,30.45 72.54,13.62 69.92,13.14 C69.39,13.04 62.09,14.01 62.09,14.01 C62.09,14.01 63.98,32.87 54.09,42.63 C54.09,42.63 63.27,23.44 59.27,14.35 L48.34,16.46 C48.34,16.46 51.34,36.3 40.52,47.85 C40.52,47.85 49.41,27.45 45.98,17.08 L35.5,20.6 C35.5,20.6 38.03,40.02 28.98,49.6 C28.98,49.6 36.88,24.99 33.16,21.6 C33.16,21.6 23.74,25.42 21.72,27.6 C21.72,27.6 23.22,41.6 17.46,46.6 C17.46,46.6 21,29.6 19.25,28.9 C19.25,28.9 8.3,37.14 4.97,44.25 C4.97,44.25 9.13,33.39 17.87,27.25 C17.87,27.25 10.53,26.01 4.87,29.08 C4.87,29.08 8.66,21.87 20.52,25.29 C20.52,25.29 29.31,19.21 31.07,19.29 C31.07,19.29 19.85,14.29 11.74,14.9 C11.74,14.9 20.43,9.9 33.82,18.26 L44.26,14.48 C44.26,14.48 29.77,7.05 22.5,7.08 C22.5,7.08 32.16,3.35 46.98,13.75 L57.67,11.56 C57.67,11.56 45.67,4.21 37.58,2.5 C37.58,2.5 47.29,0.97 60.76,11.06 L68.08,10.44 C68.08,10.44 59.22,5.23 56.54,3.96 C53.86,2.69 53.98,1.86 53.98,1.86 C60.3586823,2.96748093 66.3035856,5.82740529 71.15,10.12 C71.15,10.12 86.29,9.83 86.36,8.9 Z" id="Path"></path>
            </g>
            <g id="Group" opacity="0.1" transform="translate(10.000000, 0.000000)" fill="#4285F4">
                <path d="M73.6,41.54 C73.6,41.54 47.06,-19.73 8.97,8.37 C8.97,8.37 0.9,10.71 0.97,19.07 C0.97,19.07 4.11,17.62 6.09,24.14 C6.83029915,26.4553834 7.83704578,28.6769376 9.09,30.76 C10.7471765,33.5618203 13.2708238,35.7485132 16.28,36.99 C16.28,36.99 31.64,50.21 62.28,42.88 C62.28,42.88 70.67,44.68 72.11,43.71 L62.74,35.85 C62.74,35.85 57.24,42.94 49.86,43.29 C49.86,43.29 62.69,36.39 61.4,34.61 C61.14,34.25 56.26,30.67 56.26,30.67 C56.26,30.67 46.63,42.95 35.26,43.14 C35.26,43.14 51.65,36.96 54.45,29.29 L46.76,24.29 C46.76,24.29 37.22,37.78 24.23,38.48 C24.23,38.48 41.13,31.48 45,23.32 L36.77,19.44 C36.77,19.44 27.21,32.44 16.4,32.93 C16.4,32.93 35.11,22.81 34.82,18.68 C34.82,18.68 27.05,15.58 24.59,15.76 C24.59,15.76 17.52,24.91 11.21,24.65 C11.21,24.65 23,16.56 22.35,15.15 C22.35,15.15 11.15,13.81 5.12,16.15 C5.12,16.15 13.78,12.07 22.47,13.41 C22.47,13.41 18.82,8.48 13.73,7.11 C13.73,7.11 20.09,4.98 25.19,13.77 C25.19,13.77 33.87,15.16 34.88,16.2 C34.88,16.2 31.08,6.81 25.88,2.58 C25.88,2.58 33.88,4.58 37.08,17.15 L45.43,20.86 C45.43,20.86 41.06,8.19 36.67,4.08 C36.67,4.08 44.54,7.36 47.42,21.98 L55.01,26.77 C55.01,26.77 52.06,15.57 48.24,9.99 C48.24,9.99 54.88,14.6 57.14,28.27 L61.84,32.07 C61.84,32.07 59.54,23.93 58.67,21.65 C57.8,19.37 58.35,18.95 58.35,18.95 C61.5031519,23.2448125 63.4035642,28.3298865 63.84,33.64 C63.84,33.64 73.06,42.06 73.6,41.54 Z" id="Path"></path>
            </g>
        </g>
    </g>
</svg>