<svg xmlns="http://www.w3.org/2000/svg" xmlns:xlink="http://www.w3.org/1999/xlink" width="242" height="74">
  <defs>
    <linearGradient id="b" x1="3.43885477%" x2="98.1846098%" y1="50%" y2="50%">
      <stop offset="0%" stop-color="#51DAF3"/>
      <stop offset="100%" stop-color="#0053FA"/>
    </linearGradient>
    <path id="a" d="M126.56 31.44h10.8V57.2h-10.8V31.44zm24.96 23.24l-1.92 1.84h-5.44V16.08l10.8-.64v11.84l.08-.04c1.385772-.504021 2.845638-.7743665 4.32-.8 4.44 0 8.08 1.28 10.8 3.84 2.72 2.56 4.12 6.36 4.12 11.32 0 5.04-1.4 8.96-4.16 11.6-2.76 2.64-6.56 4-11.24 4-2.665557.0033524-5.255895-.8835566-7.36-2.52zm3.44-19v12.44h.04c.987463.4801733 2.063009.7524633 3.16.8 1.441522-.0101964 2.780487-.7473797 3.56-1.96.92-1.28 1.4-3.08 1.4-5.28s-.44-3.92-1.4-5.12c-.96-1.2-2.28-1.8-4.04-1.8-.97549.0429258-1.918738.3619656-2.72.92zm51.4 5.88v3.08h-17.8l.04.12c.373162 1.2319211 1.184131 2.284758 2.28 2.96 1.12.72 2.6 1.08 4.4 1.08 2.771814-.0080358 5.501351-.6801329 7.96-1.96l3 7.28c-1.16.84-2.92 1.56-5.12 2.16-2.256509.6079644-4.583026.9172702-6.92.92-3.102484.0432633-6.180353-.5559679-9.04-1.76-2.518078-1.0735592-4.661622-2.8691251-6.16-5.16-1.501568-2.4817533-2.26471-5.3400656-2.2-8.24-.071664-2.8926569.632742-5.7517154 2.04-8.28 1.319031-2.2928991 3.260667-4.1651919 5.6-5.4 2.470321-1.2781742 5.218944-1.9241007 8-1.88 2.96 0 5.52.68 7.6 2.04 2.074848 1.3088038 3.71688 3.2013146 4.72 5.44 1.083245 2.3856643 1.629439 4.9800864 1.6 7.6zM196 39.44h-.04v-.08c.00678-1.0396659-.330777-2.0523351-.96-2.88-.663225-.9172584-1.750289-1.4305942-2.88-1.36-1.049947.0095872-2.043383.4770864-2.72 1.28-.75444.7970063-1.157866 1.8632021-1.12 2.96v.08H196zm-64.16-23.76c3.276272.0367548 5.923245 2.683728 5.96 5.96-.002059 1.5555146-.637535 3.0431057-1.76 4.12-1.677996 1.6744173-4.19691 2.1783775-6.389958 1.2784415C127.456994 26.1385055 126.018152 24.010446 126 21.64c-.009242-3.2488151 2.591669-5.9031696 5.84-5.96zm79.24 17.96c1.435626-2.3377767 3.539678-4.1910146 6.04-5.32 2.609131-1.2450347 5.469241-1.8745326 8.36-1.84 2.95213-.0486449 5.87748.5664988 8.56 1.8 2.417309 1.1601314 4.435883 3.0116518 5.8 5.32 1.36 2.32 2.08 5.2 2.08 8.56.06505 2.8747759-.698683 5.7075289-2.2 8.16-1.437012 2.2830139-3.527603 4.0809225-6 5.16-2.701248 1.166941-5.617653 1.7529478-8.56 1.72-4.88 0-8.84-1.32-11.8-3.92-2.96-2.6-4.48-6.44-4.48-11.4-.039993-2.8969184.721362-5.7485414 2.2-8.24zm14.28 3.24c-1.363216.005294-2.668494.551912-3.628682 1.5196019-.960189.96769-1.496633 2.2771822-1.491318 3.6403981.011067 2.8387119 2.321262 5.130975 5.159974 5.1199223 2.838712-.0110528 5.130986-2.3212359 5.119948-5.1599479-.011038-2.8387121-2.32121-5.1309985-5.159922-5.1199744zM121.2 47.32l1.6 9.396H93.56V15.92h10.84v28.516l-5.92 3 5.92-.116h16.8zM0 73.92V0h73.92v73.92H0zm33.92-34l1.76 6.32-3.92-4.4-11.48-12.36-7.96 5.24L32.28 56.2l29.96-27.76-7.36-7.96-20.96 19.44z"/>
  </defs>
  <use fill="url(#b)" fill-rule="nonzero" xlink:href="#a"/>
</svg>
