<?xml version="1.0" encoding="UTF-8"?>
<svg width="109px" height="34px" viewBox="0 0 109 34" version="1.1" xmlns="http://www.w3.org/2000/svg" xmlns:xlink="http://www.w3.org/1999/xlink">
    <!-- Generator: Sketch 52.5 (67469) - http://www.bohemiancoding.com/sketch -->
    <defs>
        <linearGradient x1="3.43885477%" y1="50%" x2="98.1846098%" y2="50%" id="linearGradient-1">
            <stop stop-color="#51DAF3" offset="0%"></stop>
            <stop stop-color="#0053FA" offset="100%"></stop>
        </linearGradient>
        <path d="M56.952,14.148 L61.812,14.148 L61.812,25.74 L56.952,25.74 L56.952,14.148 Z M68.184,24.606 L67.32,25.434 L64.872,25.434 L64.872,7.236 L69.732,6.948 L69.732,12.276 L69.768,12.258 C70.3915974,12.0311906 71.048537,11.9095351 71.712,11.898 C73.71,11.898 75.348,12.474 76.572,13.626 C77.796,14.778 78.426,16.488 78.426,18.72 C78.426,20.988 77.796,22.752 76.554,23.94 C75.312,25.128 73.602,25.74 71.496,25.74 C70.2964992,25.7415086 69.1308475,25.3423995 68.184,24.606 Z M69.732,16.056 L69.732,21.654 L69.75,21.654 C70.1943584,21.870078 70.6783539,21.9926085 71.172,22.014 C71.8206847,22.0094116 72.4232192,21.6776792 72.774,21.132 C73.188,20.556 73.404,19.746 73.404,18.756 C73.404,17.766 73.206,16.992 72.774,16.452 C72.342,15.912 71.748,15.642 70.956,15.642 C70.5170295,15.6613166 70.0925679,15.8048845 69.732,16.056 Z M92.862,18.702 L92.862,20.088 L84.852,20.088 L84.87,20.142 C85.0379231,20.6963645 85.4028591,21.1701411 85.896,21.474 C86.4,21.798 87.066,21.96 87.876,21.96 C89.1233161,21.9563839 90.3516079,21.6539402 91.458,21.078 L92.808,24.354 C92.286,24.732 91.494,25.056 90.504,25.326 C89.4885709,25.599584 88.4416382,25.7387716 87.39,25.74 C85.9938824,25.7594685 84.6088413,25.4898144 83.322,24.948 C82.188865,24.4648984 81.2242703,23.6568937 80.55,22.626 C79.8742942,21.509211 79.5308805,20.2229705 79.56,18.918 C79.5277511,17.6163044 79.8447337,16.3297281 80.478,15.192 C81.0715637,14.1601954 81.9453004,13.3176637 82.998,12.762 C84.1096444,12.1868216 85.346525,11.8961547 86.598,11.916 C87.93,11.916 89.082,12.222 90.018,12.834 C90.9516817,13.4229617 91.6905958,14.2745916 92.142,15.282 C92.6294603,16.3555489 92.8752477,17.5230389 92.862,18.702 Z M88.2,17.748 L88.182,17.748 L88.182,17.712 C88.1850508,17.2441504 88.0331504,16.7884492 87.75,16.416 C87.4515488,16.0032337 86.9623699,15.7722326 86.454,15.804 C85.9815238,15.8083142 85.5344776,16.0186889 85.23,16.38 C84.8905018,16.7386529 84.7089604,17.2184409 84.726,17.712 L84.726,17.748 L88.2,17.748 Z M59.328,7.056 C60.8023224,7.07253965 61.9934604,8.26367759 62.01,9.738 C62.0090735,10.4379816 61.7231094,11.1073975 61.218,11.592 C60.4629018,12.3454878 59.3293904,12.5722699 58.3425189,12.1672987 C57.3556473,11.7623275 56.7081683,10.8047007 56.7,9.738 C56.695841,8.27603319 57.866251,7.08157369 59.328,7.056 Z M94.986,15.138 C95.6320315,14.0860005 96.5788549,13.2520434 97.704,12.744 C98.8781092,12.1837344 100.165159,11.9004603 101.466,11.916 C102.794459,11.8941098 104.110866,12.1709245 105.318,12.726 C106.405789,13.2480591 107.314148,14.0812433 107.928,15.12 C108.54,16.164 108.864,17.46 108.864,18.972 C108.893272,20.2656492 108.549593,21.540388 107.874,22.644 C107.227345,23.6713563 106.286579,24.4804151 105.174,24.966 C103.958439,25.4911235 102.646056,25.7548265 101.322,25.74 C99.126,25.74 97.344,25.146 96.012,23.976 C94.68,22.806 93.996,21.078 93.996,18.846 C93.978003,17.5423867 94.320613,16.2591564 94.986,15.138 Z M101.412,16.596 C100.798553,16.5983823 100.211178,16.8443604 99.7790929,17.2798209 C99.3470081,17.7152813 99.1056084,18.3045529 99.108,18.918 C99.1129802,20.1954204 100.152568,21.2269388 101.429988,21.221965 C102.707409,21.2169913 103.738932,20.1774089 103.733965,18.8999885 C103.728998,17.6225681 102.68942,16.5910392 101.412,16.596 Z M54.54,21.294 L55.26,25.5222 L42.102,25.5222 L42.102,7.164 L46.98,7.164 L46.98,19.9962 L44.316,21.3462 L46.98,21.294 L54.54,21.294 Z M5.68434189e-14,33.264 L5.68434189e-14,0 L33.264,0 L33.264,33.264 L5.68434189e-14,33.264 Z M15.264,17.964 L16.056,20.808 L14.292,18.828 L9.126,13.266 L5.544,15.624 L14.526,25.29 L28.008,12.798 L24.696,9.216 L15.264,17.964 Z" id="Main_Logo-2"></path>
    </defs>
    <g id="Symbols" stroke="none" stroke-width="1" fill="none" fill-rule="evenodd">
        <g id="Molecule/HEADER" transform="translate(-40.000000, -14.000000)">
            <g id="Logo/Main_Logo">
                <g transform="translate(40.000000, 14.000000)">
                    <g>
                        <mask id="mask-3" fill="white">
                            <use xlink:href="#Main_Logo-2"></use>
                        </mask>
                        <use id="Mask" fill="url(#linearGradient-1)" fill-rule="nonzero" xlink:href="#Main_Logo-2"></use>
                    </g>
                </g>
            </g>
        </g>
    </g>
</svg>
