<?xml version="1.0" encoding="UTF-8"?>
<svg width="116px" height="116px" viewBox="0 0 116 116" version="1.1" xmlns="http://www.w3.org/2000/svg" xmlns:xlink="http://www.w3.org/1999/xlink">
    <!-- Generator: Sketch 52.5 (67469) - http://www.bohemiancoding.com/sketch -->
    <title>Illus/New_Facture</title>
    <desc>Created with Sketch.</desc>
    <defs>
        <rect id="scan-invoice-1" x="0" y="0" width="51" height="64"></rect>
        <filter x="-7.8%" y="-6.2%" width="119.6%" height="115.6%" filterUnits="objectBoundingBox" id="filter-2">
            <feOffset dx="1" dy="1" in="SourceAlpha" result="shadowOffsetOuter1"></feOffset>
            <feGaussianBlur stdDeviation="1.5" in="shadowOffsetOuter1" result="shadowBlurOuter1"></feGaussianBlur>
            <feColorMatrix values="0 0 0 0 0   0 0 0 0 0   0 0 0 0 0  0 0 0 0.1 0" type="matrix" in="shadowBlurOuter1"></feColorMatrix>
        </filter>
        <rect id="scan-invoice-3" x="0" y="0" width="43.1538462" height="10.4489796"></rect>
        <linearGradient x1="0%" y1="66.1351562%" x2="100%" y2="66.1351536%" id="linearGradient-5">
            <stop stop-color="currentColor" offset="0%"></stop>
            <stop stop-color="currentColor" offset="100%"></stop>
        </linearGradient>
        <linearGradient x1="7.55208924%" y1="100%" x2="11.8915365%" y2="16.8975837%" id="linearGradient-6">
            <stop stop-color="currentColor" offset="0%"></stop>
            <stop stop-color="currentColor" stop-opacity="0" offset="100%"></stop>
        </linearGradient>
    </defs>
    <g id="Symbols" stroke="none" stroke-width="1" fill="none" fill-rule="evenodd">
        <g id="Illus/Import_Facture">
            <g id="Illus/New_Facture">
                <circle id="Base_Illus" fill="#F5F6FA" cx="58" cy="58" r="58"></circle>
                <g id="Illus/Facture" transform="translate(60.810889, 58.274991) rotate(30.000000) translate(-60.810889, -58.274991) translate(25.810889, 19.274991)">
                    <g transform="translate(34.528905, 38.558582) rotate(-19.000000) translate(-34.528905, -38.558582) translate(9.028905, 6.558582)">
                        <g id="Rectangle-2" fill-rule="nonzero">
                            <use fill="black" fill-opacity="1" filter="url(#filter-2)" xlink:href="#scan-invoice-1"></use>
                            <use fill="#FFFFFF" xlink:href="#scan-invoice-1"></use>
                        </g>
                        <path d="M44.4615385,27.1038856 C44.2978068,27.2022758 44.0985311,27.2809867 43.8637055,27.3400208 C43.6288798,27.3990548 43.4166782,27.4285714 43.2270942,27.4285714 C42.7272817,27.4285714 42.3093414,27.2859079 41.9732607,27.0005765 C41.6371799,26.7152451 41.4023578,26.3266099 41.2687872,25.8346593 L40.6160182,25.8346593 L40.5384615,25.1262539 L41.1524522,25.1262539 C41.1438347,24.9983467 41.139526,24.9024178 41.139526,24.8384642 C41.139526,24.7695911 41.1438347,24.666283 41.1524522,24.5285368 L40.6160182,24.5285368 L40.5384615,23.8201314 L41.2752503,23.8201314 C41.421747,23.3183418 41.668418,22.9235573 42.0152706,22.6357662 C42.3621231,22.347975 42.776832,22.2040816 43.2594095,22.2040816 C43.4145236,22.2040816 43.6041048,22.2311385 43.8281587,22.2852531 C44.0522125,22.3393677 44.250411,22.4205383 44.4227601,22.5287674 L44.1642377,23.2150352 L44.0026613,23.1633806 C43.8346209,23.1043465 43.7010523,23.0637612 43.6019516,23.0416234 C43.5028509,23.0194856 43.380054,23.0084169 43.2335572,23.0084169 C43.0051947,23.0084169 42.8005332,23.0797487 42.6195666,23.2224144 C42.4386,23.3650801 42.2942598,23.5643171 42.1865416,23.8201314 L43.4209859,23.8201314 L43.4856165,24.5285368 L42.0249652,24.5285368 C42.0163477,24.656444 42.012039,24.7572924 42.012039,24.831085 C42.012039,24.8999581 42.0163477,24.9983467 42.0249652,25.1262539 L43.4209859,25.1262539 L43.4856165,25.8346593 L42.1865416,25.8346593 C42.2856424,26.0806346 42.4202881,26.2737223 42.5904828,26.4139283 C42.7606776,26.5541342 42.9577989,26.6242361 43.1818527,26.6242361 C43.5006986,26.6242361 43.821694,26.5479849 44.1448486,26.3954802 L44.4615385,27.1038856 Z" id="€" fill="#C0C0C0"></path>
                        <path d="M44.4615385,36.2467428 C44.2978068,36.3451329 44.0985311,36.4238438 43.8637055,36.4828779 C43.6288798,36.541912 43.4166782,36.5714286 43.2270942,36.5714286 C42.7272817,36.5714286 42.3093414,36.428765 41.9732607,36.1434336 C41.6371799,35.8581023 41.4023578,35.4694671 41.2687872,34.9775164 L40.6160182,34.9775164 L40.5384615,34.269111 L41.1524522,34.269111 C41.1438347,34.1412039 41.139526,34.0452749 41.139526,33.9813213 C41.139526,33.9124483 41.1438347,33.8091402 41.1524522,33.671394 L40.6160182,33.671394 L40.5384615,32.9629886 L41.2752503,32.9629886 C41.421747,32.4611989 41.668418,32.0664144 42.0152706,31.7786233 C42.3621231,31.4908322 42.776832,31.3469388 43.2594095,31.3469388 C43.4145236,31.3469388 43.6041048,31.3739957 43.8281587,31.4281102 C44.0522125,31.4822248 44.250411,31.5633954 44.4227601,31.6716246 L44.1642377,32.3578923 L44.0026613,32.3062377 C43.8346209,32.2472037 43.7010523,32.2066184 43.6019516,32.1844806 C43.5028509,32.1623428 43.380054,32.1512741 43.2335572,32.1512741 C43.0051947,32.1512741 42.8005332,32.2226058 42.6195666,32.3652715 C42.4386,32.5079372 42.2942598,32.7071742 42.1865416,32.9629886 L43.4209859,32.9629886 L43.4856165,33.671394 L42.0249652,33.671394 C42.0163477,33.7993012 42.012039,33.9001495 42.012039,33.9739421 C42.012039,34.0428152 42.0163477,34.1412039 42.0249652,34.269111 L43.4209859,34.269111 L43.4856165,34.9775164 L42.1865416,34.9775164 C42.2856424,35.2234918 42.4202881,35.4165795 42.5904828,35.5567854 C42.7606776,35.6969914 42.9577989,35.7670933 43.1818527,35.7670933 C43.5006986,35.7670933 43.821694,35.6908421 44.1448486,35.5383374 L44.4615385,36.2467428 Z" id="€-copy" fill="#C0C0C0"></path>
                        <path d="M44.4615385,46.6957224 C44.2978068,46.7941125 44.0985311,46.8728234 43.8637055,46.9318575 C43.6288798,46.9908916 43.4166782,47.0204082 43.2270942,47.0204082 C42.7272817,47.0204082 42.3093414,46.8777446 41.9732607,46.5924132 C41.6371799,46.3070819 41.4023578,45.9184467 41.2687872,45.426496 L40.6160182,45.426496 L40.5384615,44.7180906 L41.1524522,44.7180906 C41.1438347,44.5901835 41.139526,44.4942545 41.139526,44.4303009 C41.139526,44.3614278 41.1438347,44.2581198 41.1524522,44.1203736 L40.6160182,44.1203736 L40.5384615,43.4119682 L41.2752503,43.4119682 C41.421747,42.9101785 41.668418,42.515394 42.0152706,42.2276029 C42.3621231,41.9398118 42.776832,41.7959184 43.2594095,41.7959184 C43.4145236,41.7959184 43.6041048,41.8229752 43.8281587,41.8770898 C44.0522125,41.9312044 44.250411,42.012375 44.4227601,42.1206042 L44.1642377,42.8068719 L44.0026613,42.7552173 C43.8346209,42.6961833 43.7010523,42.6555979 43.6019516,42.6334602 C43.5028509,42.6113224 43.380054,42.6002537 43.2335572,42.6002537 C43.0051947,42.6002537 42.8005332,42.6715854 42.6195666,42.8142511 C42.4386,42.9569168 42.2942598,43.1561538 42.1865416,43.4119682 L43.4209859,43.4119682 L43.4856165,44.1203736 L42.0249652,44.1203736 C42.0163477,44.2482807 42.012039,44.3491291 42.012039,44.4229217 C42.012039,44.4917948 42.0163477,44.5901835 42.0249652,44.7180906 L43.4209859,44.7180906 L43.4856165,45.426496 L42.1865416,45.426496 C42.2856424,45.6724713 42.4202881,45.8655591 42.5904828,46.005765 C42.7606776,46.145971 42.9577989,46.2160729 43.1818527,46.2160729 C43.5006986,46.2160729 43.821694,46.1398217 44.1448486,45.987317 L44.4615385,46.6957224 Z" id="€-copy-2" fill="#C0C0C0"></path>
                        <g id="Colors/Orange_Gradient" transform="translate(3.923077, 5.224490)">
                            <mask id="scan-invoice-4" fill="white">
                                <use xlink:href="#scan-invoice-3"></use>
                            </mask>
                            <use id="Mask" fill="#FFFFFF" fill-rule="nonzero" xlink:href="#scan-invoice-3"></use>
                            <g id="Colors/Gradient/Orange_Gradient" mask="url(#scan-invoice-4)" fill="url(#linearGradient-5)">
                                <rect id="Rectangle" x="0" y="0" width="43.0000024" height="10.0000006"></rect>
                            </g>
                        </g>
                        <polygon id="scan-invoice-2" fill="#C0C0C0" fill-rule="nonzero" points="8.05455466 26.4551364 6.25355517 25.5842916 6.82336791 24.4086861 7.9396939 24.9484678 9.89515258 23.6040767 11.5115077 24.8361651 13.051143 23.2988487 15.4569865 24.9163975 18.2229532 23.0844417 22.5907489 24.9437294 25.3015231 22.668255 28.00711 24.7981502 27.1976327 25.8239546 25.3280165 24.3521532 22.8170862 26.4598748 18.3584296 24.5619093 15.4515318 26.4872067 13.2141613 24.9829293 11.6272614 26.5674392 9.85555794 25.2169344"></polygon>
                        <polygon id="scan-invoice-2-Copy" fill="#C0C0C0" fill-rule="nonzero" points="8.05455466 35.5979935 6.25355517 34.7271487 6.82336791 33.5515432 7.9396939 34.091325 9.89515258 32.7469339 11.5115077 33.9790222 13.051143 32.4417058 15.4569865 34.0592547 18.2229532 32.2272988 22.5907489 34.0865866 25.3015231 31.8111122 28.00711 33.9410073 27.1976327 34.9668117 25.3280165 33.4950103 22.8170862 35.6027319 18.3584296 33.7047664 15.4515318 35.6300638 13.2141613 34.1257865 11.6272614 35.7102963 9.85555794 34.3597916"></polygon>
                        <polygon id="scan-invoice-2-Copy-2" fill="#C0C0C0" fill-rule="nonzero" points="8.05455466 46.0469731 6.25355517 45.1761283 6.82336791 44.0005228 7.9396939 44.5403046 9.89515258 43.1959135 11.5115077 44.4280018 13.051143 42.8906854 15.4569865 44.5082343 18.2229532 42.6762784 22.5907489 44.5355662 25.3015231 42.2600917 28.00711 44.3899869 27.1976327 45.4157913 25.3280165 43.9439899 22.8170862 46.0517115 18.3584296 44.153746 15.4515318 46.0790434 13.2141613 44.5747661 11.6272614 46.1592759 9.85555794 44.8087712"></polygon>
                        <polygon id="scan-invoice-2-Copy-3" fill="#9B9B9B" fill-rule="nonzero" points="35.7244419 59.8782663 34.4912502 59.4437053 36.6644657 53.2913808 38.5496059 58.6851532 41.2621697 57.0453868 43.049524 58.5987514 43.7076203 57.1866517 44.8931669 57.7378393 43.501857 60.7232202 41.1233009 58.6560504 37.8466393 60.6368184 36.6579133 57.2356297"></polygon>
                    </g>
                </g>
                <rect id="Rectangle" fill="#D8D8D8" fill-rule="nonzero" transform="translate(54.256549, 48.743776) rotate(11.000000) translate(-54.256549, -48.743776) " x="42.2565487" y="46.2437759" width="24" height="5" rx="2"></rect>
                <rect id="Rectangle-Copy" fill="#D8D8D8" fill-rule="nonzero" transform="translate(52.256549, 57.743776) rotate(11.000000) translate(-52.256549, -57.743776) " x="40.2565487" y="55.2437759" width="24" height="5" rx="2"></rect>
                <path d="M26.908534,71.7698466 L33.3482944,64.3613645 L34.1200574,60.6406 C59.0273669,58.7339741 73.4680672,58.1871075 77.4421584,59 C84.1543177,60.372959 86.0368013,65.623395 83.0896091,74.7513082 L31.0170105,74.7513082 L26.908534,71.7698466 Z" id="scan-invoice-2" fill="url(#linearGradient-6)" fill-rule="nonzero"></path>
                <path d="M29.6002699,72.4262024 L28.1182716,70.5535129 L28.4718719,70.2312889 C28.8683927,69.8699528 29.4793929,69.885874 29.8565574,70.2673705 L31.5459283,71.9761451 L31.5370019,71.9899711 C31.6901804,72.1180333 31.7864185,72.3480871 31.7864185,72.6423302 L31.7864185,74.6423302 C31.7864185,75.194615 31.4473711,75.7639001 31.0291348,75.9138642 L28.7572837,76.728466 C28.3390475,76.8784301 28,76.5522847 28,76 L28,74 C28,73.4477153 28.3390475,72.8784301 28.7572837,72.728466 L29.6002699,72.4262024 Z" id="Rectangle-2" fill="#757575" fill-rule="nonzero"></path>
            </g>
        </g>
    </g>
</svg>
