<?xml version="1.0" encoding="UTF-8"?>
<svg width="17px" height="17px" viewBox="0 0 17 17" version="1.1" xmlns="http://www.w3.org/2000/svg" xmlns:xlink="http://www.w3.org/1999/xlink">
    <!-- Generator: Sketch 52.5 (67469) - http://www.bohemiancoding.com/sketch -->
    <title>alarm</title>
    <desc>Created with Sketch.</desc>
    <defs>
        <path d="M19.226087,9.58043477 C19.4293479,9.39565216 20.2423913,8.63804346 20.2608696,7.51086954 C20.2793479,6.69782605 19.8913044,5.95869561 19.1152174,5.29347822 C19.1152174,5.29347822 19.0967392,5.27499996 19.0967392,5.27499996 C18.1728261,4.55434778 17.3597826,4.51739126 16.8423913,4.60978256 C15.9369565,4.77608691 15.3271739,5.42282605 15.0684783,5.773913 C14.2554348,5.45978257 13.3869565,5.29347822 12.5,5.29347822 C11.6130435,5.29347822 10.7445652,5.45978257 9.94999998,5.73695648 C9.67282607,5.38586952 9.08152172,4.73913039 8.17608693,4.57282604 C7.65869562,4.48043474 6.84565214,4.51739126 5.92173909,5.23804344 C5.92173909,5.23804344 5.90326083,5.2565217 5.90326083,5.2565217 C5.10869561,5.95869561 4.72065213,6.69782605 4.73913039,7.51086954 C4.75760865,8.63804346 5.55217387,9.39565216 5.773913,9.58043477 C5.31195648,10.5413043 5.07173909,11.6130435 5.07173909,12.7586957 C5.07173909,14.625 5.773913,16.3434783 6.91956518,17.6554348 C6.90108692,17.6739131 6.90108692,17.6739131 6.88260866,17.6923913 L5.81086953,19.3 C5.58913039,19.6326087 5.6815217,20.0945653 6.0141304,20.3163044 C6.14347822,20.4086957 6.29130431,20.4456522 6.42065214,20.4456522 C6.66086953,20.4456522 6.90108692,20.3347827 7.03043475,20.1130435 L7.99130432,18.6717392 C9.24782607,19.6326087 10.8,20.2054348 12.5,20.2054348 C14.2,20.2054348 15.7706522,19.6326087 17.0271739,18.6532609 L18.0065218,20.1130435 C18.1543479,20.3347827 18.376087,20.4456522 18.6163044,20.4456522 C18.7641305,20.4456522 18.8934783,20.4086957 19.0228261,20.3163044 C19.3554348,20.0945653 19.4478261,19.6326087 19.226087,19.3 L18.1543479,17.6923913 C18.1358696,17.6739131 18.1173913,17.6554348 18.0989131,17.6369566 C19.226087,16.325 19.9097827,14.625 19.9097827,12.7586957 C19.9282609,11.6130435 19.6880435,10.5413043 19.226087,9.58043477 Z M17.101087,6.05108692 C17.4152174,5.99565214 17.7663044,6.12499996 18.1543479,6.42065214 C18.5793479,6.79021736 18.7826087,7.14130432 18.7826087,7.49239127 C18.7826087,7.80652171 18.5978261,8.10217389 18.4315218,8.2869565 C17.8771739,7.54782606 17.1934783,6.93804345 16.4173913,6.4391304 C16.6021739,6.25434779 16.8423913,6.08804344 17.101087,6.05108692 Z M6.21739127,7.49239127 C6.21739127,7.14130432 6.42065214,6.79021736 6.84565214,6.42065214 C7.23369562,6.12499996 7.58478258,5.99565214 7.89891302,6.05108692 C8.15760867,6.1065217 8.39782606,6.27282605 8.58260867,6.4391304 C7.80652171,6.91956518 7.12282606,7.54782606 6.56847823,8.2869565 C6.42065214,8.08369563 6.21739127,7.80652171 6.21739127,7.49239127 Z M12.5,18.7271739 C9.21086955,18.7271739 6.54999996,16.0478261 6.54999996,12.7586957 C6.54999996,9.4695652 9.21086955,6.7717391 12.5,6.7717391 C15.7891305,6.7717391 18.45,9.45108694 18.45,12.7402174 C18.45,16.0293478 15.7891305,18.7271739 12.5,18.7271739 Z M15.1793478,14.3847826 C15.475,14.6804348 15.475,15.1423913 15.1793478,15.4380435 C15.0315218,15.5858696 14.8467391,15.6597826 14.6619565,15.6597826 C14.4771739,15.6597826 14.2923913,15.5858696 14.1445652,15.4380435 L11.9826087,13.276087 C11.8532609,13.1282609 11.7608696,12.9434783 11.7608696,12.7586957 L11.7608696,8.76739128 C11.7608696,8.36086954 12.0934783,8.02826084 12.5,8.02826084 C12.9065217,8.02826084 13.2391304,8.36086954 13.2391304,8.76739128 L13.2391304,12.4445652 L15.1793478,14.3847826 Z" id="alarm-1"></path>
    </defs>
    <g id="Symbols" stroke="none" stroke-width="1" fill="none" fill-rule="evenodd">
        <g id="Icons/alarm" transform="translate(-4.000000, -4.000000)">
            <mask id="alarm-2" fill="white">
                <use xlink:href="#alarm-1"></use>
            </mask>
            <use id="alarm" fill="currentColor" fill-rule="nonzero" xlink:href="#alarm-1"></use>
        </g>
    </g>
</svg>
