<?xml version="1.0" encoding="UTF-8"?>
<svg width="17px" height="15px" viewBox="0 0 17 15" version="1.1" xmlns="http://www.w3.org/2000/svg" xmlns:xlink="http://www.w3.org/1999/xlink">
    <!-- Generator: Sketch 52.5 (67469) - http://www.bohemiancoding.com/sketch -->
    <title>warning</title>
    <desc>Created with Sketch.</desc>
    <defs>
        <path d="M20.0957447,19.9148937 L4.90425527,19.9148937 C4.65106378,19.9148937 4.4159574,19.7702128 4.27127655,19.5531915 C4.1446808,19.3361703 4.1446808,19.0648937 4.27127655,18.8297873 L11.8670213,5.44680847 C11.993617,5.21170208 12.2287234,5.08510634 12.5,5.08510634 C12.7712766,5.08510634 13.006383,5.22978719 13.1329787,5.44680847 L20.7287235,18.8297873 C20.8553192,19.0468085 20.8553192,19.3361703 20.7287235,19.5531915 C20.5840426,19.7702128 20.3489362,19.9148937 20.0957447,19.9148937 Z M6.15212762,18.4680851 L18.8659575,18.4680851 L12.5,7.27340422 L6.15212762,18.4680851 Z M13.2234043,14.1457447 L13.2234043,10.7819149 C13.2234043,10.3840425 12.8978723,10.0585106 12.5,10.0585106 C12.1021277,10.0585106 11.7765957,10.3840425 11.7765957,10.7819149 L11.7765957,14.1457447 C11.7765957,14.543617 12.1021277,14.869149 12.5,14.869149 C12.8978723,14.869149 13.2234043,14.543617 13.2234043,14.1457447 Z M13.1329787,17.1478724 C13.2957447,16.9851064 13.4042553,16.75 13.4042553,16.5148936 C13.4042553,16.2797873 13.3138298,16.0446809 13.1329787,15.8819149 C12.9702128,15.719149 12.7351064,15.6106383 12.5,15.6106383 C12.2648936,15.6106383 12.0297872,15.7010638 11.8670213,15.8819149 C11.7042553,16.0446809 11.5957447,16.2797873 11.5957447,16.5148936 C11.5957447,16.75 11.6861702,16.9851064 11.8670213,17.1478724 C12.0297872,17.3106383 12.2648936,17.419149 12.5,17.419149 C12.7351064,17.419149 12.9702128,17.3106383 13.1329787,17.1478724 Z" id="alert-1"></path>
    </defs>
    <g id="Symbols" stroke="none" stroke-width="1" fill="none" fill-rule="evenodd">
        <g id="Icons/warning" transform="translate(-4.000000, -5.000000)">
            <mask id="alert-2" fill="white">
                <use xlink:href="#alert-1"></use>
            </mask>
            <use id="warning" fill="currentColor" fill-rule="nonzero" xlink:href="#alert-1"></use>
        </g>
    </g>
</svg>
