<?xml version="1.0" encoding="UTF-8"?>
<svg width="15px" height="13px" viewBox="0 0 15 13" version="1.1" xmlns="http://www.w3.org/2000/svg" xmlns:xlink="http://www.w3.org/1999/xlink">
    <!-- Generator: Sketch 52.5 (67469) - http://www.bohemiancoding.com/sketch -->
    <title>arrow-up</title>
    <desc>Created with Sketch.</desc>
    <defs>
        <path d="M19.6695653,11.9641304 L14.0152174,6.42065214 C13.7934783,6.21739127 13.4423913,6.14347822 13.1836957,6.27282605 C12.9065217,6.38369562 12.6847826,6.66086953 12.6847826,6.95652171 L12.6847826,9.35869563 L5.84782605,9.35869563 C5.44130431,9.35869563 5.10869561,9.78369564 5.10869561,10.1902174 L5.10869561,14.8097826 C5.10869561,15.2163044 5.44130431,15.6413044 5.84782605,15.6413044 L12.6847826,15.6413044 L12.6847826,18.0434783 C12.6847826,18.3391305 12.9065217,18.6163044 13.1652174,18.7271739 C13.2576087,18.7641305 13.3684783,18.7826087 13.4608696,18.7826087 C13.6456522,18.7826087 13.8489131,18.7086957 13.9782609,18.5793479 L19.6326087,13.0358696 C19.7804348,12.8880435 19.8543479,12.7032609 19.8543479,12.5 C19.8543479,12.2967391 19.8173913,12.1119565 19.6695653,11.9641304 Z M14.1630435,16.2880435 L14.1630435,14.8097826 C14.1630435,14.4032609 13.9043478,14.1630435 13.4978261,14.1630435 L6.58695649,14.1630435 L6.58695649,10.8369565 L13.4978261,10.8369565 C13.9043478,10.8369565 14.1630435,10.5967391 14.1630435,10.1902174 L14.1630435,8.7119565 L18.025,12.5 L14.1630435,16.2880435 Z" id="arrow-up-1"></path>
    </defs>
    <g id="Symbols" stroke="none" stroke-width="1" fill="none" fill-rule="evenodd">
        <g id="Arrows/arrow-payin" transform="translate(-4.000000, -6.000000)">
            <mask id="arrow-up-2" fill="white">
                <use xlink:href="#arrow-up-1"></use>
            </mask>
            <use id="arrow-up" fill="currentColor" transform="translate(12.481522, 12.495543) rotate(-30.000000) translate(-12.481522, -12.495543) " xlink:href="#arrow-up-1"></use>
        </g>
    </g>
</svg>
