<?xml version="1.0" encoding="UTF-8"?>
<svg width="15px" height="11px" viewBox="0 0 15 11" version="1.1" xmlns="http://www.w3.org/2000/svg" xmlns:xlink="http://www.w3.org/1999/xlink">
    <!-- Generator: Sketch 52.5 (67469) - http://www.bohemiancoding.com/sketch -->
    <defs>
        <path d="M19.5217392,12.5 C19.5217392,12.9065217 19.1891305,13.2391304 18.7826087,13.2391304 L7.99130432,13.2391304 L11.3358696,16.6021739 C11.6315217,16.8978261 11.6315217,17.3597826 11.3358696,17.6554348 C11.2065217,17.7847826 11.0217391,17.8586957 10.8184783,17.8586957 C10.6336956,17.8586957 10.4304348,17.7847826 10.3010869,17.6369566 L5.69999996,13.0173913 C5.40434778,12.7217391 5.40434778,12.2597826 5.69999996,11.9826087 L10.3010869,7.36304345 C10.5967391,7.06739127 11.0586956,7.06739127 11.3543478,7.36304345 C11.65,7.65869562 11.65,8.12065215 11.3543478,8.41630432 L7.99130432,11.7608696 L18.7826087,11.7608696 C19.1891305,11.7608696 19.5217392,12.0934783 19.5217392,12.5 Z" id="arrow-thin-left"></path>
    </defs>
    <g id="Symbols" stroke="none" stroke-width="1" fill="none" fill-rule="evenodd">
        <g id="Arrows/arrow-thin-left" transform="translate(-5.000000, -7.000000)">
            <mask id="mask-arrow-thin-left-2" fill="white">
                <use xlink:href="#arrow-thin-left"></use>
            </mask>
            <use id="arrow-thin-left" fill="currentColor" xlink:href="#arrow-thin-left"></use>
        </g>
    </g>
</svg>
