<?xml version="1.0" encoding="UTF-8"?>
<svg width="15px" height="13px" viewBox="0 0 15 13" version="1.1" xmlns="http://www.w3.org/2000/svg" xmlns:xlink="http://www.w3.org/1999/xlink">
    <!-- Generator: Sketch 52.5 (67469) - http://www.bohemiancoding.com/sketch -->
    <title>arrow-down</title>
    <desc>Created with Sketch.</desc>
    <defs>
        <path d="M19.152174,9.35869563 L12.3152174,9.35869563 L12.3152174,6.95652171 C12.3152174,6.66086953 12.0934783,6.38369562 11.8347826,6.27282605 C11.5576087,6.16195648 11.225,6.21739127 11.0217391,6.42065214 L5.348913,11.9641304 C5.20108691,12.1119565 5.10869561,12.2967391 5.10869561,12.5 C5.10869561,12.7032609 5.18260865,12.8880435 5.33043474,13.0358696 L10.9847826,18.5793479 C11.1326087,18.7086957 11.3173913,18.7826087 11.5021739,18.7826087 C11.5945652,18.7826087 11.723913,18.7641305 11.8163043,18.7271739 C12.0934783,18.6163044 12.2967391,18.3391305 12.2967391,18.0434783 L12.2967391,15.6413044 L19.1336957,15.6413044 C19.5402174,15.6413044 19.8728261,15.2163044 19.8728261,14.8097826 L19.8728261,10.1902174 C19.8913044,9.78369564 19.5586957,9.35869563 19.152174,9.35869563 Z M18.4130435,14.1630435 L11.5021739,14.1630435 C11.0956522,14.1630435 10.8369565,14.4032609 10.8369565,14.8097826 L10.8369565,16.2880435 L6.97499997,12.5 L10.8369565,8.7119565 L10.8369565,10.1902174 C10.8369565,10.5967391 11.0956522,10.8369565 11.5021739,10.8369565 L18.4130435,10.8369565 L18.4130435,14.1630435 Z" id="arrow-down-1"></path>
    </defs>
    <g id="Symbols" stroke="none" stroke-width="1" fill="none" fill-rule="evenodd">
        <g id="Arrows/arrow-payout" transform="translate(-6.000000, -6.000000)">
            <mask id="arrow-down-2" fill="white">
                <use xlink:href="#arrow-down-1"></use>
            </mask>
            <use id="arrow-down" fill="currentColor" transform="translate(12.491128, 12.499648) rotate(-30.000000) translate(-12.491128, -12.499648) " xlink:href="#arrow-down-1"></use>
        </g>
    </g>
</svg>
