<?xml version="1.0" encoding="UTF-8"?>
<svg width="15px" height="13px" viewBox="0 0 15 13" version="1.1" xmlns="http://www.w3.org/2000/svg" xmlns:xlink="http://www.w3.org/1999/xlink">
    <!-- Generator: Sketch 52.5 (67469) - http://www.bohemiancoding.com/sketch -->
    <title>skip</title>
    <desc>Created with Sketch.</desc>
    <defs>
        <path d="M19.3184783,14.7358696 L16.0293478,18.025 C15.8630435,18.1913044 15.6597826,18.2652174 15.4380435,18.2652174 C15.2347826,18.2652174 15.0130435,18.1913044 14.8467391,18.025 C14.5326087,17.7108696 14.5141304,17.175 14.8467391,16.8608696 L16.7315218,14.976087 L6.21739127,14.976087 C5.99565214,14.976087 5.75543474,14.8836957 5.60760866,14.7358696 C5.44130431,14.5880435 5.29347822,14.3663044 5.29347822,14.1630435 L5.29347822,9.94999999 C5.29347822,9.48804346 5.66304344,9.11847824 6.12499996,9.11847824 C6.58695649,9.11847824 6.95652171,9.48804346 6.95652171,9.94999999 L6.95652171,13.3315217 L16.676087,13.3315217 L14.8467391,11.4467391 C14.5326087,11.1326087 14.5326087,10.5967391 14.8467391,10.2826087 C15.1608696,9.96847825 15.6967391,9.96847825 16.0108696,10.2826087 L19.3,13.5717391 C19.651087,13.9043478 19.651087,14.4217391 19.3184783,14.7358696 Z M6.25434779,8.47173911 C6.49456518,8.47173911 6.73478257,8.3793478 6.90108692,8.21304345 C7.06739127,8.0467391 7.17826084,7.80652171 7.17826084,7.56630432 C7.17826084,7.32608693 7.08586953,7.08586953 6.90108692,6.91956518 C6.73478257,6.75326084 6.49456518,6.66086953 6.25434779,6.66086953 C6.0141304,6.66086953 5.773913,6.75326084 5.60760866,6.91956518 C5.44130431,7.08586953 5.33043474,7.32608693 5.33043474,7.56630432 C5.33043474,7.80652171 5.42282605,8.0467391 5.60760866,8.21304345 C5.773913,8.36086954 6.0141304,8.47173911 6.25434779,8.47173911 Z" id="arrow-return-1"></path>
    </defs>
    <g id="Symbols" stroke="none" stroke-width="1" fill="none" fill-rule="evenodd">
        <g id="Icons/skip" transform="translate(-5.000000, -6.000000)">
            <mask id="arrow-return-2" fill="white">
                <use xlink:href="#arrow-return-1"></use>
            </mask>
            <use id="skip" fill="currentColor" fill-rule="nonzero" xlink:href="#arrow-return-1"></use>
        </g>
    </g>
</svg>
