<?xml version="1.0" encoding="UTF-8"?>
<svg width="20px" height="20px" viewBox="0 0 20 20" version="1.1" xmlns="http://www.w3.org/2000/svg" xmlns:xlink="http://www.w3.org/1999/xlink">
    <!-- Generator: Sketch 52.5 (67469) - http://www.bohemiancoding.com/sketch -->
    <defs>
        <path d="M23.2468095,20.5340434 C21.7927669,20.5340434 21.2285115,19.6876604 21.2285115,14.3706389 C21.2285115,10.2038302 19.3404263,7.59957473 16.085107,7.20893641 L16.085107,5.86340443 C16.085107,5.3859576 15.6944687,4.99531929 15.2170219,4.99531929 C14.7395751,4.99531929 14.3489367,5.3859576 14.3489367,5.86340443 L14.3489367,7.16553215 C10.8765962,7.44765983 8.85829819,10.0953195 8.85829819,14.3489367 C8.85829819,19.6659583 8.22893646,20.5123413 6.75319171,20.5123413 C6.29744701,20.5340434 5.88510656,20.8595753 5.88510656,21.3370222 C5.88510656,21.8361711 6.27574488,22.1617031 6.75319171,22.1617031 L12.3957452,22.1617031 C12.4608515,22.8127669 12.6561707,23.6157457 13.1770218,24.180001 C13.6327665,24.67915 14.2404261,24.9612776 14.9565963,24.9612776 C15.6727666,24.9612776 16.2804262,24.6574478 16.7361709,24.180001 C17.2787241,23.5940435 17.4957454,22.8127669 17.5825539,22.1617031 L23.2468095,22.1617031 C23.7242563,22.1617031 24.1148946,21.8361711 24.1148946,21.3370222 C24.1148946,20.8595753 23.7242563,20.5340434 23.2468095,20.5340434 Z M15.4774474,23.0080861 C15.3906389,23.0948946 15.2604261,23.2251074 14.9565963,23.2251074 C14.6744687,23.2251074 14.5442559,23.0948946 14.4574474,23.0080861 C14.3055325,22.8127669 14.1970218,22.5957456 14.1536176,22.1617031 L14.89149,22.1617031 C14.9348942,22.1617031 14.9782985,22.1617031 15.0217027,22.1617031 C15.065107,22.1617031 15.1085112,22.1617031 15.1519155,22.1617031 L15.8680857,22.1617031 C15.7812772,22.5957456 15.6727666,22.8127669 15.4774474,23.0080861 Z M15.1302134,20.4255328 C15.0868091,20.4255328 15.0434049,20.4255328 15.0000006,20.4255328 C14.9565963,20.4255328 14.9131921,20.4255328 14.8697878,20.4255328 L9.74808546,20.4255328 C10.5510642,18.9063838 10.5510642,16.5408517 10.5510642,14.3272346 C10.5510642,10.7897876 12.0919154,8.92340457 14.8697878,8.92340457 L15.1085112,8.92340457 C17.8863837,8.92340457 19.4272348,10.7897876 19.4272348,14.3272346 C19.4272348,16.5408517 19.4272348,18.9063838 20.2302136,20.4255328 L15.1302134,20.4255328 Z M18.2119156,12.7212771 C18.2336178,13.1336175 17.9080858,13.5025537 17.4957454,13.5242558 C17.4740433,13.5242558 17.4740433,13.5242558 17.4523411,13.5242558 C17.0617028,13.5242558 16.7144688,13.220426 16.6927666,12.8080856 C16.6276602,11.8314898 15.8680857,11.4842558 15.7812772,11.4408515 C15.3906389,11.2672345 15.2170219,10.8331919 15.3689368,10.4425536 C15.5208517,10.0519153 15.9548943,9.87829823 16.3455326,10.0302131 C16.4323411,10.0736174 18.103405,10.7680855 18.2119156,12.7212771 Z" id="bell"></path>
    </defs>
    <g id="Symbols" stroke="none" stroke-width="1" fill="none" fill-rule="evenodd">
        <g id="Molecule/HEADER" transform="translate(-1036.000000, -20.000000)">
            <g id="Icons/bell">
                <g transform="translate(1046.000000, 30.000000) rotate(-360.000000) translate(-1046.000000, -30.000000) translate(1031.000000, 15.000000)">
                    <mask id="mask-bell-2" fill="white">
                        <use xlink:href="#bell"></use>
                    </mask>
                    <use id="bell" fill="currentColor" fill-rule="nonzero" xlink:href="#bell"></use>
                </g>
            </g>
        </g>
    </g>
</svg>
