<?xml version="1.0" encoding="UTF-8"?>
<svg width="17px" height="15px" viewBox="0 0 17 15" version="1.1" xmlns="http://www.w3.org/2000/svg" xmlns:xlink="http://www.w3.org/1999/xlink">
    <!-- Generator: Sketch 52.5 (67469) - http://www.bohemiancoding.com/sketch -->
    <defs>
        <path d="M15.0869565,15.2163044 L15.0869565,18.5978261 C15.0869565,19.0043479 14.7913044,19.3369566 14.3847826,19.3369566 L4.73913039,19.3369566 C4.33260865,19.3369566 3.99999995,19.0043479 3.99999995,18.5978261 L3.99999995,6.40217388 C3.99999995,5.99565214 4.33260865,5.66304344 4.73913039,5.66304344 L14.3847826,5.66304344 C14.7913044,5.66304344 15.0869565,5.99565214 15.0869565,6.40217388 L15.0869565,9.78369564 C15.0869565,10.1902174 14.7543478,10.5228261 14.3478261,10.5228261 C13.9413044,10.5228261 13.6086957,10.1902174 13.6086957,9.78369564 L13.6086957,7.14130432 L5.47826083,7.14130432 L5.47826083,17.8586957 L13.6086957,17.8586957 L13.6086957,15.2163044 C13.6086957,14.8097826 13.9413044,14.4771739 14.3478261,14.4771739 C14.7543478,14.4771739 15.0869565,14.8097826 15.0869565,15.2163044 Z M20.7782609,11.9456522 L17.8956522,9.02608694 C17.6,8.73043476 17.1380435,8.73043476 16.8423913,9.02608694 C16.5467392,9.32173911 16.5467392,9.78369564 16.8423913,10.0793478 L18.4869566,11.7423913 L9.52499998,11.7608696 C9.11847824,11.7608696 8.78586954,12.0934783 8.78586954,12.5 C8.78586954,12.9065217 9.11847824,13.2391304 9.52499998,13.2391304 C9.52499998,13.2391304 9.52499998,13.2391304 9.52499998,13.2391304 L18.4869566,13.2206522 L16.8423913,14.8836957 C16.5467392,15.1793478 16.5652174,15.6413044 16.8423913,15.9369565 C16.9902174,16.0847826 17.175,16.1586957 17.3597826,16.1586957 C17.5445652,16.1586957 17.7478261,16.0847826 17.8771739,15.9369565 L20.7782609,13.0173913 C21.0739131,12.7032609 21.0739131,12.2413043 20.7782609,11.9456522 Z" id="blog"></path>
    </defs>
    <g id="Switch-Account" stroke="none" stroke-width="1" fill="none" fill-rule="evenodd">
        <g id="09_Switch-Account" transform="translate(-1093.000000, -445.000000)">
            <g id="Popin_info" transform="translate(1073.000000, 65.000000)">
                <g id="Rectangle">
                    <g id="CTA_Log-out" transform="translate(0.000000, 372.000000)">
                        <g id="Text" transform="translate(16.000000, 3.000000)">
                            <g id="Icons/exit">
                                <mask id="mask-blog-2" fill="white">
                                    <use xlink:href="#blog"></use>
                                </mask>
                                <use id="exit" fill="currentColor" fill-rule="evenodd" xlink:href="#blog"></use>
                            </g>
                        </g>
                    </g>
                </g>
            </g>
        </g>
    </g>
</svg>
