<?xml version="1.0" encoding="UTF-8"?>
<svg width="17px" height="15px" viewBox="0 0 17 15" version="1.1" xmlns="http://www.w3.org/2000/svg" xmlns:xlink="http://www.w3.org/1999/xlink">
    <!-- Generator: Sketch 52.5 (67469) - http://www.bohemiancoding.com/sketch -->
    <title>briefcase</title>
    <desc>Created with Sketch.</desc>
    <defs>
        <path d="M20.7782609,8.23152171 C20.6489131,8.10217389 20.4641305,8.06521737 20.2608696,8.06521737 L16.3804348,8.06521737 L16.3804348,5.84782605 C16.3804348,5.44130431 16.0108696,5.10869561 15.6043478,5.10869561 L9.39565216,5.10869561 C8.98913041,5.10869561 8.61956519,5.44130431 8.61956519,5.84782605 L8.61956519,8.06521737 L4.73913039,8.06521737 C4.33260865,8.06521737 3.99999995,8.30543476 3.99999995,8.7119565 L3.99999995,19.152174 C3.99999995,19.5586957 4.33260865,19.8913044 4.73913039,19.8913044 L20.2608696,19.8913044 C20.6673914,19.8913044 21.0000001,19.5586957 21.0000001,19.152174 L21.0000001,8.74891302 C21.0000001,8.54565215 20.926087,8.3793478 20.7782609,8.23152171 Z M10.0978261,6.58695649 L14.9021739,6.58695649 L14.9021739,8.06521737 L10.0978261,8.06521737 L10.0978261,6.58695649 Z M19.5217392,9.54347824 L19.5217392,13.423913 L14.3478261,13.423913 L14.3478261,13.1467391 C14.3478261,12.8326087 14.0521739,12.6847826 13.7380435,12.6847826 L11.2619565,12.6847826 C10.9478261,12.6847826 10.6521739,12.851087 10.6521739,13.1467391 L10.6521739,13.423913 L5.47826083,13.423913 L5.47826083,9.54347824 L19.5217392,9.54347824 Z M13.2391304,13.7934783 L13.2391304,14.1630435 L11.7608696,14.1630435 L11.7608696,13.7934783 L13.2391304,13.7934783 Z M5.47826083,18.4130435 L5.47826083,14.5326087 L10.6521739,14.5326087 L10.6521739,14.7173913 C10.6521739,15.0315218 10.9478261,15.2717391 11.2619565,15.2717391 L13.7565217,15.2717391 C14.0706522,15.2717391 14.3663044,15.0130435 14.3663044,14.7173913 L14.3663044,14.5326087 L19.5402174,14.5326087 L19.5402174,18.4130435 L5.47826083,18.4130435 Z" id="briefcase-1"></path>
    </defs>
    <g id="Symbols" stroke="none" stroke-width="1" fill="none" fill-rule="evenodd">
        <g id="Icons/briefcase" transform="translate(-4.000000, -5.000000)">
            <mask id="briefcase-2" fill="white">
                <use xlink:href="#briefcase-1"></use>
            </mask>
            <use id="briefcase" fill="currentColor" fill-rule="nonzero" xlink:href="#briefcase-1"></use>
        </g>
    </g>
</svg>
