<?xml version="1.0" encoding="UTF-8"?>
<svg width="23px" height="17px" viewBox="0 0 23 17" version="1.1" xmlns="http://www.w3.org/2000/svg" xmlns:xlink="http://www.w3.org/1999/xlink">
    <!-- Generator: Sketch 52.5 (67469) - http://www.bohemiancoding.com/sketch -->
    <defs>
        <path d="M12.6956521,8 L11.2173913,8 L11.2173913,5.10869561 C11.2173913,4.70217387 11.55,4.36956517 11.9565217,4.36956517 L23.0434783,4.36956517 C23.45,4.36956517 23.7826087,4.70217387 23.7826087,5.10869561 L23.7826087,19.8913044 C23.7826087,20.2978261 23.45,20.6304348 23.0434783,20.6304348 L11.9565217,20.6304348 C11.55,20.6304348 11.2173913,20.2978261 11.2173913,19.8913044 L11.2173913,17 L12.6956521,17 L12.6956521,19.152174 L22.3043479,19.152174 L22.3043479,5.84782605 L12.6956521,5.84782605 L12.6956521,8 Z M14.4510869,14.2554348 C14.4510869,13.9043478 14.7467391,13.6086957 15.0978261,13.6086957 L17.2782609,13.6086957 C17.6293478,13.6086957 17.925,13.9043478 17.925,14.2554348 C17.925,14.6065218 17.6293478,14.9021739 17.2782609,14.9021739 L15.0978261,14.9021739 C14.7282609,14.9021739 14.4510869,14.6065218 14.4510869,14.2554348 Z M14.5434782,11.298913 C14.5434782,10.9478261 14.8391304,10.6521739 15.1902174,10.6521739 L19.5880435,10.6521739 C19.9391304,10.6521739 20.2347826,10.9478261 20.2347826,11.298913 C20.2347826,11.65 19.9576087,11.9456522 19.5880435,11.9456522 L15.1902174,11.9456522 C14.8391304,11.9456522 14.5434782,11.65 14.5434782,11.298913 Z M14.5434782,8.52717389 C14.5434782,8.17608693 14.8391304,7.88043476 15.1902174,7.88043476 L19.5880435,7.88043476 C19.9391304,7.88043476 20.2347826,8.17608693 20.2347826,8.52717389 C20.2347826,8.87826085 19.9576087,9.17391302 19.5880435,9.17391302 L15.1902174,9.17391302 C14.8391304,9.17391302 14.5434782,8.87826085 14.5434782,8.52717389 Z M20.0315218,13.8489131 C20.1423913,13.9597826 20.2163044,14.126087 20.2163044,14.3108696 C20.2163044,14.4771739 20.1423913,14.6434783 20.0315218,14.7728261 C19.9206522,14.9021739 19.7358696,14.9576087 19.5695652,14.9576087 C19.4032609,14.9576087 19.2369565,14.8836957 19.1076087,14.7728261 C18.9782609,14.6619565 18.9228261,14.4956522 18.9228261,14.3108696 C18.9228261,14.1445652 18.9967391,13.9782609 19.1076087,13.8489131 C19.3478261,13.6086957 19.7913044,13.6086957 20.0315218,13.8489131 Z M13.6388087,13.2558729 L9.53626209,17.3748956 C9.40445336,17.5067044 9.23969245,17.5726087 9.07493155,17.5726087 C8.91017064,17.5726087 8.74540973,17.5067044 8.61360101,17.3748956 C8.34998355,17.1112782 8.34998355,16.6993759 8.61360101,16.4357585 L11.5957734,13.453586 L1.97373644,13.453586 C1.61126244,13.453586 1.31469281,13.1570164 1.31469281,12.7945424 C1.31469281,12.4320684 1.61126244,12.1354988 1.97373644,12.1354988 L11.5957734,12.1354988 L8.59712492,9.13685026 C8.33350746,8.87323281 8.33350746,8.46133054 8.59712492,8.19771309 C8.86074237,7.93409564 9.27264464,7.93409564 9.53626209,8.19771309 L13.6388087,12.3167358 C13.9024261,12.5803532 13.9024261,13.0087316 13.6388087,13.2558729 Z" id="buy-1"></path>
    </defs>
    <g id="Symbols" stroke="none" stroke-width="1" fill="none" fill-rule="evenodd">
        <g id="Icons/Factures_Reçues" transform="translate(-1.000000, -4.000000)">
            <mask id="mask-buy-2" fill="white">
                <use xlink:href="#buy-1"></use>
            </mask>
            <use id="Combined-Shape" fill="currentColor" fill-rule="nonzero" xlink:href="#buy-1"></use>
        </g>
    </g>
</svg>
