<?xml version="1.0" encoding="UTF-8"?>
<svg width="16px" height="9px" viewBox="0 0 16 9" version="1.1" xmlns="http://www.w3.org/2000/svg" xmlns:xlink="http://www.w3.org/1999/xlink">
    <!-- Generator: Sketch 52.5 (67469) - http://www.bohemiancoding.com/sketch -->
    <defs>
        <path d="M18.1261076,13.1394409 L16.1153549,15.1341076 C15.9866667,15.2627957 15.8258065,15.3271398 15.6649463,15.3271398 C15.504086,15.3271398 15.3271398,15.2627957 15.2145377,15.1341076 L13.1716129,13.1394409 C12.9142366,12.8820645 12.9142366,12.479914 13.1555269,12.2386237 C13.4129032,11.9812473 13.7989678,11.9812473 14.0402581,12.2386237 L14.9249893,13.1555269 L14.9249893,8.90881719 L9.29488171,8.90881719 C8.94098924,8.90881719 8.65144085,8.6192688 8.65144085,8.26537633 C8.65144085,7.91148385 8.94098924,7.62193546 9.29488171,7.62193546 L15.6488602,7.62193546 C16.0027527,7.62193546 16.227957,7.89539783 16.227957,8.24929031 L16.227957,13.1394409 L17.1931183,12.2225376 C17.4504947,11.9651613 17.8848172,11.9812473 18.1421936,12.2225376 C18.3834839,12.479914 18.3834839,12.8820645 18.1261076,13.1394409 Z M12.5442581,14.0563441 L6.89806449,14.0563441 L6.89806449,9.79354838 L7.78279568,10.7104516 C7.91148385,10.8391398 8.05625805,10.9034839 8.21711826,10.9034839 C8.37797848,10.9034839 8.5388387,10.8391398 8.66752687,10.7104516 C8.92490321,10.4530753 8.90881719,10.0509247 8.66752687,9.8096344 L6.64068815,7.7988817 C6.3833118,7.55759138 5.98116126,7.55759138 5.72378492,7.7988817 L3.71303222,9.79354838 C3.45565587,10.0509247 3.45565587,10.4530753 3.71303222,10.6943656 C3.97040856,10.9517419 4.40473114,10.9517419 4.66210749,10.6943656 L5.62726879,9.77746236 L5.62726879,14.6676129 C5.62726879,15.0215054 5.83638707,15.3271398 6.20636556,15.3271398 L12.5603441,15.3271398 C12.9142366,15.3271398 13.203785,15.0375914 13.203785,14.6836989 C13.203785,14.3298065 12.8981505,14.0563441 12.5442581,14.0563441 Z" id="change"></path>
    </defs>
    <g id="Switch-Account" stroke="none" stroke-width="1" fill="none" fill-rule="evenodd">
        <g id="09_Switch-Account" transform="translate(-1089.000000, -209.000000)">
            <g id="Popin_info" transform="translate(1073.000000, 65.000000)">
                <g id="Société" transform="translate(13.000000, 136.000000)">
                    <g id="Icons/retweet" transform="translate(0.000000, 1.000000)">
                        <mask id="mask-change-2" fill="white">
                            <use xlink:href="#change"></use>
                        </mask>
                        <use id="retweet" fill="currentColor" fill-rule="nonzero" xlink:href="#change"></use>
                    </g>
                </g>
            </g>
        </g>
    </g>
</svg>
