<?xml version="1.0" encoding="UTF-8"?>
<svg width="17px" height="17px" viewBox="0 0 17 17" version="1.1" xmlns="http://www.w3.org/2000/svg" xmlns:xlink="http://www.w3.org/1999/xlink">
    <!-- Generator: Sketch 52.5 (67469) - http://www.bohemiancoding.com/sketch -->
    <title>clock</title>
    <desc>Created with Sketch.</desc>
    <defs>
        <path d="M12.5,3.99999995 C7.80652171,3.99999995 3.99999995,7.80652171 3.99999995,12.5 C3.99999995,17.1934783 7.80652171,21.0000001 12.5,21.0000001 C17.1934783,21.0000001 21.0000001,17.1934783 21.0000001,12.5 C21.0000001,7.80652171 17.1934783,3.99999995 12.5,3.99999995 Z M12.5,19.5217392 C8.61956519,19.5217392 5.47826083,16.3804348 5.47826083,12.5 C5.47826083,8.61956519 8.61956519,5.47826083 12.5,5.47826083 C16.3804348,5.47826083 19.5217392,8.61956519 19.5217392,12.5 C19.5217392,16.3804348 16.3804348,19.5217392 12.5,19.5217392 Z M15.3271739,14.2739131 C15.6228261,14.5695652 15.6228261,15.0315218 15.3271739,15.3271739 C15.1793478,15.475 14.9945652,15.5489131 14.8097826,15.5489131 C14.625,15.5489131 14.4402174,15.475 14.2923913,15.3271739 L11.9826087,13.0173913 C11.8347826,12.8880435 11.7608696,12.7032609 11.7608696,12.5 L11.7608696,8.10217389 C11.7608696,7.69565215 12.0934783,7.36304345 12.5,7.36304345 C12.9065217,7.36304345 13.2391304,7.69565215 13.2391304,8.10217389 L13.2391304,12.2043478 L15.3271739,14.2739131 Z" id="clock-1"></path>
    </defs>
    <g id="Symbols" stroke="none" stroke-width="1" fill="none" fill-rule="evenodd">
        <g id="Icons/clock" transform="translate(-4.000000, -4.000000)">
            <mask id="clock-2" fill="white">
                <use xlink:href="#clock-1"></use>
            </mask>
            <use id="clock" fill="currentColor" fill-rule="nonzero" xlink:href="#clock-1"></use>
        </g>
    </g>
</svg>
