<?xml version="1.0" encoding="UTF-8"?>
<svg width="17px" height="15px" viewBox="0 0 17 15" version="1.1" xmlns="http://www.w3.org/2000/svg" xmlns:xlink="http://www.w3.org/1999/xlink">
    <!-- Generator: Sketch 52.5 (67469) - http://www.bohemiancoding.com/sketch -->
    <title>clockwise</title>
    <desc>Created with Sketch.</desc>
    <defs>
        <path d="M20.0576087,11.723913 L17.4891305,14.3108696 C17.3413044,14.4586957 17.1565218,14.5326087 16.9532609,14.5326087 C16.75,14.5326087 16.5652174,14.4586957 16.4173913,14.3108696 L13.8673913,11.723913 C13.5902174,11.4282609 13.5902174,10.9663043 13.8673913,10.6706522 C14.1630435,10.3934782 14.625,10.3934782 14.9206522,10.6706522 L16.3434783,12.1119565 C16.1586957,9.43260868 13.9597826,7.30760867 11.2804348,7.30760867 C8.49021737,7.32608693 6.21739127,9.65434781 6.21739127,12.5 C6.21739127,15.3456522 8.49021737,17.6739131 11.298913,17.6739131 C12.3336957,17.6739131 13.3315217,17.3597826 14.1630435,16.7684783 C14.4956522,16.5282609 14.9576087,16.6206522 15.1978261,16.9532609 C15.4380435,17.2858696 15.3456522,17.7478261 15.0130435,17.9880435 C13.9228261,18.7456522 12.6293478,19.152174 11.298913,19.152174 C7.67717388,19.152174 4.73913039,16.1771739 4.73913039,12.5 C4.73913039,8.82282607 7.67717388,5.84782605 11.298913,5.84782605 C14.6989131,5.84782605 17.5076087,8.49021737 17.8217392,11.8717391 L18.9858696,10.6891304 C19.2815218,10.3934782 19.7434783,10.3934782 20.0391305,10.6891304 C20.3347827,10.9663043 20.3347827,11.4282609 20.0576087,11.723913 Z" id="clockwise-1"></path>
    </defs>
    <g id="Symbols" stroke="none" stroke-width="1" fill="none" fill-rule="evenodd">
        <g id="Icons/clockwise" transform="translate(-4.000000, -5.000000)">
            <mask id="clockwise-2" fill="white">
                <use xlink:href="#clockwise-1"></use>
            </mask>
            <use id="clockwise" fill="currentColor" fill-rule="nonzero" xlink:href="#clockwise-1"></use>
        </g>
    </g>
</svg>
