<?xml version="1.0" encoding="UTF-8"?>
<svg width="85px" height="74px" viewBox="0 0 85 74" version="1.1" xmlns="http://www.w3.org/2000/svg" xmlns:xlink="http://www.w3.org/1999/xlink">
    <defs>
        <path d="M104.086022,67.5268817 C103.537635,75.4784947 97.3225808,84.1612904 85.1666668,84.1612904 C79.591398,84.1612904 76.6666667,84.1612904 76.6666667,84.1612904 C74.655914,84.1612904 73.0107528,82.607527 73.0107528,80.5967743 C73.0107528,78.5860216 74.655914,77.123656 76.6666667,77.123656 C76.6666667,77.123656 76.6666667,77.123656 76.6666667,77.123656 C76.6666667,77.123656 79.591398,76.9408603 85.1666668,76.9408603 C92.7526883,76.9408603 96.5000002,71.8225807 96.8655916,66.9784946 C97.231183,61.9516129 94.0322582,56.376344 86.263441,55.2795698 C85.2580647,55.0967741 84.3440862,54.548387 83.795699,53.7258064 C83.2473119,52.9032257 83.0645162,51.8064515 83.2473119,50.8010752 C84.2526883,46.5053762 83.1559141,43.1236558 80.3225808,41.5698923 C77.9462367,40.1989246 74.107527,40.2903224 71,43.3064515 C70.1774194,44.1290321 68.9892473,44.4946235 67.8924732,44.3118278 C66.795699,44.1290321 65.7903226,43.3978493 65.2419355,42.392473 C59.9408602,32.4301073 51.8064515,31.9731181 46.4139784,34.5322579 C41.2043009,36.9999998 37.0913977,43.1236558 40.2903224,50.892473 C40.6559138,51.8064515 40.6559138,52.9032257 40.1989246,53.8172042 C39.7419353,54.7311827 38.9193547,55.4623655 38.0053762,55.7365591 C26.8548385,59.1182795 27.129032,66.4301075 27.4032256,68.6236559 C28.0430105,72.6451613 31.2419353,76.7580646 36.1774192,76.7580646 L47.6021504,76.8494624 C49.6129032,76.8494624 51.2580645,78.5860216 51.2580645,80.5967743 C51.2580645,82.607527 49.6129032,84.435484 47.6021504,84.435484 C47.6021504,84.435484 47.6021504,84.435484 47.6021504,84.435484 L36.2688171,84.1612904 C28.2258062,84.1612904 21.5537632,77.9462366 20.2741933,69.6290323 C19.268817,63.2311828 22.0107525,54.6397849 32.2473117,50.0698924 C29.8709676,40.0161289 35.5376343,31.5161288 43.2150537,27.9516127 C51.0752688,24.2043008 62.1344086,25.301075 69.4462366,35.4462364 C74.0161291,32.8870966 79.4086023,32.7043009 83.8870969,35.2634407 C87.7258066,37.4569891 91.1989249,42.0268816 90.8333335,48.8817203 C100.521506,51.8064515 104.543011,60.2150537 104.086022,67.5268817 Z M74.9301076,70.5430108 C75.6612904,71.2741936 76.5752689,71.639785 77.4892474,71.639785 C78.4032259,71.639785 79.3172044,71.2741936 80.0483872,70.5430108 C81.5107528,69.0806452 81.5107528,66.7956989 80.0483872,65.3333333 L64.6021505,49.7956988 C63.9623656,49.1559139 63.0483871,48.7903225 62.0430107,48.7903225 C61.0376344,48.7903225 60.1236559,49.1559139 59.4838709,49.8870967 L44.0376343,65.4247312 C42.5752687,66.8870968 42.5752687,69.172043 44.0376343,70.6344086 C45.4999999,72.0967743 47.7849461,72.0967743 49.2473117,70.6344086 L58.3870967,61.2204301 L58.4784946,95.403226 C58.4784946,97.4139787 60.1236559,99.05914 62.1344086,99.05914 C62.1344086,99.05914 62.1344086,99.05914 62.1344086,99.05914 C64.1451613,99.05914 65.7903226,97.4139787 65.7903226,95.403226 L65.6989247,61.3118279 L74.9301076,70.5430108 Z" id="cloud-upload-1"></path>
    </defs>
    <g id="Import-d'une-facture" stroke="none" stroke-width="1" fill="none" fill-rule="evenodd">
        <g id="07_01_Import-d'une-facture-Clic" transform="translate(-641.000000, -196.000000)">
            <g id="Upload-Screen" transform="translate(0.000000, 52.000000)">
                <g id="Middle_Drop" transform="translate(335.000000, 0.000000)">
                    <g id="Icons/cloud-upload" transform="translate(286.000000, 118.000000)">
                        <mask id="mask-cloud-upload-2" fill="white">
                            <use xlink:href="#cloud-upload-1"></use>
                        </mask>
                        <use id="cloud-upload" fill="currentColor" fill-rule="nonzero" xlink:href="#cloud-upload-1"></use>
                    </g>
                </g>
            </g>
        </g>
    </g>
</svg>
