<?xml version="1.0" encoding="UTF-8"?>
<svg width="11px" height="11px" viewBox="0 0 11 11" version="1.1" xmlns="http://www.w3.org/2000/svg" xmlns:xlink="http://www.w3.org/1999/xlink">
    <!-- Generator: Sketch 52.5 (67469) - http://www.bohemiancoding.com/sketch -->
    <defs>
        <path d="M17.0641305,15.8815218 C17.3967392,16.2141305 17.3967392,16.7315218 17.0641305,17.0641305 C16.8978261,17.2304348 16.6945652,17.3043479 16.4728261,17.3043479 C16.251087,17.3043479 16.0478261,17.2304348 15.8815218,17.0641305 L12.5,13.6826087 L9.11847824,17.0641305 C8.95217389,17.2304348 8.74891302,17.3043479 8.52717389,17.3043479 C8.30543476,17.3043479 8.10217389,17.2304348 7.93586954,17.0641305 C7.60326084,16.7315218 7.60326084,16.2141305 7.93586954,15.8815218 L11.3173913,12.5 L7.93586954,9.11847824 C7.60326084,8.78586954 7.60326084,8.26847824 7.93586954,7.93586954 C8.26847824,7.60326084 8.78586954,7.60326084 9.11847824,7.93586954 L12.5,11.3173913 L15.8815218,7.93586954 C16.2141305,7.60326084 16.7315218,7.60326084 17.0641305,7.93586954 C17.3967392,8.26847824 17.3967392,8.78586954 17.0641305,9.11847824 L13.6826087,12.5 L17.0641305,15.8815218 Z" id="cross"></path>
    </defs>
    <g id="Symbols" stroke="none" stroke-width="1" fill="none" fill-rule="evenodd">
        <g id="Icons/cross" transform="translate(-7.000000, -7.000000)">
            <mask id="mask-cross-2" fill="white">
                <use xlink:href="#cross"></use>
            </mask>
            <use id="cross" fill="currentColor" fill-rule="nonzero" xlink:href="#cross"></use>
        </g>
    </g>
</svg>
