<?xml version="1.0" encoding="UTF-8"?>
<svg width="13px" height="3px" viewBox="0 0 13 3" version="1.1" xmlns="http://www.w3.org/2000/svg" xmlns:xlink="http://www.w3.org/1999/xlink">
    <!-- Generator: Sketch 52.5 (67469) - http://www.bohemiancoding.com/sketch -->
    <title>dots-3</title>
    <desc>Created with Sketch.</desc>
    <defs>
        <path d="M7.88043476,13.7934783 C7.54782606,13.7934783 7.1967391,13.6456522 6.95652171,13.4054348 C6.71630431,13.1652174 6.58695649,12.8326087 6.58695649,12.5 C6.58695649,12.1673913 6.73478257,11.8347826 6.95652171,11.576087 C7.1967391,11.3358696 7.5293478,11.2065217 7.88043476,11.2065217 C8.21304345,11.2065217 8.54565215,11.3543478 8.78586954,11.576087 C9.02608694,11.8163043 9.17391302,12.148913 9.17391302,12.5 C9.17391302,12.8326087 9.02608694,13.1652174 8.78586954,13.4054348 C8.54565215,13.6456522 8.21304345,13.7934783 7.88043476,13.7934783 Z M13.4054348,13.4054348 C13.6456522,13.1652174 13.7934783,12.8326087 13.7934783,12.5 C13.7934783,12.1673913 13.6456522,11.8347826 13.4054348,11.576087 C13.1652174,11.3358696 12.8326087,11.2065217 12.5,11.2065217 C12.1673913,11.2065217 11.8163043,11.3543478 11.576087,11.576087 C11.3358696,11.8163043 11.2065217,12.148913 11.2065217,12.5 C11.2065217,12.8326087 11.3543478,13.1652174 11.576087,13.4054348 C11.8163043,13.6456522 12.148913,13.7934783 12.5,13.7934783 C12.8326087,13.7934783 13.1652174,13.6456522 13.4054348,13.4054348 Z M18.025,13.4054348 C18.2652174,13.1652174 18.4130435,12.8326087 18.4130435,12.5 C18.4130435,12.1673913 18.2652174,11.8347826 18.025,11.576087 C17.7847826,11.3358696 17.4521739,11.2065217 17.1195652,11.2065217 C16.7869565,11.2065217 16.4358696,11.3543478 16.1956522,11.576087 C15.9554348,11.8163043 15.826087,12.148913 15.826087,12.5 C15.826087,12.8326087 15.9739131,13.1652174 16.1956522,13.4054348 C16.4358696,13.6456522 16.7684783,13.7934783 17.1195652,13.7934783 C17.4521739,13.7934783 17.7847826,13.6456522 18.025,13.4054348 Z" id="dot-3-1"></path>
    </defs>
    <g id="Symbols" stroke="none" stroke-width="1" fill="none" fill-rule="evenodd">
        <g id="Icons/dots-3" transform="translate(-6.000000, -11.000000)">
            <mask id="mask-2" fill="white">
                <use xlink:href="#dot-3-1"></use>
            </mask>
            <use id="dots-3" fill="currentColor" fill-rule="nonzero" xlink:href="#dot-3-1"></use>
        </g>
    </g>
</svg>
