<?xml version="1.0" encoding="UTF-8"?>
<svg width="17px" height="17px" viewBox="0 0 17 17" version="1.1" xmlns="http://www.w3.org/2000/svg" xmlns:xlink="http://www.w3.org/1999/xlink">
    <!-- Generator: Sketch 52.5 (67469) - http://www.bohemiancoding.com/sketch -->
    <title>Icons/download</title>
    <desc>Created with Sketch.</desc>
    <defs>
        <path d="M20.4456522,14.8652174 L20.4456522,19.8913044 C20.4456522,20.4086957 20.0391305,20.8152174 19.5217392,20.8152174 L5.47826083,20.8152174 C4.96086952,20.8152174 4.55434778,20.4086957 4.55434778,19.8913044 L4.55434778,14.8652174 C4.55434778,14.3478261 4.96086952,13.9413044 5.47826083,13.9413044 C5.99565214,13.9413044 6.40217388,14.3478261 6.40217388,14.8652174 L6.40217388,18.9673913 L18.5978261,18.9673913 L18.5978261,14.8652174 C18.5978261,14.3478261 19.0043479,13.9413044 19.5217392,13.9413044 C20.0391305,13.9413044 20.4456522,14.3478261 20.4456522,14.8652174 Z M11.8347826,16.0108696 C12.001087,16.1956522 12.2413043,16.2880435 12.5,16.2880435 C12.7586957,16.2880435 12.9804348,16.1956522 13.1652174,16.0108696 L16.8423913,12.2413043 C17.1934783,11.8717391 17.1934783,11.298913 16.8239131,10.9293478 C16.4543478,10.5782609 15.8815218,10.5782609 15.5119565,10.9478261 L13.423913,13.1097826 L13.423913,5.10869561 C13.423913,4.5913043 13.0173913,4.18478256 12.5,4.18478256 C11.9826087,4.18478256 11.576087,4.5913043 11.576087,5.10869561 L11.576087,13.1097826 L9.4695652,10.9663043 C9.11847824,10.5967391 8.52717389,10.5967391 8.15760867,10.9478261 C7.78804345,11.298913 7.78804345,11.8902174 8.13913041,12.2597826 L11.8347826,16.0108696 Z" id="download-1"></path>
    </defs>
    <g id="download" stroke="none" stroke-width="1" fill="none" fill-rule="evenodd">
        <g id="06_01_Détail_Factures-Reçues-Options" transform="translate(-968.000000, -270.000000)">
            <g id="Popin_info" transform="translate(954.000000, 174.000000)">
                <g id="Download" transform="translate(10.000000, 92.000000)">
                    <g id="Icons/download">
                        <mask id="download-2" fill="white">
                            <use xlink:href="#download-1"></use>
                        </mask>
                        <use id="download" fill="currentColor" fill-rule="nonzero" xlink:href="#download-1"></use>
                    </g>
                </g>
            </g>
        </g>
    </g>
</svg>
