<?xml version="1.0" encoding="UTF-8"?>
<svg width="16px" height="17px" viewBox="0 0 16 17" version="1.1" xmlns="http://www.w3.org/2000/svg" xmlns:xlink="http://www.w3.org/1999/xlink">
    <!-- Generator: Sketch 52.5 (67469) - http://www.bohemiancoding.com/sketch -->
    <title>edit</title>
    <desc>Created with Sketch.</desc>
    <defs>
        <path d="M19.9097827,5.69999996 L18.5978261,4.35108691 C18.4869566,4.24021734 18.3391305,4.18478256 18.1913044,4.18478256 C18.0434783,4.18478256 17.8956522,4.24021734 17.8032609,4.35108691 L10.0608696,12.2043478 C10.0054348,12.2597826 9.96847825,12.3152174 9.93152172,12.3891304 L9.06304346,14.5880435 C8.98913041,14.7913044 9.02608694,15.0315218 9.19239128,15.1793478 C9.30326085,15.2902174 9.43260868,15.3456522 9.58043477,15.3456522 C9.65434781,15.3456522 9.70978259,15.3271739 9.78369564,15.3086957 L11.9641304,14.4402174 C12.0380435,14.4032609 12.0934783,14.3663044 12.148913,14.3108696 L19.8913044,6.45760866 C20.1315218,6.25434779 20.1315218,5.90326083 19.9097827,5.69999996 Z M11.4652174,13.4608696 L10.5782609,13.8119565 L10.9293478,12.9065217 L18.1913044,5.53369561 L18.7456522,6.08804344 L11.4652174,13.4608696 Z M17.1195652,12.7956522 L17.1195652,20.2608696 C17.1195652,20.6673914 16.75,21.0000001 16.3434783,21.0000001 L5.84782605,21.0000001 C5.44130431,21.0000001 5.10869561,20.6673914 5.10869561,20.2608696 L5.10869561,6.18043475 C5.10869561,5.773913 5.44130431,5.47826083 5.84782605,5.47826083 L13.5347826,5.47826083 C13.9413044,5.47826083 14.2739131,5.81086953 14.2739131,6.21739127 C14.2739131,6.62391301 13.9413044,6.95652171 13.5347826,6.95652171 L6.58695649,6.95652171 L6.58695649,19.5217392 L15.6413044,19.5217392 L15.6413044,12.7956522 C15.6413044,12.3891304 15.9739131,12.0565217 16.3804348,12.0565217 C16.7869565,12.0565217 17.1195652,12.3891304 17.1195652,12.7956522 Z" id="edit-1"></path>
    </defs>
    <g id="Symbols" stroke="none" stroke-width="1" fill="none" fill-rule="evenodd">
        <g id="Icons/edit" transform="translate(-5.000000, -4.000000)">
            <mask id="edit-2" fill="white">
                <use xlink:href="#edit-1"></use>
            </mask>
            <use id="edit" fill="currentColor" fill-rule="nonzero" xlink:href="#edit-1"></use>
        </g>
    </g>
</svg>
