<?xml version="1.0" encoding="UTF-8"?>
<svg width="17px" height="15px" viewBox="0 0 17 15" version="1.1" xmlns="http://www.w3.org/2000/svg" xmlns:xlink="http://www.w3.org/1999/xlink">
    <!-- Generator: Sketch 52.5 (67469) - http://www.bohemiancoding.com/sketch -->
    <title>export</title>
    <desc>Created with Sketch.</desc>
    <defs>
        <path d="M17.344086,18.0752689 L17.344086,18.9892473 C17.344086,19.3913979 16.9967742,19.6290323 16.5946237,19.6290323 L4.65806447,19.6290323 C4.25591393,19.6290323 3.99999995,19.4096775 3.99999995,18.9892473 L3.99999995,9.95913977 C3.99999995,9.55698923 4.25591393,9.19139783 4.65806447,9.19139783 L6.79677416,9.19139783 C7.1989247,9.19139783 7.52795696,9.52043009 7.52795696,9.92258063 C7.52795696,10.3247312 7.1989247,10.6537634 6.79677416,10.6537634 L5.46236555,10.6537634 L5.46236555,18.1666667 L15.8817204,18.1666667 L15.8817204,18.0752689 C15.8817204,17.6731183 16.2107527,17.3440861 16.6129032,17.3440861 C17.0150538,17.3440861 17.344086,17.6731183 17.344086,18.0752689 Z M20.5978495,11.2569892 L16.0645162,15.8817204 C15.8451613,16.1010753 15.5344086,16.155914 15.2602151,16.0462366 C14.967742,15.9182796 14.7849463,15.6623656 14.7849463,15.3516129 L14.7849463,13.3591398 C13.3225807,13.3225806 9.81290321,13.4688172 8.53333331,15.7172043 C8.40537632,15.9548387 8.14946234,16.1010753 7.89354836,16.1010753 C7.83870965,16.1010753 7.76559137,16.1010753 7.71075266,16.0827957 C7.3817204,15.9913979 7.16236556,15.6989247 7.16236556,15.3698925 C7.16236556,15.2602151 7.16236556,12.4268817 9.28279568,10.3247312 C10.6172043,8.95376342 12.4086022,8.22258062 14.7849463,8.09462363 L14.7849463,6.1021505 C14.7849463,5.80967738 14.967742,5.53548383 15.2419355,5.42580641 C15.5344086,5.31612899 15.8451613,5.3709677 16.0645162,5.59032254 L20.6161291,10.2150537 C20.8903226,10.5075269 20.8903226,10.9645161 20.5978495,11.2569892 Z M19.0258065,10.7268817 L16.2473119,7.91182793 L16.2473119,8.80752686 C16.2473119,9.2096774 15.9365592,9.53870966 15.5161291,9.53870966 C13.2494624,9.53870966 11.5129032,10.1419355 10.3247312,11.3483871 C9.77634407,11.8967742 9.41075267,12.5 9.17311826,13.0849462 C10.8913978,12.0612903 13.0666667,11.8784946 14.4010753,11.8784946 C15.0956989,11.8784946 15.5526882,11.9333333 15.6075269,11.9333333 C15.9731183,11.9698925 16.2473119,12.2989247 16.2473119,12.6645161 L16.2473119,13.5602151 L19.0258065,10.7268817 Z" id="export-1"></path>
    </defs>
    <g id="Symbols" stroke="none" stroke-width="1" fill="none" fill-rule="evenodd">
        <g id="Icons/export" transform="translate(-4.000000, -5.000000)">
            <mask id="export-2" fill="white">
                <use xlink:href="#export-1"></use>
            </mask>
            <use id="export" fill="currentColor" fill-rule="nonzero" xlink:href="#export-1"></use>
        </g>
    </g>
</svg>