<?xml version="1.0" encoding="UTF-8"?>
<svg width="17px" height="11px" viewBox="0 0 17 11" version="1.1" xmlns="http://www.w3.org/2000/svg" xmlns:xlink="http://www.w3.org/1999/xlink">
    <!-- Generator: Sketch 52.5 (67469) - http://www.bohemiancoding.com/sketch -->
    <defs>
        <path d="M20.8706522,12.0934783 C20.7413044,11.9086956 17.7478261,7.51086954 12.5,7.51086954 C7.25217388,7.51086954 4.2586956,11.9086956 4.12934778,12.0934783 C3.96304343,12.3336957 3.96304343,12.6663043 4.12934778,12.925 C4.2586956,13.0913044 7.25217388,17.4891305 12.5,17.4891305 C17.7478261,17.4891305 20.7413044,13.0913044 20.8706522,12.9065217 C21.0369566,12.6663043 21.0369566,12.3336957 20.8706522,12.0934783 Z M12.5,16.0108696 C8.93369563,16.0108696 6.49456518,13.4978261 5.66304344,12.5 C6.49456518,11.4836956 8.91521737,8.98913041 12.5,8.98913041 C16.0663044,8.98913041 18.5054348,11.5021739 19.3369566,12.5 C18.4869566,13.5163044 16.0663044,16.0108696 12.5,16.0108696 Z M12.925,9.4695652 C12.1119565,9.35869563 11.3173913,9.5619565 10.6521739,10.0608696 C10.6521739,10.0608696 10.6521739,10.0608696 10.6521739,10.0608696 C9.30326085,11.0771739 9.02608694,12.998913 10.0423913,14.3478261 C10.5413043,15.0130435 11.2434783,15.4195652 12.0565217,15.5489131 C12.2043478,15.5673913 12.3521739,15.5858696 12.4815217,15.5858696 C13.1467391,15.5858696 13.775,15.3641305 14.3108696,14.976087 C15.6597826,13.9597826 15.9369565,12.0380435 14.9206522,10.6891304 C14.4586957,10.0054348 13.7380435,9.58043477 12.925,9.4695652 Z M13.6641304,14.0706522 C13.2576087,14.3847826 12.7402174,14.5141304 12.2228261,14.4402174 C11.7054348,14.3663044 11.2434783,14.0891304 10.9293478,13.6826087 C10.3010869,12.8141304 10.4673913,11.576087 11.3358696,10.9293478 C11.7423913,10.6152174 12.2597826,10.4858696 12.7771739,10.5597826 C13.2945652,10.6336956 13.7565217,10.9108696 14.0706522,11.3173913 C14.6989131,12.1858696 14.5326087,13.423913 13.6641304,14.0706522 Z M13.5902174,11.3913043 C13.7380435,11.5206522 13.8119565,11.723913 13.8119565,11.9086956 C13.8119565,12.0934783 13.7380435,12.2967391 13.5902174,12.426087 C13.4608696,12.5554348 13.2576087,12.6478261 13.0728261,12.6478261 C12.8695652,12.6478261 12.6847826,12.573913 12.5554348,12.426087 C12.4076087,12.2782609 12.3336957,12.0934783 12.3336957,11.9086956 C12.3336957,11.7054348 12.4076087,11.5206522 12.5554348,11.3913043 C12.6847826,11.2434783 12.8880435,11.1695652 13.0728261,11.1695652 C13.276087,11.1880435 13.4608696,11.2619565 13.5902174,11.3913043 Z" id="eye_open-1"></path>
    </defs>
    <g id="Sign-up" stroke="none" stroke-width="1" fill="none" fill-rule="evenodd">
        <g id="01_Signup" transform="translate(-733.000000, -456.000000)">
            <g id="FORM" transform="translate(603.000000, 113.000000)">
                <g id="MDP" transform="translate(0.000000, 307.000000)">
                    <g id="Icons/preview" transform="translate(126.000000, 29.000000)">
                        <mask id="mask-eye_open-2" fill="white">
                            <use xlink:href="#eye_open-1"></use>
                        </mask>
                        <use id="preview" fill="currentColor" fill-rule="evenodd" xlink:href="#eye_open-1"></use>
                    </g>
                </g>
            </g>
        </g>
    </g>
</svg>
