<?xml version="1.0" encoding="UTF-8"?>
<svg width="128px" height="143px" viewBox="0 0 128 143" version="1.1" xmlns="http://www.w3.org/2000/svg" xmlns:xlink="http://www.w3.org/1999/xlink">
    <defs>
        <rect id="facture-1" x="0" y="0" width="107.253552" height="23.1156659"></rect>
    </defs>
    <g id="Page-1" stroke="none" stroke-width="1" fill="none" fill-rule="evenodd">
        <g id="Illus/Facture" transform="translate(0.455898, 0.566986)">
            <g>
                <rect id="Rectangle-2" fill="#FFFFFF" fill-rule="nonzero" x="0" y="0" width="126.754198" height="141.583454"></rect>
                <path d="M110.50366,59.9603396 C110.096725,60.1780023 109.60145,60.3521299 109.01782,60.4827275 C108.43419,60.6133252 107.906789,60.678623 107.435601,60.678623 C106.193379,60.678623 105.15464,60.3630168 104.319353,59.7317949 C103.484066,59.100573 102.900445,58.2408181 102.568471,57.1525045 L100.946095,57.1525045 L100.753337,55.5853407 L102.279335,55.5853407 C102.257917,55.3023791 102.247209,55.0901612 102.247209,54.9486804 C102.247209,54.7963165 102.257917,54.567774 102.279335,54.2630462 L100.946095,54.2630462 L100.753337,52.6958824 L102.584535,52.6958824 C102.948634,51.5858025 103.561704,50.712444 104.423764,50.0757805 C105.285823,49.439117 106.31653,49.12079 107.515917,49.12079 C107.901434,49.12079 108.372615,49.1806464 108.929473,49.3003609 C109.486331,49.4200754 109.978929,49.5996444 110.407281,49.8390734 L109.764756,51.3572634 L109.363178,51.242991 C108.945534,51.1123934 108.613566,51.0226088 108.367263,50.9736347 C108.120961,50.9246606 107.815764,50.9001739 107.451664,50.9001739 C106.884098,50.9001739 106.375437,51.057977 105.925667,51.373588 C105.475897,51.6891989 105.117157,52.1299594 104.849437,52.6958824 L107.917495,52.6958824 L108.078127,54.2630462 L104.447858,54.2630462 C104.426441,54.5460078 104.415732,54.7691087 104.415732,54.9323558 C104.415732,55.0847197 104.426441,55.3023791 104.447858,55.5853407 L107.917495,55.5853407 L108.078127,57.1525045 L104.849437,57.1525045 C105.095739,57.6966613 105.430385,58.123818 105.853383,58.4339874 C106.276381,58.7441567 106.766301,58.8992391 107.323159,58.8992391 C108.115611,58.8992391 108.913406,58.730553 109.716566,58.3931758 L110.50366,59.9603396 Z" id="€" fill="#C0C0C0"></path>
                <path d="M110.50366,80.1865473 C110.096725,80.40421 109.60145,80.5783376 109.01782,80.7089352 C108.43419,80.8395328 107.906789,80.9048307 107.435601,80.9048307 C106.193379,80.9048307 105.15464,80.5892244 104.319353,79.9580025 C103.484066,79.3267806 102.900445,78.4670258 102.568471,77.3787121 L100.946095,77.3787121 L100.753337,75.8115483 L102.279335,75.8115483 C102.257917,75.5285868 102.247209,75.3163688 102.247209,75.1748881 C102.247209,75.0225241 102.257917,74.7939817 102.279335,74.4892539 L100.946095,74.4892539 L100.753337,72.9220901 L102.584535,72.9220901 C102.948634,71.8120102 103.561704,70.9386516 104.423764,70.3019881 C105.285823,69.6653247 106.31653,69.3469977 107.515917,69.3469977 C107.901434,69.3469977 108.372615,69.4068541 108.929473,69.5265686 C109.486331,69.6462831 109.978929,69.8258521 110.407281,70.0652811 L109.764756,71.583471 L109.363178,71.4691987 C108.945534,71.338601 108.613566,71.2488165 108.367263,71.1998424 C108.120961,71.1508683 107.815764,71.1263816 107.451664,71.1263816 C106.884098,71.1263816 106.375437,71.2841847 105.925667,71.5997957 C105.475897,71.9154066 105.117157,72.356167 104.849437,72.9220901 L107.917495,72.9220901 L108.078127,74.4892539 L104.447858,74.4892539 C104.426441,74.7722154 104.415732,74.9953164 104.415732,75.1585634 C104.415732,75.3109273 104.426441,75.5285868 104.447858,75.8115483 L107.917495,75.8115483 L108.078127,77.3787121 L104.849437,77.3787121 C105.095739,77.9228689 105.430385,78.3500256 105.853383,78.660195 C106.276381,78.9703644 106.766301,79.1254468 107.323159,79.1254468 C108.115611,79.1254468 108.913406,78.9567607 109.716566,78.6193835 L110.50366,80.1865473 Z" id="€-copy" fill="#C0C0C0"></path>
                <path d="M110.50366,103.302213 C110.096725,103.519876 109.60145,103.694003 109.01782,103.824601 C108.43419,103.955199 107.906789,104.020497 107.435601,104.020497 C106.193379,104.020497 105.15464,103.70489 104.319353,103.073668 C103.484066,102.442447 102.900445,101.582692 102.568471,100.494378 L100.946095,100.494378 L100.753337,98.9272142 L102.279335,98.9272142 C102.257917,98.6442527 102.247209,98.4320347 102.247209,98.290554 C102.247209,98.13819 102.257917,97.9096476 102.279335,97.6049198 L100.946095,97.6049198 L100.753337,96.037756 L102.584535,96.037756 C102.948634,94.9276761 103.561704,94.0543175 104.423764,93.417654 C105.285823,92.7809906 106.31653,92.4626636 107.515917,92.4626636 C107.901434,92.4626636 108.372615,92.52252 108.929473,92.6422345 C109.486331,92.761949 109.978929,92.941518 110.407281,93.180947 L109.764756,94.6991369 L109.363178,94.5848646 C108.945534,94.4542669 108.613566,94.3644824 108.367263,94.3155083 C108.120961,94.2665342 107.815764,94.2420475 107.451664,94.2420475 C106.884098,94.2420475 106.375437,94.3998506 105.925667,94.7154616 C105.475897,95.0310725 105.117157,95.4718329 104.849437,96.037756 L107.917495,96.037756 L108.078127,97.6049198 L104.447858,97.6049198 C104.426441,97.8878813 104.415732,98.1109823 104.415732,98.2742293 C104.415732,98.4265932 104.426441,98.6442527 104.447858,98.9272142 L107.917495,98.9272142 L108.078127,100.494378 L104.849437,100.494378 C105.095739,101.038535 105.430385,101.465692 105.853383,101.775861 C106.276381,102.08603 106.766301,102.241113 107.323159,102.241113 C108.115611,102.241113 108.913406,102.072427 109.716566,101.735049 L110.50366,103.302213 Z" id="€-copy-2" fill="#C0C0C0"></path>
                <g id="Colors/Orange_Gradient" transform="translate(9.750323, 11.557833)">
                    <mask id="mask-facture-2" fill="white">
                        <use xlink:href="#facture-1"></use>
                    </mask>
                    <use id="Mask" fill="#FFFFFF" fill-rule="nonzero" xlink:href="#facture-1"></use>
                    <g id="Colors/Gradient/Orange_Gradient" mask="url(#mask-facture-2)" fill="#0053FA" fill-rule="nonzero">
                        <rect id="Rectangle" x="0" y="0" width="106.594536" height="22.9128442"></rect>
                    </g>
                </g>
                <polygon id="facture-2" fill="#C0C0C0" fill-rule="nonzero" points="20.0186004 58.5251497 15.5424387 56.5986307 16.9586378 53.9979074 19.7331281 55.192035 24.5931791 52.2179172 28.6104299 54.9435941 32.4370032 51.5426791 38.4164302 55.1210877 45.2908984 51.068359 56.146515 55.1815525 62.8838094 50.1476536 69.6082113 54.859496 67.5963555 57.1288231 62.9496553 53.8728429 56.7090485 58.5356321 45.6276083 54.3368741 38.402873 58.5960969 32.8421652 55.2682721 28.8981215 58.7735905 24.4947715 55.785948"></polygon>
                <polygon id="facture-2-Copy" fill="#C0C0C0" fill-rule="nonzero" points="20.0186004 78.7513573 15.5424387 76.8248383 16.9586378 74.224115 19.7331281 75.4182426 24.5931791 72.4441249 28.6104299 75.1698018 32.4370032 71.7688867 38.4164302 75.3472954 45.2908984 71.2945667 56.146515 75.4077601 62.8838094 70.3738613 69.6082113 75.0857037 67.5963555 77.3550307 62.9496553 74.0990506 56.7090485 78.7618398 45.6276083 74.5630818 38.402873 78.8223046 32.8421652 75.4944798 28.8981215 78.9997981 24.4947715 76.0121556"></polygon>
                <polygon id="facture-2-Copy-2" fill="#C0C0C0" fill-rule="nonzero" points="20.0186004 101.867023 15.5424387 99.9405042 16.9586378 97.3397809 19.7331281 98.5339085 24.5931791 95.5597908 28.6104299 98.2854677 32.4370032 94.8845526 38.4164302 98.4629613 45.2908984 94.4102326 56.146515 98.523426 62.8838094 93.4895272 69.6082113 98.2013696 67.5963555 100.470697 62.9496553 97.2147165 56.7090485 101.877506 45.6276083 97.6787477 38.402873 101.93797 32.8421652 98.6101457 28.8981215 102.115464 24.4947715 99.1278215"></polygon>
                <polygon id="facture-2-Copy-3" fill="#9B9B9B" fill-rule="nonzero" points="88.7886862 132.465183 85.7237407 131.50383 91.1249993 117.893402 95.8102823 129.825729 102.552024 126.19817 106.994273 129.634588 108.62989 126.510682 111.576419 127.730042 108.11849 134.334425 102.206883 129.761347 94.0631455 134.143284 91.1087139 126.619033"></polygon>
            </g>
        </g>
    </g>
</svg>
