<?xml version="1.0" encoding="UTF-8"?>
<svg width="17px" height="17px" viewBox="0 0 17 17" version="1.1" xmlns="http://www.w3.org/2000/svg" xmlns:xlink="http://www.w3.org/1999/xlink">
    <!-- Generator: Sketch 52.5 (67469) - http://www.bohemiancoding.com/sketch -->
    <title>gear</title>
    <desc>Created with Sketch.</desc>
    <defs>
        <path d="M12.5,16.0663044 C10.5413043,16.0663044 8.93369563,14.4771739 8.93369563,12.5 C8.93369563,10.5413043 10.5228261,8.93369563 12.5,8.93369563 C14.4586957,8.93369563 16.0663044,10.5228261 16.0663044,12.5 C16.0663044,14.4586957 14.4586957,16.0663044 12.5,16.0663044 Z M12.5,10.2456522 C11.2619565,10.2456522 10.2456522,11.2619565 10.2456522,12.5 C10.2456522,13.7380435 11.2619565,14.7543478 12.5,14.7543478 C13.7380435,14.7543478 14.7543478,13.7380435 14.7543478,12.5 C14.7543478,11.2619565 13.7380435,10.2456522 12.5,10.2456522 Z M12.5,21.0000001 L12.4076087,21.0000001 C11.7608696,21.0000001 11.2065217,20.926087 11.1695652,20.926087 C10.873913,20.8891305 10.6521739,20.6673914 10.5967391,20.3717392 L10.4119565,19.0413044 C10.0054348,18.9119566 9.61739129,18.7456522 9.24782607,18.5423913 L8.21304345,19.3369566 C7.97282606,19.5217392 7.65869562,19.5032609 7.41847823,19.3369566 C7.39999997,19.3184783 6.95652171,18.9673913 6.49456518,18.5239131 L6.42065214,18.45 C5.95869561,17.9880435 5.62608692,17.5445652 5.60760866,17.526087 C5.42282605,17.2858696 5.42282605,16.9717392 5.60760866,16.7315218 L6.42065214,15.6597826 C6.21739127,15.2902174 6.06956518,14.8836957 5.94021735,14.4771739 L4.64673908,14.2923913 C4.35108691,14.2554348 4.12934778,14.0152174 4.09239125,13.7195652 C4.07391299,13.701087 3.99999995,13.1467391 3.99999995,12.5 L3.99999995,12.4076087 C3.99999995,11.7608696 4.07391299,11.2065217 4.07391299,11.1695652 C4.11086952,10.873913 4.33260865,10.6521739 4.62826082,10.5967391 L5.95869561,10.4119565 C6.08804344,10.0054348 6.25434779,9.61739129 6.45760866,9.24782607 L5.66304344,8.21304345 C5.47826083,7.97282606 5.49673909,7.65869562 5.66304344,7.41847823 C5.6815217,7.39999997 6.03260866,6.95652171 6.47608692,6.49456518 L6.54999996,6.42065214 C7.01195649,5.95869561 7.45543475,5.62608692 7.47391301,5.60760866 C7.71413041,5.42282605 8.02826084,5.42282605 8.26847824,5.60760866 L9.34021737,6.42065214 C9.70978259,6.21739127 10.1163043,6.06956518 10.5228261,5.94021735 L10.7076087,4.64673908 C10.7445652,4.35108691 10.9847826,4.12934778 11.2804348,4.09239125 C11.298913,4.07391299 11.8532609,3.99999995 12.5,3.99999995 L12.5923913,3.99999995 C13.2391304,3.99999995 13.7934783,4.07391299 13.8304348,4.07391299 C14.126087,4.11086952 14.3478261,4.33260865 14.4032609,4.62826082 L14.5880435,5.95869561 C14.9945652,6.08804344 15.3826087,6.25434779 15.7521739,6.45760866 L16.7869565,5.66304344 C17.0271739,5.47826083 17.3413044,5.49673909 17.5815218,5.66304344 C17.6,5.6815217 18.0434783,6.03260866 18.5054348,6.47608692 L18.5793479,6.54999996 C19.0413044,7.01195649 19.3739131,7.45543475 19.3923913,7.47391301 C19.577174,7.71413041 19.577174,8.02826084 19.3923913,8.26847824 L18.5978261,9.34021737 C18.801087,9.70978259 18.9489131,10.1163043 19.0782609,10.5228261 L20.3717392,10.7076087 C20.6673914,10.7445652 20.8891305,10.9847826 20.926087,11.2804348 C20.926087,11.298913 21.0000001,11.8717391 21.0000001,12.5184783 L21.0000001,12.6108696 C21.0000001,13.2576087 20.926087,13.8119565 20.926087,13.8489131 C20.8891305,14.1445652 20.6673914,14.3663044 20.3717392,14.4217391 L19.0413044,14.6065218 C18.9119566,15.0130435 18.7456522,15.401087 18.5423913,15.7706522 L19.3369566,16.8239131 C19.5217392,17.0641305 19.5032609,17.3782609 19.3369566,17.6184783 C19.3184783,17.6369566 18.9673913,18.0804348 18.5239131,18.5423913 L18.45,18.6163044 C17.9880435,19.0782609 17.5445652,19.4108696 17.526087,19.4293479 C17.2858696,19.6141305 16.9717392,19.6141305 16.7315218,19.4293479 L15.6597826,18.5978261 C15.2902174,18.801087 14.8836957,18.9489131 14.4771739,19.0782609 L14.2923913,20.3717392 C14.2554348,20.6673914 14.0152174,20.8891305 13.7195652,20.926087 C13.701087,20.926087 13.1467391,21.0000001 12.5,21.0000001 Z M11.8347826,19.6695653 C12.001087,19.6880435 12.2043478,19.6880435 12.4076087,19.6880435 L12.5,19.6880435 C12.7032609,19.6880435 12.9065217,19.6880435 13.0728261,19.6695653 L13.2391304,18.45 C13.276087,18.1728261 13.4793478,17.9695652 13.7380435,17.8956522 C14.3108696,17.7663044 14.8652174,17.5445652 15.3641305,17.2304348 C15.5119565,17.1380435 15.6967391,17.1195652 15.8630435,17.1565218 C15.9554348,17.175 16.0478261,17.2304348 16.1217392,17.2858696 L17.101087,18.025 C17.2304348,17.9141305 17.3782609,17.7847826 17.526087,17.6369566 L17.6,17.5630435 C17.7478261,17.4152174 17.8771739,17.2673913 17.9880435,17.1380435 L17.2489131,16.1586957 C17.0826087,15.9369565 17.0826087,15.6413044 17.2119565,15.4195652 C17.526087,14.9391304 17.7478261,14.4032609 17.8771739,13.8489131 C17.9326087,13.5717391 18.1543479,13.35 18.4315218,13.3130435 L19.6695653,13.1467391 C19.6880435,12.9804348 19.6880435,12.7771739 19.6880435,12.573913 L19.6880435,12.5 C19.6880435,12.2967391 19.6880435,12.0934783 19.6695653,11.9271739 L18.45,11.7608696 C18.1913044,11.723913 17.9695652,11.5206522 17.8956522,11.2619565 C17.7663044,10.6891304 17.5445652,10.1532609 17.2489131,9.65434781 C17.2119565,9.61739129 17.1934783,9.5619565 17.175,9.50652172 C17.101087,9.30326085 17.1380435,9.06304346 17.2673913,8.89673911 L18.025,7.89891302 C17.9141305,7.76956519 17.7847826,7.6217391 17.6369566,7.47391301 L17.5630435,7.39999997 C17.4152174,7.25217388 17.2673913,7.12282606 17.1380435,7.01195649 L16.1586957,7.75108693 C15.9184783,7.91739128 15.6043478,7.91739128 15.3826087,7.75108693 C14.9021739,7.45543475 14.3663044,7.23369562 13.8119565,7.08586953 C13.5532609,7.03043475 13.35,6.80869562 13.3130435,6.5315217 L13.1467391,5.29347822 C12.9804348,5.27499996 12.7771739,5.27499996 12.573913,5.27499996 L12.5,5.27499996 C12.2967391,5.27499996 12.0934783,5.27499996 11.9271739,5.29347822 L11.7608696,6.54999996 C11.723913,6.84565214 11.5021739,7.06739127 11.2065217,7.10434779 C10.6521739,7.23369562 10.1163043,7.45543475 9.63586955,7.75108693 C9.48804346,7.84347823 9.30326085,7.86195649 9.1369565,7.82499997 C9.0445652,7.80652171 8.95217389,7.75108693 8.87826085,7.69565215 L7.91739128,6.95652171 C7.78804345,7.06739127 7.64021736,7.1967391 7.49239127,7.34456519 L7.41847823,7.41847823 C7.27065214,7.56630432 7.14130432,7.71413041 7.03043475,7.84347823 L7.76956519,8.82282607 C7.93586954,9.0445652 7.93586954,9.32173911 7.80652171,9.5619565 C7.78804345,9.58043477 7.78804345,9.59891303 7.76956519,9.61739129 C7.47391301,10.0978261 7.25217388,10.6336956 7.12282606,11.1880435 C7.06739127,11.4467391 6.84565214,11.65 6.56847823,11.6869565 L5.33043474,11.8532609 C5.31195648,12.0195652 5.31195648,12.2228261 5.31195648,12.426087 L5.31195648,12.5 C5.31195648,12.7032609 5.31195648,12.9065217 5.33043474,13.0728261 L6.54999996,13.2391304 C6.84565214,13.276087 7.06739127,13.4978261 7.10434779,13.7934783 C7.10434779,13.7934783 7.10434779,13.8119565 7.10434779,13.8119565 C7.23369562,14.3663044 7.45543475,14.8836957 7.75108693,15.3641305 C7.84347823,15.5304348 7.88043476,15.7336957 7.80652171,15.9184783 C7.78804345,15.9923913 7.73260867,16.0663044 7.67717388,16.1402174 L6.95652171,17.101087 C7.06739127,17.2304348 7.1967391,17.3782609 7.34456519,17.526087 L7.41847823,17.6 C7.56630432,17.7478261 7.71413041,17.8771739 7.84347823,17.9880435 L8.82282607,17.2489131 C9.06304346,17.0641305 9.41413042,17.0826087 9.63586955,17.2673913 C10.1163043,17.5630435 10.6336956,17.7663044 11.1695652,17.9141305 C11.4282609,17.9695652 11.6315217,18.1913044 11.6684783,18.4684783 L11.8347826,19.6695653 Z" id="gear-1"></path>
    </defs>
    <g id="Symbols" stroke="none" stroke-width="1" fill="none" fill-rule="evenodd">
        <g id="Icons/gear" transform="translate(-4.000000, -4.000000)">
            <mask id="gear-2" fill="white">
                <use xlink:href="#gear-1"></use>
            </mask>
            <use id="gear" fill="currentColor" fill-rule="nonzero" xlink:href="#gear-1"></use>
        </g>
    </g>
</svg>