<?xml version="1.0" encoding="UTF-8"?>
<svg width="17px" height="13px" viewBox="0 0 17 13" version="1.1" xmlns="http://www.w3.org/2000/svg" xmlns:xlink="http://www.w3.org/1999/xlink">
    <!-- Generator: Sketch 52.5 (67469) - http://www.bohemiancoding.com/sketch -->
    <title>graduation</title>
    <desc>Created with Sketch.</desc>
    <defs>
        <path d="M20.3784947,9.84946235 L12.7010753,6.39462362 C12.5,6.30322577 12.2806452,6.30322577 12.0978495,6.39462362 L4.42043006,9.84946235 C4.18279565,9.97741934 3.99999995,10.2150537 3.99999995,10.5075269 C3.99999995,10.7817204 4.18279565,11.0376344 4.43870963,11.1655914 L5.09677415,11.4763441 L5.09677415,14.0354839 C5.09677415,14.2913979 5.29784942,14.4924731 5.5537634,14.4924731 C5.80967738,14.4924731 6.01075265,14.2913979 6.01075265,14.0354839 L6.01075265,11.9516129 L7.10752685,12.5365591 L7.10752685,15.644086 C7.10752685,15.772043 7.14408599,15.8817204 7.21720427,15.9913979 C7.29032255,16.1010753 8.95376342,18.5870968 12.3172043,18.5870968 C15.772043,18.5870968 17.3623656,16.0827957 17.4354839,15.9913979 C17.4903226,15.9 17.5451613,15.772043 17.5451613,15.6623656 L17.5451613,12.627957 L20.4516129,11.1473118 C20.7075269,11.0193548 20.8537635,10.7634408 20.8537635,10.4892473 C20.8172043,10.2150537 20.6344086,9.97741934 20.3784947,9.84946235 Z M16.2473118,15.4430108 C15.8817204,15.8817204 14.6387097,17.3075269 12.3172043,17.3075269 C10.0505376,17.3075269 8.75268815,15.9 8.38709675,15.4430108 L8.38709675,13.1763441 L12.0795699,15.0591398 C12.1892473,15.1139785 12.2989247,15.1322581 12.4086022,15.1322581 C12.5182796,15.1322581 12.6462366,15.1139785 12.755914,15.0591398 L16.2473118,13.2860215 L16.2473118,15.4430108 Z M12.4086022,13.5967742 L6.41290319,10.5623656 L12.4086022,7.85698922 L18.4043011,10.5623656 L12.4086022,13.5967742 Z M6.01075265,15.1139785 C6.13870964,15.2419355 6.23010749,15.4430108 6.23010749,15.6258065 C6.23010749,15.8086022 6.15698921,16.0096774 6.01075265,16.1376344 C5.88279566,16.2655914 5.68172039,16.3569893 5.49892469,16.3569893 C5.31612899,16.3569893 5.11505372,16.283871 4.98709673,16.1376344 C4.85913974,16.0096774 4.76774189,15.8086022 4.76774189,15.6258065 C4.76774189,15.4430108 4.84086017,15.2419355 4.98709673,15.1139785 C5.11505372,14.9860215 5.31612899,14.8946237 5.49892469,14.8946237 C5.68172039,14.8946237 5.86451609,14.9677419 6.01075265,15.1139785 Z" id="graduation-1"></path>
    </defs>
    <g id="Symbols" stroke="none" stroke-width="1" fill="none" fill-rule="evenodd">
        <g id="Icons/graduation" transform="translate(-4.000000, -6.000000)">
            <mask id="graduation-2" fill="white">
                <use xlink:href="#graduation-1"></use>
            </mask>
            <use id="graduation" fill="currentColor" fill-rule="nonzero" xlink:href="#graduation-1"></use>
        </g>
    </g>
</svg>