<?xml version="1.0" encoding="UTF-8"?>
<svg width="16px" height="15px" viewBox="0 0 16 15" version="1.1" xmlns="http://www.w3.org/2000/svg" xmlns:xlink="http://www.w3.org/1999/xlink">
    <!-- Generator: Sketch 52.5 (67469) - http://www.bohemiancoding.com/sketch -->
    <title>Icons/heart</title>
    <desc>Created with Sketch.</desc>
    <defs>
        <path d="M15.4655176,2.77173915 C14.7263871,1.0902174 13.1187784,0 11.4187784,0 C9.70030016,0 8.5916045,0.7576087 7.94486537,1.57065218 C7.29812623,0.7576087 6.18943057,0 4.4709523,0 C2.77095229,0 1.16334359,1.0902174 0.424213147,2.77173915 C-0.370352075,4.52717394 -0.0377433774,6.46739134 1.32964794,7.98260874 C4.56334361,11.6228262 7.42747406,14.1913044 7.46443058,14.2097827 C7.61225667,14.3391305 7.77856102,14.3945653 7.96334363,14.3945653 C8.14812624,14.3945653 8.31443058,14.3391305 8.46225667,14.2097827 C8.49921319,14.1913044 11.3448654,11.6043479 14.5970393,7.98260874 C15.9274741,6.46739134 16.2600828,4.52717394 15.4655176,2.77173915 Z M13.2850828,4.85978264 C13.303561,5.2108696 13.0448654,5.52500003 12.6753002,5.54347829 C12.6568219,5.54347829 12.6383437,5.54347829 12.6383437,5.54347829 C12.305735,5.54347829 12.0100828,5.28478264 11.9916045,4.93369568 C11.9176915,3.88043481 11.2339958,3.71413046 11.104648,3.6956522 C10.753561,3.64021741 10.5133436,3.32608698 10.5503002,2.97500002 C10.6057349,2.62391306 10.9383436,2.38369567 11.2894306,2.42065219 C11.9361697,2.51304349 13.1742132,3.14130437 13.2850828,4.85978264 Z M12.3981263,5.93152177 C12.5274741,6.07934786 12.6198654,6.26413047 12.6198654,6.44891308 C12.6198654,6.65217395 12.5459523,6.83695656 12.3981263,6.96630439 C12.2687784,7.11413048 12.0655176,7.18804352 11.880735,7.18804352 C11.6959523,7.18804352 11.4926915,7.11413048 11.3633436,6.96630439 C11.2339958,6.83695656 11.1416045,6.63369569 11.1416045,6.44891308 C11.1416045,6.26413047 11.2155176,6.0608696 11.3633436,5.93152177 C11.4926915,5.80217395 11.6959523,5.70978264 11.880735,5.70978264 C12.0655176,5.7282609 12.2503002,5.80217395 12.3981263,5.93152177 Z" id="heart-1"></path>
    </defs>
    <g id="Settings" stroke="none" stroke-width="1" fill="none" fill-rule="evenodd">
        <g id="06_03_Form_Bank" transform="translate(-1191.000000, -267.000000)">
            <g id="CONTENT" transform="translate(417.000000, 109.000000)">
                <g id="LINE1" transform="translate(0.000000, 137.000000)">
                    <g id="Icons/heart" transform="translate(774.000000, 21.000000)">
                        <g>
                            <mask id="heart-2" fill="white">
                                <use xlink:href="#heart-1"></use>
                            </mask>
                            <use id="heart" fill="currentColor" fill-rule="nonzero" xlink:href="#heart-1"></use>
                        </g>
                    </g>
                </g>
            </g>
        </g>
    </g>
</svg>