<?xml version="1.0" encoding="UTF-8"?>
<svg width="15px" height="16px" viewBox="0 0 15 16" version="1.1" xmlns="http://www.w3.org/2000/svg" xmlns:xlink="http://www.w3.org/1999/xlink">
    <!-- Generator: Sketch 52.5 (67469) - http://www.bohemiancoding.com/sketch -->
    <defs>
        <path d="M16.2847826,5.71521736 C14.870087,4.3005217 13.000087,3.51999996 11,3.51999996 C11,3.51999996 11,3.51999996 11,3.51999996 C8.99991303,3.51999996 7.12991302,4.3005217 5.71521736,5.71521736 C4.3005217,7.12991302 3.51999996,8.99991303 3.51999996,11 C3.51999996,13.000087 4.3005217,14.870087 5.71521736,16.2847826 C7.12991302,17.6994783 8.99991303,18.48 11,18.48 C13.000087,18.48 14.870087,17.6994783 16.2847826,16.2847826 C17.6994783,14.870087 18.48,13.000087 18.48,11 C18.48,8.99991303 17.6994783,7.12991302 16.2847826,5.71521736 Z M14.8213044,10.0893913 L17.0490435,9.74791304 C17.1303479,10.1544348 17.1791305,10.5772174 17.1791305,11 C17.1791305,11.4227826 17.1303479,11.8455652 17.0490435,12.252087 L14.8213044,11.9106087 C14.9513913,11.3089565 14.9513913,10.6910435 14.8213044,10.0893913 Z M16.7726087,8.78852173 L14.4635652,9.14626086 C14.2846957,8.8047826 14.0570435,8.49582607 13.7806087,8.21939129 C13.5041739,7.9429565 13.1789565,7.69904346 12.8537391,7.53643476 L13.2114783,5.22739127 C14.0082609,5.53634779 14.7562609,6.00791301 15.3741739,6.62582606 C15.992087,7.25999998 16.4636522,7.99173911 16.7726087,8.78852173 Z M11,13.6342609 C10.3007826,13.6342609 9.63408695,13.3578261 9.14626086,12.87 C8.6421739,12.3659131 8.38199998,11.7154783 8.38199998,11.0162609 C8.38199998,10.3170435 8.65843477,9.65034782 9.14626086,9.16252173 C9.66660869,8.6421739 10.3333043,8.39826085 11,8.39826085 C11.6666957,8.39826085 12.3496522,8.65843477 12.8537391,9.16252173 C13.3578261,9.66660869 13.618,10.3170435 13.618,11.0162609 C13.618,11.7154783 13.3415652,12.3821739 12.8537391,12.87 C12.3659131,13.3578261 11.6992174,13.6342609 11,13.6342609 Z M11,4.82086953 C11.4227826,4.82086953 11.8455652,4.86965214 12.252087,4.95095649 L11.9106087,7.17869563 C11.3089565,7.0323478 10.6910435,7.0323478 10.0893913,7.17869563 L9.74791304,4.95095649 C10.1544348,4.86965214 10.5772174,4.82086953 11,4.82086953 Z M6.62582606,6.62582606 C7.24373911,6.00791301 7.99173911,5.52008692 8.78852173,5.22739127 L9.14626086,7.53643476 C8.8047826,7.71530433 8.49582607,7.9429565 8.21939129,8.21939129 C7.9429565,8.49582607 7.71530433,8.82104347 7.52017389,9.14626086 L5.2111304,8.78852173 C5.53634779,7.99173911 6.00791301,7.25999998 6.62582606,6.62582606 Z M4.82086953,11 C4.82086953,10.5772174 4.86965214,10.1544348 4.95095649,9.74791304 L7.17869563,10.0893913 C7.11365215,10.382087 7.06486954,10.6910435 7.06486954,11 C7.06486954,11.3089565 7.09739128,11.617913 7.17869563,11.9106087 L4.95095649,12.252087 C4.86965214,11.8455652 4.82086953,11.4227826 4.82086953,11 Z M5.22739127,13.2114783 L7.53643476,12.8537391 C7.71530433,13.1952174 7.9429565,13.5041739 8.23565216,13.7806087 C8.51208694,14.0570435 8.83730434,14.2846957 9.16252173,14.4798261 L8.8047826,16.7888696 C8.00799998,16.4799131 7.25999998,16.0083479 6.64208693,15.3904348 C6.00791301,14.74 5.53634779,14.0082609 5.22739127,13.2114783 Z M11,17.1791305 C10.5772174,17.1791305 10.1544348,17.1303479 9.74791304,17.0490435 L10.0893913,14.8213044 C10.382087,14.8863478 10.6910435,14.9351305 11,14.9351305 C11.3089565,14.9351305 11.617913,14.9026087 11.9106087,14.8213044 L12.252087,17.0490435 C11.8455652,17.1303479 11.4227826,17.1791305 11,17.1791305 Z M15.3741739,15.3741739 C14.7562609,15.992087 14.0082609,16.4799131 13.2114783,16.7726087 L12.8537391,14.4635652 C13.1952174,14.2846957 13.5041739,14.0570435 13.7806087,13.7643478 C14.0570435,13.4879131 14.3009565,13.1626957 14.4635652,12.8374783 L16.7726087,13.1952174 C16.4636522,14.0082609 15.992087,14.74 15.3741739,15.3741739 Z" id="help-1"></path>
    </defs>
    <g id="Switch-Account" stroke="none" stroke-width="1" fill="none" fill-rule="evenodd">
        <g id="09_Switch-Account" transform="translate(-1089.000000, -396.000000)">
            <g id="Popin_info" transform="translate(1073.000000, 65.000000)">
                <g id="Supprimer-Copy-2" transform="translate(12.000000, 328.000000)">
                    <g id="Icons/help" transform="translate(0.500000, 0.000000)">
                        <mask id="mask-help-2" fill="white">
                            <use xlink:href="#help-1"></use>
                        </mask>
                        <use id="help" fill="currentColor" fill-rule="nonzero" xlink:href="#help-1"></use>
                    </g>
                </g>
            </g>
        </g>
    </g>
</svg>
