<?xml version="1.0" encoding="UTF-8"?>
<svg width="15px" height="16px" viewBox="0 0 15 16" version="1.1" xmlns="http://www.w3.org/2000/svg" xmlns:xlink="http://www.w3.org/1999/xlink">
    <!-- Generator: Sketch 52.5 (67469) - http://www.bohemiancoding.com/sketch -->
    <defs>
        <path d="M17.6842554,11.5570213 C17.5251064,11.5570213 17.3659575,11.4933617 17.2386383,11.3819574 L11,5.28655316 L4.76136167,11.3819574 C4.50672337,11.6206809 4.10885102,11.6206809 3.85421272,11.3660426 C3.61548932,11.1114043 3.61548932,10.7135319 3.87012762,10.4588936 L10.554383,3.93378719 C10.8090213,3.69506379 11.1909787,3.69506379 11.445617,3.93378719 L18.1298724,10.4588936 C18.3845107,10.697617 18.3845107,11.1114043 18.1457873,11.3660426 C18.0184681,11.4933617 17.8434043,11.5570213 17.6842554,11.5570213 Z M16.2837447,17.7638298 L16.2837447,11.5411064 C16.2837447,11.1909787 15.9972766,10.9045106 15.647149,10.9045106 C15.2970213,10.9045106 15.0105532,11.1909787 15.0105532,11.5411064 L15.0105532,17.1272341 L13.0211915,17.1272341 L13.0211915,13.7214468 C13.0211915,13.2599149 12.6392341,12.8779575 12.1777021,12.8779575 L9.82229787,12.8779575 C9.36076595,12.8779575 8.9788085,13.2599149 8.9788085,13.7214468 L8.9788085,17.1272341 L6.98944678,17.1272341 L6.98944678,11.5411064 C6.98944678,11.1909787 6.7029787,10.9045106 6.35285104,10.9045106 C6.00272337,10.9045106 5.71625529,11.1909787 5.71625529,11.5411064 L5.71625529,17.7638298 C5.71625529,18.1139575 6.00272337,18.4004256 6.35285104,18.4004256 L9.61540425,18.4004256 C9.96553191,18.4004256 10.252,18.1139575 10.252,17.7638298 L10.252,14.151149 L11.7639149,14.151149 L11.7639149,17.7638298 C11.7639149,18.1139575 12.050383,18.4004256 12.4005106,18.4004256 L15.6630639,18.4004256 C16.0131915,18.4004256 16.2837447,18.1139575 16.2837447,17.7638298 Z" id="home-1"></path>
    </defs>
    <g id="Switch-Account" stroke="none" stroke-width="1" fill="none" fill-rule="evenodd">
        <g id="09_Switch-Account" transform="translate(-1089.000000, -170.000000)">
            <g id="Popin_info" transform="translate(1073.000000, 65.000000)">
                <g id="Download" transform="translate(12.000000, 101.000000)">
                    <g id="Icons/home" transform="translate(0.500000, 1.000000)">
                        <mask id="mask-home-2" fill="white">
                            <use xlink:href="#home-1"></use>
                        </mask>
                        <use id="home" fill="currentColor" fill-rule="nonzero" xlink:href="#home-1"></use>
                    </g>
                </g>
            </g>
        </g>
    </g>
</svg>
