<?xml version="1.0" encoding="UTF-8"?>
<svg width="25px" height="25px" viewBox="0 0 25 25" version="1.1" xmlns="http://www.w3.org/2000/svg" xmlns:xlink="http://www.w3.org/1999/xlink">
    <!-- Generator: Sketch 52.5 (67469) - http://www.bohemiancoding.com/sketch -->
    <defs>
        <path d="M12.001087,17.6369566 C11.8532609,17.6369566 11.7054348,17.5815218 11.5945652,17.4891305 C11.4097826,17.3413044 11.3173913,17.101087 11.3728261,16.8608696 L12.2782609,12.2413043 L11.7793478,12.5184783 C11.4652174,12.6847826 11.0771739,12.5923913 10.8923913,12.2782609 C10.7260869,11.9641304 10.8184783,11.576087 11.1326087,11.3913043 L12.851087,10.4119565 C13.0728261,10.2826087 13.35,10.3010869 13.5532609,10.448913 C13.7565217,10.5967391 13.8489131,10.8554348 13.8119565,11.0956522 L12.8695652,15.9 L13.6456522,15.5673913 C13.9782609,15.4195652 14.3478261,15.5673913 14.4956522,15.9 C14.6434783,16.2326087 14.4956522,16.6021739 14.1630435,16.75 L12.2597826,17.5815218 C12.1858696,17.6184783 12.0934783,17.6369566 12.001087,17.6369566 Z M13.8304348,8.8043478 C13.9967391,8.63804346 14.1076087,8.39782606 14.1076087,8.15760867 C14.1076087,7.91739128 14.0152174,7.67717388 13.8304348,7.51086954 C13.6641304,7.34456519 13.423913,7.23369562 13.1836957,7.23369562 C12.9434783,7.23369562 12.7032609,7.32608693 12.5369565,7.51086954 C12.3706522,7.67717388 12.2597826,7.91739128 12.2597826,8.15760867 C12.2597826,8.39782606 12.3521739,8.63804346 12.5369565,8.8043478 C12.7032609,8.97065215 12.9434783,9.08152172 13.1836957,9.08152172 C13.423913,9.08152172 13.6641304,8.98913041 13.8304348,8.8043478 Z M21.0000001,12.5 C21.0000001,7.80652171 17.1934783,3.99999995 12.5,3.99999995 C7.80652171,3.99999995 3.99999995,7.80652171 3.99999995,12.5 C3.99999995,17.1934783 7.80652171,21.0000001 12.5,21.0000001 C17.1934783,21.0000001 21.0000001,17.1934783 21.0000001,12.5 Z M19.5217392,12.5 C19.5217392,16.3804348 16.3804348,19.5217392 12.5,19.5217392 C8.61956519,19.5217392 5.47826083,16.3804348 5.47826083,12.5 C5.47826083,8.61956519 8.61956519,5.47826083 12.5,5.47826083 C16.3804348,5.47826083 19.5217392,8.61956519 19.5217392,12.5 Z" id="information-1"></path>
    </defs>
    <g id="Icons/information" stroke="none" stroke-width="1" fill="none" fill-rule="evenodd">
        <mask id="mask-information-2" fill="white">
            <use xlink:href="#information-1"></use>
        </mask>
        <use id="information" fill="currentColor" fill-rule="nonzero" xlink:href="#information-1"></use>
    </g>
</svg>
