<?xml version="1.0" encoding="UTF-8"?>
<svg width="13px" height="17px" viewBox="0 0 13 17" version="1.1" xmlns="http://www.w3.org/2000/svg" xmlns:xlink="http://www.w3.org/1999/xlink">
    <!-- Generator: Sketch 52.5 (67469) - http://www.bohemiancoding.com/sketch -->
    <title>lock</title>
    <desc>Created with Sketch.</desc>
    <defs>
        <path d="M17.4891305,10.0978261 L16.9347826,10.0978261 L16.9347826,8.82282607 C16.9347826,6.08804344 15.0869565,4.18478256 12.5,4.18478256 C9.91304346,4.18478256 8.06521737,6.08804344 8.06521737,8.82282607 L8.06521737,10.0978261 L7.51086954,10.0978261 C7.10434779,10.0978261 6.7717391,10.4304348 6.7717391,10.8369565 L6.7717391,20.076087 C6.7717391,20.4826087 7.10434779,20.8152174 7.51086954,20.8152174 L17.4891305,20.8152174 C17.8956522,20.8152174 18.2282609,20.4826087 18.2282609,20.076087 L18.2282609,10.8369565 C18.2282609,10.4304348 17.8956522,10.0978261 17.4891305,10.0978261 Z M9.54347824,8.82282607 C9.54347824,6.93804345 10.7630435,5.66304344 12.5,5.66304344 C14.2369565,5.66304344 15.4565218,6.93804345 15.4565218,8.82282607 L15.4565218,10.0978261 L9.54347824,10.0978261 L9.54347824,8.82282607 Z M16.75,19.3369566 L8.24999997,19.3369566 L8.24999997,11.576087 L16.75,11.576087 L16.75,19.3369566 Z" id="lock-1"></path>
    </defs>
    <g id="Symbols" stroke="none" stroke-width="1" fill="none" fill-rule="evenodd">
        <g id="Icons/lock" transform="translate(-6.000000, -4.000000)">
            <mask id="lock-2" fill="white">
                <use xlink:href="#lock-1"></use>
            </mask>
            <use id="lock" fill="currentColor" fill-rule="nonzero" xlink:href="#lock-1"></use>
        </g>
    </g>
</svg>
