<?xml version="1.0" encoding="UTF-8"?>
<svg width="16px" height="16px" viewBox="0 0 16 16" version="1.1" xmlns="http://www.w3.org/2000/svg" xmlns:xlink="http://www.w3.org/1999/xlink">
    <!-- Generator: Sketch 52.5 (67469) - http://www.bohemiancoding.com/sketch -->
    <title>Logo/Logo_mini</title>
    <desc>Created with Sketch.</desc>
    <defs>
        <path d="M7.76227253,15.207926 L6.74118567,15.5917211 C6.49459035,15.6844087 6.21660962,15.625322 6.02903303,15.4403484 L5.2523273,14.6744206 C5.13575452,14.5594655 4.98140833,14.4907461 4.8179776,14.4810357 L3.7290648,14.4163365 C3.46608933,14.4007115 3.236174,14.2336682 3.14004982,13.9883921 L2.7420247,12.9727676 C2.68228664,12.8203365 2.56923505,12.69478 2.42388325,12.6194357 L1.45542743,12.1174294 C1.22154266,11.9961934 1.07944717,11.7500768 1.09139616,11.4869087 L1.14087379,10.3971982 C1.1482997,10.2336477 1.09609037,10.0729639 0.993950139,9.94501367 L0.313406114,9.09250157 C0.14905284,8.88661753 0.119346793,8.60398337 0.237302854,8.36842742 L0.725728126,7.39305169 C0.799033996,7.2466613 0.816694387,7.0786339 0.7754267,6.92020135 L0.500466709,5.86459059 C0.434063107,5.60965766 0.52188295,5.33937597 0.725450411,5.17216196 L1.56837015,4.47977235 C1.69488073,4.37585425 1.7793572,4.22953672 1.80609762,4.06801629 L1.98426474,2.99183158 C2.0272926,2.73192998 2.21745348,2.52073492 2.47143368,2.45077566 L3.5230994,2.16109262 C3.68093987,2.11761521 3.81762566,2.01830716 3.90775053,1.88162722 L4.50823805,0.970950663 C4.65325746,0.751019741 4.91287884,0.635428855 5.17335629,0.674820944 L6.25192544,0.837933305 C6.41380374,0.862414212 6.57906465,0.827286921 6.71699055,0.739080665 L7.63596872,0.151376512 C7.85790451,0.00944432478 8.14209549,0.00944432478 8.36403128,0.151376512 L9.28300945,0.739080665 C9.42093535,0.827286921 9.58619626,0.862414212 9.74807456,0.837933305 L10.8266437,0.674820944 C11.0871212,0.635428855 11.3467425,0.751019741 11.4917619,0.970950663 L12.0922495,1.88162722 C12.1823743,2.01830716 12.3190601,2.11761521 12.4769006,2.16109262 L13.5285663,2.45077566 C13.7825465,2.52073492 13.9727074,2.73192998 14.0157353,2.99183158 L14.1939024,4.06801629 C14.2206428,4.22953672 14.3051193,4.37585425 14.4316299,4.47977235 L15.2745496,5.17216196 C15.478117,5.33937597 15.5659369,5.60965766 15.4995333,5.86459059 L15.2245733,6.92020135 C15.1833056,7.0786339 15.200966,7.2466613 15.2742719,7.39305169 L15.7626971,8.36842742 C15.8806532,8.60398337 15.8509472,8.88661753 15.6865939,9.09250157 L15.0060499,9.94501367 C14.9039096,10.0729639 14.8517003,10.2336477 14.8591262,10.3971982 L14.9086038,11.4869087 C14.9205528,11.7500768 14.7784573,11.9961934 14.5445726,12.1174294 L13.5761168,12.6194357 C13.4307649,12.69478 13.3177134,12.8203365 13.2579753,12.9727676 L12.8599502,13.9883921 C12.763826,14.2336682 12.5339107,14.4007115 12.2709352,14.4163365 L11.1820224,14.4810357 C11.0185917,14.4907461 10.8642455,14.5594655 10.7476727,14.6744206 L9.97096697,15.4403484 C9.78339038,15.625322 9.50540965,15.6844087 9.25881433,15.5917211 L8.23772747,15.207926 C8.08447647,15.1503236 7.91552353,15.1503236 7.76227253,15.207926 Z" id="logo-mini-1"></path>
        <linearGradient x1="3.43885477%" y1="50%" x2="98.1846098%" y2="50%" id="linearGradient-3">
            <stop stop-color="#51DAF3" offset="0%"></stop>
            <stop stop-color="#0053FA" offset="100%"></stop>
        </linearGradient>
        <path d="M5.68434189e-14,15.9827027 L5.68434189e-14,0 L15.9827027,0 L15.9827027,15.9827027 L5.68434189e-14,15.9827027 Z M7.33405405,8.63135135 L7.71459459,9.99783784 L6.86702703,9.04648649 L4.38486486,6.37405405 L2.66378378,7.50702703 L6.97945946,12.1513514 L13.4572973,6.14918919 L11.8659459,4.42810811 L7.33405405,8.63135135 Z" id="logo-mini-4"></path>
    </defs>
    <g id="Settings" stroke="none" stroke-width="1" fill="none" fill-rule="evenodd">
        <g id="06_06_New_Bank_Added" transform="translate(-440.000000, -293.000000)">
            <g id="CONTENT" transform="translate(417.000000, 109.000000)">
                <g id="LINE1" transform="translate(0.000000, 160.000000)">
                    <g id="Logo/Logo_mini" transform="translate(23.000000, 24.000000)">
                        <g id="Logo/Main_Logo">
                            <mask id="logo-mini-2" fill="white">
                                <use xlink:href="#logo-mini-1"></use>
                            </mask>
                            <use id="Star" fill="#FFFFFF" fill-rule="nonzero" xlink:href="#logo-mini-1"></use>
                            <g mask="url(#logo-mini-2)">
                                <mask id="logo-mini-5" fill="white">
                                    <use xlink:href="#logo-mini-4"></use>
                                </mask>
                                <use id="Mask" fill="url(#linearGradient-3)" fill-rule="nonzero" xlink:href="#logo-mini-4"></use>
                            </g>
                        </g>
                    </g>
                </g>
            </g>
        </g>
    </g>
</svg>
