<?xml version="1.0" encoding="UTF-8"?>
<svg width="15px" height="15px" viewBox="0 0 15 15" version="1.1" xmlns="http://www.w3.org/2000/svg" xmlns:xlink="http://www.w3.org/1999/xlink">
    <!-- Generator: Sketch 52.5 (67469) - http://www.bohemiancoding.com/sketch -->
    <title>menu</title>
    <desc>Created with Sketch.</desc>
    <defs>
        <path d="M18.4130435,8.34239128 L6.58695649,8.34239128 C5.92173909,8.34239128 5.38586952,7.80652171 5.38586952,7.14130432 C5.38586952,6.47608692 5.92173909,5.94021735 6.58695649,5.94021735 L18.4130435,5.94021735 C19.0782609,5.94021735 19.6141305,6.47608692 19.6141305,7.14130432 C19.6141305,7.80652171 19.0782609,8.34239128 18.4130435,8.34239128 Z M19.6141305,12.5 C19.6141305,11.8347826 19.0782609,11.298913 18.4130435,11.298913 L6.58695649,11.298913 C5.92173909,11.298913 5.38586952,11.8347826 5.38586952,12.5 C5.38586952,13.1652174 5.92173909,13.701087 6.58695649,13.701087 L18.4130435,13.701087 C19.0782609,13.701087 19.6141305,13.1652174 19.6141305,12.5 Z M19.6141305,17.8586957 C19.6141305,17.1934783 19.0782609,16.6576087 18.4130435,16.6576087 L6.58695649,16.6576087 C5.92173909,16.6576087 5.38586952,17.1934783 5.38586952,17.8586957 C5.38586952,18.5239131 5.92173909,19.0597826 6.58695649,19.0597826 L18.4130435,19.0597826 C19.0782609,19.0597826 19.6141305,18.5239131 19.6141305,17.8586957 Z" id="menu-1"></path>
    </defs>
    <g id="Symbols" stroke="none" stroke-width="1" fill="none" fill-rule="evenodd">
        <g id="Icons/menu" transform="translate(-5.000000, -5.000000)">
            <mask id="menu-2" fill="white">
                <use xlink:href="#menu-1"></use>
            </mask>
            <use id="menu" fill="currentColor" fill-rule="nonzero" xlink:href="#menu-1"></use>
        </g>
    </g>
</svg>