<?xml version="1.0" encoding="UTF-8"?>
<svg width="17px" height="17px" viewBox="0 0 17 17" version="1.1" xmlns="http://www.w3.org/2000/svg" xmlns:xlink="http://www.w3.org/1999/xlink">
    <!-- Generator: Sketch 52.5 (67469) - http://www.bohemiancoding.com/sketch -->
    <defs>
        <path d="M19.3369566,17.0456522 L19.3369566,13.0543478 C19.3369566,11.9271739 18.5423913,11.0217391 17.4152174,11.0217391 L13.2391304,11.0217391 L13.2391304,7.97282606 C13.2391304,7.97282606 13.2391304,7.9543478 13.2391304,7.9543478 C13.9597826,7.65869562 14.4586957,6.95652171 14.4586957,6.14347822 C14.4586957,5.07173909 13.5902174,4.18478256 12.5,4.18478256 C11.4097826,4.18478256 10.5413043,5.07173909 10.5413043,6.14347822 C10.5413043,6.95652171 11.0586956,7.65869562 11.7608696,7.9543478 C11.7608696,7.9543478 11.7608696,7.97282606 11.7608696,7.97282606 L11.7608696,11.0217391 L7.58478258,11.0217391 C6.45760866,11.0217391 5.66304344,11.9456522 5.66304344,13.0543478 L5.66304344,17.0456522 C4.923913,17.3413044 4.38804343,18.0434783 4.38804343,18.8565218 C4.38804343,19.9282609 5.23804344,20.8152174 6.30978257,20.8152174 C7.38152171,20.8152174 8.30543476,19.9282609 8.30543476,18.8565218 C8.30543476,18.0434783 7.67717388,17.3413044 7.12282606,17.0456522 L7.12282606,13.0543478 C7.12282606,12.7402174 7.27065214,12.5 7.56630432,12.5 L11.7608696,12.5 L11.7608696,17.0456522 C11.0217391,17.3413044 10.5413043,18.0434783 10.5413043,18.8565218 C10.5413043,19.9282609 11.4097826,20.8152174 12.5,20.8152174 C13.5902174,20.8152174 14.4586957,19.9282609 14.4586957,18.8565218 C14.4586957,18.0434783 13.9782609,17.3413044 13.2391304,17.0456522 L13.2391304,12.5 L17.4152174,12.5 C17.7293479,12.5 17.8586957,12.7586957 17.8586957,13.0543478 L17.8586957,17.0456522 C17.3043479,17.3413044 16.6945652,18.0434783 16.6945652,18.8565218 C16.6945652,19.9282609 17.6,20.8152174 18.6902174,20.8152174 C19.7804348,20.8152174 20.6119566,19.9282609 20.6119566,18.8565218 C20.6119566,18.0434783 20.076087,17.3413044 19.3369566,17.0456522 Z M12.5,5.29347822 C12.9619565,5.29347822 13.35,5.6815217 13.35,6.14347822 C13.35,6.60543475 12.9619565,6.99347823 12.5,6.99347823 C12.0380435,6.99347823 11.65,6.60543475 11.65,6.14347822 C11.65,5.6815217 12.0380435,5.29347822 12.5,5.29347822 Z M6.29130431,19.7065218 C5.82934779,19.7065218 5.44130431,19.3184783 5.44130431,18.8565218 C5.44130431,18.3945653 5.82934779,18.0065218 6.29130431,18.0065218 C6.75326084,18.0065218 7.14130432,18.3945653 7.14130432,18.8565218 C7.14130432,19.3184783 6.75326084,19.7065218 6.29130431,19.7065218 Z M12.5,19.7065218 C12.0380435,19.7065218 11.65,19.3184783 11.65,18.8565218 C11.65,18.3945653 12.0380435,18.0065218 12.5,18.0065218 C12.9619565,18.0065218 13.35,18.3945653 13.35,18.8565218 C13.35,19.3184783 12.9619565,19.7065218 12.5,19.7065218 Z M18.7086957,19.7065218 C18.2467392,19.7065218 17.8586957,19.3184783 17.8586957,18.8565218 C17.8586957,18.3945653 18.2467392,18.0065218 18.7086957,18.0065218 C19.1706522,18.0065218 19.5586957,18.3945653 19.5586957,18.8565218 C19.5586957,19.3184783 19.1706522,19.7065218 18.7086957,19.7065218 Z" id="network-1"></path>
    </defs>
    <g id="Symbols" stroke="none" stroke-width="1" fill="none" fill-rule="evenodd">
        <g id="Icons/network-3" transform="translate(-4.000000, -4.000000)">
            <mask id="mask-network-2" fill="white">
                <use xlink:href="#network-1"></use>
            </mask>
            <use id="network-3" fill="currentColor" fill-rule="nonzero" xlink:href="#network-1"></use>
        </g>
    </g>
</svg>
