<?xml version="1.0" encoding="UTF-8"?>
<svg width="13px" height="17px" viewBox="0 0 13 17" version="1.1" xmlns="http://www.w3.org/2000/svg" xmlns:xlink="http://www.w3.org/1999/xlink">
    <!-- Generator: Sketch 52.5 (67469) - http://www.bohemiancoding.com/sketch -->
    <title>paper</title>
    <desc>Created with Sketch.</desc>
    <defs>
        <path d="M18.0434783,4.36956517 L6.95652171,4.36956517 C6.54999996,4.36956517 6.21739127,4.70217387 6.21739127,5.10869561 L6.21739127,19.8913044 C6.21739127,20.2978261 6.54999996,20.6304348 6.95652171,20.6304348 L18.0434783,20.6304348 C18.45,20.6304348 18.7826087,20.2978261 18.7826087,19.8913044 L18.7826087,5.10869561 C18.7826087,4.70217387 18.45,4.36956517 18.0434783,4.36956517 Z M17.3043479,19.152174 L7.69565215,19.152174 L7.69565215,5.84782605 L17.3043479,5.84782605 L17.3043479,19.152174 Z M9.26630433,16.0108696 C9.26630433,15.6043478 9.59891303,15.2717391 10.0054348,15.2717391 L14.9945652,15.2717391 C15.401087,15.2717391 15.7336957,15.6043478 15.7336957,16.0108696 C15.7336957,16.4173913 15.401087,16.75 14.9945652,16.75 L10.0054348,16.75 C9.59891303,16.75 9.26630433,16.4173913 9.26630433,16.0108696 Z M9.37717389,12.5 C9.37717389,12.0934783 9.70978259,11.7608696 10.1163043,11.7608696 L14.976087,11.7608696 C15.3826087,11.7608696 15.7152174,12.0934783 15.7152174,12.5 C15.7152174,12.9065217 15.3826087,13.2391304 14.976087,13.2391304 L10.1163043,13.2391304 C9.70978259,13.2391304 9.37717389,12.9065217 9.37717389,12.5 Z M9.37717389,8.98913041 C9.37717389,8.58260867 9.70978259,8.24999997 10.1163043,8.24999997 L14.976087,8.24999997 C15.3826087,8.24999997 15.7152174,8.58260867 15.7152174,8.98913041 C15.7152174,9.39565216 15.3826087,9.72826085 14.976087,9.72826085 L10.1163043,9.72826085 C9.70978259,9.72826085 9.37717389,9.39565216 9.37717389,8.98913041 Z" id="paper-1"></path>
    </defs>
    <g id="Symbols" stroke="none" stroke-width="1" fill="none" fill-rule="evenodd">
        <g id="Icons/paper" transform="translate(-6.000000, -4.000000)">
            <mask id="paper-2" fill="white">
                <use xlink:href="#paper-1"></use>
            </mask>
            <use id="paper" fill="currentColor" fill-rule="nonzero" xlink:href="#paper-1"></use>
        </g>
    </g>
</svg>