<?xml version="1.0" encoding="UTF-8"?>
<svg width="17px" height="17px" viewBox="0 0 17 17" version="1.1" xmlns="http://www.w3.org/2000/svg" xmlns:xlink="http://www.w3.org/1999/xlink">
    <!-- Generator: Sketch 52.5 (67469) - http://www.bohemiancoding.com/sketch -->
    <title>pencil</title>
    <desc>Created with Sketch.</desc>
    <defs>
        <path d="M20.2870968,6.20645157 L19.7021506,5.62150533 C19.3548387,5.2741935 18.9161291,5.0913978 18.4225807,5.0913978 C18.4225807,5.0913978 18.4225807,5.0913978 18.4225807,5.0913978 C17.9290323,5.0913978 17.4903226,5.2741935 17.1430108,5.62150533 L5.59032254,17.1924731 C5.51720426,17.2655914 5.46236555,17.3387097 5.42580641,17.4483871 L4.05483866,20.9032258 C3.94516124,21.1774194 3.99999995,21.4881721 4.21935479,21.6892474 C4.34731178,21.8354839 4.54838705,21.9086022 4.73118275,21.9086022 C4.8225806,21.9086022 4.91397845,21.8903226 5.0053763,21.8537635 L8.4784946,20.5010753 C8.56989245,20.4645162 8.6612903,20.4096775 8.73440858,20.3365592 L20.3053764,8.76559137 C21,8.07096771 21,6.9193548 20.2870968,6.20645157 Z M6.70537631,18.1978495 L7.72903223,19.2215054 L6.02903222,19.8795699 L6.70537631,18.1978495 Z M19.2451613,7.74193545 L9.15483869,17.8322581 L8.09462363,16.772043 L18.1666667,6.66344082 C18.2580646,6.57204297 18.367742,6.5537634 18.4225807,6.5537634 C18.4774194,6.5537634 18.5870968,6.57204297 18.6784947,6.66344082 L19.2634409,7.24838706 C19.3913979,7.37634405 19.3913979,7.59569889 19.2451613,7.74193545 Z" id="pencil-1"></path>
    </defs>
    <g id="Symbols" stroke="none" stroke-width="1" fill="none" fill-rule="evenodd">
        <g id="Icons/pencil" transform="translate(-4.000000, -5.000000)">
            <mask id="pencil-2" fill="white">
                <use xlink:href="#pencil-1"></use>
            </mask>
            <use id="pencil" fill="currentColor" fill-rule="nonzero" xlink:href="#pencil-1"></use>
        </g>
    </g>
</svg>
