<?xml version="1.0" encoding="UTF-8"?>
<svg width="11px" height="11px" viewBox="0 0 11 11" version="1.1" xmlns="http://www.w3.org/2000/svg" xmlns:xlink="http://www.w3.org/1999/xlink">
    <!-- Generator: Sketch 52.5 (67469) - http://www.bohemiancoding.com/sketch -->
    <defs>
        <path d="M17.3967392,12.5923913 C17.3967392,13.0543478 17.0271739,13.423913 16.5652174,13.423913 L13.2391304,13.423913 L13.2391304,16.5652174 C13.2391304,17.0271739 12.8695652,17.3967392 12.4076087,17.3967392 C11.9456522,17.3967392 11.576087,17.0271739 11.576087,16.5652174 L11.576087,13.423913 L8.43478258,13.423913 C7.97282606,13.423913 7.60326084,13.0543478 7.60326084,12.5923913 C7.60326084,12.1304348 7.97282606,11.7608696 8.43478258,11.7608696 L11.576087,11.7608696 L11.576087,8.43478258 C11.576087,7.97282606 11.9456522,7.60326084 12.4076087,7.60326084 C12.8695652,7.60326084 13.2391304,7.97282606 13.2391304,8.43478258 L13.2391304,11.7608696 L16.5652174,11.7608696 C17.0271739,11.7608696 17.3967392,12.1304348 17.3967392,12.5923913 Z" id="plus-1"></path>
    </defs>
    <g id="Symbols" stroke="none" stroke-width="1" fill="none" fill-rule="evenodd">
        <g id="Icons/plus" transform="translate(-7.000000, -7.000000)">
            <mask id="mask-plus-2" fill="white">
                <use xlink:href="#plus-1"></use>
            </mask>
            <use id="plus" fill="currentColor" fill-rule="nonzero" xlink:href="#plus-1"></use>
        </g>
    </g>
</svg>
