<?xml version="1.0" encoding="UTF-8"?>
<svg width="15px" height="14px" viewBox="0 0 15 14" version="1.1" xmlns="http://www.w3.org/2000/svg" xmlns:xlink="http://www.w3.org/1999/xlink">
    <!-- Generator: Sketch 52.5 (67469) - http://www.bohemiancoding.com/sketch -->
    <defs>
        <path d="M11,12.8049565 C13.4066087,12.8049565 15.3741739,10.8373913 15.3741739,8.41452172 C15.3741739,5.97539127 13.4066087,4.00782605 11,4.00782605 C8.59339129,4.00782605 6.62582606,5.97539127 6.62582606,8.39826085 C6.62582606,10.8373913 8.59339129,12.8049565 11,12.8049565 Z M11,5.30869562 C12.6911304,5.30869562 14.0733044,6.69086954 14.0733044,8.39826085 C14.0733044,10.1056522 12.6911304,11.4878261 11,11.4878261 C9.30886956,11.4878261 7.92669563,10.1056522 7.92669563,8.39826085 C7.92669563,6.69086954 9.30886956,5.30869562 11,5.30869562 Z M13.0326087,13.2277391 C12.8212174,13.1626957 12.5773044,13.2114783 12.4146957,13.3578261 L11,14.5611305 L9.58530434,13.3578261 C9.40643477,13.2114783 9.1787826,13.1626957 8.96739129,13.2277391 C8.05678259,13.5204348 3.51999996,15.0814783 3.51999996,17.3417392 C3.51999996,17.6994783 3.81269561,17.992174 4.17043474,17.992174 L17.8295653,17.992174 C18.1873044,17.992174 18.48,17.6994783 18.48,17.3417392 C18.48,15.0814783 13.9432174,13.5204348 13.0326087,13.2277391 Z M5.16234779,16.6913044 C5.87782606,15.9270435 7.60147824,15.0814783 9.03243477,14.5936522 L10.5772174,15.9107826 C10.8211304,16.1221739 11.1788696,16.1221739 11.4227826,15.9107826 L12.9675652,14.5936522 C14.3985218,15.0977392 16.1221739,15.9433044 16.8376522,16.6913044 L5.16234779,16.6913044 Z" id="profile-1"></path>
    </defs>
    <g id="Switch-Account" stroke="none" stroke-width="1" fill="none" fill-rule="evenodd">
        <g id="09_Switch-Account" transform="translate(-1089.000000, -137.000000)">
            <g id="Popin_info" transform="translate(1073.000000, 65.000000)">
                <g id="Modifier" transform="translate(12.000000, 66.000000)">
                    <g id="Icons/user" transform="translate(0.500000, 2.000000)">
                        <mask id="mask-profile-2" fill="white">
                            <use xlink:href="#profile-1"></use>
                        </mask>
                        <use id="user" fill="currentColor" fill-rule="nonzero" xlink:href="#profile-1"></use>
                    </g>
                </g>
            </g>
        </g>
    </g>
</svg>
