<?xml version="1.0" encoding="UTF-8"?>
<svg width="14px" height="12px" viewBox="0 0 14 12" version="1.1" xmlns="http://www.w3.org/2000/svg" xmlns:xlink="http://www.w3.org/1999/xlink">
    <!-- Generator: Sketch 52.5 (67469) - http://www.bohemiancoding.com/sketch -->
    <defs>
        <path d="M16.799999,11.6260863 C16.799999,11.9513036 16.5339121,12.2173906 16.2086947,12.2173906 L13.4295644,12.2173906 C13.1782601,12.2173906 12.956521,12.0843471 12.8678253,11.8330428 L12.4243471,10.5913037 L10.9756515,15.4843469 C10.9017385,15.7356513 10.6652168,15.9130426 10.4139124,15.9130426 C10.4139124,15.9130426 10.3991298,15.9130426 10.3991298,15.9130426 C10.1330429,15.89826 9.89652115,15.7208687 9.83739072,15.4547817 L7.9304343,7.1913039 L6.77739088,11.788695 C6.71826045,12.0547819 6.48173872,12.2173906 6.20086917,12.2173906 L3.79130409,12.2173906 C3.46608671,12.2173906 3.19999977,11.9513036 3.19999977,11.6260863 C3.19999977,11.3008689 3.46608671,11.034782 3.79130409,11.034782 L5.74260833,11.034782 L7.38347781,4.51565187 C7.44260824,4.24956493 7.69391257,4.08695624 7.95999951,4.08695624 C8.22608646,4.08695624 8.46260818,4.27913015 8.53652122,4.54521709 L10.4878255,13.0008688 L11.8182602,8.50695601 C11.8921732,8.25565167 12.1139123,8.07826038 12.3652167,8.07826038 C12.616521,8.06347777 12.8530427,8.22608646 12.9417384,8.46260818 L13.8434775,11.034782 L16.2086947,11.034782 C16.5339121,11.034782 16.799999,11.3008689 16.799999,11.6260863 Z" id="pulse-1"></path>
    </defs>
    <g id="Symbols" stroke="none" stroke-width="1" fill="none" fill-rule="evenodd">
        <g id="Molecules/MenuItem" transform="translate(-7.000000, -7.000000)">
            <g id="Icons/pulse" transform="translate(4.000000, 3.000000)">
                <mask id="mask-pulse-2" fill="white">
                    <use xlink:href="#pulse-1"></use>
                </mask>
                <use id="pulse" fill="currentColor" fill-rule="nonzero" xlink:href="#pulse-1"></use>
            </g>
        </g>
    </g>
</svg>
