<?xml version="1.0" encoding="UTF-8"?>
<svg width="17px" height="17px" viewBox="0 0 17 17" version="1.1" xmlns="http://www.w3.org/2000/svg" xmlns:xlink="http://www.w3.org/1999/xlink">
    <!-- Generator: Sketch 52.5 (67469) - http://www.bohemiancoding.com/sketch -->
    <title>rocket</title>
    <desc>Created with Sketch.</desc>
    <defs>
        <path d="M20.9451613,4.89569888 C20.9086022,4.53010748 20.6344086,4.25591393 20.2688172,4.21935479 C15.644086,3.85376339 12.3354839,6.1021505 10.2698925,8.91720428 C9.13655912,8.55161288 7.91182793,8.67956987 6.79677416,9.30107525 C5.71827953,9.90430106 4.8225806,10.927957 4.23763436,12.1709677 C4.10967737,12.4634409 4.16451608,12.7924731 4.40215049,13.011828 C4.62150533,13.2311828 4.96881716,13.2677419 5.24301071,13.1215054 C6.41290319,12.5 7.72903223,12.627957 8.51505374,13.4139785 L11.7322581,16.6311828 C11.7322581,16.6311828 11.7505376,16.6494624 11.7505376,16.6494624 C12.5365591,17.4354839 12.6645161,18.7516129 12.0430107,19.9215054 C11.8967742,20.195699 11.9516129,20.5430108 12.1526882,20.7623656 C12.2989247,20.9086022 12.4817204,20.9817205 12.6827957,20.9817205 C12.7924731,20.9817205 12.9021505,20.9634409 12.9935484,20.9086022 C14.2365591,20.323656 15.2602151,19.4096775 15.8634409,18.3494624 C16.5032258,17.2344086 16.6311828,16.0096774 16.2473118,14.8580645 C17.0698925,14.2548387 17.8193549,13.5967742 18.4408602,12.8655914 C20.3784947,10.6537634 21.2193549,7.96666664 20.9451613,4.89569888 Z M6.63225803,11.2752688 C7.41827954,10.5075269 8.40537632,10.032258 9.44731181,10.2150537 C9.15483869,10.7268817 8.91720428,11.2387097 8.69784944,11.7505376 C8.07634406,11.4032258 7.36344083,11.2387097 6.63225803,11.2752688 Z M13.9258065,18.5505377 C13.944086,17.8010753 13.7795699,17.0881721 13.4505376,16.4666667 C13.9806452,16.2473118 14.4924731,15.9913979 14.9860215,15.7172043 C15.1688172,16.7591398 14.711828,17.7645162 13.9258065,18.5505377 Z M12.4634409,15.2784946 L9.88602149,12.7010753 C11.183871,9.24623654 14.4010753,5.5537634 19.5376345,5.64516125 C19.7021506,11.7688172 14.6569893,14.4193548 12.4634409,15.2784946 Z M17.1978495,7.98494621 C17.4172043,8.20430105 17.5451613,8.51505374 17.5451613,8.82580643 C17.5451613,9.13655912 17.4172043,9.44731181 17.1978495,9.66666665 C16.9784946,9.88602149 16.667742,10.0139785 16.3569893,10.0139785 C16.0462366,10.0139785 15.7354839,9.90430106 15.516129,9.66666665 C15.2967742,9.42903224 15.1688172,9.13655912 15.1688172,8.82580643 C15.1688172,8.51505374 15.2967742,8.20430105 15.516129,7.98494621 C15.7354839,7.76559137 16.0462366,7.63763438 16.3569893,7.63763438 C16.667742,7.63763438 16.9784946,7.76559137 17.1978495,7.98494621 Z M6.90645158,15.5892473 C6.06559136,16.4301075 6.02903222,18.111828 6.02903222,18.4408603 C6.02903222,18.8430108 6.35806448,19.172043 6.76021502,19.172043 C6.76021502,19.172043 6.77849459,19.172043 6.77849459,19.172043 C7.16236556,19.172043 8.77096772,19.1172043 9.59354837,18.2946237 C10.1053763,17.7827957 10.2150537,17.2526882 10.2150537,16.9053764 C10.2150537,16.411828 10.0139785,15.9365592 9.63010751,15.5526882 C8.71612901,14.6204301 7.5645161,14.9129032 6.90645158,15.5892473 Z M8.56989245,17.2526882 C8.38709675,17.4354839 7.98494621,17.5634409 7.5645161,17.6182796 C7.63763438,17.1978495 7.76559137,16.795699 7.9301075,16.6311828 C8.05806449,16.5032258 8.16774191,16.4301076 8.2956989,16.4301076 C8.38709675,16.4301076 8.49677417,16.4849463 8.60645159,16.5946237 C8.71612901,16.7043011 8.77096772,16.8139785 8.77096772,16.9053764 C8.75268815,17.0150538 8.6612903,17.1612904 8.56989245,17.2526882 Z" id="rocket-1"></path>
    </defs>
    <g id="Symbols" stroke="none" stroke-width="1" fill="none" fill-rule="evenodd">
        <g id="Icons/rocket" transform="translate(-4.000000, -4.000000)">
            <mask id="rocket-2" fill="white">
                <use xlink:href="#rocket-1"></use>
            </mask>
            <use id="rocket" fill="currentColor" fill-rule="nonzero" xlink:href="#rocket-1"></use>
        </g>
    </g>
</svg>
