<?xml version="1.0" encoding="UTF-8"?>
<svg width="17px" height="17px" viewBox="0 0 17 17" version="1.1" xmlns="http://www.w3.org/2000/svg" xmlns:xlink="http://www.w3.org/1999/xlink">
    <!-- Generator: Sketch 52.5 (67469) - http://www.bohemiancoding.com/sketch -->
    <defs>
        <path d="M14.6804348,4.40652169 C11.5206522,4.40652169 8.95217389,7.01195649 8.95217389,10.1902174 C8.95217389,11.5391304 9.41413042,12.7586957 10.1717391,13.7565217 L4.73913039,19.2630435 C4.42499995,19.5956522 4.42499995,20.1130435 4.73913039,20.427174 C4.90543474,20.5934783 5.10869561,20.6673914 5.31195648,20.6673914 C5.53369561,20.6673914 5.73695648,20.5934783 5.90326083,20.427174 L11.3358696,14.9206522 C12.2782609,15.6043478 13.423913,15.9923913 14.6619565,15.9923913 C17.8217392,15.9923913 20.3902174,13.3869565 20.3902174,10.2086956 C20.3902174,7.03043475 17.8402174,4.40652169 14.6804348,4.40652169 Z M14.6804348,14.5326087 C12.3336957,14.5326087 10.4304348,12.5923913 10.4304348,10.2086956 C10.4304348,7.82499997 12.3336957,5.88478257 14.6804348,5.88478257 C17.0271739,5.88478257 18.9304348,7.82499997 18.9304348,10.2086956 C18.9304348,12.5923913 17.0271739,14.5326087 14.6804348,14.5326087 Z M17.5445652,10.2826087 C17.5076087,10.5967391 17.2304348,10.8369565 16.9163044,10.8369565 C16.8793479,10.8369565 16.8608696,10.8369565 16.8239131,10.8369565 C16.4728261,10.7815217 16.2326087,10.4673913 16.2695652,10.1163043 C16.3989131,9.15543476 15.3271739,8.65652172 15.2717391,8.63804346 C14.9576087,8.49021737 14.8097826,8.10217389 14.9576087,7.78804345 C15.1054348,7.47391301 15.475,7.32608693 15.8076087,7.45543475 C15.8815218,7.47391301 17.8032609,8.36086954 17.5445652,10.2826087 Z M16.1956522,11.6869565 C16.325,11.8163043 16.4173913,12.0195652 16.4173913,12.2043478 C16.4173913,12.4076087 16.3434783,12.5923913 16.1956522,12.7217391 C16.0663044,12.851087 15.8630435,12.9434783 15.6782609,12.9434783 C15.4934783,12.9434783 15.2902174,12.8695652 15.1608696,12.7217391 C15.0315218,12.5923913 14.9391304,12.3891304 14.9391304,12.2043478 C14.9391304,12.0195652 15.0130435,11.8163043 15.1608696,11.6869565 C15.2902174,11.5576087 15.4934783,11.4652174 15.6782609,11.4652174 C15.8630435,11.4652174 16.0478261,11.5391304 16.1956522,11.6869565 Z" id="search-1"></path>
    </defs>
    <g id="Mon-réseau" stroke="none" stroke-width="1" fill="none" fill-rule="evenodd">
        <g id="05_01_Mon-réseau_Add_Company" transform="translate(-459.000000, -159.000000)">
            <g id="Popin" transform="translate(440.000000, 139.000000)">
                <g id="Icons/search" transform="translate(15.000000, 16.000000)">
                    <mask id="mask-search-2" fill="white">
                        <use xlink:href="#search-1"></use>
                    </mask>
                    <use id="search" fill="currentColor" fill-rule="nonzero" xlink:href="#search-1"></use>
                </g>
            </g>
        </g>
    </g>
</svg>
