<?xml version="1.0" encoding="UTF-8"?>
<svg width="23px" height="17px" viewBox="0 0 23 17" version="1.1" xmlns="http://www.w3.org/2000/svg" xmlns:xlink="http://www.w3.org/1999/xlink">
    <!-- Generator: Sketch 52.5 (67469) - http://www.bohemiancoding.com/sketch -->
    <defs>
        <path d="M13.0869566,15.3152174 L14.5652175,15.3152174 L14.5652175,19.5217392 C14.5652175,19.928261 14.2326088,20.2608697 13.826087,20.2608697 L2.73913044,20.2608697 C2.3326087,20.2608697 2,19.928261 2,19.5217392 L2,4.73913044 C2,4.3326087 2.3326087,4 2.73913044,4 L13.826087,4 C14.2326088,4 14.5652175,4.3326087 14.5652175,4.73913044 L14.5652175,8.31521742 L13.0869566,8.31521742 L13.0869566,5.47826088 L3.47826088,5.47826088 L3.47826088,18.7826088 L13.0869566,18.7826088 L13.0869566,15.3152174 Z M5.23369567,13.8858696 C5.23369567,13.5347827 5.52934785,13.2391305 5.88043481,13.2391305 L8.0608696,13.2391305 C8.41195656,13.2391305 8.70760874,13.5347827 8.70760874,13.8858696 C8.70760874,14.2369566 8.41195656,14.5326088 8.0608696,14.5326088 L5.88043481,14.5326088 C5.51086959,14.5326088 5.23369567,14.2369566 5.23369567,13.8858696 Z M5.32608698,10.9293479 C5.32608698,10.5782609 5.62173915,10.2826087 5.97282611,10.2826087 L10.3706522,10.2826087 C10.7217392,10.2826087 11.0173914,10.5782609 11.0173914,10.9293479 C11.0173914,11.2804348 10.7402174,11.576087 10.3706522,11.576087 L5.97282611,11.576087 C5.62173915,11.576087 5.32608698,11.2804348 5.32608698,10.9293479 Z M5.32608698,8.15760872 C5.32608698,7.80652176 5.62173915,7.51086959 5.97282611,7.51086959 L10.3706522,7.51086959 C10.7217392,7.51086959 11.0173914,7.80652176 11.0173914,8.15760872 C11.0173914,8.50869568 10.7402174,8.80434785 10.3706522,8.80434785 L5.97282611,8.80434785 C5.62173915,8.80434785 5.32608698,8.50869568 5.32608698,8.15760872 Z M10.8141305,13.4793479 C10.9250001,13.5902174 10.9989131,13.7565218 10.9989131,13.9413044 C10.9989131,14.1076088 10.9250001,14.2739131 10.8141305,14.4032609 C10.7032609,14.5326088 10.5184783,14.5880435 10.352174,14.5880435 C10.1858696,14.5880435 10.0195653,14.5141305 9.89021744,14.4032609 C9.76086961,14.2923914 9.70543483,14.126087 9.70543483,13.9413044 C9.70543483,13.7750001 9.77934787,13.6086957 9.89021744,13.4793479 C10.1304348,13.2391305 10.5739131,13.2391305 10.8141305,13.4793479 Z M24.3241159,12.2558729 L20.2215693,16.3748956 C20.0897606,16.5067044 19.9249996,16.5726087 19.7602387,16.5726087 C19.5954778,16.5726087 19.4307169,16.5067044 19.2989082,16.3748956 C19.0352907,16.1112782 19.0352907,15.6993759 19.2989082,15.4357585 L22.2810806,12.453586 L12.6590436,12.453586 C12.2965696,12.453586 12,12.1570164 12,11.7945424 C12,11.4320684 12.2965696,11.1354988 12.6590436,11.1354988 L22.2810806,11.1354988 L19.2824321,8.13685026 C19.0188147,7.87323281 19.0188147,7.46133054 19.2824321,7.19771309 C19.5460496,6.93409564 19.9579518,6.93409564 20.2215693,7.19771309 L24.3241159,11.3167358 C24.5877333,11.5803532 24.5877333,12.0087316 24.3241159,12.2558729 Z" id="sell-1"></path>
    </defs>
    <g id="Symbols" stroke="none" stroke-width="1" fill="none" fill-rule="evenodd">
        <g id="Icons/Factures_émises" transform="translate(-2.000000, -4.000000)">
            <mask id="mask-sell-2" fill="white">
                <use xlink:href="#sell-1"></use>
            </mask>
            <use id="Combined-Shape" fill="currentColor" fill-rule="nonzero" xlink:href="#sell-1"></use>
        </g>
    </g>
</svg>
