<?xml version="1.0" encoding="UTF-8"?>
<svg preserveAspectRatio="xMinYMin meet" width="12px" height="10px" viewBox="0 0 12 10" version="1.1" xmlns="http://www.w3.org/2000/svg" xmlns:xlink="http://www.w3.org/1999/xlink">
    <!-- Generator: Sketch 52.5 (67469) - http://www.bohemiancoding.com/sketch -->
    <defs>
        <path d="M5.63391301,15.7156522 C5.5851304,15.7156522 5.52008692,15.7156522 5.47130432,15.6993913 C5.17860866,15.618087 4.98347823,15.3741739 4.98347823,15.0652174 C4.98347823,14.9676522 4.9997391,12.4797391 6.85347824,10.626 C8.04052172,9.43895651 9.66660869,8.78852173 11.7154783,8.67469564 L11.7154783,6.93478258 C11.7154783,6.67460867 11.878087,6.43069563 12.122,6.33313041 C12.3659131,6.23556519 12.6423478,6.2843478 12.8374783,6.47947823 L16.8376522,10.5446956 C17.0815653,10.8048696 17.0815653,11.2113913 16.8376522,11.4553044 L12.8374783,15.5205218 C12.6586087,15.7156522 12.3659131,15.7644348 12.122,15.6668696 C11.878087,15.5693044 11.7154783,15.3253913 11.7154783,15.0652174 L11.7154783,13.3090435 C10.4146087,13.2765218 7.32504346,13.4066087 6.20304345,15.3904348 C6.08921736,15.5855652 5.86156519,15.7156522 5.63391301,15.7156522 Z M11.3577391,11.991913 C11.9593913,11.991913 12.3821739,12.0406957 12.4309565,12.0406957 C12.7561739,12.0732174 13.0163478,12.3496522 13.0163478,12.6911304 L13.0163478,13.4716522 L15.4554783,11 L13.0163478,8.52834781 L13.0163478,9.30886956 C13.0163478,9.66660869 12.7236522,9.95930434 12.3659131,9.95930434 C10.3658261,9.95930434 8.82104347,10.495913 7.78034781,11.5528696 C7.30878259,12.0244348 6.98356519,12.5610435 6.75591302,13.0651304 C8.2681739,12.1545217 10.1869565,11.991913 11.3577391,11.991913 Z" id="share-1"></path>
    </defs>
    <g id="Switch-Account" stroke="none" stroke-width="1" fill="none" fill-rule="evenodd">
        <g id="09_Switch-Account" transform="translate(-1091.000000, -364.000000)">
            <g id="Popin_info" transform="translate(1073.000000, 65.000000)">
                <g id="Supprimer-Copy" transform="translate(13.000000, 290.000000)">
                    <g id="Icons/forward" transform="translate(0.000000, 3.000000)">
                        <mask id="mask-share-2" fill="white">
                            <use xlink:href="#share-1"></use>
                        </mask>
                        <use id="forward" fill="currentColor" fill-rule="nonzero" xlink:href="#share-1"></use>
                    </g>
                </g>
            </g>
        </g>
    </g>
</svg>
