<?xml version="1.0" encoding="UTF-8"?>
<svg width="17px" height="15px" viewBox="0 0 17 15" version="1.1" xmlns="http://www.w3.org/2000/svg" xmlns:xlink="http://www.w3.org/1999/xlink">
    <!-- Generator: Sketch 52.5 (67469) - http://www.bohemiancoding.com/sketch -->
    <defs>
        <path d="M5.10869561,19.152174 C4.94239126,19.152174 4.77608691,19.1152174 4.62826082,19.0228261 C4.18478256,18.7641305 4.05543473,18.1913044 4.31413039,17.7478261 L6.56847823,13.9782609 C6.73478257,13.7195652 7.01195649,13.5347826 7.32608693,13.5347826 C7.64021736,13.5163044 7.93586954,13.6641304 8.12065215,13.9228261 L9.08152172,15.2532609 L11.1141304,11.7793478 C11.2619565,11.5206522 11.5576087,11.3358696 11.8532609,11.3173913 C12.1673913,11.298913 12.4630435,11.4467391 12.6478261,11.6869565 L14.4217391,14.0706522 L19.0967392,6.30978257 C19.3554348,5.86630431 19.9282609,5.73695648 20.3717392,5.99565214 C20.8152174,6.25434779 20.9445653,6.82717388 20.6858696,7.27065214 L15.3086957,16.1956522 C15.1423913,16.4543478 14.8652174,16.6206522 14.5695652,16.6391305 C14.2554348,16.6576087 13.9597826,16.5097826 13.775,16.2695652 L12.001087,13.9043478 L9.94999998,17.3782609 C9.78369564,17.6554348 9.50652172,17.8217392 9.19239128,17.8402174 C8.87826085,17.8586957 8.58260867,17.7108696 8.39782606,17.4521739 L7.43695649,16.1217392 L5.90326083,18.6902174 C5.73695648,18.9858696 5.42282605,19.152174 5.10869561,19.152174 Z" id="stat-1"></path>
    </defs>
    <g id="Symbols" stroke="none" stroke-width="1" fill="none" fill-rule="evenodd">
        <g id="Icons/graph-line" transform="translate(-4.000000, -5.000000)">
            <mask id="mask-stat-2" fill="white">
                <use xlink:href="#stat-1"></use>
            </mask>
            <use id="graph-line" fill="currentColor" fill-rule="nonzero" xlink:href="#stat-1"></use>
        </g>
    </g>
</svg>
