<?xml version="1.0" encoding="UTF-8"?>
<svg width="17px" height="11px" viewBox="0 0 17 11" version="1.1" xmlns="http://www.w3.org/2000/svg" xmlns:xlink="http://www.w3.org/1999/xlink">
    <!-- Generator: Sketch 52.5 (67469) - http://www.bohemiancoding.com/sketch -->
    <title>tag</title>
    <desc>Created with Sketch.</desc>
    <defs>
        <path d="M20.2608696,7.69565215 L9.35869563,7.69565215 C9.17391302,7.69565215 9.00760868,7.76956519 8.87826085,7.88043476 L4.2586956,11.9456522 C4.09239125,12.0934783 3.99999995,12.2967391 3.99999995,12.5 C3.99999995,12.7217391 4.09239125,12.9065217 4.2586956,13.0543478 L8.87826085,17.1195652 C9.00760868,17.2304348 9.19239128,17.3043479 9.35869563,17.3043479 L20.2608696,17.3043479 C20.6673914,17.3043479 21.0000001,16.9717392 21.0000001,16.5652174 L21.0000001,8.43478258 C21.0000001,8.02826084 20.6673914,7.69565215 20.2608696,7.69565215 Z M19.5217392,15.826087 L9.63586955,15.826087 L5.86630431,12.5 L9.65434781,9.17391302 L19.5217392,9.17391302 L19.5217392,15.826087 Z M9.02608694,11.65 C9.24782607,11.4282609 9.5619565,11.298913 9.87608694,11.298913 C10.1902174,11.298913 10.5043478,11.4282609 10.7260869,11.65 C10.9478261,11.8717391 11.0771739,12.1858696 11.0771739,12.5 C11.0771739,12.8141304 10.9478261,13.1282609 10.7260869,13.35 C10.5043478,13.5717391 10.1902174,13.701087 9.87608694,13.701087 C9.5619565,13.701087 9.24782607,13.5717391 9.02608694,13.35 C8.8043478,13.1282609 8.67499998,12.8141304 8.67499998,12.5 C8.67499998,12.1858696 8.8043478,11.8717391 9.02608694,11.65 Z" id="tag-1"></path>
    </defs>
    <g id="Symbols" stroke="none" stroke-width="1" fill="none" fill-rule="evenodd">
        <g id="Icons/tag" transform="translate(-4.000000, -7.000000)">
            <mask id="tag-2" fill="white">
                <use xlink:href="#tag-1"></use>
            </mask>
            <use id="tag" fill="currentColor" fill-rule="nonzero" xlink:href="#tag-1"></use>
        </g>
    </g>
</svg>