<?xml version="1.0" encoding="UTF-8"?>
<svg width="17px" height="17px" viewBox="0 0 17 17" version="1.1" xmlns="http://www.w3.org/2000/svg" xmlns:xlink="http://www.w3.org/1999/xlink">
    <!-- Generator: Sketch 52.5 (67469) - http://www.bohemiancoding.com/sketch -->
    <title>thumbs-up</title>
    <desc>Created with Sketch.</desc>
    <defs>
        <path d="M15.05,21.0000001 C12.7586957,21.0000001 9.15543476,20.2423913 8.26847824,19.6141305 C8.06521737,19.4663044 7.9543478,19.2445653 7.9543478,19.0043479 L7.9543478,11.7793478 C7.9543478,11.5576087 8.06521737,11.3358696 8.23152171,11.2065217 C8.2869565,11.1695652 9.58043477,10.1532609 10.9293478,9.39565216 C12.6108696,8.47173911 13.775,7.17826084 14.0521739,6.36521736 C14.3847826,5.36739126 14.8652174,3.99999995 16.3804348,3.99999995 C17.101087,3.99999995 17.6923913,4.40652169 18.0065218,5.10869561 C18.6347826,6.54999996 17.9695652,8.54565215 16.8608696,10.1163043 C17.6,10.2826087 18.5239131,10.5228261 19.0782609,10.6891304 C20.0945653,11.0032609 20.7597827,11.7423913 20.9076087,12.6478261 C21.0369566,13.5717391 20.575,14.5141304 19.5956522,15.2347826 C18.875,17.175 17.6369566,20.2423913 16.7315218,20.7413044 C16.3804348,20.926087 15.7706522,21.0000001 15.05,21.0000001 Z M9.43260868,18.5608696 C10.8369565,19.152174 15.1608696,19.7619566 15.9739131,19.4478261 C16.3989131,19.0597826 17.4891305,16.5836957 18.2467392,14.4956522 C18.3021739,14.3478261 18.3945653,14.2184783 18.5239131,14.126087 C19.1336957,13.7195652 19.4478261,13.2391304 19.3923913,12.8326087 C19.3369566,12.5 19.0413044,12.2228261 18.5978261,12.075 C17.6739131,11.7793478 15.3826087,11.2804348 15.3456522,11.2804348 C15.0869565,11.225 14.8836957,11.0402174 14.7913044,10.7815217 C14.6989131,10.5228261 14.7728261,10.2456522 14.9576087,10.0608696 C16.6206522,8.26847824 16.9163044,6.4391304 16.6021739,5.69999996 C16.5282609,5.47826083 16.4358696,5.47826083 16.3804348,5.47826083 C16.0108696,5.47826083 15.8445652,5.73695648 15.4565218,6.84565214 C15.0130435,8.13913041 13.4793478,9.69130433 11.65,10.6891304 C10.7630435,11.1695652 9.87608694,11.8163043 9.43260868,12.148913 L9.43260868,18.5608696 Z M6.51304344,19.0782609 L6.51304344,11.6869565 C6.51304344,11.0217391 5.97717387,10.4858696 5.31195648,10.4858696 C4.64673908,10.4858696 4.09239125,11.0217391 4.09239125,11.6869565 L4.09239125,19.0597826 C4.09239125,19.725 4.62826082,20.2608696 5.29347822,20.2608696 C5.95869561,20.2608696 6.51304344,19.725 6.51304344,19.0782609 Z" id="thumbs-up-1"></path>
    </defs>
    <g id="Symbols" stroke="none" stroke-width="1" fill="none" fill-rule="evenodd">
        <g id="Icons/thumbs-up" transform="translate(-4.000000, -4.000000)">
            <mask id="thumbs-up-2" fill="white">
                <use xlink:href="#thumbs-up-1"></use>
            </mask>
            <use id="thumbs-up" fill="#0053FA" fill-rule="nonzero" xlink:href="#thumbs-up-1"></use>
        </g>
    </g>
</svg>
