<?xml version="1.0" encoding="UTF-8"?>
<svg width="17px" height="15px" viewBox="0 0 17 15" version="1.1" xmlns="http://www.w3.org/2000/svg" xmlns:xlink="http://www.w3.org/1999/xlink">
    <!-- Generator: Sketch 52.5 (67469) - http://www.bohemiancoding.com/sketch -->
    <title>time-reverse</title>
    <desc>Created with Sketch.</desc>
    <defs>
        <path d="M21.0000001,12.5 C21.0000001,16.4728261 17.7847826,19.7065218 13.8304348,19.7065218 C12.3706522,19.7065218 10.9663043,19.2630435 9.76521738,18.45 C9.43260868,18.2097826 9.34021737,17.7663044 9.58043477,17.4152174 C9.82065216,17.0826087 10.2641304,16.9902174 10.6152174,17.2304348 C11.5576087,17.8771739 12.6847826,18.2282609 13.8304348,18.2282609 C16.9717392,18.2282609 19.5217392,15.6597826 19.5217392,12.5 C19.5217392,9.34021737 16.9717392,6.7717391 13.8304348,6.7717391 C10.7630435,6.7717391 8.24999997,9.22934781 8.13913041,12.2967391 L9.85760868,10.5597826 C10.1532609,10.2641304 10.6152174,10.2641304 10.9108696,10.5597826 C11.2065217,10.8554348 11.2065217,11.3173913 10.9108696,11.6130435 L8.08369563,14.4402174 C7.93586954,14.5880435 7.75108693,14.6619565 7.56630432,14.6619565 C7.36304345,14.6619565 7.17826084,14.5880435 7.04891301,14.4402174 L4.22173908,11.5945652 C3.92608691,11.298913 3.92608691,10.8369565 4.22173908,10.5413043 C4.51739126,10.2456522 4.97934778,10.2456522 5.27499996,10.5413043 L6.67934779,11.9641304 C6.93804345,8.24999997 10.0423913,5.29347822 13.8304348,5.29347822 C17.7847826,5.29347822 21.0000001,8.52717389 21.0000001,12.5 Z M13.7934783,8.30543476 C13.3869565,8.30543476 13.0543478,8.63804346 13.0543478,9.0445652 L13.0543478,12.5 C13.0543478,12.7032609 13.1467391,12.8880435 13.2945652,13.0173913 L14.8836957,14.6065218 C15.0315218,14.7543478 15.2163044,14.8282609 15.4195652,14.8282609 C15.6043478,14.8282609 15.8076087,14.7543478 15.9369565,14.6065218 C16.2326087,14.3108696 16.2141305,13.8489131 15.9184783,13.5532609 L14.5326087,12.1858696 L14.5326087,9.0445652 C14.5326087,8.63804346 14.2,8.30543476 13.7934783,8.30543476 Z" id="time-reverse-1"></path>
    </defs>
    <g id="Symbols" stroke="none" stroke-width="1" fill="none" fill-rule="evenodd">
        <g id="Icons/time-reverse" transform="translate(-4.000000, -5.000000)">
            <mask id="mask-2" fill="white">
                <use xlink:href="#time-reverse-1"></use>
            </mask>
            <use id="time-reverse" fill="currentColor" fill-rule="nonzero" xlink:href="#time-reverse-1"></use>
        </g>
    </g>
</svg>
