<?xml version="1.0" encoding="UTF-8"?>
<svg width="17px" height="17px" viewBox="0 0 17 17" version="1.1" xmlns="http://www.w3.org/2000/svg" xmlns:xlink="http://www.w3.org/1999/xlink">
    <!-- Generator: Sketch 52.5 (67469) - http://www.bohemiancoding.com/sketch -->
    <title>trash</title>
    <desc>Created with Sketch.</desc>
    <defs>
        <path d="M18.4869566,9.61739129 L17.9141305,20.2978261 C17.8956522,20.6858696 17.5630435,21 17.175,21 L7.82499997,21 C7.43695649,21 7.10434779,20.6858696 7.08586953,20.2978261 L6.51304344,9.61739129 C6.49456518,9.21086955 6.80869562,8.85978259 7.21521736,8.84130433 C7.6217391,8.82282607 7.97282606,9.1369565 7.99130432,9.54347824 L8.52717389,19.5217392 L16.4913044,19.5217392 L17.0271739,9.54347824 C17.0456522,9.1369565 17.3967392,8.82282607 17.8032609,8.84130433 C18.1913044,8.85978259 18.5054348,9.21086955 18.4869566,9.61739129 Z M20.4456522,7.14130432 C20.4456522,7.54782606 20.1130435,7.88043476 19.7065218,7.88043476 L5.29347822,7.88043476 C4.88695648,7.88043476 4.55434778,7.54782606 4.55434778,7.14130432 C4.55434778,6.73478257 4.88695648,6.40217388 5.29347822,6.40217388 L9.35869563,6.40217388 L9.35869563,4.73913039 C9.35869563,4.38804343 9.59891303,4.18478256 9.94999999,4.18478256 L15.05,4.18478256 C15.401087,4.18478256 15.6413044,4.38804343 15.6413044,4.73913039 L15.6413044,6.40217388 L19.7065218,6.40217388 C20.1130435,6.40217388 20.4456522,6.73478257 20.4456522,7.14130432 Z M10.6521739,6.40217388 L14.3478261,6.40217388 L14.3478261,5.47826083 L10.6521739,5.47826083 L10.6521739,6.40217388 Z M10.9663043,18.4130435 C10.9663043,18.4130435 10.9663043,18.4130435 10.9663043,18.4130435 C11.3358696,18.4130435 11.6130435,18.0619566 11.6130435,17.7108696 L11.4282609,9.72826085 C11.4282609,9.37717389 11.1326087,9.08152172 10.7630435,9.08152172 C10.4119565,9.08152172 10.1163043,9.37717389 10.1347826,9.74673911 L10.3195652,17.7478261 C10.3195652,18.0989131 10.6152174,18.4130435 10.9663043,18.4130435 Z M14.0152174,18.4130435 C14.3663044,18.4130435 14.6619565,18.1173913 14.6619565,17.7663044 L14.8467391,9.78369564 C14.8467391,9.43260868 14.5695652,9.11847824 14.2184783,9.11847824 C13.8489131,9.11847824 13.5717391,9.39565216 13.5532609,9.74673911 L13.3684783,17.7293479 C13.35,18.0989131 13.6456522,18.4130435 14.0152174,18.4130435 C13.9967391,18.4130435 13.9967391,18.4130435 14.0152174,18.4130435 Z" id="trash-1"></path>
    </defs>
    <g id="Symbols" stroke="none" stroke-width="1" fill="none" fill-rule="evenodd">
        <g id="Icons/trash" transform="translate(-4.000000, -4.000000)">
            <mask id="mask-2" fill="white">
                <use xlink:href="#trash-1"></use>
            </mask>
            <use id="trash" fill="currentColor" fill-rule="nonzero" xlink:href="#trash-1"></use>
        </g>
    </g>
</svg>
