<?xml version="1.0" encoding="UTF-8"?>
<svg width="17px" height="13px" viewBox="0 0 17 13" version="1.1" xmlns="http://www.w3.org/2000/svg" xmlns:xlink="http://www.w3.org/1999/xlink">
    <!-- Generator: Sketch 52.5 (67469) - http://www.bohemiancoding.com/sketch -->
    <title>user-group</title>
    <desc>Created with Sketch.</desc>
    <defs>
        <path d="M10.5413043,14.0336957 C12.7032609,14.0336957 14.4586957,12.2782609 14.4586957,10.1347826 C14.4586957,7.97282606 12.7032609,6.23586953 10.5413043,6.23586953 C8.3793478,6.23586953 6.62391301,7.99130432 6.62391301,10.1347826 C6.64239127,12.2782609 8.39782606,14.0336957 10.5413043,14.0336957 Z M10.5413043,7.69565215 C11.8902174,7.69565215 12.9804348,8.78586954 12.9804348,10.1163043 C12.9804348,11.4467391 11.8902174,12.5369565 10.5413043,12.5369565 C9.19239128,12.5369565 8.10217389,11.4467391 8.10217389,10.1163043 C8.12065215,8.78586954 9.21086955,7.69565215 10.5413043,7.69565215 Z M12.3152174,14.3847826 C12.1119565,14.3293478 11.8902174,14.3478261 11.7054348,14.4586957 L10.5413043,15.1608696 L9.37717389,14.4586957 C9.19239128,14.3478261 8.97065215,14.3293478 8.76739128,14.3847826 C7.64021736,14.7543478 3.99999995,16.0663044 3.99999995,18.0434783 C3.99999995,18.45 4.33260865,18.7826087 4.73913039,18.7826087 L16.3434783,18.7826087 C16.75,18.7826087 17.0826087,18.45 17.0826087,18.0434783 C17.0826087,16.0663044 13.4423913,14.7543478 12.3152174,14.3847826 Z M6.06956518,17.3043479 C6.69782605,16.8239131 7.75108693,16.3065218 8.89673911,15.9 L10.1532609,16.6576087 C10.3934782,16.8054348 10.6891304,16.8054348 10.9108696,16.6576087 L12.1673913,15.9 C13.3130435,16.2880435 14.3663044,16.8239131 14.9945652,17.3043479 L6.06956518,17.3043479 Z M20.8152174,16.75 C20.8152174,17.0641305 20.575,17.3043479 20.2608696,17.3043479 L17.7847826,17.3043479 C17.4706522,17.3043479 17.2304348,17.0641305 17.2304348,16.75 C17.2304348,16.4358696 17.4706522,16.1956522 17.7847826,16.1956522 L19.4293479,16.1956522 C19.152174,15.826087 18.7086957,15.5304348 18.1543479,15.2347826 C17.8771739,15.0869565 17.7847826,14.7543478 17.9326087,14.4956522 C18.0804348,14.2184783 18.4130435,14.126087 18.6902174,14.2739131 C19.4847826,14.6989131 20.8152174,15.6043478 20.8152174,16.75 Z M17.7108696,11.8717391 C17.7108696,11.0586956 17.0456522,10.4119565 16.251087,10.4119565 C16.0478261,10.4119565 15.8630435,10.448913 15.6782609,10.5228261 C15.401087,10.6336956 15.0684783,10.5043478 14.9576087,10.2271739 C14.8467391,9.94999998 14.976087,9.61739129 15.2532609,9.50652172 C15.5673913,9.37717389 15.9,9.30326085 16.251087,9.30326085 C17.6739131,9.30326085 18.8195653,10.448913 18.8195653,11.8717391 C18.8195653,13.2945652 17.6554348,14.4402174 16.251087,14.4402174 C15.5119565,14.4402174 14.8097826,14.126087 14.3293478,13.5717391 C14.126087,13.35 14.1445652,12.998913 14.3847826,12.7956522 C14.6065218,12.5923913 14.9576087,12.6108696 15.1608696,12.851087 C15.4380435,13.1652174 15.8445652,13.35 16.2695652,13.35 C17.0456522,13.3315217 17.7108696,12.6663043 17.7108696,11.8717391 Z" id="user-group-1"></path>
    </defs>
    <g id="Symbols" stroke="none" stroke-width="1" fill="none" fill-rule="evenodd">
        <g id="Icons/user-group" transform="translate(-4.000000, -6.000000)">
            <mask id="user-group-2" fill="white">
                <use xlink:href="#user-group-1"></use>
            </mask>
            <use id="user-group" fill="currentColor" fill-rule="nonzero" xlink:href="#user-group-1"></use>
        </g>
    </g>
</svg>