<?xml version="1.0" encoding="UTF-8"?>
<svg width="40px" height="21px" viewBox="0 0 40 21" version="1.1" xmlns="http://www.w3.org/2000/svg" xmlns:xlink="http://www.w3.org/1999/xlink">
    <!-- Generator: Sketch 52.5 (67469) - http://www.bohemiancoding.com/sketch -->
    <title>Group</title>
    <desc>Created with Sketch.</desc>
    <defs>
        <path d="M22.9149131,17.304913 C23.232,17.622 23.4027392,18.0610435 23.4027392,18.5244783 C23.4027392,18.9635218 23.232,19.4025652 22.9149131,19.7196522 C22.5978261,20.0367392 22.1587826,20.2318696 21.6953479,20.2318696 C21.2563044,20.2318696 20.8172609,20.0367392 20.4757826,19.7196522 C20.1586957,19.4025652 19.9879565,18.9635218 19.9879565,18.5244783 C19.9879565,18.0610435 20.183087,17.6463913 20.4757826,17.304913 C20.7928696,16.9878261 21.2319131,16.817087 21.6953479,16.817087 C22.1587826,16.7926957 22.5978261,16.9878261 22.9149131,17.304913 Z M27.476087,13.4998695 L27.476087,24.2808261 C27.476087,25.3784348 26.5980001,26.2565218 25.5003914,26.2565218 L7.84108691,26.2565218 C6.57273907,26.2565218 5.52391298,25.2076957 5.52391298,23.9393479 L5.52391298,15.1584783 L5.52391298,13.1096087 L5.52391298,9.67043474 C5.52391298,8.06060865 6.84104342,6.7434782 8.45086952,6.7434782 L21.9392609,6.7434782 C23.2807826,6.7434782 24.3052174,7.84108691 24.3052174,9.18260865 L24.3052174,10.6460869 L24.7442609,10.6460869 C26.2565218,10.6460869 27.476087,11.9876087 27.476087,13.4998695 Z M7.32886951,9.67043474 C7.32886951,10.2070434 7.76791299,10.6460869 8.30452169,10.6460869 L22.3539131,10.6460869 L22.3539131,9.13382604 C22.3539131,8.889913 22.1587826,8.69478256 21.9148696,8.69478256 L8.30452169,8.69478256 C7.76791299,8.69478256 7.32886951,9.13382604 7.32886951,9.67043474 Z M25.5247827,13.4998695 C25.5247827,13.0852174 25.1833044,12.5973913 24.7442609,12.5973913 L7.86547821,12.5973913 C7.64595647,12.5973913 7.47521734,12.8900869 7.47521734,13.1096087 L7.47521734,15.1584783 L7.47521734,23.9393479 C7.47521734,24.1344783 7.64595647,24.3052174 7.84108691,24.3052174 L25.5003914,24.3052174 C25.5247827,24.3052174 25.5247827,24.2808261 25.5247827,24.2808261 L25.5247827,13.4998695 Z" id="wallet-out-1"></path>
        <path d="M19.3,13.0173913 L14.6989131,17.6369566 C14.551087,17.7847826 14.3663044,17.8586957 14.1815217,17.8586957 C13.9967391,17.8586957 13.8119565,17.7847826 13.6641304,17.6369566 C13.3684783,17.3413044 13.3684783,16.8793479 13.6641304,16.5836957 L17.0086957,13.2391304 L6.21739127,13.2391304 C5.81086953,13.2391304 5.47826083,12.9065217 5.47826083,12.5 C5.47826083,12.0934783 5.81086953,11.7608696 6.21739127,11.7608696 L17.0086957,11.7608696 L13.6456522,8.39782606 C13.35,8.10217389 13.35,7.64021736 13.6456522,7.34456519 C13.9413044,7.04891301 14.4032609,7.04891301 14.6989131,7.34456519 L19.3,11.9641304 C19.5956522,12.2597826 19.5956522,12.7402174 19.3,13.0173913 Z" id="wallet-out-3"></path>
    </defs>
    <g id="Dashboard" stroke="none" stroke-width="1" fill="none" fill-rule="evenodd">
        <g id="01_Dashboard" transform="translate(-697.000000, -319.000000)">
            <g id="CONTENT" transform="translate(230.000000, 110.000000)">
                <g id="STATS" transform="translate(0.000000, 102.000000)">
                    <g id="KeyFigures" transform="translate(0.000000, 72.000000)">
                        <g id="KeyFigures-3" transform="translate(280.000000, 0.000000)">
                            <g id="Icon" transform="translate(176.000000, 13.000000)">
                                <g id="Group" transform="translate(6.000000, 16.000000)">
                                    <g id="Icons/wallet">
                                        <mask id="wallet-out-2" fill="white">
                                            <use xlink:href="#wallet-out-1"></use>
                                        </mask>
                                        <use id="wallet" fill="currentColor" fill-rule="evenodd" xlink:href="#wallet-out-1"></use>
                                    </g>
                                    <g id="Arrows/arrow-thin-right" transform="translate(25.000000, 5.000000)">
                                        <mask id="wallet-out-4" fill="white">
                                            <use xlink:href="#wallet-out-3"></use>
                                        </mask>
                                        <use id="arrow-thin-right" fill="currentColor" fill-rule="evenodd" xlink:href="#wallet-out-3"></use>
                                    </g>
                                </g>
                            </g>
                        </g>
                    </g>
                </g>
            </g>
        </g>
    </g>
</svg>
