<?xml version="1.0" encoding="UTF-8"?>
<svg width="17px" height="15px" viewBox="0 0 17 15" version="1.1" xmlns="http://www.w3.org/2000/svg" xmlns:xlink="http://www.w3.org/1999/xlink">
    <!-- Generator: Sketch 52.5 (67469) - http://www.bohemiancoding.com/sketch -->
    <title>wallet</title>
    <desc>Created with Sketch.</desc>
    <defs>
        <path d="M17.3597826,13.1097826 C17.6,13.35 17.7293479,13.6826087 17.7293479,14.0336957 C17.7293479,14.3663044 17.6,14.6989131 17.3597826,14.9391304 C17.1195652,15.1793478 16.7869565,15.3271739 16.4358696,15.3271739 C16.1032609,15.3271739 15.7706522,15.1793478 15.5119565,14.9391304 C15.2717391,14.6989131 15.1423913,14.3663044 15.1423913,14.0336957 C15.1423913,13.6826087 15.2902174,13.3684783 15.5119565,13.1097826 C15.7521739,12.8695652 16.0847826,12.7402174 16.4358696,12.7402174 C16.7869565,12.7217391 17.1195652,12.8695652 17.3597826,13.1097826 Z M20.8152174,10.2271739 L20.8152174,18.3945653 C20.8152174,19.226087 20.15,19.8913044 19.3184783,19.8913044 L5.94021735,19.8913044 C4.97934778,19.8913044 4.18478256,19.0967392 4.18478256,18.1358696 L4.18478256,11.4836956 L4.18478256,9.93152172 L4.18478256,7.32608693 C4.18478256,6.1065217 5.18260865,5.10869561 6.40217388,5.10869561 L16.6206522,5.10869561 C17.6369566,5.10869561 18.4130435,5.94021735 18.4130435,6.95652171 L18.4130435,8.06521737 L18.7456522,8.06521737 C19.8913044,8.06521737 20.8152174,9.08152172 20.8152174,10.2271739 Z M5.55217387,7.32608693 C5.55217387,7.73260867 5.88478257,8.06521737 6.29130431,8.06521737 L16.9347826,8.06521737 L16.9347826,6.91956518 C16.9347826,6.73478257 16.7869565,6.58695649 16.6021739,6.58695649 L6.29130431,6.58695649 C5.88478257,6.58695649 5.55217387,6.91956518 5.55217387,7.32608693 Z M19.3369566,10.2271739 C19.3369566,9.91304346 19.0782609,9.54347824 18.7456522,9.54347824 L5.95869561,9.54347824 C5.79239126,9.54347824 5.66304344,9.76521738 5.66304344,9.93152172 L5.66304344,11.4836956 L5.66304344,18.1358696 C5.66304344,18.2836957 5.79239126,18.4130435 5.94021735,18.4130435 L19.3184783,18.4130435 C19.3369566,18.4130435 19.3369566,18.3945653 19.3369566,18.3945653 L19.3369566,10.2271739 Z" id="wallet-1"></path>
    </defs>
    <g id="Symbols" stroke="none" stroke-width="1" fill="none" fill-rule="evenodd">
        <g id="Icons/wallet" transform="translate(-4.000000, -5.000000)">
            <mask id="wallet-2" fill="white">
                <use xlink:href="#wallet-1"></use>
            </mask>
            <use id="wallet" fill="currentColor" fill-rule="nonzero" xlink:href="#wallet-1"></use>
        </g>
    </g>
</svg>
